M48
; DRILL file {KiCad (5.1.0)-1} date 19/07/2019 11:38:52
; FORMAT={-:-/ absolute / inch / decimal}
; #@! TF.CreationDate,2019-07-19T11:38:52-03:00
; #@! TF.GenerationSoftware,Kicad,Pcbnew,(5.1.0)-1
; #@! TF.FileFunction,Plated,1,2,PTH
FMAT,2
INCH
T1C0.0236
T2C0.0295
T3C0.0315
T4C0.0394
T5C0.0433
%
G90
G05
T1
X0.915Y-0.93
X0.915Y-1.0087
T2
X0.84Y-1.245
X0.84Y-1.295
X0.84Y-1.345
X3.24Y-2.125
X3.24Y-2.225
X3.29Y-2.175
T3
X2.165Y-1.525
X2.165Y-1.925
X3.09Y-2.425
X3.49Y-2.425
X1.465Y-1.525
X1.465Y-1.925
X2.385Y-2.8416
X2.385Y-2.94
X2.62Y-2.92
X3.02Y-2.92
X2.44Y-1.52
X2.44Y-1.92
X1.615Y-1.525
X1.615Y-1.925
X1.94Y-2.845
X2.1321Y-2.845
X1.235Y-2.275
X1.235Y-2.575
X1.335Y-2.275
X1.335Y-2.575
X1.435Y-2.275
X1.435Y-2.575
X1.535Y-2.275
X1.535Y-2.575
X1.635Y-2.275
X1.635Y-2.575
X1.735Y-2.275
X1.735Y-2.575
X1.835Y-2.275
X1.835Y-2.575
X1.935Y-2.275
X1.935Y-2.575
X2.035Y-2.275
X2.035Y-2.575
X2.135Y-2.275
X2.135Y-2.575
X2.235Y-2.275
X2.235Y-2.575
X2.335Y-2.275
X2.335Y-2.575
X2.435Y-2.275
X2.435Y-2.575
X2.535Y-2.275
X2.535Y-2.575
X1.705Y-2.8466
X1.705Y-2.945
X1.13Y-1.52
X1.13Y-1.92
X1.915Y-1.525
X1.915Y-1.925
X3.09Y-2.6
X3.49Y-2.6
X2.785Y-2.175
X2.785Y-2.575
X0.84Y-1.52
X0.84Y-1.92
X1.765Y-1.525
X1.765Y-1.925
X2.62Y-2.73
X3.02Y-2.73
X1.8366Y-2.125
X1.935Y-2.125
X1.105Y-2.58
X1.105Y-2.6784
X1.025Y-1.2466
X1.025Y-1.345
X1.315Y-1.525
X1.315Y-1.925
T4
X1.035Y-2.845
X1.135Y-2.845
X1.235Y-2.845
X1.335Y-2.845
X1.435Y-2.845
X1.535Y-2.845
X0.675Y-0.93
X0.675Y-1.03
X3.75Y-2.425
X3.75Y-2.525
X1.97Y-0.74
X1.97Y-1.34
X2.07Y-0.74
X2.07Y-1.34
X2.17Y-0.74
X2.17Y-1.34
X2.27Y-0.74
X2.27Y-1.34
X2.37Y-0.74
X2.37Y-1.34
X2.47Y-0.74
X2.47Y-1.34
X3.085Y-1.6258
X3.085Y-1.925
T5
X3.575Y-0.9491
X3.575Y-1.205
X3.7522Y-0.9491
X3.7522Y-1.205
X3.575Y-1.3991
X3.575Y-1.655
X3.7522Y-1.3991
X3.7522Y-1.655
X3.575Y-1.8491
X3.575Y-2.105
X3.7522Y-1.8491
X3.7522Y-2.105
T0
M30
