G04 #@! TF.GenerationSoftware,KiCad,Pcbnew,(5.1.0)-1*
G04 #@! TF.CreationDate,2019-07-19T11:38:46-03:00*
G04 #@! TF.ProjectId,Capacimetro_v2,43617061-6369-46d6-9574-726f5f76322e,rev?*
G04 #@! TF.SameCoordinates,Original*
G04 #@! TF.FileFunction,Copper,L2,Bot*
G04 #@! TF.FilePolarity,Positive*
%FSLAX46Y46*%
G04 Gerber Fmt 4.6, Leading zero omitted, Abs format (unit mm)*
G04 Created by KiCad (PCBNEW (5.1.0)-1) date 2019-07-19 11:38:46*
%MOMM*%
%LPD*%
G04 APERTURE LIST*
%ADD10O,1.500000X1.050000*%
%ADD11R,1.500000X1.050000*%
%ADD12C,1.600000*%
%ADD13O,1.600000X1.600000*%
%ADD14C,2.000000*%
%ADD15R,1.500000X1.500000*%
%ADD16C,1.500000*%
%ADD17R,1.600000X1.600000*%
%ADD18O,1.700000X1.700000*%
%ADD19R,1.700000X1.700000*%
%ADD20R,2.000000X2.000000*%
%ADD21C,1.200000*%
%ADD22C,1.300000*%
%ADD23R,1.300000X1.300000*%
%ADD24C,0.500000*%
%ADD25C,0.300000*%
%ADD26C,0.254000*%
G04 APERTURE END LIST*
D10*
X21336000Y-32893000D03*
X21336000Y-31623000D03*
D11*
X21336000Y-34163000D03*
D12*
X21336000Y-38608000D03*
D13*
X21336000Y-48768000D03*
D12*
X78486000Y-61595000D03*
D13*
X88646000Y-61595000D03*
D14*
X95305000Y-53467000D03*
X90805000Y-53467000D03*
X95305000Y-46967000D03*
X90805000Y-46967000D03*
D15*
X50038000Y-34036000D03*
D16*
X52578000Y-34036000D03*
X55118000Y-34036000D03*
X57658000Y-34036000D03*
X60198000Y-34036000D03*
X62738000Y-34036000D03*
X62738000Y-18796000D03*
X60198000Y-18796000D03*
X57658000Y-18796000D03*
X55118000Y-18796000D03*
X52578000Y-18796000D03*
X50038000Y-18796000D03*
D17*
X31369000Y-65405000D03*
D13*
X64389000Y-57785000D03*
X33909000Y-65405000D03*
X61849000Y-57785000D03*
X36449000Y-65405000D03*
X59309000Y-57785000D03*
X38989000Y-65405000D03*
X56769000Y-57785000D03*
X41529000Y-65405000D03*
X54229000Y-57785000D03*
X44069000Y-65405000D03*
X51689000Y-57785000D03*
X46609000Y-65405000D03*
X49149000Y-57785000D03*
X49149000Y-65405000D03*
X46609000Y-57785000D03*
X51689000Y-65405000D03*
X44069000Y-57785000D03*
X54229000Y-65405000D03*
X41529000Y-57785000D03*
X56769000Y-65405000D03*
X38989000Y-57785000D03*
X59309000Y-65405000D03*
X36449000Y-57785000D03*
X61849000Y-65405000D03*
X33909000Y-57785000D03*
X64389000Y-65405000D03*
X31369000Y-57785000D03*
D18*
X17145000Y-26162000D03*
D19*
X17145000Y-23622000D03*
D20*
X78359000Y-48895000D03*
D14*
X78359000Y-41295000D03*
D12*
X46649000Y-53975000D03*
X49149000Y-53975000D03*
D21*
X23241000Y-23622000D03*
X23241000Y-25622000D03*
D12*
X26035000Y-34163000D03*
X26035000Y-31663000D03*
X43307000Y-72303000D03*
X43307000Y-74803000D03*
X60579000Y-74676000D03*
X60579000Y-72176000D03*
X28067000Y-68032000D03*
X28067000Y-65532000D03*
D19*
X26289000Y-72263000D03*
D18*
X28829000Y-72263000D03*
X31369000Y-72263000D03*
X33909000Y-72263000D03*
X36449000Y-72263000D03*
X38989000Y-72263000D03*
D19*
X95250000Y-61595000D03*
D18*
X95250000Y-64135000D03*
D22*
X83566000Y-55245000D03*
X82296000Y-56515000D03*
D23*
X82296000Y-53975000D03*
D13*
X66548000Y-69342000D03*
D12*
X76708000Y-69342000D03*
X70739000Y-55245000D03*
D13*
X70739000Y-65405000D03*
X66548000Y-74168000D03*
D12*
X76708000Y-74168000D03*
X78486000Y-66040000D03*
D13*
X88646000Y-66040000D03*
D12*
X33401000Y-38735000D03*
D13*
X33401000Y-48895000D03*
D12*
X41021000Y-38735000D03*
D13*
X41021000Y-48895000D03*
X48641000Y-48895000D03*
D12*
X48641000Y-38735000D03*
D13*
X54991000Y-38735000D03*
D12*
X54991000Y-48895000D03*
D13*
X28702000Y-48768000D03*
D12*
X28702000Y-38608000D03*
D13*
X37211000Y-48895000D03*
D12*
X37211000Y-38735000D03*
D13*
X44831000Y-48895000D03*
D12*
X44831000Y-38735000D03*
X61976000Y-38608000D03*
D13*
X61976000Y-48768000D03*
D14*
X90805000Y-35537000D03*
X95305000Y-35537000D03*
X90805000Y-42037000D03*
X95305000Y-42037000D03*
X95305000Y-30607000D03*
X90805000Y-30607000D03*
X95305000Y-24107000D03*
X90805000Y-24107000D03*
D16*
X49276000Y-72263000D03*
X54156000Y-72263000D03*
D24*
X51689000Y-60325000D02*
X46609000Y-65405000D01*
X51689000Y-57785000D02*
X51689000Y-60325000D01*
X25146000Y-69850000D02*
X18288000Y-62357000D01*
X31369000Y-72263000D02*
X30099000Y-69850000D01*
X30099000Y-69850000D02*
X25146000Y-69850000D01*
X18288000Y-40524630D02*
X18288000Y-62357000D01*
X20204630Y-38608000D02*
X18288000Y-40524630D01*
X21336000Y-38608000D02*
X20204630Y-38608000D01*
X21336000Y-38608000D02*
X21336000Y-34163000D01*
X21336000Y-34163000D02*
X26035000Y-34163000D01*
X95305000Y-25521213D02*
X95305000Y-30607000D01*
X95305000Y-24107000D02*
X95305000Y-25521213D01*
X95305000Y-30607000D02*
X95305000Y-35537000D01*
X95305000Y-36951213D02*
X95305000Y-42037000D01*
X95305000Y-35537000D02*
X95305000Y-36951213D01*
X95305000Y-42037000D02*
X95305000Y-46967000D01*
X95305000Y-46967000D02*
X95305000Y-53467000D01*
X95305000Y-61540000D02*
X95250000Y-61595000D01*
X95305000Y-53467000D02*
X95305000Y-61540000D01*
X93900000Y-61595000D02*
X88646000Y-61595000D01*
X95250000Y-61595000D02*
X93900000Y-61595000D01*
X60452000Y-74803000D02*
X60579000Y-74930000D01*
X51816000Y-69203370D02*
X51816000Y-74803000D01*
X49149000Y-66536370D02*
X51816000Y-69203370D01*
X49149000Y-65405000D02*
X49149000Y-66536370D01*
X43180000Y-74803000D02*
X51816000Y-74803000D01*
X51816000Y-74803000D02*
X60452000Y-74803000D01*
X26289000Y-73613000D02*
X26289000Y-72263000D01*
X27479000Y-74803000D02*
X26289000Y-73613000D01*
X43307000Y-74803000D02*
X27479000Y-74803000D01*
X87376000Y-61595000D02*
X82296000Y-56515000D01*
X88646000Y-61595000D02*
X87376000Y-61595000D01*
X94305001Y-23107001D02*
X95305000Y-24107000D01*
X88011000Y-15240000D02*
X94305001Y-23107001D01*
X97790000Y-62865000D02*
X95250000Y-61595000D01*
X97790000Y-67818000D02*
X97790000Y-62865000D01*
X88519000Y-76200000D02*
X97790000Y-67818000D01*
X60579000Y-74676000D02*
X61468000Y-76200000D01*
X61468000Y-76200000D02*
X88519000Y-76200000D01*
X24805000Y-32893000D02*
X21336000Y-32893000D01*
X26035000Y-31663000D02*
X24805000Y-32893000D01*
X26035000Y-28416000D02*
X26035000Y-31663000D01*
X23241000Y-25622000D02*
X26035000Y-28416000D01*
X22701000Y-26162000D02*
X23241000Y-25622000D01*
X17145000Y-26162000D02*
X22701000Y-26162000D01*
X30385000Y-28416000D02*
X43561000Y-15240000D01*
X26035000Y-28416000D02*
X30385000Y-28416000D01*
X43561000Y-15240000D02*
X88011000Y-15240000D01*
X49149000Y-53975000D02*
X49149000Y-57785000D01*
X17145000Y-23622000D02*
X23241000Y-23622000D01*
X14478000Y-24257000D02*
X17145000Y-23622000D01*
X14478000Y-27686000D02*
X14478000Y-24257000D01*
X21336000Y-31623000D02*
X20086000Y-31623000D01*
X20086000Y-31623000D02*
X14478000Y-27686000D01*
X31242000Y-65532000D02*
X31369000Y-65405000D01*
X28067000Y-65532000D02*
X31242000Y-65532000D01*
X28067000Y-64135000D02*
X28067000Y-65532000D01*
X21336000Y-48768000D02*
X21336000Y-57404000D01*
X21336000Y-57404000D02*
X28067000Y-64135000D01*
X33909000Y-65405000D02*
X33909000Y-72263000D01*
X36449000Y-65405000D02*
X36449000Y-72263000D01*
X80518000Y-74168000D02*
X88646000Y-66040000D01*
X76708000Y-74168000D02*
X80518000Y-74168000D01*
X90551000Y-64135000D02*
X95250000Y-64135000D01*
X88646000Y-66040000D02*
X90551000Y-64135000D01*
X70739000Y-55245000D02*
X83566000Y-55245000D01*
X65786000Y-69342000D02*
X66548000Y-69342000D01*
X61849000Y-65405000D02*
X65786000Y-69342000D01*
X77686001Y-62394999D02*
X78486000Y-61595000D01*
X71538999Y-68542001D02*
X77686001Y-62394999D01*
X67347999Y-68542001D02*
X71538999Y-68542001D01*
X66548000Y-69342000D02*
X67347999Y-68542001D01*
X65520370Y-65405000D02*
X70739000Y-65405000D01*
X64389000Y-65405000D02*
X65520370Y-65405000D01*
X65748001Y-73368001D02*
X66548000Y-74168000D01*
X59309000Y-66929000D02*
X65748001Y-73368001D01*
X59309000Y-65405000D02*
X59309000Y-66929000D01*
X61988001Y-19545999D02*
X62738000Y-18796000D01*
X33401000Y-38481000D02*
X33696991Y-38185009D01*
X33401000Y-38735000D02*
X33401000Y-38481000D01*
X33696991Y-38185009D02*
X35687000Y-36449000D01*
X35687000Y-36449000D02*
X54483000Y-21209000D01*
X54483000Y-21209000D02*
X60071000Y-21209000D01*
X60071000Y-21209000D02*
X61988001Y-19545999D01*
X33401000Y-57277000D02*
X33909000Y-57785000D01*
X33401000Y-48895000D02*
X33401000Y-57277000D01*
X41820999Y-39534999D02*
X41021000Y-38735000D01*
X43180000Y-40513000D02*
X41820999Y-39534999D01*
X43815000Y-40640000D02*
X43180000Y-40513000D01*
X50419000Y-40640000D02*
X43815000Y-40640000D01*
X52578000Y-34036000D02*
X50419000Y-37211000D01*
X50419000Y-37211000D02*
X50419000Y-40640000D01*
X38989000Y-50927000D02*
X38989000Y-57785000D01*
X41021000Y-48895000D02*
X38989000Y-50927000D01*
X44069000Y-53467000D02*
X44069000Y-57785000D01*
X48641000Y-48895000D02*
X44069000Y-53467000D01*
X54191001Y-48095001D02*
X54991000Y-48895000D01*
X51816000Y-45720000D02*
X54191001Y-48095001D01*
X51816000Y-37338000D02*
X51816000Y-45720000D01*
X55118000Y-34036000D02*
X51816000Y-37338000D01*
X28702000Y-55118000D02*
X31369000Y-57785000D01*
X28702000Y-48768000D02*
X28702000Y-55118000D01*
X51828001Y-19545999D02*
X52578000Y-18796000D01*
X33528000Y-35687000D02*
X51828001Y-19545999D01*
X28702000Y-38608000D02*
X29825001Y-37484999D01*
X29825001Y-37484999D02*
X33528000Y-35687000D01*
X37211000Y-57023000D02*
X36449000Y-57785000D01*
X37211000Y-48895000D02*
X37211000Y-57023000D01*
X56908001Y-33286001D02*
X57658000Y-34036000D01*
X55753000Y-31877000D02*
X56908001Y-33286001D01*
X45212000Y-31877000D02*
X55753000Y-31877000D01*
X37211000Y-38735000D02*
X38862000Y-37592000D01*
X38862000Y-37592000D02*
X45212000Y-31877000D01*
X41529000Y-52197000D02*
X41529000Y-57785000D01*
X44831000Y-48895000D02*
X41529000Y-52197000D01*
X48788000Y-34036000D02*
X50038000Y-34036000D01*
X48398630Y-34036000D02*
X48788000Y-34036000D01*
X44831000Y-37603630D02*
X48398630Y-34036000D01*
X44831000Y-38735000D02*
X44831000Y-37603630D01*
X90805000Y-48381213D02*
X90805000Y-53467000D01*
X90805000Y-46967000D02*
X90805000Y-48381213D01*
X89805001Y-52467001D02*
X90805000Y-53467000D01*
X69723000Y-52451000D02*
X89805001Y-52467001D01*
X65786000Y-60325000D02*
X69723000Y-52451000D01*
X59309000Y-57785000D02*
X60198000Y-60325000D01*
X60198000Y-60325000D02*
X65786000Y-60325000D01*
X90805000Y-36951213D02*
X90805000Y-42037000D01*
X90805000Y-35537000D02*
X90805000Y-36951213D01*
X77216000Y-38989000D02*
X56769000Y-57785000D01*
X90805000Y-35537000D02*
X77216000Y-38989000D01*
X90805000Y-24107000D02*
X90805000Y-30607000D01*
X55028999Y-56985001D02*
X54229000Y-57785000D01*
X62865000Y-50419000D02*
X55028999Y-56985001D01*
X90805000Y-30607000D02*
X82096998Y-30607000D01*
X82096998Y-30607000D02*
X62865000Y-50419000D01*
X60198000Y-16510000D02*
X47879000Y-16510000D01*
X60198000Y-18796000D02*
X60198000Y-16510000D01*
X47879000Y-16510000D02*
X26289000Y-37973000D01*
X26289000Y-37973000D02*
X26289000Y-57150000D01*
X26289000Y-57150000D02*
X30099000Y-60452000D01*
X38989000Y-65405000D02*
X34417000Y-60833000D01*
X30480000Y-60833000D02*
X30099000Y-60452000D01*
X34417000Y-60833000D02*
X30480000Y-60833000D01*
X42779001Y-64154999D02*
X42328999Y-64605001D01*
X62738000Y-35096660D02*
X64135000Y-35814000D01*
X62738000Y-34036000D02*
X62738000Y-35096660D01*
X44958000Y-62992000D02*
X42779001Y-64154999D01*
X64135000Y-35814000D02*
X64135000Y-43942000D01*
X42328999Y-64605001D02*
X41529000Y-65405000D01*
X64135000Y-43942000D02*
X50419000Y-55880000D01*
D25*
X50419000Y-55880000D02*
X50419000Y-59690000D01*
D24*
X50419000Y-59690000D02*
X44958000Y-62992000D01*
D26*
G36*
X98375001Y-78055000D02*
G01*
X13385000Y-78055000D01*
X13385000Y-74963872D01*
X14783000Y-74963872D01*
X14783000Y-75404128D01*
X14868890Y-75835925D01*
X15037369Y-76242669D01*
X15281962Y-76608729D01*
X15593271Y-76920038D01*
X15959331Y-77164631D01*
X16366075Y-77333110D01*
X16797872Y-77419000D01*
X17238128Y-77419000D01*
X17669925Y-77333110D01*
X18076669Y-77164631D01*
X18442729Y-76920038D01*
X18754038Y-76608729D01*
X18998631Y-76242669D01*
X19167110Y-75835925D01*
X19175110Y-75795702D01*
X42493903Y-75795702D01*
X42565486Y-76039671D01*
X42820996Y-76160571D01*
X43095184Y-76229300D01*
X43377512Y-76243217D01*
X43657130Y-76201787D01*
X43923292Y-76106603D01*
X44048514Y-76039671D01*
X44120097Y-75795702D01*
X43993097Y-75668702D01*
X59765903Y-75668702D01*
X59837486Y-75912671D01*
X60092996Y-76033571D01*
X60367184Y-76102300D01*
X60649512Y-76116217D01*
X60929130Y-76074787D01*
X61195292Y-75979603D01*
X61320514Y-75912671D01*
X61392097Y-75668702D01*
X60579000Y-74855605D01*
X59765903Y-75668702D01*
X43993097Y-75668702D01*
X43307000Y-74982605D01*
X42493903Y-75795702D01*
X19175110Y-75795702D01*
X19253000Y-75404128D01*
X19253000Y-74963872D01*
X19235027Y-74873512D01*
X41866783Y-74873512D01*
X41908213Y-75153130D01*
X42003397Y-75419292D01*
X42070329Y-75544514D01*
X42314298Y-75616097D01*
X43127395Y-74803000D01*
X43486605Y-74803000D01*
X44299702Y-75616097D01*
X44543671Y-75544514D01*
X44664571Y-75289004D01*
X44733300Y-75014816D01*
X44746525Y-74746512D01*
X59138783Y-74746512D01*
X59180213Y-75026130D01*
X59275397Y-75292292D01*
X59342329Y-75417514D01*
X59586298Y-75489097D01*
X60399395Y-74676000D01*
X60758605Y-74676000D01*
X61571702Y-75489097D01*
X61815671Y-75417514D01*
X61936571Y-75162004D01*
X62005300Y-74887816D01*
X62019217Y-74605488D01*
X61977787Y-74325870D01*
X61882603Y-74059708D01*
X61815671Y-73934486D01*
X61571702Y-73862903D01*
X60758605Y-74676000D01*
X60399395Y-74676000D01*
X59586298Y-73862903D01*
X59342329Y-73934486D01*
X59221429Y-74189996D01*
X59152700Y-74464184D01*
X59138783Y-74746512D01*
X44746525Y-74746512D01*
X44747217Y-74732488D01*
X44705787Y-74452870D01*
X44610603Y-74186708D01*
X44543671Y-74061486D01*
X44299702Y-73989903D01*
X43486605Y-74803000D01*
X43127395Y-74803000D01*
X42314298Y-73989903D01*
X42070329Y-74061486D01*
X41949429Y-74316996D01*
X41880700Y-74591184D01*
X41866783Y-74873512D01*
X19235027Y-74873512D01*
X19167110Y-74532075D01*
X18998631Y-74125331D01*
X18754038Y-73759271D01*
X18442729Y-73447962D01*
X18076669Y-73203369D01*
X17858500Y-73113000D01*
X24800928Y-73113000D01*
X24813188Y-73237482D01*
X24849498Y-73357180D01*
X24908463Y-73467494D01*
X24987815Y-73564185D01*
X25084506Y-73643537D01*
X25194820Y-73702502D01*
X25314518Y-73738812D01*
X25439000Y-73751072D01*
X26003250Y-73748000D01*
X26162000Y-73589250D01*
X26162000Y-72390000D01*
X24962750Y-72390000D01*
X24804000Y-72548750D01*
X24800928Y-73113000D01*
X17858500Y-73113000D01*
X17669925Y-73034890D01*
X17238128Y-72949000D01*
X16797872Y-72949000D01*
X16366075Y-73034890D01*
X15959331Y-73203369D01*
X15593271Y-73447962D01*
X15281962Y-73759271D01*
X15037369Y-74125331D01*
X14868890Y-74532075D01*
X14783000Y-74963872D01*
X13385000Y-74963872D01*
X13385000Y-71413000D01*
X24800928Y-71413000D01*
X24804000Y-71977250D01*
X24962750Y-72136000D01*
X26162000Y-72136000D01*
X26162000Y-70936750D01*
X26003250Y-70778000D01*
X25439000Y-70774928D01*
X25314518Y-70787188D01*
X25194820Y-70823498D01*
X25084506Y-70882463D01*
X24987815Y-70961815D01*
X24908463Y-71058506D01*
X24849498Y-71168820D01*
X24813188Y-71288518D01*
X24800928Y-71413000D01*
X13385000Y-71413000D01*
X13385000Y-40524630D01*
X17398719Y-40524630D01*
X17403000Y-40568099D01*
X17403001Y-62293883D01*
X17399588Y-62317690D01*
X17403001Y-62380887D01*
X17403001Y-62400477D01*
X17405343Y-62424259D01*
X17408989Y-62491765D01*
X17413874Y-62510870D01*
X17415806Y-62530490D01*
X17435426Y-62595167D01*
X17452171Y-62660662D01*
X17460689Y-62678448D01*
X17466412Y-62697313D01*
X17498273Y-62756922D01*
X17527473Y-62817890D01*
X17539295Y-62833669D01*
X17548590Y-62851059D01*
X17591466Y-62903304D01*
X17605806Y-62922443D01*
X17619044Y-62936907D01*
X17659184Y-62985817D01*
X17677770Y-63001070D01*
X24477036Y-70429898D01*
X24517183Y-70478817D01*
X24569432Y-70521697D01*
X24619738Y-70566848D01*
X24636698Y-70576902D01*
X24651941Y-70589411D01*
X24711565Y-70621280D01*
X24769700Y-70655741D01*
X24788294Y-70662292D01*
X24805687Y-70671589D01*
X24870377Y-70691213D01*
X24934124Y-70713673D01*
X24953640Y-70716471D01*
X24972510Y-70722195D01*
X25039806Y-70728823D01*
X25106689Y-70738411D01*
X25169856Y-70735000D01*
X29564698Y-70735000D01*
X29759923Y-71105929D01*
X29658014Y-71022294D01*
X29400034Y-70884401D01*
X29120111Y-70799487D01*
X28901950Y-70778000D01*
X28756050Y-70778000D01*
X28537889Y-70799487D01*
X28257966Y-70884401D01*
X27999986Y-71022294D01*
X27773866Y-71207866D01*
X27749393Y-71237687D01*
X27728502Y-71168820D01*
X27669537Y-71058506D01*
X27590185Y-70961815D01*
X27493494Y-70882463D01*
X27383180Y-70823498D01*
X27263482Y-70787188D01*
X27139000Y-70774928D01*
X26574750Y-70778000D01*
X26416000Y-70936750D01*
X26416000Y-72136000D01*
X26436000Y-72136000D01*
X26436000Y-72390000D01*
X26416000Y-72390000D01*
X26416000Y-73589250D01*
X26574750Y-73748000D01*
X27139000Y-73751072D01*
X27263482Y-73738812D01*
X27383180Y-73702502D01*
X27493494Y-73643537D01*
X27590185Y-73564185D01*
X27669537Y-73467494D01*
X27728502Y-73357180D01*
X27749393Y-73288313D01*
X27773866Y-73318134D01*
X27999986Y-73503706D01*
X28257966Y-73641599D01*
X28537889Y-73726513D01*
X28756050Y-73748000D01*
X28901950Y-73748000D01*
X29120111Y-73726513D01*
X29400034Y-73641599D01*
X29658014Y-73503706D01*
X29884134Y-73318134D01*
X30069706Y-73092014D01*
X30099000Y-73037209D01*
X30128294Y-73092014D01*
X30313866Y-73318134D01*
X30539986Y-73503706D01*
X30797966Y-73641599D01*
X31077889Y-73726513D01*
X31296050Y-73748000D01*
X31441950Y-73748000D01*
X31660111Y-73726513D01*
X31940034Y-73641599D01*
X32198014Y-73503706D01*
X32424134Y-73318134D01*
X32609706Y-73092014D01*
X32639000Y-73037209D01*
X32668294Y-73092014D01*
X32853866Y-73318134D01*
X33079986Y-73503706D01*
X33337966Y-73641599D01*
X33617889Y-73726513D01*
X33836050Y-73748000D01*
X33981950Y-73748000D01*
X34200111Y-73726513D01*
X34480034Y-73641599D01*
X34738014Y-73503706D01*
X34964134Y-73318134D01*
X35149706Y-73092014D01*
X35179000Y-73037209D01*
X35208294Y-73092014D01*
X35393866Y-73318134D01*
X35619986Y-73503706D01*
X35877966Y-73641599D01*
X36157889Y-73726513D01*
X36376050Y-73748000D01*
X36521950Y-73748000D01*
X36740111Y-73726513D01*
X37020034Y-73641599D01*
X37278014Y-73503706D01*
X37504134Y-73318134D01*
X37689706Y-73092014D01*
X37719000Y-73037209D01*
X37748294Y-73092014D01*
X37933866Y-73318134D01*
X38159986Y-73503706D01*
X38417966Y-73641599D01*
X38697889Y-73726513D01*
X38916050Y-73748000D01*
X39061950Y-73748000D01*
X39280111Y-73726513D01*
X39560034Y-73641599D01*
X39818014Y-73503706D01*
X40044134Y-73318134D01*
X40229706Y-73092014D01*
X40367599Y-72834034D01*
X40452513Y-72554111D01*
X40481185Y-72263000D01*
X40471205Y-72161665D01*
X41872000Y-72161665D01*
X41872000Y-72444335D01*
X41927147Y-72721574D01*
X42035320Y-72982727D01*
X42192363Y-73217759D01*
X42392241Y-73417637D01*
X42592869Y-73551692D01*
X42565486Y-73566329D01*
X42493903Y-73810298D01*
X43307000Y-74623395D01*
X44120097Y-73810298D01*
X44048514Y-73566329D01*
X44019659Y-73552676D01*
X44221759Y-73417637D01*
X44421637Y-73217759D01*
X44578680Y-72982727D01*
X44686853Y-72721574D01*
X44742000Y-72444335D01*
X44742000Y-72161665D01*
X44735023Y-72126589D01*
X47891000Y-72126589D01*
X47891000Y-72399411D01*
X47944225Y-72666989D01*
X48048629Y-72919043D01*
X48200201Y-73145886D01*
X48393114Y-73338799D01*
X48619957Y-73490371D01*
X48872011Y-73594775D01*
X49139589Y-73648000D01*
X49412411Y-73648000D01*
X49679989Y-73594775D01*
X49932043Y-73490371D01*
X50158886Y-73338799D01*
X50351799Y-73145886D01*
X50503371Y-72919043D01*
X50607775Y-72666989D01*
X50661000Y-72399411D01*
X50661000Y-72126589D01*
X52771000Y-72126589D01*
X52771000Y-72399411D01*
X52824225Y-72666989D01*
X52928629Y-72919043D01*
X53080201Y-73145886D01*
X53273114Y-73338799D01*
X53499957Y-73490371D01*
X53752011Y-73594775D01*
X54019589Y-73648000D01*
X54292411Y-73648000D01*
X54559989Y-73594775D01*
X54812043Y-73490371D01*
X55038886Y-73338799D01*
X55231799Y-73145886D01*
X55383371Y-72919043D01*
X55487775Y-72666989D01*
X55541000Y-72399411D01*
X55541000Y-72126589D01*
X55522716Y-72034665D01*
X59144000Y-72034665D01*
X59144000Y-72317335D01*
X59199147Y-72594574D01*
X59307320Y-72855727D01*
X59464363Y-73090759D01*
X59664241Y-73290637D01*
X59864869Y-73424692D01*
X59837486Y-73439329D01*
X59765903Y-73683298D01*
X60579000Y-74496395D01*
X61392097Y-73683298D01*
X61320514Y-73439329D01*
X61291659Y-73425676D01*
X61493759Y-73290637D01*
X61693637Y-73090759D01*
X61850680Y-72855727D01*
X61958853Y-72594574D01*
X62014000Y-72317335D01*
X62014000Y-72034665D01*
X61958853Y-71757426D01*
X61850680Y-71496273D01*
X61693637Y-71261241D01*
X61493759Y-71061363D01*
X61258727Y-70904320D01*
X60997574Y-70796147D01*
X60720335Y-70741000D01*
X60437665Y-70741000D01*
X60160426Y-70796147D01*
X59899273Y-70904320D01*
X59664241Y-71061363D01*
X59464363Y-71261241D01*
X59307320Y-71496273D01*
X59199147Y-71757426D01*
X59144000Y-72034665D01*
X55522716Y-72034665D01*
X55487775Y-71859011D01*
X55383371Y-71606957D01*
X55231799Y-71380114D01*
X55038886Y-71187201D01*
X54812043Y-71035629D01*
X54559989Y-70931225D01*
X54292411Y-70878000D01*
X54019589Y-70878000D01*
X53752011Y-70931225D01*
X53499957Y-71035629D01*
X53273114Y-71187201D01*
X53080201Y-71380114D01*
X52928629Y-71606957D01*
X52824225Y-71859011D01*
X52771000Y-72126589D01*
X50661000Y-72126589D01*
X50607775Y-71859011D01*
X50503371Y-71606957D01*
X50351799Y-71380114D01*
X50158886Y-71187201D01*
X49932043Y-71035629D01*
X49679989Y-70931225D01*
X49412411Y-70878000D01*
X49139589Y-70878000D01*
X48872011Y-70931225D01*
X48619957Y-71035629D01*
X48393114Y-71187201D01*
X48200201Y-71380114D01*
X48048629Y-71606957D01*
X47944225Y-71859011D01*
X47891000Y-72126589D01*
X44735023Y-72126589D01*
X44686853Y-71884426D01*
X44578680Y-71623273D01*
X44421637Y-71388241D01*
X44221759Y-71188363D01*
X43986727Y-71031320D01*
X43725574Y-70923147D01*
X43448335Y-70868000D01*
X43165665Y-70868000D01*
X42888426Y-70923147D01*
X42627273Y-71031320D01*
X42392241Y-71188363D01*
X42192363Y-71388241D01*
X42035320Y-71623273D01*
X41927147Y-71884426D01*
X41872000Y-72161665D01*
X40471205Y-72161665D01*
X40452513Y-71971889D01*
X40367599Y-71691966D01*
X40229706Y-71433986D01*
X40044134Y-71207866D01*
X39818014Y-71022294D01*
X39560034Y-70884401D01*
X39280111Y-70799487D01*
X39061950Y-70778000D01*
X38916050Y-70778000D01*
X38697889Y-70799487D01*
X38417966Y-70884401D01*
X38159986Y-71022294D01*
X37933866Y-71207866D01*
X37748294Y-71433986D01*
X37719000Y-71488791D01*
X37689706Y-71433986D01*
X37504134Y-71207866D01*
X37334000Y-71068241D01*
X37334000Y-66535078D01*
X37468608Y-66424608D01*
X37647932Y-66206101D01*
X37719000Y-66073142D01*
X37790068Y-66206101D01*
X37969392Y-66424608D01*
X38187899Y-66603932D01*
X38437192Y-66737182D01*
X38707691Y-66819236D01*
X38918508Y-66840000D01*
X39059492Y-66840000D01*
X39270309Y-66819236D01*
X39540808Y-66737182D01*
X39790101Y-66603932D01*
X40008608Y-66424608D01*
X40187932Y-66206101D01*
X40259000Y-66073142D01*
X40330068Y-66206101D01*
X40509392Y-66424608D01*
X40727899Y-66603932D01*
X40977192Y-66737182D01*
X41247691Y-66819236D01*
X41458508Y-66840000D01*
X41599492Y-66840000D01*
X41810309Y-66819236D01*
X42080808Y-66737182D01*
X42330101Y-66603932D01*
X42548608Y-66424608D01*
X42727932Y-66206101D01*
X42799000Y-66073142D01*
X42870068Y-66206101D01*
X43049392Y-66424608D01*
X43267899Y-66603932D01*
X43517192Y-66737182D01*
X43787691Y-66819236D01*
X43998508Y-66840000D01*
X44139492Y-66840000D01*
X44350309Y-66819236D01*
X44620808Y-66737182D01*
X44870101Y-66603932D01*
X45088608Y-66424608D01*
X45267932Y-66206101D01*
X45339000Y-66073142D01*
X45410068Y-66206101D01*
X45589392Y-66424608D01*
X45807899Y-66603932D01*
X46057192Y-66737182D01*
X46327691Y-66819236D01*
X46538508Y-66840000D01*
X46679492Y-66840000D01*
X46890309Y-66819236D01*
X47160808Y-66737182D01*
X47410101Y-66603932D01*
X47628608Y-66424608D01*
X47807932Y-66206101D01*
X47881579Y-66068318D01*
X47996615Y-66260131D01*
X48185586Y-66468519D01*
X48411580Y-66636037D01*
X48665913Y-66756246D01*
X48799961Y-66796904D01*
X49022000Y-66674915D01*
X49022000Y-65532000D01*
X49002000Y-65532000D01*
X49002000Y-65278000D01*
X49022000Y-65278000D01*
X49022000Y-65258000D01*
X49276000Y-65258000D01*
X49276000Y-65278000D01*
X49296000Y-65278000D01*
X49296000Y-65532000D01*
X49276000Y-65532000D01*
X49276000Y-66674915D01*
X49498039Y-66796904D01*
X49632087Y-66756246D01*
X49886420Y-66636037D01*
X50112414Y-66468519D01*
X50301385Y-66260131D01*
X50416421Y-66068318D01*
X50490068Y-66206101D01*
X50669392Y-66424608D01*
X50887899Y-66603932D01*
X51137192Y-66737182D01*
X51407691Y-66819236D01*
X51618508Y-66840000D01*
X51759492Y-66840000D01*
X51970309Y-66819236D01*
X52240808Y-66737182D01*
X52490101Y-66603932D01*
X52708608Y-66424608D01*
X52887932Y-66206101D01*
X52959000Y-66073142D01*
X53030068Y-66206101D01*
X53209392Y-66424608D01*
X53427899Y-66603932D01*
X53677192Y-66737182D01*
X53947691Y-66819236D01*
X54158508Y-66840000D01*
X54299492Y-66840000D01*
X54510309Y-66819236D01*
X54780808Y-66737182D01*
X55030101Y-66603932D01*
X55248608Y-66424608D01*
X55427932Y-66206101D01*
X55499000Y-66073142D01*
X55570068Y-66206101D01*
X55749392Y-66424608D01*
X55967899Y-66603932D01*
X56217192Y-66737182D01*
X56487691Y-66819236D01*
X56698508Y-66840000D01*
X56839492Y-66840000D01*
X57050309Y-66819236D01*
X57320808Y-66737182D01*
X57570101Y-66603932D01*
X57788608Y-66424608D01*
X57967932Y-66206101D01*
X58039000Y-66073142D01*
X58110068Y-66206101D01*
X58289392Y-66424608D01*
X58424001Y-66535078D01*
X58424001Y-66885521D01*
X58419719Y-66929000D01*
X58436805Y-67102490D01*
X58487412Y-67269313D01*
X58569590Y-67423059D01*
X58652468Y-67524046D01*
X58652471Y-67524049D01*
X58680184Y-67557817D01*
X58713952Y-67585530D01*
X65123125Y-73994704D01*
X65106057Y-74168000D01*
X65133764Y-74449309D01*
X65215818Y-74719808D01*
X65349068Y-74969101D01*
X65528392Y-75187608D01*
X65746899Y-75366932D01*
X65996192Y-75500182D01*
X66266691Y-75582236D01*
X66477508Y-75603000D01*
X66618492Y-75603000D01*
X66829309Y-75582236D01*
X67099808Y-75500182D01*
X67349101Y-75366932D01*
X67567608Y-75187608D01*
X67746932Y-74969101D01*
X67880182Y-74719808D01*
X67962236Y-74449309D01*
X67989943Y-74168000D01*
X67976023Y-74026665D01*
X75273000Y-74026665D01*
X75273000Y-74309335D01*
X75328147Y-74586574D01*
X75436320Y-74847727D01*
X75593363Y-75082759D01*
X75793241Y-75282637D01*
X76028273Y-75439680D01*
X76289426Y-75547853D01*
X76566665Y-75603000D01*
X76849335Y-75603000D01*
X77126574Y-75547853D01*
X77387727Y-75439680D01*
X77622759Y-75282637D01*
X77822637Y-75082759D01*
X77842521Y-75053000D01*
X80474531Y-75053000D01*
X80518000Y-75057281D01*
X80561469Y-75053000D01*
X80561477Y-75053000D01*
X80691490Y-75040195D01*
X80858313Y-74989589D01*
X80906426Y-74963872D01*
X92634000Y-74963872D01*
X92634000Y-75404128D01*
X92719890Y-75835925D01*
X92888369Y-76242669D01*
X93132962Y-76608729D01*
X93444271Y-76920038D01*
X93810331Y-77164631D01*
X94217075Y-77333110D01*
X94648872Y-77419000D01*
X95089128Y-77419000D01*
X95520925Y-77333110D01*
X95927669Y-77164631D01*
X96293729Y-76920038D01*
X96605038Y-76608729D01*
X96849631Y-76242669D01*
X97018110Y-75835925D01*
X97104000Y-75404128D01*
X97104000Y-74963872D01*
X97018110Y-74532075D01*
X96849631Y-74125331D01*
X96605038Y-73759271D01*
X96293729Y-73447962D01*
X95927669Y-73203369D01*
X95520925Y-73034890D01*
X95089128Y-72949000D01*
X94648872Y-72949000D01*
X94217075Y-73034890D01*
X93810331Y-73203369D01*
X93444271Y-73447962D01*
X93132962Y-73759271D01*
X92888369Y-74125331D01*
X92719890Y-74532075D01*
X92634000Y-74963872D01*
X80906426Y-74963872D01*
X81012059Y-74907411D01*
X81146817Y-74796817D01*
X81174534Y-74763044D01*
X88472704Y-67464875D01*
X88575508Y-67475000D01*
X88716492Y-67475000D01*
X88927309Y-67454236D01*
X89197808Y-67372182D01*
X89447101Y-67238932D01*
X89665608Y-67059608D01*
X89844932Y-66841101D01*
X89978182Y-66591808D01*
X90060236Y-66321309D01*
X90087943Y-66040000D01*
X90070875Y-65866704D01*
X90917579Y-65020000D01*
X94055241Y-65020000D01*
X94194866Y-65190134D01*
X94420986Y-65375706D01*
X94678966Y-65513599D01*
X94958889Y-65598513D01*
X95177050Y-65620000D01*
X95322950Y-65620000D01*
X95541111Y-65598513D01*
X95821034Y-65513599D01*
X96079014Y-65375706D01*
X96305134Y-65190134D01*
X96490706Y-64964014D01*
X96628599Y-64706034D01*
X96713513Y-64426111D01*
X96742185Y-64135000D01*
X96713513Y-63843889D01*
X96628599Y-63563966D01*
X96490706Y-63305986D01*
X96305134Y-63079866D01*
X96275313Y-63055393D01*
X96344180Y-63034502D01*
X96454494Y-62975537D01*
X96551185Y-62896185D01*
X96630537Y-62799494D01*
X96689502Y-62689180D01*
X96725812Y-62569482D01*
X96738072Y-62445000D01*
X96735000Y-61880750D01*
X96576250Y-61722000D01*
X95377000Y-61722000D01*
X95377000Y-61742000D01*
X95123000Y-61742000D01*
X95123000Y-61722000D01*
X93923750Y-61722000D01*
X93765000Y-61880750D01*
X93761928Y-62445000D01*
X93774188Y-62569482D01*
X93810498Y-62689180D01*
X93869463Y-62799494D01*
X93948815Y-62896185D01*
X94045506Y-62975537D01*
X94155820Y-63034502D01*
X94224687Y-63055393D01*
X94194866Y-63079866D01*
X94055241Y-63250000D01*
X90594469Y-63250000D01*
X90551000Y-63245719D01*
X90507531Y-63250000D01*
X90507523Y-63250000D01*
X90377510Y-63262805D01*
X90210687Y-63313411D01*
X90058571Y-63394718D01*
X90056941Y-63395589D01*
X89955953Y-63478468D01*
X89955951Y-63478470D01*
X89922183Y-63506183D01*
X89894470Y-63539951D01*
X88819296Y-64615125D01*
X88716492Y-64605000D01*
X88575508Y-64605000D01*
X88364691Y-64625764D01*
X88094192Y-64707818D01*
X87844899Y-64841068D01*
X87626392Y-65020392D01*
X87447068Y-65238899D01*
X87313818Y-65488192D01*
X87231764Y-65758691D01*
X87204057Y-66040000D01*
X87221125Y-66213296D01*
X80151422Y-73283000D01*
X77842521Y-73283000D01*
X77822637Y-73253241D01*
X77622759Y-73053363D01*
X77387727Y-72896320D01*
X77126574Y-72788147D01*
X76849335Y-72733000D01*
X76566665Y-72733000D01*
X76289426Y-72788147D01*
X76028273Y-72896320D01*
X75793241Y-73053363D01*
X75593363Y-73253241D01*
X75436320Y-73488273D01*
X75328147Y-73749426D01*
X75273000Y-74026665D01*
X67976023Y-74026665D01*
X67962236Y-73886691D01*
X67880182Y-73616192D01*
X67746932Y-73366899D01*
X67567608Y-73148392D01*
X67349101Y-72969068D01*
X67099808Y-72835818D01*
X66829309Y-72753764D01*
X66618492Y-72733000D01*
X66477508Y-72733000D01*
X66374704Y-72743125D01*
X60194000Y-66562422D01*
X60194000Y-66535078D01*
X60328608Y-66424608D01*
X60507932Y-66206101D01*
X60579000Y-66073142D01*
X60650068Y-66206101D01*
X60829392Y-66424608D01*
X61047899Y-66603932D01*
X61297192Y-66737182D01*
X61567691Y-66819236D01*
X61778508Y-66840000D01*
X61919492Y-66840000D01*
X62022296Y-66829874D01*
X65129470Y-69937049D01*
X65157183Y-69970817D01*
X65190951Y-69998530D01*
X65190953Y-69998532D01*
X65291940Y-70081410D01*
X65291941Y-70081411D01*
X65325754Y-70099484D01*
X65349068Y-70143101D01*
X65528392Y-70361608D01*
X65746899Y-70540932D01*
X65996192Y-70674182D01*
X66266691Y-70756236D01*
X66477508Y-70777000D01*
X66618492Y-70777000D01*
X66829309Y-70756236D01*
X67099808Y-70674182D01*
X67349101Y-70540932D01*
X67567608Y-70361608D01*
X67746932Y-70143101D01*
X67880182Y-69893808D01*
X67962236Y-69623309D01*
X67981571Y-69427001D01*
X71495530Y-69427001D01*
X71538999Y-69431282D01*
X71582468Y-69427001D01*
X71582476Y-69427001D01*
X71712489Y-69414196D01*
X71879312Y-69363590D01*
X72033058Y-69281412D01*
X72131447Y-69200665D01*
X75273000Y-69200665D01*
X75273000Y-69483335D01*
X75328147Y-69760574D01*
X75436320Y-70021727D01*
X75593363Y-70256759D01*
X75793241Y-70456637D01*
X76028273Y-70613680D01*
X76289426Y-70721853D01*
X76566665Y-70777000D01*
X76849335Y-70777000D01*
X77126574Y-70721853D01*
X77387727Y-70613680D01*
X77622759Y-70456637D01*
X77822637Y-70256759D01*
X77979680Y-70021727D01*
X78087853Y-69760574D01*
X78143000Y-69483335D01*
X78143000Y-69200665D01*
X78087853Y-68923426D01*
X77979680Y-68662273D01*
X77822637Y-68427241D01*
X77622759Y-68227363D01*
X77387727Y-68070320D01*
X77126574Y-67962147D01*
X76849335Y-67907000D01*
X76566665Y-67907000D01*
X76289426Y-67962147D01*
X76028273Y-68070320D01*
X75793241Y-68227363D01*
X75593363Y-68427241D01*
X75436320Y-68662273D01*
X75328147Y-68923426D01*
X75273000Y-69200665D01*
X72131447Y-69200665D01*
X72167816Y-69170818D01*
X72195533Y-69137045D01*
X75433913Y-65898665D01*
X77051000Y-65898665D01*
X77051000Y-66181335D01*
X77106147Y-66458574D01*
X77214320Y-66719727D01*
X77371363Y-66954759D01*
X77571241Y-67154637D01*
X77806273Y-67311680D01*
X78067426Y-67419853D01*
X78344665Y-67475000D01*
X78627335Y-67475000D01*
X78904574Y-67419853D01*
X79165727Y-67311680D01*
X79400759Y-67154637D01*
X79600637Y-66954759D01*
X79757680Y-66719727D01*
X79865853Y-66458574D01*
X79921000Y-66181335D01*
X79921000Y-65898665D01*
X79865853Y-65621426D01*
X79757680Y-65360273D01*
X79600637Y-65125241D01*
X79400759Y-64925363D01*
X79165727Y-64768320D01*
X78904574Y-64660147D01*
X78627335Y-64605000D01*
X78344665Y-64605000D01*
X78067426Y-64660147D01*
X77806273Y-64768320D01*
X77571241Y-64925363D01*
X77371363Y-65125241D01*
X77214320Y-65360273D01*
X77106147Y-65621426D01*
X77051000Y-65898665D01*
X75433913Y-65898665D01*
X78309562Y-63023017D01*
X78344665Y-63030000D01*
X78627335Y-63030000D01*
X78904574Y-62974853D01*
X79165727Y-62866680D01*
X79400759Y-62709637D01*
X79600637Y-62509759D01*
X79757680Y-62274727D01*
X79865853Y-62013574D01*
X79879684Y-61944039D01*
X87254096Y-61944039D01*
X87294754Y-62078087D01*
X87414963Y-62332420D01*
X87582481Y-62558414D01*
X87790869Y-62747385D01*
X88032119Y-62892070D01*
X88296960Y-62986909D01*
X88519000Y-62865624D01*
X88519000Y-61722000D01*
X88773000Y-61722000D01*
X88773000Y-62865624D01*
X88995040Y-62986909D01*
X89259881Y-62892070D01*
X89501131Y-62747385D01*
X89709519Y-62558414D01*
X89877037Y-62332420D01*
X89997246Y-62078087D01*
X90037904Y-61944039D01*
X89915915Y-61722000D01*
X88773000Y-61722000D01*
X88519000Y-61722000D01*
X87376085Y-61722000D01*
X87254096Y-61944039D01*
X79879684Y-61944039D01*
X79921000Y-61736335D01*
X79921000Y-61453665D01*
X79879685Y-61245961D01*
X87254096Y-61245961D01*
X87376085Y-61468000D01*
X88519000Y-61468000D01*
X88519000Y-60324376D01*
X88773000Y-60324376D01*
X88773000Y-61468000D01*
X89915915Y-61468000D01*
X90037904Y-61245961D01*
X89997246Y-61111913D01*
X89877037Y-60857580D01*
X89793588Y-60745000D01*
X93761928Y-60745000D01*
X93765000Y-61309250D01*
X93923750Y-61468000D01*
X95123000Y-61468000D01*
X95123000Y-60268750D01*
X95377000Y-60268750D01*
X95377000Y-61468000D01*
X96576250Y-61468000D01*
X96735000Y-61309250D01*
X96738072Y-60745000D01*
X96725812Y-60620518D01*
X96689502Y-60500820D01*
X96630537Y-60390506D01*
X96551185Y-60293815D01*
X96454494Y-60214463D01*
X96344180Y-60155498D01*
X96224482Y-60119188D01*
X96100000Y-60106928D01*
X95535750Y-60110000D01*
X95377000Y-60268750D01*
X95123000Y-60268750D01*
X94964250Y-60110000D01*
X94400000Y-60106928D01*
X94275518Y-60119188D01*
X94155820Y-60155498D01*
X94045506Y-60214463D01*
X93948815Y-60293815D01*
X93869463Y-60390506D01*
X93810498Y-60500820D01*
X93774188Y-60620518D01*
X93761928Y-60745000D01*
X89793588Y-60745000D01*
X89709519Y-60631586D01*
X89501131Y-60442615D01*
X89259881Y-60297930D01*
X88995040Y-60203091D01*
X88773000Y-60324376D01*
X88519000Y-60324376D01*
X88296960Y-60203091D01*
X88032119Y-60297930D01*
X87790869Y-60442615D01*
X87582481Y-60631586D01*
X87414963Y-60857580D01*
X87294754Y-61111913D01*
X87254096Y-61245961D01*
X79879685Y-61245961D01*
X79865853Y-61176426D01*
X79757680Y-60915273D01*
X79600637Y-60680241D01*
X79400759Y-60480363D01*
X79165727Y-60323320D01*
X78904574Y-60215147D01*
X78627335Y-60160000D01*
X78344665Y-60160000D01*
X78067426Y-60215147D01*
X77806273Y-60323320D01*
X77571241Y-60480363D01*
X77371363Y-60680241D01*
X77214320Y-60915273D01*
X77106147Y-61176426D01*
X77051000Y-61453665D01*
X77051000Y-61736335D01*
X77057983Y-61771438D01*
X71172421Y-67657001D01*
X67391464Y-67657001D01*
X67347998Y-67652720D01*
X67304532Y-67657001D01*
X67304522Y-67657001D01*
X67174509Y-67669806D01*
X67007686Y-67720412D01*
X66853940Y-67802590D01*
X66853938Y-67802591D01*
X66853939Y-67802591D01*
X66752952Y-67885469D01*
X66752950Y-67885471D01*
X66719182Y-67913184D01*
X66716347Y-67916638D01*
X66618492Y-67907000D01*
X66477508Y-67907000D01*
X66266691Y-67927764D01*
X65996192Y-68009818D01*
X65806689Y-68111110D01*
X64528756Y-66833178D01*
X64670309Y-66819236D01*
X64940808Y-66737182D01*
X65190101Y-66603932D01*
X65408608Y-66424608D01*
X65519078Y-66290000D01*
X69608922Y-66290000D01*
X69719392Y-66424608D01*
X69937899Y-66603932D01*
X70187192Y-66737182D01*
X70457691Y-66819236D01*
X70668508Y-66840000D01*
X70809492Y-66840000D01*
X71020309Y-66819236D01*
X71290808Y-66737182D01*
X71540101Y-66603932D01*
X71758608Y-66424608D01*
X71937932Y-66206101D01*
X72071182Y-65956808D01*
X72153236Y-65686309D01*
X72180943Y-65405000D01*
X72153236Y-65123691D01*
X72071182Y-64853192D01*
X71937932Y-64603899D01*
X71758608Y-64385392D01*
X71540101Y-64206068D01*
X71290808Y-64072818D01*
X71020309Y-63990764D01*
X70809492Y-63970000D01*
X70668508Y-63970000D01*
X70457691Y-63990764D01*
X70187192Y-64072818D01*
X69937899Y-64206068D01*
X69719392Y-64385392D01*
X69608922Y-64520000D01*
X65519078Y-64520000D01*
X65408608Y-64385392D01*
X65190101Y-64206068D01*
X64940808Y-64072818D01*
X64670309Y-63990764D01*
X64459492Y-63970000D01*
X64318508Y-63970000D01*
X64107691Y-63990764D01*
X63837192Y-64072818D01*
X63587899Y-64206068D01*
X63369392Y-64385392D01*
X63190068Y-64603899D01*
X63119000Y-64736858D01*
X63047932Y-64603899D01*
X62868608Y-64385392D01*
X62650101Y-64206068D01*
X62400808Y-64072818D01*
X62130309Y-63990764D01*
X61919492Y-63970000D01*
X61778508Y-63970000D01*
X61567691Y-63990764D01*
X61297192Y-64072818D01*
X61047899Y-64206068D01*
X60829392Y-64385392D01*
X60650068Y-64603899D01*
X60579000Y-64736858D01*
X60507932Y-64603899D01*
X60328608Y-64385392D01*
X60110101Y-64206068D01*
X59860808Y-64072818D01*
X59590309Y-63990764D01*
X59379492Y-63970000D01*
X59238508Y-63970000D01*
X59027691Y-63990764D01*
X58757192Y-64072818D01*
X58507899Y-64206068D01*
X58289392Y-64385392D01*
X58110068Y-64603899D01*
X58039000Y-64736858D01*
X57967932Y-64603899D01*
X57788608Y-64385392D01*
X57570101Y-64206068D01*
X57320808Y-64072818D01*
X57050309Y-63990764D01*
X56839492Y-63970000D01*
X56698508Y-63970000D01*
X56487691Y-63990764D01*
X56217192Y-64072818D01*
X55967899Y-64206068D01*
X55749392Y-64385392D01*
X55570068Y-64603899D01*
X55499000Y-64736858D01*
X55427932Y-64603899D01*
X55248608Y-64385392D01*
X55030101Y-64206068D01*
X54780808Y-64072818D01*
X54510309Y-63990764D01*
X54299492Y-63970000D01*
X54158508Y-63970000D01*
X53947691Y-63990764D01*
X53677192Y-64072818D01*
X53427899Y-64206068D01*
X53209392Y-64385392D01*
X53030068Y-64603899D01*
X52959000Y-64736858D01*
X52887932Y-64603899D01*
X52708608Y-64385392D01*
X52490101Y-64206068D01*
X52240808Y-64072818D01*
X51970309Y-63990764D01*
X51759492Y-63970000D01*
X51618508Y-63970000D01*
X51407691Y-63990764D01*
X51137192Y-64072818D01*
X50887899Y-64206068D01*
X50669392Y-64385392D01*
X50490068Y-64603899D01*
X50416421Y-64741682D01*
X50301385Y-64549869D01*
X50112414Y-64341481D01*
X49886420Y-64173963D01*
X49632087Y-64053754D01*
X49498039Y-64013096D01*
X49276002Y-64135084D01*
X49276002Y-63989576D01*
X52284049Y-60981530D01*
X52317817Y-60953817D01*
X52347525Y-60917619D01*
X52428411Y-60819059D01*
X52450956Y-60776880D01*
X52510589Y-60665313D01*
X52561195Y-60498490D01*
X52574000Y-60368477D01*
X52574000Y-60368469D01*
X52578281Y-60325000D01*
X52574000Y-60281531D01*
X52574000Y-58915078D01*
X52708608Y-58804608D01*
X52887932Y-58586101D01*
X52959000Y-58453142D01*
X53030068Y-58586101D01*
X53209392Y-58804608D01*
X53427899Y-58983932D01*
X53677192Y-59117182D01*
X53947691Y-59199236D01*
X54158508Y-59220000D01*
X54299492Y-59220000D01*
X54510309Y-59199236D01*
X54780808Y-59117182D01*
X55030101Y-58983932D01*
X55248608Y-58804608D01*
X55427932Y-58586101D01*
X55499000Y-58453142D01*
X55570068Y-58586101D01*
X55749392Y-58804608D01*
X55967899Y-58983932D01*
X56217192Y-59117182D01*
X56487691Y-59199236D01*
X56698508Y-59220000D01*
X56839492Y-59220000D01*
X57050309Y-59199236D01*
X57320808Y-59117182D01*
X57570101Y-58983932D01*
X57788608Y-58804608D01*
X57967932Y-58586101D01*
X58039000Y-58453142D01*
X58110068Y-58586101D01*
X58289392Y-58804608D01*
X58507899Y-58983932D01*
X58757192Y-59117182D01*
X58847177Y-59144478D01*
X59356525Y-60599760D01*
X59376411Y-60665313D01*
X59405807Y-60720310D01*
X59432084Y-60776880D01*
X59446819Y-60797038D01*
X59458589Y-60819059D01*
X59498155Y-60867270D01*
X59534958Y-60917619D01*
X59553343Y-60934516D01*
X59569183Y-60953817D01*
X59617392Y-60993381D01*
X59663313Y-61035586D01*
X59684639Y-61048570D01*
X59703941Y-61064411D01*
X59758945Y-61093811D01*
X59812215Y-61126244D01*
X59835668Y-61134820D01*
X59857687Y-61146589D01*
X59917361Y-61164691D01*
X59975943Y-61186112D01*
X60000617Y-61189947D01*
X60024510Y-61197195D01*
X60086587Y-61203309D01*
X60148205Y-61212886D01*
X60216642Y-61210000D01*
X65710989Y-61210000D01*
X65722960Y-61212044D01*
X65798028Y-61210000D01*
X65829477Y-61210000D01*
X65841493Y-61208816D01*
X65897225Y-61207299D01*
X65928037Y-61200293D01*
X65959490Y-61197195D01*
X66012856Y-61181006D01*
X66067215Y-61168646D01*
X66096068Y-61155764D01*
X66126313Y-61146589D01*
X66175489Y-61120304D01*
X66226399Y-61097574D01*
X66252183Y-61079311D01*
X66280059Y-61064411D01*
X66323176Y-61029026D01*
X66368658Y-60996810D01*
X66390380Y-60973872D01*
X66414817Y-60953817D01*
X66450198Y-60910706D01*
X66488527Y-60870231D01*
X66505359Y-60843493D01*
X66525411Y-60819059D01*
X66551697Y-60769881D01*
X66558124Y-60759671D01*
X66572177Y-60731564D01*
X66607589Y-60665313D01*
X66611115Y-60653688D01*
X68237695Y-57400527D01*
X81590078Y-57400527D01*
X81643466Y-57629201D01*
X81873374Y-57735095D01*
X82119524Y-57794102D01*
X82372455Y-57803952D01*
X82622449Y-57764270D01*
X82859896Y-57676578D01*
X82948534Y-57629201D01*
X83001922Y-57400527D01*
X82296000Y-56694605D01*
X81590078Y-57400527D01*
X68237695Y-57400527D01*
X69304000Y-55267919D01*
X69304000Y-55386335D01*
X69359147Y-55663574D01*
X69467320Y-55924727D01*
X69624363Y-56159759D01*
X69824241Y-56359637D01*
X70059273Y-56516680D01*
X70320426Y-56624853D01*
X70597665Y-56680000D01*
X70880335Y-56680000D01*
X71157574Y-56624853D01*
X71418727Y-56516680D01*
X71653759Y-56359637D01*
X71853637Y-56159759D01*
X71873521Y-56130000D01*
X81066885Y-56130000D01*
X81016898Y-56338524D01*
X81007048Y-56591455D01*
X81046730Y-56841449D01*
X81134422Y-57078896D01*
X81181799Y-57167534D01*
X81410473Y-57220922D01*
X82116395Y-56515000D01*
X82102253Y-56500858D01*
X82281858Y-56321253D01*
X82296000Y-56335395D01*
X82310143Y-56321253D01*
X82489748Y-56500858D01*
X82475605Y-56515000D01*
X83181527Y-57220922D01*
X83410201Y-57167534D01*
X83516095Y-56937626D01*
X83575102Y-56691476D01*
X83581390Y-56530000D01*
X83692561Y-56530000D01*
X83940821Y-56480619D01*
X84174676Y-56383753D01*
X84385140Y-56243125D01*
X84564125Y-56064140D01*
X84704753Y-55853676D01*
X84801619Y-55619821D01*
X84851000Y-55371561D01*
X84851000Y-55118439D01*
X84801619Y-54870179D01*
X84704753Y-54636324D01*
X84564125Y-54425860D01*
X84385140Y-54246875D01*
X84174676Y-54106247D01*
X83940821Y-54009381D01*
X83692561Y-53960000D01*
X83584072Y-53960000D01*
X83584072Y-53347044D01*
X89170000Y-53351495D01*
X89170000Y-53628033D01*
X89232832Y-53943912D01*
X89356082Y-54241463D01*
X89535013Y-54509252D01*
X89762748Y-54736987D01*
X90030537Y-54915918D01*
X90328088Y-55039168D01*
X90643967Y-55102000D01*
X90966033Y-55102000D01*
X91281912Y-55039168D01*
X91579463Y-54915918D01*
X91847252Y-54736987D01*
X91981826Y-54602413D01*
X94349192Y-54602413D01*
X94444956Y-54866814D01*
X94734571Y-55007704D01*
X95046108Y-55089384D01*
X95367595Y-55108718D01*
X95686675Y-55064961D01*
X95991088Y-54959795D01*
X96165044Y-54866814D01*
X96260808Y-54602413D01*
X95305000Y-53646605D01*
X94349192Y-54602413D01*
X91981826Y-54602413D01*
X92074987Y-54509252D01*
X92253918Y-54241463D01*
X92377168Y-53943912D01*
X92440000Y-53628033D01*
X92440000Y-53529595D01*
X93663282Y-53529595D01*
X93707039Y-53848675D01*
X93812205Y-54153088D01*
X93905186Y-54327044D01*
X94169587Y-54422808D01*
X95125395Y-53467000D01*
X95484605Y-53467000D01*
X96440413Y-54422808D01*
X96704814Y-54327044D01*
X96845704Y-54037429D01*
X96927384Y-53725892D01*
X96946718Y-53404405D01*
X96902961Y-53085325D01*
X96797795Y-52780912D01*
X96704814Y-52606956D01*
X96440413Y-52511192D01*
X95484605Y-53467000D01*
X95125395Y-53467000D01*
X94169587Y-52511192D01*
X93905186Y-52606956D01*
X93764296Y-52896571D01*
X93682616Y-53208108D01*
X93663282Y-53529595D01*
X92440000Y-53529595D01*
X92440000Y-53305967D01*
X92377168Y-52990088D01*
X92253918Y-52692537D01*
X92074987Y-52424748D01*
X91981826Y-52331587D01*
X94349192Y-52331587D01*
X95305000Y-53287395D01*
X96260808Y-52331587D01*
X96165044Y-52067186D01*
X95875429Y-51926296D01*
X95563892Y-51844616D01*
X95242405Y-51825282D01*
X94923325Y-51869039D01*
X94618912Y-51974205D01*
X94444956Y-52067186D01*
X94349192Y-52331587D01*
X91981826Y-52331587D01*
X91847252Y-52197013D01*
X91690000Y-52091941D01*
X91690000Y-48342059D01*
X91847252Y-48236987D01*
X91981826Y-48102413D01*
X94349192Y-48102413D01*
X94444956Y-48366814D01*
X94734571Y-48507704D01*
X95046108Y-48589384D01*
X95367595Y-48608718D01*
X95686675Y-48564961D01*
X95991088Y-48459795D01*
X96165044Y-48366814D01*
X96260808Y-48102413D01*
X95305000Y-47146605D01*
X94349192Y-48102413D01*
X91981826Y-48102413D01*
X92074987Y-48009252D01*
X92253918Y-47741463D01*
X92377168Y-47443912D01*
X92440000Y-47128033D01*
X92440000Y-47029595D01*
X93663282Y-47029595D01*
X93707039Y-47348675D01*
X93812205Y-47653088D01*
X93905186Y-47827044D01*
X94169587Y-47922808D01*
X95125395Y-46967000D01*
X95484605Y-46967000D01*
X96440413Y-47922808D01*
X96704814Y-47827044D01*
X96845704Y-47537429D01*
X96927384Y-47225892D01*
X96946718Y-46904405D01*
X96902961Y-46585325D01*
X96797795Y-46280912D01*
X96704814Y-46106956D01*
X96440413Y-46011192D01*
X95484605Y-46967000D01*
X95125395Y-46967000D01*
X94169587Y-46011192D01*
X93905186Y-46106956D01*
X93764296Y-46396571D01*
X93682616Y-46708108D01*
X93663282Y-47029595D01*
X92440000Y-47029595D01*
X92440000Y-46805967D01*
X92377168Y-46490088D01*
X92253918Y-46192537D01*
X92074987Y-45924748D01*
X91981826Y-45831587D01*
X94349192Y-45831587D01*
X95305000Y-46787395D01*
X96260808Y-45831587D01*
X96165044Y-45567186D01*
X95875429Y-45426296D01*
X95563892Y-45344616D01*
X95242405Y-45325282D01*
X94923325Y-45369039D01*
X94618912Y-45474205D01*
X94444956Y-45567186D01*
X94349192Y-45831587D01*
X91981826Y-45831587D01*
X91847252Y-45697013D01*
X91579463Y-45518082D01*
X91281912Y-45394832D01*
X90966033Y-45332000D01*
X90643967Y-45332000D01*
X90328088Y-45394832D01*
X90030537Y-45518082D01*
X89762748Y-45697013D01*
X89535013Y-45924748D01*
X89356082Y-46192537D01*
X89232832Y-46490088D01*
X89170000Y-46805967D01*
X89170000Y-47128033D01*
X89232832Y-47443912D01*
X89356082Y-47741463D01*
X89535013Y-48009252D01*
X89762748Y-48236987D01*
X89920000Y-48342059D01*
X89920001Y-51589046D01*
X89892351Y-51586323D01*
X89849182Y-51582036D01*
X89848822Y-51582036D01*
X89805001Y-51577720D01*
X89761883Y-51581966D01*
X69798363Y-51566060D01*
X69786040Y-51563956D01*
X69711311Y-51565991D01*
X69680229Y-51565966D01*
X69667866Y-51567174D01*
X69611775Y-51568701D01*
X69581301Y-51575630D01*
X69550206Y-51578668D01*
X69496506Y-51594911D01*
X69441784Y-51607354D01*
X69413245Y-51620096D01*
X69383342Y-51629141D01*
X69333849Y-51655545D01*
X69282600Y-51678426D01*
X69257096Y-51696491D01*
X69229531Y-51711196D01*
X69186135Y-51746753D01*
X69140341Y-51779189D01*
X69118850Y-51801883D01*
X69094685Y-51821683D01*
X69059063Y-51865017D01*
X69020472Y-51905769D01*
X69003822Y-51932218D01*
X68983983Y-51956353D01*
X68957501Y-52005802D01*
X68950875Y-52016329D01*
X68936954Y-52044170D01*
X68901683Y-52110033D01*
X68898047Y-52121985D01*
X65239040Y-59440000D01*
X60825890Y-59440000D01*
X60519470Y-58564515D01*
X60579000Y-58453142D01*
X60650068Y-58586101D01*
X60829392Y-58804608D01*
X61047899Y-58983932D01*
X61297192Y-59117182D01*
X61567691Y-59199236D01*
X61778508Y-59220000D01*
X61919492Y-59220000D01*
X62130309Y-59199236D01*
X62400808Y-59117182D01*
X62650101Y-58983932D01*
X62868608Y-58804608D01*
X63047932Y-58586101D01*
X63119000Y-58453142D01*
X63190068Y-58586101D01*
X63369392Y-58804608D01*
X63587899Y-58983932D01*
X63837192Y-59117182D01*
X64107691Y-59199236D01*
X64318508Y-59220000D01*
X64459492Y-59220000D01*
X64670309Y-59199236D01*
X64940808Y-59117182D01*
X65190101Y-58983932D01*
X65408608Y-58804608D01*
X65587932Y-58586101D01*
X65721182Y-58336808D01*
X65803236Y-58066309D01*
X65830943Y-57785000D01*
X65803236Y-57503691D01*
X65721182Y-57233192D01*
X65587932Y-56983899D01*
X65408608Y-56765392D01*
X65190101Y-56586068D01*
X64940808Y-56452818D01*
X64670309Y-56370764D01*
X64459492Y-56350000D01*
X64318508Y-56350000D01*
X64107691Y-56370764D01*
X63837192Y-56452818D01*
X63587899Y-56586068D01*
X63369392Y-56765392D01*
X63190068Y-56983899D01*
X63119000Y-57116858D01*
X63047932Y-56983899D01*
X62868608Y-56765392D01*
X62650101Y-56586068D01*
X62400808Y-56452818D01*
X62130309Y-56370764D01*
X61919492Y-56350000D01*
X61778508Y-56350000D01*
X61567691Y-56370764D01*
X61297192Y-56452818D01*
X61047899Y-56586068D01*
X60829392Y-56765392D01*
X60650068Y-56983899D01*
X60579000Y-57116858D01*
X60507932Y-56983899D01*
X60328608Y-56765392D01*
X60110101Y-56586068D01*
X59860808Y-56452818D01*
X59608996Y-56376432D01*
X68835418Y-47895000D01*
X76720928Y-47895000D01*
X76720928Y-49895000D01*
X76733188Y-50019482D01*
X76769498Y-50139180D01*
X76828463Y-50249494D01*
X76907815Y-50346185D01*
X77004506Y-50425537D01*
X77114820Y-50484502D01*
X77234518Y-50520812D01*
X77359000Y-50533072D01*
X79359000Y-50533072D01*
X79483482Y-50520812D01*
X79603180Y-50484502D01*
X79713494Y-50425537D01*
X79810185Y-50346185D01*
X79889537Y-50249494D01*
X79948502Y-50139180D01*
X79984812Y-50019482D01*
X79997072Y-49895000D01*
X79997072Y-47895000D01*
X79984812Y-47770518D01*
X79948502Y-47650820D01*
X79889537Y-47540506D01*
X79810185Y-47443815D01*
X79713494Y-47364463D01*
X79603180Y-47305498D01*
X79483482Y-47269188D01*
X79359000Y-47256928D01*
X77359000Y-47256928D01*
X77234518Y-47269188D01*
X77114820Y-47305498D01*
X77004506Y-47364463D01*
X76907815Y-47443815D01*
X76828463Y-47540506D01*
X76769498Y-47650820D01*
X76733188Y-47770518D01*
X76720928Y-47895000D01*
X68835418Y-47895000D01*
X76993582Y-40395570D01*
X76910082Y-40520537D01*
X76786832Y-40818088D01*
X76724000Y-41133967D01*
X76724000Y-41456033D01*
X76786832Y-41771912D01*
X76910082Y-42069463D01*
X77089013Y-42337252D01*
X77316748Y-42564987D01*
X77584537Y-42743918D01*
X77882088Y-42867168D01*
X78197967Y-42930000D01*
X78520033Y-42930000D01*
X78835912Y-42867168D01*
X79133463Y-42743918D01*
X79401252Y-42564987D01*
X79628987Y-42337252D01*
X79807918Y-42069463D01*
X79931168Y-41771912D01*
X79994000Y-41456033D01*
X79994000Y-41133967D01*
X79931168Y-40818088D01*
X79807918Y-40520537D01*
X79628987Y-40252748D01*
X79401252Y-40025013D01*
X79133463Y-39846082D01*
X78835912Y-39722832D01*
X78520033Y-39660000D01*
X78197967Y-39660000D01*
X78064798Y-39686489D01*
X89689292Y-36733531D01*
X89762748Y-36806987D01*
X89920000Y-36912059D01*
X89920001Y-40661940D01*
X89762748Y-40767013D01*
X89535013Y-40994748D01*
X89356082Y-41262537D01*
X89232832Y-41560088D01*
X89170000Y-41875967D01*
X89170000Y-42198033D01*
X89232832Y-42513912D01*
X89356082Y-42811463D01*
X89535013Y-43079252D01*
X89762748Y-43306987D01*
X90030537Y-43485918D01*
X90328088Y-43609168D01*
X90643967Y-43672000D01*
X90966033Y-43672000D01*
X91281912Y-43609168D01*
X91579463Y-43485918D01*
X91847252Y-43306987D01*
X91981826Y-43172413D01*
X94349192Y-43172413D01*
X94444956Y-43436814D01*
X94734571Y-43577704D01*
X95046108Y-43659384D01*
X95367595Y-43678718D01*
X95686675Y-43634961D01*
X95991088Y-43529795D01*
X96165044Y-43436814D01*
X96260808Y-43172413D01*
X95305000Y-42216605D01*
X94349192Y-43172413D01*
X91981826Y-43172413D01*
X92074987Y-43079252D01*
X92253918Y-42811463D01*
X92377168Y-42513912D01*
X92440000Y-42198033D01*
X92440000Y-42099595D01*
X93663282Y-42099595D01*
X93707039Y-42418675D01*
X93812205Y-42723088D01*
X93905186Y-42897044D01*
X94169587Y-42992808D01*
X95125395Y-42037000D01*
X95484605Y-42037000D01*
X96440413Y-42992808D01*
X96704814Y-42897044D01*
X96845704Y-42607429D01*
X96927384Y-42295892D01*
X96946718Y-41974405D01*
X96902961Y-41655325D01*
X96797795Y-41350912D01*
X96704814Y-41176956D01*
X96440413Y-41081192D01*
X95484605Y-42037000D01*
X95125395Y-42037000D01*
X94169587Y-41081192D01*
X93905186Y-41176956D01*
X93764296Y-41466571D01*
X93682616Y-41778108D01*
X93663282Y-42099595D01*
X92440000Y-42099595D01*
X92440000Y-41875967D01*
X92377168Y-41560088D01*
X92253918Y-41262537D01*
X92074987Y-40994748D01*
X91981826Y-40901587D01*
X94349192Y-40901587D01*
X95305000Y-41857395D01*
X96260808Y-40901587D01*
X96165044Y-40637186D01*
X95875429Y-40496296D01*
X95563892Y-40414616D01*
X95242405Y-40395282D01*
X94923325Y-40439039D01*
X94618912Y-40544205D01*
X94444956Y-40637186D01*
X94349192Y-40901587D01*
X91981826Y-40901587D01*
X91847252Y-40767013D01*
X91690000Y-40661941D01*
X91690000Y-36912059D01*
X91847252Y-36806987D01*
X91981826Y-36672413D01*
X94349192Y-36672413D01*
X94444956Y-36936814D01*
X94734571Y-37077704D01*
X95046108Y-37159384D01*
X95367595Y-37178718D01*
X95686675Y-37134961D01*
X95991088Y-37029795D01*
X96165044Y-36936814D01*
X96260808Y-36672413D01*
X95305000Y-35716605D01*
X94349192Y-36672413D01*
X91981826Y-36672413D01*
X92074987Y-36579252D01*
X92253918Y-36311463D01*
X92377168Y-36013912D01*
X92440000Y-35698033D01*
X92440000Y-35599595D01*
X93663282Y-35599595D01*
X93707039Y-35918675D01*
X93812205Y-36223088D01*
X93905186Y-36397044D01*
X94169587Y-36492808D01*
X95125395Y-35537000D01*
X95484605Y-35537000D01*
X96440413Y-36492808D01*
X96704814Y-36397044D01*
X96845704Y-36107429D01*
X96927384Y-35795892D01*
X96946718Y-35474405D01*
X96902961Y-35155325D01*
X96797795Y-34850912D01*
X96704814Y-34676956D01*
X96440413Y-34581192D01*
X95484605Y-35537000D01*
X95125395Y-35537000D01*
X94169587Y-34581192D01*
X93905186Y-34676956D01*
X93764296Y-34966571D01*
X93682616Y-35278108D01*
X93663282Y-35599595D01*
X92440000Y-35599595D01*
X92440000Y-35375967D01*
X92377168Y-35060088D01*
X92253918Y-34762537D01*
X92074987Y-34494748D01*
X91981826Y-34401587D01*
X94349192Y-34401587D01*
X95305000Y-35357395D01*
X96260808Y-34401587D01*
X96165044Y-34137186D01*
X95875429Y-33996296D01*
X95563892Y-33914616D01*
X95242405Y-33895282D01*
X94923325Y-33939039D01*
X94618912Y-34044205D01*
X94444956Y-34137186D01*
X94349192Y-34401587D01*
X91981826Y-34401587D01*
X91847252Y-34267013D01*
X91579463Y-34088082D01*
X91281912Y-33964832D01*
X90966033Y-33902000D01*
X90643967Y-33902000D01*
X90328088Y-33964832D01*
X90030537Y-34088082D01*
X89762748Y-34267013D01*
X89535013Y-34494748D01*
X89356082Y-34762537D01*
X89249877Y-35018938D01*
X77080981Y-38110191D01*
X77079324Y-38110284D01*
X76996521Y-38131646D01*
X76955967Y-38141948D01*
X76954417Y-38142508D01*
X76910521Y-38153833D01*
X76872646Y-38172074D01*
X76833109Y-38186369D01*
X76794307Y-38209802D01*
X76753457Y-38229476D01*
X76719855Y-38254765D01*
X76683881Y-38276491D01*
X76650407Y-38307034D01*
X76649075Y-38308036D01*
X76617915Y-38336680D01*
X76555101Y-38393993D01*
X76554123Y-38395321D01*
X69271282Y-45090107D01*
X82471302Y-31492000D01*
X89429941Y-31492000D01*
X89535013Y-31649252D01*
X89762748Y-31876987D01*
X90030537Y-32055918D01*
X90328088Y-32179168D01*
X90643967Y-32242000D01*
X90966033Y-32242000D01*
X91281912Y-32179168D01*
X91579463Y-32055918D01*
X91847252Y-31876987D01*
X91981826Y-31742413D01*
X94349192Y-31742413D01*
X94444956Y-32006814D01*
X94734571Y-32147704D01*
X95046108Y-32229384D01*
X95367595Y-32248718D01*
X95686675Y-32204961D01*
X95991088Y-32099795D01*
X96165044Y-32006814D01*
X96260808Y-31742413D01*
X95305000Y-30786605D01*
X94349192Y-31742413D01*
X91981826Y-31742413D01*
X92074987Y-31649252D01*
X92253918Y-31381463D01*
X92377168Y-31083912D01*
X92440000Y-30768033D01*
X92440000Y-30669595D01*
X93663282Y-30669595D01*
X93707039Y-30988675D01*
X93812205Y-31293088D01*
X93905186Y-31467044D01*
X94169587Y-31562808D01*
X95125395Y-30607000D01*
X95484605Y-30607000D01*
X96440413Y-31562808D01*
X96704814Y-31467044D01*
X96845704Y-31177429D01*
X96927384Y-30865892D01*
X96946718Y-30544405D01*
X96902961Y-30225325D01*
X96797795Y-29920912D01*
X96704814Y-29746956D01*
X96440413Y-29651192D01*
X95484605Y-30607000D01*
X95125395Y-30607000D01*
X94169587Y-29651192D01*
X93905186Y-29746956D01*
X93764296Y-30036571D01*
X93682616Y-30348108D01*
X93663282Y-30669595D01*
X92440000Y-30669595D01*
X92440000Y-30445967D01*
X92377168Y-30130088D01*
X92253918Y-29832537D01*
X92074987Y-29564748D01*
X91981826Y-29471587D01*
X94349192Y-29471587D01*
X95305000Y-30427395D01*
X96260808Y-29471587D01*
X96165044Y-29207186D01*
X95875429Y-29066296D01*
X95563892Y-28984616D01*
X95242405Y-28965282D01*
X94923325Y-29009039D01*
X94618912Y-29114205D01*
X94444956Y-29207186D01*
X94349192Y-29471587D01*
X91981826Y-29471587D01*
X91847252Y-29337013D01*
X91690000Y-29231941D01*
X91690000Y-25482059D01*
X91847252Y-25376987D01*
X91981826Y-25242413D01*
X94349192Y-25242413D01*
X94444956Y-25506814D01*
X94734571Y-25647704D01*
X95046108Y-25729384D01*
X95367595Y-25748718D01*
X95686675Y-25704961D01*
X95991088Y-25599795D01*
X96165044Y-25506814D01*
X96260808Y-25242413D01*
X95305000Y-24286605D01*
X94349192Y-25242413D01*
X91981826Y-25242413D01*
X92074987Y-25149252D01*
X92253918Y-24881463D01*
X92377168Y-24583912D01*
X92440000Y-24268033D01*
X92440000Y-24169595D01*
X93663282Y-24169595D01*
X93707039Y-24488675D01*
X93812205Y-24793088D01*
X93905186Y-24967044D01*
X94169587Y-25062808D01*
X95125395Y-24107000D01*
X95484605Y-24107000D01*
X96440413Y-25062808D01*
X96704814Y-24967044D01*
X96845704Y-24677429D01*
X96927384Y-24365892D01*
X96946718Y-24044405D01*
X96902961Y-23725325D01*
X96797795Y-23420912D01*
X96704814Y-23246956D01*
X96440413Y-23151192D01*
X95484605Y-24107000D01*
X95125395Y-24107000D01*
X94169587Y-23151192D01*
X93905186Y-23246956D01*
X93764296Y-23536571D01*
X93682616Y-23848108D01*
X93663282Y-24169595D01*
X92440000Y-24169595D01*
X92440000Y-23945967D01*
X92377168Y-23630088D01*
X92253918Y-23332537D01*
X92074987Y-23064748D01*
X91981826Y-22971587D01*
X94349192Y-22971587D01*
X95305000Y-23927395D01*
X96260808Y-22971587D01*
X96165044Y-22707186D01*
X95875429Y-22566296D01*
X95563892Y-22484616D01*
X95242405Y-22465282D01*
X94923325Y-22509039D01*
X94618912Y-22614205D01*
X94444956Y-22707186D01*
X94349192Y-22971587D01*
X91981826Y-22971587D01*
X91847252Y-22837013D01*
X91579463Y-22658082D01*
X91281912Y-22534832D01*
X90966033Y-22472000D01*
X90643967Y-22472000D01*
X90328088Y-22534832D01*
X90030537Y-22658082D01*
X89762748Y-22837013D01*
X89535013Y-23064748D01*
X89356082Y-23332537D01*
X89232832Y-23630088D01*
X89170000Y-23945967D01*
X89170000Y-24268033D01*
X89232832Y-24583912D01*
X89356082Y-24881463D01*
X89535013Y-25149252D01*
X89762748Y-25376987D01*
X89920000Y-25482060D01*
X89920001Y-29231940D01*
X89762748Y-29337013D01*
X89535013Y-29564748D01*
X89429941Y-29722000D01*
X82133878Y-29722000D01*
X82083789Y-29717817D01*
X82003742Y-29726903D01*
X81923508Y-29734805D01*
X81917162Y-29736730D01*
X81910572Y-29737478D01*
X81833803Y-29762017D01*
X81756685Y-29785411D01*
X81750835Y-29788538D01*
X81744518Y-29790557D01*
X81674006Y-29829603D01*
X81602939Y-29867589D01*
X81597814Y-29871795D01*
X81592010Y-29875009D01*
X81530460Y-29927072D01*
X81468181Y-29978183D01*
X81436289Y-30017043D01*
X63401024Y-48596219D01*
X63390236Y-48486691D01*
X63308182Y-48216192D01*
X63174932Y-47966899D01*
X62995608Y-47748392D01*
X62777101Y-47569068D01*
X62527808Y-47435818D01*
X62257309Y-47353764D01*
X62046492Y-47333000D01*
X61905508Y-47333000D01*
X61694691Y-47353764D01*
X61492715Y-47415032D01*
X64706358Y-44617973D01*
X64763817Y-44570817D01*
X64799678Y-44527121D01*
X64838481Y-44486001D01*
X64854855Y-44459887D01*
X64874411Y-44436059D01*
X64901062Y-44386198D01*
X64931093Y-44338305D01*
X64942059Y-44309497D01*
X64956589Y-44282313D01*
X64972999Y-44228217D01*
X64993112Y-44175380D01*
X64998247Y-44144989D01*
X65007195Y-44115490D01*
X65012737Y-44059218D01*
X65022153Y-44003486D01*
X65020000Y-43929194D01*
X65020000Y-35893793D01*
X65021316Y-35886555D01*
X65020000Y-35806768D01*
X65020000Y-35770523D01*
X65019282Y-35763232D01*
X65018441Y-35712248D01*
X65010760Y-35676709D01*
X65007195Y-35640510D01*
X64992387Y-35591695D01*
X64981615Y-35541853D01*
X64967147Y-35508490D01*
X64956589Y-35473687D01*
X64932548Y-35428709D01*
X64912255Y-35381915D01*
X64891555Y-35352015D01*
X64874411Y-35319941D01*
X64842052Y-35280511D01*
X64813024Y-35238583D01*
X64786889Y-35213296D01*
X64763817Y-35185183D01*
X64724399Y-35152833D01*
X64687738Y-35117362D01*
X64657165Y-35097656D01*
X64629058Y-35074589D01*
X64584080Y-35050548D01*
X64577930Y-35046584D01*
X64545729Y-35030049D01*
X64475312Y-34992411D01*
X64468268Y-34990274D01*
X63945471Y-34721825D01*
X63965371Y-34692043D01*
X64069775Y-34439989D01*
X64123000Y-34172411D01*
X64123000Y-33899589D01*
X64069775Y-33632011D01*
X63965371Y-33379957D01*
X63813799Y-33153114D01*
X63620886Y-32960201D01*
X63394043Y-32808629D01*
X63141989Y-32704225D01*
X62874411Y-32651000D01*
X62601589Y-32651000D01*
X62334011Y-32704225D01*
X62081957Y-32808629D01*
X61855114Y-32960201D01*
X61662201Y-33153114D01*
X61510629Y-33379957D01*
X61468000Y-33482873D01*
X61425371Y-33379957D01*
X61273799Y-33153114D01*
X61080886Y-32960201D01*
X60854043Y-32808629D01*
X60601989Y-32704225D01*
X60334411Y-32651000D01*
X60061589Y-32651000D01*
X59794011Y-32704225D01*
X59541957Y-32808629D01*
X59315114Y-32960201D01*
X59122201Y-33153114D01*
X58970629Y-33379957D01*
X58928000Y-33482873D01*
X58885371Y-33379957D01*
X58733799Y-33153114D01*
X58540886Y-32960201D01*
X58314043Y-32808629D01*
X58061989Y-32704225D01*
X57794411Y-32651000D01*
X57531814Y-32651000D01*
X56492534Y-31383171D01*
X56492411Y-31382941D01*
X56436077Y-31314299D01*
X56409869Y-31282327D01*
X56409698Y-31282156D01*
X56381817Y-31248183D01*
X56348238Y-31220625D01*
X56317544Y-31189896D01*
X56281029Y-31165467D01*
X56247059Y-31137589D01*
X56208745Y-31117110D01*
X56172649Y-31092962D01*
X56132068Y-31076126D01*
X56093313Y-31055411D01*
X56051746Y-31042802D01*
X56011627Y-31026157D01*
X55968544Y-31017562D01*
X55926490Y-31004805D01*
X55883250Y-31000546D01*
X55840666Y-30992051D01*
X55796739Y-30992026D01*
X55796477Y-30992000D01*
X55751759Y-30992000D01*
X55666338Y-30991951D01*
X55666091Y-30992000D01*
X45278830Y-30992000D01*
X45258739Y-30988948D01*
X45191842Y-30992000D01*
X45168523Y-30992000D01*
X45148400Y-30993982D01*
X45084591Y-30996893D01*
X45061842Y-31002507D01*
X45038510Y-31004805D01*
X44977354Y-31023357D01*
X44915338Y-31038661D01*
X44894119Y-31048606D01*
X44871687Y-31055411D01*
X44815332Y-31085533D01*
X44757486Y-31112645D01*
X44738615Y-31126539D01*
X44717941Y-31137589D01*
X44668547Y-31178126D01*
X44652282Y-31190101D01*
X44634966Y-31205686D01*
X44583183Y-31248183D01*
X44570288Y-31263896D01*
X38311890Y-36896455D01*
X37641938Y-37360268D01*
X37629574Y-37355147D01*
X37352335Y-37300000D01*
X37069665Y-37300000D01*
X36792426Y-37355147D01*
X36531273Y-37463320D01*
X36296241Y-37620363D01*
X36096363Y-37820241D01*
X35939320Y-38055273D01*
X35831147Y-38316426D01*
X35776000Y-38593665D01*
X35776000Y-38876335D01*
X35831147Y-39153574D01*
X35939320Y-39414727D01*
X36096363Y-39649759D01*
X36296241Y-39849637D01*
X36531273Y-40006680D01*
X36792426Y-40114853D01*
X37069665Y-40170000D01*
X37352335Y-40170000D01*
X37629574Y-40114853D01*
X37890727Y-40006680D01*
X38125759Y-39849637D01*
X38325637Y-39649759D01*
X38482680Y-39414727D01*
X38590853Y-39153574D01*
X38646000Y-38876335D01*
X38646000Y-38817929D01*
X39304761Y-38361864D01*
X39316513Y-38356356D01*
X39376310Y-38312330D01*
X39401497Y-38294893D01*
X39411343Y-38286537D01*
X39421717Y-38278899D01*
X39444438Y-38258450D01*
X39501103Y-38210360D01*
X39509174Y-38200187D01*
X39868689Y-37876624D01*
X39749320Y-38055273D01*
X39641147Y-38316426D01*
X39586000Y-38593665D01*
X39586000Y-38876335D01*
X39641147Y-39153574D01*
X39749320Y-39414727D01*
X39906363Y-39649759D01*
X40106241Y-39849637D01*
X40341273Y-40006680D01*
X40602426Y-40114853D01*
X40879665Y-40170000D01*
X41162335Y-40170000D01*
X41195489Y-40163405D01*
X41215056Y-40180635D01*
X41225952Y-40191531D01*
X41247692Y-40209373D01*
X41268768Y-40227931D01*
X41281257Y-40236918D01*
X41326939Y-40274409D01*
X41351868Y-40287734D01*
X42639897Y-41214660D01*
X42685169Y-41251893D01*
X42748833Y-41286008D01*
X42811353Y-41322273D01*
X42825582Y-41327135D01*
X42838828Y-41334233D01*
X42907948Y-41355279D01*
X42976318Y-41378641D01*
X43034416Y-41386409D01*
X43599258Y-41499378D01*
X43641510Y-41512195D01*
X43728206Y-41520734D01*
X43814068Y-41529281D01*
X43858005Y-41525000D01*
X50375524Y-41525000D01*
X50419000Y-41529282D01*
X50550405Y-41516340D01*
X50592490Y-41512195D01*
X50759313Y-41461589D01*
X50913059Y-41379411D01*
X50931000Y-41364687D01*
X50931001Y-45676521D01*
X50926719Y-45720000D01*
X50943805Y-45893490D01*
X50994412Y-46060313D01*
X51076590Y-46214059D01*
X51159468Y-46315046D01*
X51159471Y-46315049D01*
X51187184Y-46348817D01*
X51220951Y-46376529D01*
X53562983Y-48718562D01*
X53556000Y-48753665D01*
X53556000Y-49036335D01*
X53611147Y-49313574D01*
X53719320Y-49574727D01*
X53876363Y-49809759D01*
X54076241Y-50009637D01*
X54311273Y-50166680D01*
X54572426Y-50274853D01*
X54849665Y-50330000D01*
X55132335Y-50330000D01*
X55409574Y-50274853D01*
X55603003Y-50194732D01*
X50339967Y-54775523D01*
X50420680Y-54654727D01*
X50528853Y-54393574D01*
X50584000Y-54116335D01*
X50584000Y-53833665D01*
X50528853Y-53556426D01*
X50420680Y-53295273D01*
X50263637Y-53060241D01*
X50063759Y-52860363D01*
X49828727Y-52703320D01*
X49567574Y-52595147D01*
X49290335Y-52540000D01*
X49007665Y-52540000D01*
X48730426Y-52595147D01*
X48469273Y-52703320D01*
X48234241Y-52860363D01*
X48034363Y-53060241D01*
X47900308Y-53260869D01*
X47885671Y-53233486D01*
X47641702Y-53161903D01*
X46828605Y-53975000D01*
X47641702Y-54788097D01*
X47885671Y-54716514D01*
X47899324Y-54687659D01*
X48034363Y-54889759D01*
X48234241Y-55089637D01*
X48264000Y-55109521D01*
X48264001Y-56654922D01*
X48129392Y-56765392D01*
X47950068Y-56983899D01*
X47876421Y-57121682D01*
X47761385Y-56929869D01*
X47572414Y-56721481D01*
X47346420Y-56553963D01*
X47092087Y-56433754D01*
X46958039Y-56393096D01*
X46736000Y-56515085D01*
X46736000Y-57658000D01*
X46756000Y-57658000D01*
X46756000Y-57912000D01*
X46736000Y-57912000D01*
X46736000Y-59054915D01*
X46958039Y-59176904D01*
X47092087Y-59136246D01*
X47346420Y-59016037D01*
X47572414Y-58848519D01*
X47761385Y-58640131D01*
X47876421Y-58448318D01*
X47950068Y-58586101D01*
X48129392Y-58804608D01*
X48347899Y-58983932D01*
X48597192Y-59117182D01*
X48867691Y-59199236D01*
X49078508Y-59220000D01*
X49219492Y-59220000D01*
X49430309Y-59199236D01*
X49610773Y-59144494D01*
X44520394Y-62222398D01*
X42438946Y-63333332D01*
X42438687Y-63333411D01*
X42361536Y-63374649D01*
X42323934Y-63394718D01*
X42323715Y-63394864D01*
X42284943Y-63415588D01*
X42251379Y-63443134D01*
X42215265Y-63467232D01*
X42184164Y-63498296D01*
X42183955Y-63498467D01*
X42153179Y-63529243D01*
X42091920Y-63590428D01*
X42091770Y-63590652D01*
X41733958Y-63948464D01*
X41733952Y-63948469D01*
X41702296Y-63980125D01*
X41599492Y-63970000D01*
X41458508Y-63970000D01*
X41247691Y-63990764D01*
X40977192Y-64072818D01*
X40727899Y-64206068D01*
X40509392Y-64385392D01*
X40330068Y-64603899D01*
X40259000Y-64736858D01*
X40187932Y-64603899D01*
X40008608Y-64385392D01*
X39790101Y-64206068D01*
X39540808Y-64072818D01*
X39270309Y-63990764D01*
X39059492Y-63970000D01*
X38918508Y-63970000D01*
X38815704Y-63980125D01*
X35073532Y-60237954D01*
X35045817Y-60204183D01*
X34911059Y-60093589D01*
X34757313Y-60011411D01*
X34590490Y-59960805D01*
X34460477Y-59948000D01*
X34460469Y-59948000D01*
X34417000Y-59943719D01*
X34373531Y-59948000D01*
X30846578Y-59948000D01*
X30733214Y-59834636D01*
X30711468Y-59811689D01*
X30702461Y-59803883D01*
X30694046Y-59795468D01*
X30669649Y-59775446D01*
X27174000Y-56745884D01*
X27174000Y-48768000D01*
X27260057Y-48768000D01*
X27287764Y-49049309D01*
X27369818Y-49319808D01*
X27503068Y-49569101D01*
X27682392Y-49787608D01*
X27817000Y-49898078D01*
X27817001Y-55074521D01*
X27812719Y-55118000D01*
X27829805Y-55291490D01*
X27880412Y-55458313D01*
X27962590Y-55612059D01*
X28045468Y-55713046D01*
X28045471Y-55713049D01*
X28073184Y-55746817D01*
X28106951Y-55774529D01*
X29944125Y-57611704D01*
X29927057Y-57785000D01*
X29954764Y-58066309D01*
X30036818Y-58336808D01*
X30170068Y-58586101D01*
X30349392Y-58804608D01*
X30567899Y-58983932D01*
X30817192Y-59117182D01*
X31087691Y-59199236D01*
X31298508Y-59220000D01*
X31439492Y-59220000D01*
X31650309Y-59199236D01*
X31920808Y-59117182D01*
X32170101Y-58983932D01*
X32388608Y-58804608D01*
X32567932Y-58586101D01*
X32639000Y-58453142D01*
X32710068Y-58586101D01*
X32889392Y-58804608D01*
X33107899Y-58983932D01*
X33357192Y-59117182D01*
X33627691Y-59199236D01*
X33838508Y-59220000D01*
X33979492Y-59220000D01*
X34190309Y-59199236D01*
X34460808Y-59117182D01*
X34710101Y-58983932D01*
X34928608Y-58804608D01*
X35107932Y-58586101D01*
X35179000Y-58453142D01*
X35250068Y-58586101D01*
X35429392Y-58804608D01*
X35647899Y-58983932D01*
X35897192Y-59117182D01*
X36167691Y-59199236D01*
X36378508Y-59220000D01*
X36519492Y-59220000D01*
X36730309Y-59199236D01*
X37000808Y-59117182D01*
X37250101Y-58983932D01*
X37468608Y-58804608D01*
X37647932Y-58586101D01*
X37719000Y-58453142D01*
X37790068Y-58586101D01*
X37969392Y-58804608D01*
X38187899Y-58983932D01*
X38437192Y-59117182D01*
X38707691Y-59199236D01*
X38918508Y-59220000D01*
X39059492Y-59220000D01*
X39270309Y-59199236D01*
X39540808Y-59117182D01*
X39790101Y-58983932D01*
X40008608Y-58804608D01*
X40187932Y-58586101D01*
X40259000Y-58453142D01*
X40330068Y-58586101D01*
X40509392Y-58804608D01*
X40727899Y-58983932D01*
X40977192Y-59117182D01*
X41247691Y-59199236D01*
X41458508Y-59220000D01*
X41599492Y-59220000D01*
X41810309Y-59199236D01*
X42080808Y-59117182D01*
X42330101Y-58983932D01*
X42548608Y-58804608D01*
X42727932Y-58586101D01*
X42799000Y-58453142D01*
X42870068Y-58586101D01*
X43049392Y-58804608D01*
X43267899Y-58983932D01*
X43517192Y-59117182D01*
X43787691Y-59199236D01*
X43998508Y-59220000D01*
X44139492Y-59220000D01*
X44350309Y-59199236D01*
X44620808Y-59117182D01*
X44870101Y-58983932D01*
X45088608Y-58804608D01*
X45267932Y-58586101D01*
X45341579Y-58448318D01*
X45456615Y-58640131D01*
X45645586Y-58848519D01*
X45871580Y-59016037D01*
X46125913Y-59136246D01*
X46259961Y-59176904D01*
X46482000Y-59054915D01*
X46482000Y-57912000D01*
X46462000Y-57912000D01*
X46462000Y-57658000D01*
X46482000Y-57658000D01*
X46482000Y-56515085D01*
X46259961Y-56393096D01*
X46125913Y-56433754D01*
X45871580Y-56553963D01*
X45645586Y-56721481D01*
X45456615Y-56929869D01*
X45341579Y-57121682D01*
X45267932Y-56983899D01*
X45088608Y-56765392D01*
X44954000Y-56654922D01*
X44954000Y-54967702D01*
X45835903Y-54967702D01*
X45907486Y-55211671D01*
X46162996Y-55332571D01*
X46437184Y-55401300D01*
X46719512Y-55415217D01*
X46999130Y-55373787D01*
X47265292Y-55278603D01*
X47390514Y-55211671D01*
X47462097Y-54967702D01*
X46649000Y-54154605D01*
X45835903Y-54967702D01*
X44954000Y-54967702D01*
X44954000Y-53833578D01*
X45289036Y-53498542D01*
X45222700Y-53763184D01*
X45208783Y-54045512D01*
X45250213Y-54325130D01*
X45345397Y-54591292D01*
X45412329Y-54716514D01*
X45656298Y-54788097D01*
X46469395Y-53975000D01*
X46455253Y-53960858D01*
X46634858Y-53781253D01*
X46649000Y-53795395D01*
X47462097Y-52982298D01*
X47390514Y-52738329D01*
X47135004Y-52617429D01*
X46860816Y-52548700D01*
X46578488Y-52534783D01*
X46298870Y-52576213D01*
X46162651Y-52624927D01*
X48467704Y-50319875D01*
X48570508Y-50330000D01*
X48711492Y-50330000D01*
X48922309Y-50309236D01*
X49192808Y-50227182D01*
X49442101Y-50093932D01*
X49660608Y-49914608D01*
X49839932Y-49696101D01*
X49973182Y-49446808D01*
X50055236Y-49176309D01*
X50082943Y-48895000D01*
X50055236Y-48613691D01*
X49973182Y-48343192D01*
X49839932Y-48093899D01*
X49660608Y-47875392D01*
X49442101Y-47696068D01*
X49192808Y-47562818D01*
X48922309Y-47480764D01*
X48711492Y-47460000D01*
X48570508Y-47460000D01*
X48359691Y-47480764D01*
X48089192Y-47562818D01*
X47839899Y-47696068D01*
X47621392Y-47875392D01*
X47442068Y-48093899D01*
X47308818Y-48343192D01*
X47226764Y-48613691D01*
X47199057Y-48895000D01*
X47216125Y-49068296D01*
X43473956Y-52810466D01*
X43440183Y-52838183D01*
X43329589Y-52972942D01*
X43247411Y-53126688D01*
X43222712Y-53208108D01*
X43196806Y-53293509D01*
X43196805Y-53293511D01*
X43184000Y-53423524D01*
X43184000Y-53423531D01*
X43179719Y-53467000D01*
X43184000Y-53510469D01*
X43184001Y-56654922D01*
X43049392Y-56765392D01*
X42870068Y-56983899D01*
X42799000Y-57116858D01*
X42727932Y-56983899D01*
X42548608Y-56765392D01*
X42414000Y-56654922D01*
X42414000Y-52563578D01*
X44657704Y-50319875D01*
X44760508Y-50330000D01*
X44901492Y-50330000D01*
X45112309Y-50309236D01*
X45382808Y-50227182D01*
X45632101Y-50093932D01*
X45850608Y-49914608D01*
X46029932Y-49696101D01*
X46163182Y-49446808D01*
X46245236Y-49176309D01*
X46272943Y-48895000D01*
X46245236Y-48613691D01*
X46163182Y-48343192D01*
X46029932Y-48093899D01*
X45850608Y-47875392D01*
X45632101Y-47696068D01*
X45382808Y-47562818D01*
X45112309Y-47480764D01*
X44901492Y-47460000D01*
X44760508Y-47460000D01*
X44549691Y-47480764D01*
X44279192Y-47562818D01*
X44029899Y-47696068D01*
X43811392Y-47875392D01*
X43632068Y-48093899D01*
X43498818Y-48343192D01*
X43416764Y-48613691D01*
X43389057Y-48895000D01*
X43406125Y-49068296D01*
X40933956Y-51540466D01*
X40900183Y-51568183D01*
X40789589Y-51702942D01*
X40707411Y-51856688D01*
X40672157Y-51972904D01*
X40658984Y-52016329D01*
X40656805Y-52023511D01*
X40644000Y-52153524D01*
X40644000Y-52153531D01*
X40639719Y-52197000D01*
X40644000Y-52240469D01*
X40644001Y-56654921D01*
X40509392Y-56765392D01*
X40330068Y-56983899D01*
X40259000Y-57116858D01*
X40187932Y-56983899D01*
X40008608Y-56765392D01*
X39874000Y-56654922D01*
X39874000Y-51293578D01*
X40847704Y-50319875D01*
X40950508Y-50330000D01*
X41091492Y-50330000D01*
X41302309Y-50309236D01*
X41572808Y-50227182D01*
X41822101Y-50093932D01*
X42040608Y-49914608D01*
X42219932Y-49696101D01*
X42353182Y-49446808D01*
X42435236Y-49176309D01*
X42462943Y-48895000D01*
X42435236Y-48613691D01*
X42353182Y-48343192D01*
X42219932Y-48093899D01*
X42040608Y-47875392D01*
X41822101Y-47696068D01*
X41572808Y-47562818D01*
X41302309Y-47480764D01*
X41091492Y-47460000D01*
X40950508Y-47460000D01*
X40739691Y-47480764D01*
X40469192Y-47562818D01*
X40219899Y-47696068D01*
X40001392Y-47875392D01*
X39822068Y-48093899D01*
X39688818Y-48343192D01*
X39606764Y-48613691D01*
X39579057Y-48895000D01*
X39596125Y-49068296D01*
X38393956Y-50270466D01*
X38360183Y-50298183D01*
X38249589Y-50432942D01*
X38167411Y-50586688D01*
X38116805Y-50753511D01*
X38104000Y-50883524D01*
X38104000Y-50883531D01*
X38099719Y-50927000D01*
X38104000Y-50970469D01*
X38104001Y-56654921D01*
X38096000Y-56661488D01*
X38096000Y-50025078D01*
X38230608Y-49914608D01*
X38409932Y-49696101D01*
X38543182Y-49446808D01*
X38625236Y-49176309D01*
X38652943Y-48895000D01*
X38625236Y-48613691D01*
X38543182Y-48343192D01*
X38409932Y-48093899D01*
X38230608Y-47875392D01*
X38012101Y-47696068D01*
X37762808Y-47562818D01*
X37492309Y-47480764D01*
X37281492Y-47460000D01*
X37140508Y-47460000D01*
X36929691Y-47480764D01*
X36659192Y-47562818D01*
X36409899Y-47696068D01*
X36191392Y-47875392D01*
X36012068Y-48093899D01*
X35878818Y-48343192D01*
X35796764Y-48613691D01*
X35769057Y-48895000D01*
X35796764Y-49176309D01*
X35878818Y-49446808D01*
X36012068Y-49696101D01*
X36191392Y-49914608D01*
X36326000Y-50025078D01*
X36326001Y-56355172D01*
X36167691Y-56370764D01*
X35897192Y-56452818D01*
X35647899Y-56586068D01*
X35429392Y-56765392D01*
X35250068Y-56983899D01*
X35179000Y-57116858D01*
X35107932Y-56983899D01*
X34928608Y-56765392D01*
X34710101Y-56586068D01*
X34460808Y-56452818D01*
X34286000Y-56399791D01*
X34286000Y-50025078D01*
X34420608Y-49914608D01*
X34599932Y-49696101D01*
X34733182Y-49446808D01*
X34815236Y-49176309D01*
X34842943Y-48895000D01*
X34815236Y-48613691D01*
X34733182Y-48343192D01*
X34599932Y-48093899D01*
X34420608Y-47875392D01*
X34202101Y-47696068D01*
X33952808Y-47562818D01*
X33682309Y-47480764D01*
X33471492Y-47460000D01*
X33330508Y-47460000D01*
X33119691Y-47480764D01*
X32849192Y-47562818D01*
X32599899Y-47696068D01*
X32381392Y-47875392D01*
X32202068Y-48093899D01*
X32068818Y-48343192D01*
X31986764Y-48613691D01*
X31959057Y-48895000D01*
X31986764Y-49176309D01*
X32068818Y-49446808D01*
X32202068Y-49696101D01*
X32381392Y-49914608D01*
X32516000Y-50025078D01*
X32516001Y-56920621D01*
X32388608Y-56765392D01*
X32170101Y-56586068D01*
X31920808Y-56452818D01*
X31650309Y-56370764D01*
X31439492Y-56350000D01*
X31298508Y-56350000D01*
X31195704Y-56360125D01*
X29587000Y-54751422D01*
X29587000Y-49898078D01*
X29721608Y-49787608D01*
X29900932Y-49569101D01*
X30034182Y-49319808D01*
X30116236Y-49049309D01*
X30143943Y-48768000D01*
X30116236Y-48486691D01*
X30034182Y-48216192D01*
X29900932Y-47966899D01*
X29721608Y-47748392D01*
X29503101Y-47569068D01*
X29253808Y-47435818D01*
X28983309Y-47353764D01*
X28772492Y-47333000D01*
X28631508Y-47333000D01*
X28420691Y-47353764D01*
X28150192Y-47435818D01*
X27900899Y-47569068D01*
X27682392Y-47748392D01*
X27503068Y-47966899D01*
X27369818Y-48216192D01*
X27287764Y-48486691D01*
X27260057Y-48768000D01*
X27174000Y-48768000D01*
X27174000Y-38341108D01*
X27321054Y-38194919D01*
X27267000Y-38466665D01*
X27267000Y-38749335D01*
X27322147Y-39026574D01*
X27430320Y-39287727D01*
X27587363Y-39522759D01*
X27787241Y-39722637D01*
X28022273Y-39879680D01*
X28283426Y-39987853D01*
X28560665Y-40043000D01*
X28843335Y-40043000D01*
X29120574Y-39987853D01*
X29381727Y-39879680D01*
X29616759Y-39722637D01*
X29816637Y-39522759D01*
X29973680Y-39287727D01*
X30081853Y-39026574D01*
X30137000Y-38749335D01*
X30137000Y-38466665D01*
X30130017Y-38431561D01*
X30345503Y-38216076D01*
X33905170Y-36487673D01*
X33974830Y-36455872D01*
X34018796Y-36424177D01*
X34065028Y-36395819D01*
X34121325Y-36343735D01*
X52401625Y-20220112D01*
X52423047Y-20202531D01*
X52434185Y-20191393D01*
X52445968Y-20181000D01*
X52714411Y-20181000D01*
X52981989Y-20127775D01*
X53234043Y-20023371D01*
X53460886Y-19871799D01*
X53653799Y-19678886D01*
X53805371Y-19452043D01*
X53848000Y-19349127D01*
X53890629Y-19452043D01*
X54042201Y-19678886D01*
X54235114Y-19871799D01*
X54461957Y-20023371D01*
X54714011Y-20127775D01*
X54981589Y-20181000D01*
X55254411Y-20181000D01*
X55521989Y-20127775D01*
X55774043Y-20023371D01*
X56000886Y-19871799D01*
X56193799Y-19678886D01*
X56345371Y-19452043D01*
X56388000Y-19349127D01*
X56430629Y-19452043D01*
X56582201Y-19678886D01*
X56775114Y-19871799D01*
X57001957Y-20023371D01*
X57254011Y-20127775D01*
X57521589Y-20181000D01*
X57794411Y-20181000D01*
X58061989Y-20127775D01*
X58314043Y-20023371D01*
X58540886Y-19871799D01*
X58733799Y-19678886D01*
X58885371Y-19452043D01*
X58928000Y-19349127D01*
X58970629Y-19452043D01*
X59122201Y-19678886D01*
X59315114Y-19871799D01*
X59541957Y-20023371D01*
X59794011Y-20127775D01*
X59934588Y-20155738D01*
X59740626Y-20324000D01*
X54485546Y-20324000D01*
X54401080Y-20323499D01*
X54355606Y-20332265D01*
X54309510Y-20336805D01*
X54270210Y-20348727D01*
X54229901Y-20356497D01*
X54187013Y-20373965D01*
X54142687Y-20387411D01*
X54106474Y-20406767D01*
X54068449Y-20422254D01*
X54029791Y-20447755D01*
X53988941Y-20469589D01*
X53923565Y-20523242D01*
X35151009Y-35744234D01*
X35137982Y-35753518D01*
X35117203Y-35771645D01*
X35095855Y-35788954D01*
X35084512Y-35800164D01*
X33365232Y-37300000D01*
X33259665Y-37300000D01*
X32982426Y-37355147D01*
X32721273Y-37463320D01*
X32486241Y-37620363D01*
X32286363Y-37820241D01*
X32129320Y-38055273D01*
X32021147Y-38316426D01*
X31966000Y-38593665D01*
X31966000Y-38876335D01*
X32021147Y-39153574D01*
X32129320Y-39414727D01*
X32286363Y-39649759D01*
X32486241Y-39849637D01*
X32721273Y-40006680D01*
X32982426Y-40114853D01*
X33259665Y-40170000D01*
X33542335Y-40170000D01*
X33819574Y-40114853D01*
X34080727Y-40006680D01*
X34315759Y-39849637D01*
X34515637Y-39649759D01*
X34672680Y-39414727D01*
X34780853Y-39153574D01*
X34836000Y-38876335D01*
X34836000Y-38593665D01*
X34797377Y-38399497D01*
X36256788Y-37126363D01*
X54796703Y-22094000D01*
X59996044Y-22094000D01*
X60008064Y-22096051D01*
X60083072Y-22094000D01*
X60114477Y-22094000D01*
X60126547Y-22092811D01*
X60182328Y-22091286D01*
X60213089Y-22084288D01*
X60244490Y-22081195D01*
X60297906Y-22064991D01*
X60352314Y-22052613D01*
X60381117Y-22039749D01*
X60411313Y-22030589D01*
X60460537Y-22004279D01*
X60511490Y-21981522D01*
X60537230Y-21963286D01*
X60565059Y-21948411D01*
X60608208Y-21912999D01*
X60618090Y-21905998D01*
X60641775Y-21885451D01*
X60699817Y-21837817D01*
X60707559Y-21828384D01*
X62558810Y-20222422D01*
X62583047Y-20202531D01*
X62591612Y-20193966D01*
X62600774Y-20186018D01*
X62605525Y-20181000D01*
X62874411Y-20181000D01*
X63141989Y-20127775D01*
X63394043Y-20023371D01*
X63620886Y-19871799D01*
X63813799Y-19678886D01*
X63965371Y-19452043D01*
X64069775Y-19199989D01*
X64123000Y-18932411D01*
X64123000Y-18659589D01*
X64069775Y-18392011D01*
X63965371Y-18139957D01*
X63813799Y-17913114D01*
X63620886Y-17720201D01*
X63394043Y-17568629D01*
X63141989Y-17464225D01*
X62874411Y-17411000D01*
X62601589Y-17411000D01*
X62334011Y-17464225D01*
X62081957Y-17568629D01*
X61855114Y-17720201D01*
X61662201Y-17913114D01*
X61510629Y-18139957D01*
X61468000Y-18242873D01*
X61425371Y-18139957D01*
X61273799Y-17913114D01*
X61083000Y-17722315D01*
X61083000Y-16797872D01*
X92634000Y-16797872D01*
X92634000Y-17238128D01*
X92719890Y-17669925D01*
X92888369Y-18076669D01*
X93132962Y-18442729D01*
X93444271Y-18754038D01*
X93810331Y-18998631D01*
X94217075Y-19167110D01*
X94648872Y-19253000D01*
X95089128Y-19253000D01*
X95520925Y-19167110D01*
X95927669Y-18998631D01*
X96293729Y-18754038D01*
X96605038Y-18442729D01*
X96849631Y-18076669D01*
X97018110Y-17669925D01*
X97104000Y-17238128D01*
X97104000Y-16797872D01*
X97018110Y-16366075D01*
X96849631Y-15959331D01*
X96605038Y-15593271D01*
X96293729Y-15281962D01*
X95927669Y-15037369D01*
X95520925Y-14868890D01*
X95089128Y-14783000D01*
X94648872Y-14783000D01*
X94217075Y-14868890D01*
X93810331Y-15037369D01*
X93444271Y-15281962D01*
X93132962Y-15593271D01*
X92888369Y-15959331D01*
X92719890Y-16366075D01*
X92634000Y-16797872D01*
X61083000Y-16797872D01*
X61083000Y-16553477D01*
X61087282Y-16510000D01*
X61070195Y-16336510D01*
X61019589Y-16169687D01*
X60937411Y-16015941D01*
X60826817Y-15881183D01*
X60692059Y-15770589D01*
X60538313Y-15688411D01*
X60371490Y-15637805D01*
X60241477Y-15625000D01*
X60198000Y-15620718D01*
X60154524Y-15625000D01*
X47923775Y-15625000D01*
X47881623Y-15620723D01*
X47836840Y-15625000D01*
X47835523Y-15625000D01*
X47793377Y-15629151D01*
X47708083Y-15637297D01*
X47706820Y-15637676D01*
X47705510Y-15637805D01*
X47623377Y-15662720D01*
X47541111Y-15687411D01*
X47539947Y-15688029D01*
X47538687Y-15688411D01*
X47462999Y-15728866D01*
X47387124Y-15769135D01*
X47386103Y-15769968D01*
X47384941Y-15770589D01*
X47318737Y-15824921D01*
X47285892Y-15851715D01*
X47284957Y-15852644D01*
X47250183Y-15881183D01*
X47223304Y-15913935D01*
X25694967Y-37315636D01*
X25660183Y-37344183D01*
X25605729Y-37410535D01*
X25551050Y-37476762D01*
X25550425Y-37477924D01*
X25549589Y-37478942D01*
X25509120Y-37554656D01*
X25468419Y-37630265D01*
X25468033Y-37631525D01*
X25467411Y-37632688D01*
X25442468Y-37714913D01*
X25417321Y-37796938D01*
X25417188Y-37798248D01*
X25416805Y-37799511D01*
X25408365Y-37885204D01*
X25399723Y-37970377D01*
X25404000Y-38015157D01*
X25404001Y-57138099D01*
X25401979Y-57213358D01*
X25411356Y-57268157D01*
X25416806Y-57323490D01*
X25426026Y-57353883D01*
X25431383Y-57385190D01*
X25451274Y-57437114D01*
X25467412Y-57490313D01*
X25482383Y-57518323D01*
X25493746Y-57547984D01*
X25523380Y-57595024D01*
X25549590Y-57644059D01*
X25569739Y-57668610D01*
X25586669Y-57695484D01*
X25624917Y-57735844D01*
X25660184Y-57778817D01*
X25718366Y-57826566D01*
X29495541Y-61100119D01*
X29823466Y-61428044D01*
X29851183Y-61461817D01*
X29985941Y-61572411D01*
X30139687Y-61654589D01*
X30306510Y-61705195D01*
X30436523Y-61718000D01*
X30436533Y-61718000D01*
X30479999Y-61722281D01*
X30523465Y-61718000D01*
X34050422Y-61718000D01*
X36309244Y-63976822D01*
X36167691Y-63990764D01*
X35897192Y-64072818D01*
X35647899Y-64206068D01*
X35429392Y-64385392D01*
X35250068Y-64603899D01*
X35179000Y-64736858D01*
X35107932Y-64603899D01*
X34928608Y-64385392D01*
X34710101Y-64206068D01*
X34460808Y-64072818D01*
X34190309Y-63990764D01*
X33979492Y-63970000D01*
X33838508Y-63970000D01*
X33627691Y-63990764D01*
X33357192Y-64072818D01*
X33107899Y-64206068D01*
X32889392Y-64385392D01*
X32796581Y-64498482D01*
X32794812Y-64480518D01*
X32758502Y-64360820D01*
X32699537Y-64250506D01*
X32620185Y-64153815D01*
X32523494Y-64074463D01*
X32413180Y-64015498D01*
X32293482Y-63979188D01*
X32169000Y-63966928D01*
X30569000Y-63966928D01*
X30444518Y-63979188D01*
X30324820Y-64015498D01*
X30214506Y-64074463D01*
X30117815Y-64153815D01*
X30038463Y-64250506D01*
X29979498Y-64360820D01*
X29943188Y-64480518D01*
X29930928Y-64605000D01*
X29930928Y-64647000D01*
X29201521Y-64647000D01*
X29181637Y-64617241D01*
X28981759Y-64417363D01*
X28952000Y-64397479D01*
X28952000Y-64178465D01*
X28956281Y-64134999D01*
X28952000Y-64091533D01*
X28952000Y-64091523D01*
X28939195Y-63961510D01*
X28888589Y-63794687D01*
X28806411Y-63640941D01*
X28782210Y-63611452D01*
X28723532Y-63539953D01*
X28723530Y-63539951D01*
X28695817Y-63506183D01*
X28662051Y-63478472D01*
X22221000Y-57037422D01*
X22221000Y-49898078D01*
X22355608Y-49787608D01*
X22534932Y-49569101D01*
X22668182Y-49319808D01*
X22750236Y-49049309D01*
X22777943Y-48768000D01*
X22750236Y-48486691D01*
X22668182Y-48216192D01*
X22534932Y-47966899D01*
X22355608Y-47748392D01*
X22137101Y-47569068D01*
X21887808Y-47435818D01*
X21617309Y-47353764D01*
X21406492Y-47333000D01*
X21265508Y-47333000D01*
X21054691Y-47353764D01*
X20784192Y-47435818D01*
X20534899Y-47569068D01*
X20316392Y-47748392D01*
X20137068Y-47966899D01*
X20003818Y-48216192D01*
X19921764Y-48486691D01*
X19894057Y-48768000D01*
X19921764Y-49049309D01*
X20003818Y-49319808D01*
X20137068Y-49569101D01*
X20316392Y-49787608D01*
X20451000Y-49898078D01*
X20451001Y-57360521D01*
X20446719Y-57404000D01*
X20463805Y-57577490D01*
X20514412Y-57744313D01*
X20596590Y-57898059D01*
X20679468Y-57999046D01*
X20679471Y-57999049D01*
X20707184Y-58032817D01*
X20740952Y-58060530D01*
X27125013Y-64444591D01*
X26952363Y-64617241D01*
X26795320Y-64852273D01*
X26687147Y-65113426D01*
X26632000Y-65390665D01*
X26632000Y-65673335D01*
X26687147Y-65950574D01*
X26795320Y-66211727D01*
X26952363Y-66446759D01*
X27152241Y-66646637D01*
X27354827Y-66782000D01*
X27152241Y-66917363D01*
X26952363Y-67117241D01*
X26795320Y-67352273D01*
X26687147Y-67613426D01*
X26632000Y-67890665D01*
X26632000Y-68173335D01*
X26687147Y-68450574D01*
X26795320Y-68711727D01*
X26952363Y-68946759D01*
X26970604Y-68965000D01*
X25535719Y-68965000D01*
X19173000Y-62013142D01*
X19173000Y-40891208D01*
X20381406Y-39682802D01*
X20421241Y-39722637D01*
X20656273Y-39879680D01*
X20917426Y-39987853D01*
X21194665Y-40043000D01*
X21477335Y-40043000D01*
X21754574Y-39987853D01*
X22015727Y-39879680D01*
X22250759Y-39722637D01*
X22450637Y-39522759D01*
X22607680Y-39287727D01*
X22715853Y-39026574D01*
X22771000Y-38749335D01*
X22771000Y-38466665D01*
X22715853Y-38189426D01*
X22607680Y-37928273D01*
X22450637Y-37693241D01*
X22250759Y-37493363D01*
X22221000Y-37473479D01*
X22221000Y-35310621D01*
X22330180Y-35277502D01*
X22440494Y-35218537D01*
X22537185Y-35139185D01*
X22612018Y-35048000D01*
X24900479Y-35048000D01*
X24920363Y-35077759D01*
X25120241Y-35277637D01*
X25355273Y-35434680D01*
X25616426Y-35542853D01*
X25893665Y-35598000D01*
X26176335Y-35598000D01*
X26453574Y-35542853D01*
X26714727Y-35434680D01*
X26949759Y-35277637D01*
X27149637Y-35077759D01*
X27306680Y-34842727D01*
X27414853Y-34581574D01*
X27470000Y-34304335D01*
X27470000Y-34021665D01*
X27414853Y-33744426D01*
X27306680Y-33483273D01*
X27149637Y-33248241D01*
X26949759Y-33048363D01*
X26749131Y-32914308D01*
X26776514Y-32899671D01*
X26848097Y-32655702D01*
X26035000Y-31842605D01*
X25221903Y-32655702D01*
X25293486Y-32899671D01*
X25322341Y-32913324D01*
X25120241Y-33048363D01*
X24920363Y-33248241D01*
X24900479Y-33278000D01*
X22663433Y-33278000D01*
X22671272Y-33260337D01*
X22679964Y-33198810D01*
X22554163Y-33020000D01*
X22236235Y-33020000D01*
X22210482Y-33012188D01*
X22086000Y-32999928D01*
X20586000Y-32999928D01*
X20461518Y-33012188D01*
X20435765Y-33020000D01*
X20117837Y-33020000D01*
X19992036Y-33198810D01*
X20000728Y-33260337D01*
X20031176Y-33328943D01*
X19996498Y-33393820D01*
X19960188Y-33513518D01*
X19947928Y-33638000D01*
X19947928Y-34688000D01*
X19960188Y-34812482D01*
X19996498Y-34932180D01*
X20055463Y-35042494D01*
X20134815Y-35139185D01*
X20231506Y-35218537D01*
X20341820Y-35277502D01*
X20451001Y-35310622D01*
X20451000Y-37473479D01*
X20421241Y-37493363D01*
X20221363Y-37693241D01*
X20204319Y-37718750D01*
X20161163Y-37723000D01*
X20161153Y-37723000D01*
X20031140Y-37735805D01*
X19864317Y-37786411D01*
X19710571Y-37868589D01*
X19710569Y-37868590D01*
X19710570Y-37868590D01*
X19609583Y-37951468D01*
X19609581Y-37951470D01*
X19575813Y-37979183D01*
X19548100Y-38012951D01*
X17692956Y-39868096D01*
X17659183Y-39895813D01*
X17548589Y-40030572D01*
X17466411Y-40184318D01*
X17415805Y-40351141D01*
X17403000Y-40481154D01*
X17403000Y-40481161D01*
X17398719Y-40524630D01*
X13385000Y-40524630D01*
X13385000Y-27665513D01*
X13588954Y-27665513D01*
X13593000Y-27719257D01*
X13593000Y-27729476D01*
X13596265Y-27762627D01*
X13602041Y-27839350D01*
X13604796Y-27849249D01*
X13605805Y-27859489D01*
X13628156Y-27933170D01*
X13648789Y-28007294D01*
X13653426Y-28016471D01*
X13656411Y-28026312D01*
X13692703Y-28094210D01*
X13727404Y-28162892D01*
X13733740Y-28170985D01*
X13738589Y-28180058D01*
X13787431Y-28239572D01*
X13834863Y-28300163D01*
X13842659Y-28306867D01*
X13849183Y-28314817D01*
X13908706Y-28363667D01*
X13933915Y-28385346D01*
X13942264Y-28391207D01*
X13983941Y-28425411D01*
X14013459Y-28441189D01*
X19550273Y-32328215D01*
X19591941Y-32362411D01*
X19659816Y-32398690D01*
X19726848Y-32436531D01*
X19736621Y-32439743D01*
X19745687Y-32444589D01*
X19819352Y-32466935D01*
X19892461Y-32490965D01*
X19902662Y-32492208D01*
X19912510Y-32495195D01*
X19989136Y-32502742D01*
X20009784Y-32505257D01*
X20000728Y-32525663D01*
X19992036Y-32587190D01*
X20117837Y-32766000D01*
X20882891Y-32766000D01*
X20883600Y-32766215D01*
X21054021Y-32783000D01*
X21617979Y-32783000D01*
X21788400Y-32766215D01*
X21789109Y-32766000D01*
X22554163Y-32766000D01*
X22679964Y-32587190D01*
X22671272Y-32525663D01*
X22578275Y-32316118D01*
X22537071Y-32257669D01*
X22637885Y-32069060D01*
X22704215Y-31850400D01*
X22715727Y-31733512D01*
X24594783Y-31733512D01*
X24636213Y-32013130D01*
X24731397Y-32279292D01*
X24798329Y-32404514D01*
X25042298Y-32476097D01*
X25855395Y-31663000D01*
X26214605Y-31663000D01*
X27027702Y-32476097D01*
X27271671Y-32404514D01*
X27392571Y-32149004D01*
X27461300Y-31874816D01*
X27475217Y-31592488D01*
X27433787Y-31312870D01*
X27338603Y-31046708D01*
X27271671Y-30921486D01*
X27027702Y-30849903D01*
X26214605Y-31663000D01*
X25855395Y-31663000D01*
X25042298Y-30849903D01*
X24798329Y-30921486D01*
X24677429Y-31176996D01*
X24608700Y-31451184D01*
X24594783Y-31733512D01*
X22715727Y-31733512D01*
X22726612Y-31623000D01*
X22704215Y-31395600D01*
X22637885Y-31176940D01*
X22530171Y-30975421D01*
X22385212Y-30798788D01*
X22228647Y-30670298D01*
X25221903Y-30670298D01*
X26035000Y-31483395D01*
X26848097Y-30670298D01*
X26776514Y-30426329D01*
X26521004Y-30305429D01*
X26246816Y-30236700D01*
X25964488Y-30222783D01*
X25684870Y-30264213D01*
X25418708Y-30359397D01*
X25293486Y-30426329D01*
X25221903Y-30670298D01*
X22228647Y-30670298D01*
X22208579Y-30653829D01*
X22007060Y-30546115D01*
X21788400Y-30479785D01*
X21617979Y-30463000D01*
X21054021Y-30463000D01*
X20883600Y-30479785D01*
X20664940Y-30546115D01*
X20463421Y-30653829D01*
X20363061Y-30736192D01*
X15363000Y-27225987D01*
X15363000Y-26518890D01*
X15703524Y-26518890D01*
X15748175Y-26666099D01*
X15873359Y-26928920D01*
X16047412Y-27162269D01*
X16263645Y-27357178D01*
X16513748Y-27506157D01*
X16788109Y-27603481D01*
X17018000Y-27482814D01*
X17018000Y-26289000D01*
X17272000Y-26289000D01*
X17272000Y-27482814D01*
X17501891Y-27603481D01*
X17776252Y-27506157D01*
X18026355Y-27357178D01*
X18242588Y-27162269D01*
X18416641Y-26928920D01*
X18541825Y-26666099D01*
X18586476Y-26518890D01*
X18561606Y-26471764D01*
X22570841Y-26471764D01*
X22618148Y-26695348D01*
X22839516Y-26796237D01*
X23076313Y-26852000D01*
X23319438Y-26860495D01*
X23559549Y-26821395D01*
X23787418Y-26736202D01*
X23863852Y-26695348D01*
X23911159Y-26471764D01*
X23241000Y-25801605D01*
X22570841Y-26471764D01*
X18561606Y-26471764D01*
X18465155Y-26289000D01*
X17272000Y-26289000D01*
X17018000Y-26289000D01*
X15824845Y-26289000D01*
X15703524Y-26518890D01*
X15363000Y-26518890D01*
X15363000Y-24956024D01*
X15787766Y-24854889D01*
X15843815Y-24923185D01*
X15940506Y-25002537D01*
X16050820Y-25061502D01*
X16131466Y-25085966D01*
X16047412Y-25161731D01*
X15873359Y-25395080D01*
X15748175Y-25657901D01*
X15703524Y-25805110D01*
X15824845Y-26035000D01*
X17018000Y-26035000D01*
X17018000Y-26015000D01*
X17272000Y-26015000D01*
X17272000Y-26035000D01*
X18465155Y-26035000D01*
X18586476Y-25805110D01*
X18554728Y-25700438D01*
X22002505Y-25700438D01*
X22041605Y-25940549D01*
X22126798Y-26168418D01*
X22167652Y-26244852D01*
X22391236Y-26292159D01*
X23061395Y-25622000D01*
X23420605Y-25622000D01*
X24090764Y-26292159D01*
X24314348Y-26244852D01*
X24415237Y-26023484D01*
X24471000Y-25786687D01*
X24479495Y-25543562D01*
X24440395Y-25303451D01*
X24355202Y-25075582D01*
X24314348Y-24999148D01*
X24090764Y-24951841D01*
X23420605Y-25622000D01*
X23061395Y-25622000D01*
X22391236Y-24951841D01*
X22167652Y-24999148D01*
X22066763Y-25220516D01*
X22011000Y-25457313D01*
X22002505Y-25700438D01*
X18554728Y-25700438D01*
X18541825Y-25657901D01*
X18416641Y-25395080D01*
X18242588Y-25161731D01*
X18158534Y-25085966D01*
X18239180Y-25061502D01*
X18349494Y-25002537D01*
X18446185Y-24923185D01*
X18525537Y-24826494D01*
X18584502Y-24716180D01*
X18620812Y-24596482D01*
X18629625Y-24507000D01*
X22379446Y-24507000D01*
X22453733Y-24581287D01*
X22591733Y-24673496D01*
X22570841Y-24772236D01*
X23241000Y-25442395D01*
X23911159Y-24772236D01*
X23890267Y-24673496D01*
X24028267Y-24581287D01*
X24200287Y-24409267D01*
X24335443Y-24206992D01*
X24428540Y-23982236D01*
X24476000Y-23743637D01*
X24476000Y-23500363D01*
X24428540Y-23261764D01*
X24335443Y-23037008D01*
X24200287Y-22834733D01*
X24028267Y-22662713D01*
X23825992Y-22527557D01*
X23601236Y-22434460D01*
X23362637Y-22387000D01*
X23119363Y-22387000D01*
X22880764Y-22434460D01*
X22656008Y-22527557D01*
X22453733Y-22662713D01*
X22379446Y-22737000D01*
X18629625Y-22737000D01*
X18620812Y-22647518D01*
X18584502Y-22527820D01*
X18525537Y-22417506D01*
X18446185Y-22320815D01*
X18349494Y-22241463D01*
X18239180Y-22182498D01*
X18119482Y-22146188D01*
X17995000Y-22133928D01*
X16295000Y-22133928D01*
X16170518Y-22146188D01*
X16050820Y-22182498D01*
X15940506Y-22241463D01*
X15843815Y-22320815D01*
X15764463Y-22417506D01*
X15705498Y-22527820D01*
X15669188Y-22647518D01*
X15656928Y-22772000D01*
X15656928Y-23066564D01*
X14331467Y-23382150D01*
X14304511Y-23384805D01*
X14246843Y-23402299D01*
X14230722Y-23406137D01*
X14205262Y-23414912D01*
X14137688Y-23435411D01*
X14122980Y-23443273D01*
X14107210Y-23448708D01*
X14046227Y-23484297D01*
X13983942Y-23517589D01*
X13971046Y-23528173D01*
X13956645Y-23536577D01*
X13903772Y-23583383D01*
X13849184Y-23628183D01*
X13838606Y-23641073D01*
X13826114Y-23652131D01*
X13783382Y-23708363D01*
X13738590Y-23762941D01*
X13730728Y-23777650D01*
X13720636Y-23790930D01*
X13689694Y-23854421D01*
X13656412Y-23916687D01*
X13651572Y-23932644D01*
X13644263Y-23947640D01*
X13626304Y-24015938D01*
X13605806Y-24083510D01*
X13604171Y-24100110D01*
X13599930Y-24116239D01*
X13595640Y-24186727D01*
X13593001Y-24213523D01*
X13593001Y-24230091D01*
X13589340Y-24290246D01*
X13593001Y-24317085D01*
X13593000Y-27632300D01*
X13588954Y-27665513D01*
X13385000Y-27665513D01*
X13385000Y-16797872D01*
X14783000Y-16797872D01*
X14783000Y-17238128D01*
X14868890Y-17669925D01*
X15037369Y-18076669D01*
X15281962Y-18442729D01*
X15593271Y-18754038D01*
X15959331Y-18998631D01*
X16366075Y-19167110D01*
X16797872Y-19253000D01*
X17238128Y-19253000D01*
X17669925Y-19167110D01*
X18076669Y-18998631D01*
X18442729Y-18754038D01*
X18754038Y-18442729D01*
X18998631Y-18076669D01*
X19167110Y-17669925D01*
X19253000Y-17238128D01*
X19253000Y-16797872D01*
X19167110Y-16366075D01*
X18998631Y-15959331D01*
X18754038Y-15593271D01*
X18442729Y-15281962D01*
X18076669Y-15037369D01*
X17669925Y-14868890D01*
X17238128Y-14783000D01*
X16797872Y-14783000D01*
X16366075Y-14868890D01*
X15959331Y-15037369D01*
X15593271Y-15281962D01*
X15281962Y-15593271D01*
X15037369Y-15959331D01*
X14868890Y-16366075D01*
X14783000Y-16797872D01*
X13385000Y-16797872D01*
X13385000Y-13385000D01*
X98375000Y-13385000D01*
X98375001Y-78055000D01*
X98375001Y-78055000D01*
G37*
X98375001Y-78055000D02*
X13385000Y-78055000D01*
X13385000Y-74963872D01*
X14783000Y-74963872D01*
X14783000Y-75404128D01*
X14868890Y-75835925D01*
X15037369Y-76242669D01*
X15281962Y-76608729D01*
X15593271Y-76920038D01*
X15959331Y-77164631D01*
X16366075Y-77333110D01*
X16797872Y-77419000D01*
X17238128Y-77419000D01*
X17669925Y-77333110D01*
X18076669Y-77164631D01*
X18442729Y-76920038D01*
X18754038Y-76608729D01*
X18998631Y-76242669D01*
X19167110Y-75835925D01*
X19175110Y-75795702D01*
X42493903Y-75795702D01*
X42565486Y-76039671D01*
X42820996Y-76160571D01*
X43095184Y-76229300D01*
X43377512Y-76243217D01*
X43657130Y-76201787D01*
X43923292Y-76106603D01*
X44048514Y-76039671D01*
X44120097Y-75795702D01*
X43993097Y-75668702D01*
X59765903Y-75668702D01*
X59837486Y-75912671D01*
X60092996Y-76033571D01*
X60367184Y-76102300D01*
X60649512Y-76116217D01*
X60929130Y-76074787D01*
X61195292Y-75979603D01*
X61320514Y-75912671D01*
X61392097Y-75668702D01*
X60579000Y-74855605D01*
X59765903Y-75668702D01*
X43993097Y-75668702D01*
X43307000Y-74982605D01*
X42493903Y-75795702D01*
X19175110Y-75795702D01*
X19253000Y-75404128D01*
X19253000Y-74963872D01*
X19235027Y-74873512D01*
X41866783Y-74873512D01*
X41908213Y-75153130D01*
X42003397Y-75419292D01*
X42070329Y-75544514D01*
X42314298Y-75616097D01*
X43127395Y-74803000D01*
X43486605Y-74803000D01*
X44299702Y-75616097D01*
X44543671Y-75544514D01*
X44664571Y-75289004D01*
X44733300Y-75014816D01*
X44746525Y-74746512D01*
X59138783Y-74746512D01*
X59180213Y-75026130D01*
X59275397Y-75292292D01*
X59342329Y-75417514D01*
X59586298Y-75489097D01*
X60399395Y-74676000D01*
X60758605Y-74676000D01*
X61571702Y-75489097D01*
X61815671Y-75417514D01*
X61936571Y-75162004D01*
X62005300Y-74887816D01*
X62019217Y-74605488D01*
X61977787Y-74325870D01*
X61882603Y-74059708D01*
X61815671Y-73934486D01*
X61571702Y-73862903D01*
X60758605Y-74676000D01*
X60399395Y-74676000D01*
X59586298Y-73862903D01*
X59342329Y-73934486D01*
X59221429Y-74189996D01*
X59152700Y-74464184D01*
X59138783Y-74746512D01*
X44746525Y-74746512D01*
X44747217Y-74732488D01*
X44705787Y-74452870D01*
X44610603Y-74186708D01*
X44543671Y-74061486D01*
X44299702Y-73989903D01*
X43486605Y-74803000D01*
X43127395Y-74803000D01*
X42314298Y-73989903D01*
X42070329Y-74061486D01*
X41949429Y-74316996D01*
X41880700Y-74591184D01*
X41866783Y-74873512D01*
X19235027Y-74873512D01*
X19167110Y-74532075D01*
X18998631Y-74125331D01*
X18754038Y-73759271D01*
X18442729Y-73447962D01*
X18076669Y-73203369D01*
X17858500Y-73113000D01*
X24800928Y-73113000D01*
X24813188Y-73237482D01*
X24849498Y-73357180D01*
X24908463Y-73467494D01*
X24987815Y-73564185D01*
X25084506Y-73643537D01*
X25194820Y-73702502D01*
X25314518Y-73738812D01*
X25439000Y-73751072D01*
X26003250Y-73748000D01*
X26162000Y-73589250D01*
X26162000Y-72390000D01*
X24962750Y-72390000D01*
X24804000Y-72548750D01*
X24800928Y-73113000D01*
X17858500Y-73113000D01*
X17669925Y-73034890D01*
X17238128Y-72949000D01*
X16797872Y-72949000D01*
X16366075Y-73034890D01*
X15959331Y-73203369D01*
X15593271Y-73447962D01*
X15281962Y-73759271D01*
X15037369Y-74125331D01*
X14868890Y-74532075D01*
X14783000Y-74963872D01*
X13385000Y-74963872D01*
X13385000Y-71413000D01*
X24800928Y-71413000D01*
X24804000Y-71977250D01*
X24962750Y-72136000D01*
X26162000Y-72136000D01*
X26162000Y-70936750D01*
X26003250Y-70778000D01*
X25439000Y-70774928D01*
X25314518Y-70787188D01*
X25194820Y-70823498D01*
X25084506Y-70882463D01*
X24987815Y-70961815D01*
X24908463Y-71058506D01*
X24849498Y-71168820D01*
X24813188Y-71288518D01*
X24800928Y-71413000D01*
X13385000Y-71413000D01*
X13385000Y-40524630D01*
X17398719Y-40524630D01*
X17403000Y-40568099D01*
X17403001Y-62293883D01*
X17399588Y-62317690D01*
X17403001Y-62380887D01*
X17403001Y-62400477D01*
X17405343Y-62424259D01*
X17408989Y-62491765D01*
X17413874Y-62510870D01*
X17415806Y-62530490D01*
X17435426Y-62595167D01*
X17452171Y-62660662D01*
X17460689Y-62678448D01*
X17466412Y-62697313D01*
X17498273Y-62756922D01*
X17527473Y-62817890D01*
X17539295Y-62833669D01*
X17548590Y-62851059D01*
X17591466Y-62903304D01*
X17605806Y-62922443D01*
X17619044Y-62936907D01*
X17659184Y-62985817D01*
X17677770Y-63001070D01*
X24477036Y-70429898D01*
X24517183Y-70478817D01*
X24569432Y-70521697D01*
X24619738Y-70566848D01*
X24636698Y-70576902D01*
X24651941Y-70589411D01*
X24711565Y-70621280D01*
X24769700Y-70655741D01*
X24788294Y-70662292D01*
X24805687Y-70671589D01*
X24870377Y-70691213D01*
X24934124Y-70713673D01*
X24953640Y-70716471D01*
X24972510Y-70722195D01*
X25039806Y-70728823D01*
X25106689Y-70738411D01*
X25169856Y-70735000D01*
X29564698Y-70735000D01*
X29759923Y-71105929D01*
X29658014Y-71022294D01*
X29400034Y-70884401D01*
X29120111Y-70799487D01*
X28901950Y-70778000D01*
X28756050Y-70778000D01*
X28537889Y-70799487D01*
X28257966Y-70884401D01*
X27999986Y-71022294D01*
X27773866Y-71207866D01*
X27749393Y-71237687D01*
X27728502Y-71168820D01*
X27669537Y-71058506D01*
X27590185Y-70961815D01*
X27493494Y-70882463D01*
X27383180Y-70823498D01*
X27263482Y-70787188D01*
X27139000Y-70774928D01*
X26574750Y-70778000D01*
X26416000Y-70936750D01*
X26416000Y-72136000D01*
X26436000Y-72136000D01*
X26436000Y-72390000D01*
X26416000Y-72390000D01*
X26416000Y-73589250D01*
X26574750Y-73748000D01*
X27139000Y-73751072D01*
X27263482Y-73738812D01*
X27383180Y-73702502D01*
X27493494Y-73643537D01*
X27590185Y-73564185D01*
X27669537Y-73467494D01*
X27728502Y-73357180D01*
X27749393Y-73288313D01*
X27773866Y-73318134D01*
X27999986Y-73503706D01*
X28257966Y-73641599D01*
X28537889Y-73726513D01*
X28756050Y-73748000D01*
X28901950Y-73748000D01*
X29120111Y-73726513D01*
X29400034Y-73641599D01*
X29658014Y-73503706D01*
X29884134Y-73318134D01*
X30069706Y-73092014D01*
X30099000Y-73037209D01*
X30128294Y-73092014D01*
X30313866Y-73318134D01*
X30539986Y-73503706D01*
X30797966Y-73641599D01*
X31077889Y-73726513D01*
X31296050Y-73748000D01*
X31441950Y-73748000D01*
X31660111Y-73726513D01*
X31940034Y-73641599D01*
X32198014Y-73503706D01*
X32424134Y-73318134D01*
X32609706Y-73092014D01*
X32639000Y-73037209D01*
X32668294Y-73092014D01*
X32853866Y-73318134D01*
X33079986Y-73503706D01*
X33337966Y-73641599D01*
X33617889Y-73726513D01*
X33836050Y-73748000D01*
X33981950Y-73748000D01*
X34200111Y-73726513D01*
X34480034Y-73641599D01*
X34738014Y-73503706D01*
X34964134Y-73318134D01*
X35149706Y-73092014D01*
X35179000Y-73037209D01*
X35208294Y-73092014D01*
X35393866Y-73318134D01*
X35619986Y-73503706D01*
X35877966Y-73641599D01*
X36157889Y-73726513D01*
X36376050Y-73748000D01*
X36521950Y-73748000D01*
X36740111Y-73726513D01*
X37020034Y-73641599D01*
X37278014Y-73503706D01*
X37504134Y-73318134D01*
X37689706Y-73092014D01*
X37719000Y-73037209D01*
X37748294Y-73092014D01*
X37933866Y-73318134D01*
X38159986Y-73503706D01*
X38417966Y-73641599D01*
X38697889Y-73726513D01*
X38916050Y-73748000D01*
X39061950Y-73748000D01*
X39280111Y-73726513D01*
X39560034Y-73641599D01*
X39818014Y-73503706D01*
X40044134Y-73318134D01*
X40229706Y-73092014D01*
X40367599Y-72834034D01*
X40452513Y-72554111D01*
X40481185Y-72263000D01*
X40471205Y-72161665D01*
X41872000Y-72161665D01*
X41872000Y-72444335D01*
X41927147Y-72721574D01*
X42035320Y-72982727D01*
X42192363Y-73217759D01*
X42392241Y-73417637D01*
X42592869Y-73551692D01*
X42565486Y-73566329D01*
X42493903Y-73810298D01*
X43307000Y-74623395D01*
X44120097Y-73810298D01*
X44048514Y-73566329D01*
X44019659Y-73552676D01*
X44221759Y-73417637D01*
X44421637Y-73217759D01*
X44578680Y-72982727D01*
X44686853Y-72721574D01*
X44742000Y-72444335D01*
X44742000Y-72161665D01*
X44735023Y-72126589D01*
X47891000Y-72126589D01*
X47891000Y-72399411D01*
X47944225Y-72666989D01*
X48048629Y-72919043D01*
X48200201Y-73145886D01*
X48393114Y-73338799D01*
X48619957Y-73490371D01*
X48872011Y-73594775D01*
X49139589Y-73648000D01*
X49412411Y-73648000D01*
X49679989Y-73594775D01*
X49932043Y-73490371D01*
X50158886Y-73338799D01*
X50351799Y-73145886D01*
X50503371Y-72919043D01*
X50607775Y-72666989D01*
X50661000Y-72399411D01*
X50661000Y-72126589D01*
X52771000Y-72126589D01*
X52771000Y-72399411D01*
X52824225Y-72666989D01*
X52928629Y-72919043D01*
X53080201Y-73145886D01*
X53273114Y-73338799D01*
X53499957Y-73490371D01*
X53752011Y-73594775D01*
X54019589Y-73648000D01*
X54292411Y-73648000D01*
X54559989Y-73594775D01*
X54812043Y-73490371D01*
X55038886Y-73338799D01*
X55231799Y-73145886D01*
X55383371Y-72919043D01*
X55487775Y-72666989D01*
X55541000Y-72399411D01*
X55541000Y-72126589D01*
X55522716Y-72034665D01*
X59144000Y-72034665D01*
X59144000Y-72317335D01*
X59199147Y-72594574D01*
X59307320Y-72855727D01*
X59464363Y-73090759D01*
X59664241Y-73290637D01*
X59864869Y-73424692D01*
X59837486Y-73439329D01*
X59765903Y-73683298D01*
X60579000Y-74496395D01*
X61392097Y-73683298D01*
X61320514Y-73439329D01*
X61291659Y-73425676D01*
X61493759Y-73290637D01*
X61693637Y-73090759D01*
X61850680Y-72855727D01*
X61958853Y-72594574D01*
X62014000Y-72317335D01*
X62014000Y-72034665D01*
X61958853Y-71757426D01*
X61850680Y-71496273D01*
X61693637Y-71261241D01*
X61493759Y-71061363D01*
X61258727Y-70904320D01*
X60997574Y-70796147D01*
X60720335Y-70741000D01*
X60437665Y-70741000D01*
X60160426Y-70796147D01*
X59899273Y-70904320D01*
X59664241Y-71061363D01*
X59464363Y-71261241D01*
X59307320Y-71496273D01*
X59199147Y-71757426D01*
X59144000Y-72034665D01*
X55522716Y-72034665D01*
X55487775Y-71859011D01*
X55383371Y-71606957D01*
X55231799Y-71380114D01*
X55038886Y-71187201D01*
X54812043Y-71035629D01*
X54559989Y-70931225D01*
X54292411Y-70878000D01*
X54019589Y-70878000D01*
X53752011Y-70931225D01*
X53499957Y-71035629D01*
X53273114Y-71187201D01*
X53080201Y-71380114D01*
X52928629Y-71606957D01*
X52824225Y-71859011D01*
X52771000Y-72126589D01*
X50661000Y-72126589D01*
X50607775Y-71859011D01*
X50503371Y-71606957D01*
X50351799Y-71380114D01*
X50158886Y-71187201D01*
X49932043Y-71035629D01*
X49679989Y-70931225D01*
X49412411Y-70878000D01*
X49139589Y-70878000D01*
X48872011Y-70931225D01*
X48619957Y-71035629D01*
X48393114Y-71187201D01*
X48200201Y-71380114D01*
X48048629Y-71606957D01*
X47944225Y-71859011D01*
X47891000Y-72126589D01*
X44735023Y-72126589D01*
X44686853Y-71884426D01*
X44578680Y-71623273D01*
X44421637Y-71388241D01*
X44221759Y-71188363D01*
X43986727Y-71031320D01*
X43725574Y-70923147D01*
X43448335Y-70868000D01*
X43165665Y-70868000D01*
X42888426Y-70923147D01*
X42627273Y-71031320D01*
X42392241Y-71188363D01*
X42192363Y-71388241D01*
X42035320Y-71623273D01*
X41927147Y-71884426D01*
X41872000Y-72161665D01*
X40471205Y-72161665D01*
X40452513Y-71971889D01*
X40367599Y-71691966D01*
X40229706Y-71433986D01*
X40044134Y-71207866D01*
X39818014Y-71022294D01*
X39560034Y-70884401D01*
X39280111Y-70799487D01*
X39061950Y-70778000D01*
X38916050Y-70778000D01*
X38697889Y-70799487D01*
X38417966Y-70884401D01*
X38159986Y-71022294D01*
X37933866Y-71207866D01*
X37748294Y-71433986D01*
X37719000Y-71488791D01*
X37689706Y-71433986D01*
X37504134Y-71207866D01*
X37334000Y-71068241D01*
X37334000Y-66535078D01*
X37468608Y-66424608D01*
X37647932Y-66206101D01*
X37719000Y-66073142D01*
X37790068Y-66206101D01*
X37969392Y-66424608D01*
X38187899Y-66603932D01*
X38437192Y-66737182D01*
X38707691Y-66819236D01*
X38918508Y-66840000D01*
X39059492Y-66840000D01*
X39270309Y-66819236D01*
X39540808Y-66737182D01*
X39790101Y-66603932D01*
X40008608Y-66424608D01*
X40187932Y-66206101D01*
X40259000Y-66073142D01*
X40330068Y-66206101D01*
X40509392Y-66424608D01*
X40727899Y-66603932D01*
X40977192Y-66737182D01*
X41247691Y-66819236D01*
X41458508Y-66840000D01*
X41599492Y-66840000D01*
X41810309Y-66819236D01*
X42080808Y-66737182D01*
X42330101Y-66603932D01*
X42548608Y-66424608D01*
X42727932Y-66206101D01*
X42799000Y-66073142D01*
X42870068Y-66206101D01*
X43049392Y-66424608D01*
X43267899Y-66603932D01*
X43517192Y-66737182D01*
X43787691Y-66819236D01*
X43998508Y-66840000D01*
X44139492Y-66840000D01*
X44350309Y-66819236D01*
X44620808Y-66737182D01*
X44870101Y-66603932D01*
X45088608Y-66424608D01*
X45267932Y-66206101D01*
X45339000Y-66073142D01*
X45410068Y-66206101D01*
X45589392Y-66424608D01*
X45807899Y-66603932D01*
X46057192Y-66737182D01*
X46327691Y-66819236D01*
X46538508Y-66840000D01*
X46679492Y-66840000D01*
X46890309Y-66819236D01*
X47160808Y-66737182D01*
X47410101Y-66603932D01*
X47628608Y-66424608D01*
X47807932Y-66206101D01*
X47881579Y-66068318D01*
X47996615Y-66260131D01*
X48185586Y-66468519D01*
X48411580Y-66636037D01*
X48665913Y-66756246D01*
X48799961Y-66796904D01*
X49022000Y-66674915D01*
X49022000Y-65532000D01*
X49002000Y-65532000D01*
X49002000Y-65278000D01*
X49022000Y-65278000D01*
X49022000Y-65258000D01*
X49276000Y-65258000D01*
X49276000Y-65278000D01*
X49296000Y-65278000D01*
X49296000Y-65532000D01*
X49276000Y-65532000D01*
X49276000Y-66674915D01*
X49498039Y-66796904D01*
X49632087Y-66756246D01*
X49886420Y-66636037D01*
X50112414Y-66468519D01*
X50301385Y-66260131D01*
X50416421Y-66068318D01*
X50490068Y-66206101D01*
X50669392Y-66424608D01*
X50887899Y-66603932D01*
X51137192Y-66737182D01*
X51407691Y-66819236D01*
X51618508Y-66840000D01*
X51759492Y-66840000D01*
X51970309Y-66819236D01*
X52240808Y-66737182D01*
X52490101Y-66603932D01*
X52708608Y-66424608D01*
X52887932Y-66206101D01*
X52959000Y-66073142D01*
X53030068Y-66206101D01*
X53209392Y-66424608D01*
X53427899Y-66603932D01*
X53677192Y-66737182D01*
X53947691Y-66819236D01*
X54158508Y-66840000D01*
X54299492Y-66840000D01*
X54510309Y-66819236D01*
X54780808Y-66737182D01*
X55030101Y-66603932D01*
X55248608Y-66424608D01*
X55427932Y-66206101D01*
X55499000Y-66073142D01*
X55570068Y-66206101D01*
X55749392Y-66424608D01*
X55967899Y-66603932D01*
X56217192Y-66737182D01*
X56487691Y-66819236D01*
X56698508Y-66840000D01*
X56839492Y-66840000D01*
X57050309Y-66819236D01*
X57320808Y-66737182D01*
X57570101Y-66603932D01*
X57788608Y-66424608D01*
X57967932Y-66206101D01*
X58039000Y-66073142D01*
X58110068Y-66206101D01*
X58289392Y-66424608D01*
X58424001Y-66535078D01*
X58424001Y-66885521D01*
X58419719Y-66929000D01*
X58436805Y-67102490D01*
X58487412Y-67269313D01*
X58569590Y-67423059D01*
X58652468Y-67524046D01*
X58652471Y-67524049D01*
X58680184Y-67557817D01*
X58713952Y-67585530D01*
X65123125Y-73994704D01*
X65106057Y-74168000D01*
X65133764Y-74449309D01*
X65215818Y-74719808D01*
X65349068Y-74969101D01*
X65528392Y-75187608D01*
X65746899Y-75366932D01*
X65996192Y-75500182D01*
X66266691Y-75582236D01*
X66477508Y-75603000D01*
X66618492Y-75603000D01*
X66829309Y-75582236D01*
X67099808Y-75500182D01*
X67349101Y-75366932D01*
X67567608Y-75187608D01*
X67746932Y-74969101D01*
X67880182Y-74719808D01*
X67962236Y-74449309D01*
X67989943Y-74168000D01*
X67976023Y-74026665D01*
X75273000Y-74026665D01*
X75273000Y-74309335D01*
X75328147Y-74586574D01*
X75436320Y-74847727D01*
X75593363Y-75082759D01*
X75793241Y-75282637D01*
X76028273Y-75439680D01*
X76289426Y-75547853D01*
X76566665Y-75603000D01*
X76849335Y-75603000D01*
X77126574Y-75547853D01*
X77387727Y-75439680D01*
X77622759Y-75282637D01*
X77822637Y-75082759D01*
X77842521Y-75053000D01*
X80474531Y-75053000D01*
X80518000Y-75057281D01*
X80561469Y-75053000D01*
X80561477Y-75053000D01*
X80691490Y-75040195D01*
X80858313Y-74989589D01*
X80906426Y-74963872D01*
X92634000Y-74963872D01*
X92634000Y-75404128D01*
X92719890Y-75835925D01*
X92888369Y-76242669D01*
X93132962Y-76608729D01*
X93444271Y-76920038D01*
X93810331Y-77164631D01*
X94217075Y-77333110D01*
X94648872Y-77419000D01*
X95089128Y-77419000D01*
X95520925Y-77333110D01*
X95927669Y-77164631D01*
X96293729Y-76920038D01*
X96605038Y-76608729D01*
X96849631Y-76242669D01*
X97018110Y-75835925D01*
X97104000Y-75404128D01*
X97104000Y-74963872D01*
X97018110Y-74532075D01*
X96849631Y-74125331D01*
X96605038Y-73759271D01*
X96293729Y-73447962D01*
X95927669Y-73203369D01*
X95520925Y-73034890D01*
X95089128Y-72949000D01*
X94648872Y-72949000D01*
X94217075Y-73034890D01*
X93810331Y-73203369D01*
X93444271Y-73447962D01*
X93132962Y-73759271D01*
X92888369Y-74125331D01*
X92719890Y-74532075D01*
X92634000Y-74963872D01*
X80906426Y-74963872D01*
X81012059Y-74907411D01*
X81146817Y-74796817D01*
X81174534Y-74763044D01*
X88472704Y-67464875D01*
X88575508Y-67475000D01*
X88716492Y-67475000D01*
X88927309Y-67454236D01*
X89197808Y-67372182D01*
X89447101Y-67238932D01*
X89665608Y-67059608D01*
X89844932Y-66841101D01*
X89978182Y-66591808D01*
X90060236Y-66321309D01*
X90087943Y-66040000D01*
X90070875Y-65866704D01*
X90917579Y-65020000D01*
X94055241Y-65020000D01*
X94194866Y-65190134D01*
X94420986Y-65375706D01*
X94678966Y-65513599D01*
X94958889Y-65598513D01*
X95177050Y-65620000D01*
X95322950Y-65620000D01*
X95541111Y-65598513D01*
X95821034Y-65513599D01*
X96079014Y-65375706D01*
X96305134Y-65190134D01*
X96490706Y-64964014D01*
X96628599Y-64706034D01*
X96713513Y-64426111D01*
X96742185Y-64135000D01*
X96713513Y-63843889D01*
X96628599Y-63563966D01*
X96490706Y-63305986D01*
X96305134Y-63079866D01*
X96275313Y-63055393D01*
X96344180Y-63034502D01*
X96454494Y-62975537D01*
X96551185Y-62896185D01*
X96630537Y-62799494D01*
X96689502Y-62689180D01*
X96725812Y-62569482D01*
X96738072Y-62445000D01*
X96735000Y-61880750D01*
X96576250Y-61722000D01*
X95377000Y-61722000D01*
X95377000Y-61742000D01*
X95123000Y-61742000D01*
X95123000Y-61722000D01*
X93923750Y-61722000D01*
X93765000Y-61880750D01*
X93761928Y-62445000D01*
X93774188Y-62569482D01*
X93810498Y-62689180D01*
X93869463Y-62799494D01*
X93948815Y-62896185D01*
X94045506Y-62975537D01*
X94155820Y-63034502D01*
X94224687Y-63055393D01*
X94194866Y-63079866D01*
X94055241Y-63250000D01*
X90594469Y-63250000D01*
X90551000Y-63245719D01*
X90507531Y-63250000D01*
X90507523Y-63250000D01*
X90377510Y-63262805D01*
X90210687Y-63313411D01*
X90058571Y-63394718D01*
X90056941Y-63395589D01*
X89955953Y-63478468D01*
X89955951Y-63478470D01*
X89922183Y-63506183D01*
X89894470Y-63539951D01*
X88819296Y-64615125D01*
X88716492Y-64605000D01*
X88575508Y-64605000D01*
X88364691Y-64625764D01*
X88094192Y-64707818D01*
X87844899Y-64841068D01*
X87626392Y-65020392D01*
X87447068Y-65238899D01*
X87313818Y-65488192D01*
X87231764Y-65758691D01*
X87204057Y-66040000D01*
X87221125Y-66213296D01*
X80151422Y-73283000D01*
X77842521Y-73283000D01*
X77822637Y-73253241D01*
X77622759Y-73053363D01*
X77387727Y-72896320D01*
X77126574Y-72788147D01*
X76849335Y-72733000D01*
X76566665Y-72733000D01*
X76289426Y-72788147D01*
X76028273Y-72896320D01*
X75793241Y-73053363D01*
X75593363Y-73253241D01*
X75436320Y-73488273D01*
X75328147Y-73749426D01*
X75273000Y-74026665D01*
X67976023Y-74026665D01*
X67962236Y-73886691D01*
X67880182Y-73616192D01*
X67746932Y-73366899D01*
X67567608Y-73148392D01*
X67349101Y-72969068D01*
X67099808Y-72835818D01*
X66829309Y-72753764D01*
X66618492Y-72733000D01*
X66477508Y-72733000D01*
X66374704Y-72743125D01*
X60194000Y-66562422D01*
X60194000Y-66535078D01*
X60328608Y-66424608D01*
X60507932Y-66206101D01*
X60579000Y-66073142D01*
X60650068Y-66206101D01*
X60829392Y-66424608D01*
X61047899Y-66603932D01*
X61297192Y-66737182D01*
X61567691Y-66819236D01*
X61778508Y-66840000D01*
X61919492Y-66840000D01*
X62022296Y-66829874D01*
X65129470Y-69937049D01*
X65157183Y-69970817D01*
X65190951Y-69998530D01*
X65190953Y-69998532D01*
X65291940Y-70081410D01*
X65291941Y-70081411D01*
X65325754Y-70099484D01*
X65349068Y-70143101D01*
X65528392Y-70361608D01*
X65746899Y-70540932D01*
X65996192Y-70674182D01*
X66266691Y-70756236D01*
X66477508Y-70777000D01*
X66618492Y-70777000D01*
X66829309Y-70756236D01*
X67099808Y-70674182D01*
X67349101Y-70540932D01*
X67567608Y-70361608D01*
X67746932Y-70143101D01*
X67880182Y-69893808D01*
X67962236Y-69623309D01*
X67981571Y-69427001D01*
X71495530Y-69427001D01*
X71538999Y-69431282D01*
X71582468Y-69427001D01*
X71582476Y-69427001D01*
X71712489Y-69414196D01*
X71879312Y-69363590D01*
X72033058Y-69281412D01*
X72131447Y-69200665D01*
X75273000Y-69200665D01*
X75273000Y-69483335D01*
X75328147Y-69760574D01*
X75436320Y-70021727D01*
X75593363Y-70256759D01*
X75793241Y-70456637D01*
X76028273Y-70613680D01*
X76289426Y-70721853D01*
X76566665Y-70777000D01*
X76849335Y-70777000D01*
X77126574Y-70721853D01*
X77387727Y-70613680D01*
X77622759Y-70456637D01*
X77822637Y-70256759D01*
X77979680Y-70021727D01*
X78087853Y-69760574D01*
X78143000Y-69483335D01*
X78143000Y-69200665D01*
X78087853Y-68923426D01*
X77979680Y-68662273D01*
X77822637Y-68427241D01*
X77622759Y-68227363D01*
X77387727Y-68070320D01*
X77126574Y-67962147D01*
X76849335Y-67907000D01*
X76566665Y-67907000D01*
X76289426Y-67962147D01*
X76028273Y-68070320D01*
X75793241Y-68227363D01*
X75593363Y-68427241D01*
X75436320Y-68662273D01*
X75328147Y-68923426D01*
X75273000Y-69200665D01*
X72131447Y-69200665D01*
X72167816Y-69170818D01*
X72195533Y-69137045D01*
X75433913Y-65898665D01*
X77051000Y-65898665D01*
X77051000Y-66181335D01*
X77106147Y-66458574D01*
X77214320Y-66719727D01*
X77371363Y-66954759D01*
X77571241Y-67154637D01*
X77806273Y-67311680D01*
X78067426Y-67419853D01*
X78344665Y-67475000D01*
X78627335Y-67475000D01*
X78904574Y-67419853D01*
X79165727Y-67311680D01*
X79400759Y-67154637D01*
X79600637Y-66954759D01*
X79757680Y-66719727D01*
X79865853Y-66458574D01*
X79921000Y-66181335D01*
X79921000Y-65898665D01*
X79865853Y-65621426D01*
X79757680Y-65360273D01*
X79600637Y-65125241D01*
X79400759Y-64925363D01*
X79165727Y-64768320D01*
X78904574Y-64660147D01*
X78627335Y-64605000D01*
X78344665Y-64605000D01*
X78067426Y-64660147D01*
X77806273Y-64768320D01*
X77571241Y-64925363D01*
X77371363Y-65125241D01*
X77214320Y-65360273D01*
X77106147Y-65621426D01*
X77051000Y-65898665D01*
X75433913Y-65898665D01*
X78309562Y-63023017D01*
X78344665Y-63030000D01*
X78627335Y-63030000D01*
X78904574Y-62974853D01*
X79165727Y-62866680D01*
X79400759Y-62709637D01*
X79600637Y-62509759D01*
X79757680Y-62274727D01*
X79865853Y-62013574D01*
X79879684Y-61944039D01*
X87254096Y-61944039D01*
X87294754Y-62078087D01*
X87414963Y-62332420D01*
X87582481Y-62558414D01*
X87790869Y-62747385D01*
X88032119Y-62892070D01*
X88296960Y-62986909D01*
X88519000Y-62865624D01*
X88519000Y-61722000D01*
X88773000Y-61722000D01*
X88773000Y-62865624D01*
X88995040Y-62986909D01*
X89259881Y-62892070D01*
X89501131Y-62747385D01*
X89709519Y-62558414D01*
X89877037Y-62332420D01*
X89997246Y-62078087D01*
X90037904Y-61944039D01*
X89915915Y-61722000D01*
X88773000Y-61722000D01*
X88519000Y-61722000D01*
X87376085Y-61722000D01*
X87254096Y-61944039D01*
X79879684Y-61944039D01*
X79921000Y-61736335D01*
X79921000Y-61453665D01*
X79879685Y-61245961D01*
X87254096Y-61245961D01*
X87376085Y-61468000D01*
X88519000Y-61468000D01*
X88519000Y-60324376D01*
X88773000Y-60324376D01*
X88773000Y-61468000D01*
X89915915Y-61468000D01*
X90037904Y-61245961D01*
X89997246Y-61111913D01*
X89877037Y-60857580D01*
X89793588Y-60745000D01*
X93761928Y-60745000D01*
X93765000Y-61309250D01*
X93923750Y-61468000D01*
X95123000Y-61468000D01*
X95123000Y-60268750D01*
X95377000Y-60268750D01*
X95377000Y-61468000D01*
X96576250Y-61468000D01*
X96735000Y-61309250D01*
X96738072Y-60745000D01*
X96725812Y-60620518D01*
X96689502Y-60500820D01*
X96630537Y-60390506D01*
X96551185Y-60293815D01*
X96454494Y-60214463D01*
X96344180Y-60155498D01*
X96224482Y-60119188D01*
X96100000Y-60106928D01*
X95535750Y-60110000D01*
X95377000Y-60268750D01*
X95123000Y-60268750D01*
X94964250Y-60110000D01*
X94400000Y-60106928D01*
X94275518Y-60119188D01*
X94155820Y-60155498D01*
X94045506Y-60214463D01*
X93948815Y-60293815D01*
X93869463Y-60390506D01*
X93810498Y-60500820D01*
X93774188Y-60620518D01*
X93761928Y-60745000D01*
X89793588Y-60745000D01*
X89709519Y-60631586D01*
X89501131Y-60442615D01*
X89259881Y-60297930D01*
X88995040Y-60203091D01*
X88773000Y-60324376D01*
X88519000Y-60324376D01*
X88296960Y-60203091D01*
X88032119Y-60297930D01*
X87790869Y-60442615D01*
X87582481Y-60631586D01*
X87414963Y-60857580D01*
X87294754Y-61111913D01*
X87254096Y-61245961D01*
X79879685Y-61245961D01*
X79865853Y-61176426D01*
X79757680Y-60915273D01*
X79600637Y-60680241D01*
X79400759Y-60480363D01*
X79165727Y-60323320D01*
X78904574Y-60215147D01*
X78627335Y-60160000D01*
X78344665Y-60160000D01*
X78067426Y-60215147D01*
X77806273Y-60323320D01*
X77571241Y-60480363D01*
X77371363Y-60680241D01*
X77214320Y-60915273D01*
X77106147Y-61176426D01*
X77051000Y-61453665D01*
X77051000Y-61736335D01*
X77057983Y-61771438D01*
X71172421Y-67657001D01*
X67391464Y-67657001D01*
X67347998Y-67652720D01*
X67304532Y-67657001D01*
X67304522Y-67657001D01*
X67174509Y-67669806D01*
X67007686Y-67720412D01*
X66853940Y-67802590D01*
X66853938Y-67802591D01*
X66853939Y-67802591D01*
X66752952Y-67885469D01*
X66752950Y-67885471D01*
X66719182Y-67913184D01*
X66716347Y-67916638D01*
X66618492Y-67907000D01*
X66477508Y-67907000D01*
X66266691Y-67927764D01*
X65996192Y-68009818D01*
X65806689Y-68111110D01*
X64528756Y-66833178D01*
X64670309Y-66819236D01*
X64940808Y-66737182D01*
X65190101Y-66603932D01*
X65408608Y-66424608D01*
X65519078Y-66290000D01*
X69608922Y-66290000D01*
X69719392Y-66424608D01*
X69937899Y-66603932D01*
X70187192Y-66737182D01*
X70457691Y-66819236D01*
X70668508Y-66840000D01*
X70809492Y-66840000D01*
X71020309Y-66819236D01*
X71290808Y-66737182D01*
X71540101Y-66603932D01*
X71758608Y-66424608D01*
X71937932Y-66206101D01*
X72071182Y-65956808D01*
X72153236Y-65686309D01*
X72180943Y-65405000D01*
X72153236Y-65123691D01*
X72071182Y-64853192D01*
X71937932Y-64603899D01*
X71758608Y-64385392D01*
X71540101Y-64206068D01*
X71290808Y-64072818D01*
X71020309Y-63990764D01*
X70809492Y-63970000D01*
X70668508Y-63970000D01*
X70457691Y-63990764D01*
X70187192Y-64072818D01*
X69937899Y-64206068D01*
X69719392Y-64385392D01*
X69608922Y-64520000D01*
X65519078Y-64520000D01*
X65408608Y-64385392D01*
X65190101Y-64206068D01*
X64940808Y-64072818D01*
X64670309Y-63990764D01*
X64459492Y-63970000D01*
X64318508Y-63970000D01*
X64107691Y-63990764D01*
X63837192Y-64072818D01*
X63587899Y-64206068D01*
X63369392Y-64385392D01*
X63190068Y-64603899D01*
X63119000Y-64736858D01*
X63047932Y-64603899D01*
X62868608Y-64385392D01*
X62650101Y-64206068D01*
X62400808Y-64072818D01*
X62130309Y-63990764D01*
X61919492Y-63970000D01*
X61778508Y-63970000D01*
X61567691Y-63990764D01*
X61297192Y-64072818D01*
X61047899Y-64206068D01*
X60829392Y-64385392D01*
X60650068Y-64603899D01*
X60579000Y-64736858D01*
X60507932Y-64603899D01*
X60328608Y-64385392D01*
X60110101Y-64206068D01*
X59860808Y-64072818D01*
X59590309Y-63990764D01*
X59379492Y-63970000D01*
X59238508Y-63970000D01*
X59027691Y-63990764D01*
X58757192Y-64072818D01*
X58507899Y-64206068D01*
X58289392Y-64385392D01*
X58110068Y-64603899D01*
X58039000Y-64736858D01*
X57967932Y-64603899D01*
X57788608Y-64385392D01*
X57570101Y-64206068D01*
X57320808Y-64072818D01*
X57050309Y-63990764D01*
X56839492Y-63970000D01*
X56698508Y-63970000D01*
X56487691Y-63990764D01*
X56217192Y-64072818D01*
X55967899Y-64206068D01*
X55749392Y-64385392D01*
X55570068Y-64603899D01*
X55499000Y-64736858D01*
X55427932Y-64603899D01*
X55248608Y-64385392D01*
X55030101Y-64206068D01*
X54780808Y-64072818D01*
X54510309Y-63990764D01*
X54299492Y-63970000D01*
X54158508Y-63970000D01*
X53947691Y-63990764D01*
X53677192Y-64072818D01*
X53427899Y-64206068D01*
X53209392Y-64385392D01*
X53030068Y-64603899D01*
X52959000Y-64736858D01*
X52887932Y-64603899D01*
X52708608Y-64385392D01*
X52490101Y-64206068D01*
X52240808Y-64072818D01*
X51970309Y-63990764D01*
X51759492Y-63970000D01*
X51618508Y-63970000D01*
X51407691Y-63990764D01*
X51137192Y-64072818D01*
X50887899Y-64206068D01*
X50669392Y-64385392D01*
X50490068Y-64603899D01*
X50416421Y-64741682D01*
X50301385Y-64549869D01*
X50112414Y-64341481D01*
X49886420Y-64173963D01*
X49632087Y-64053754D01*
X49498039Y-64013096D01*
X49276002Y-64135084D01*
X49276002Y-63989576D01*
X52284049Y-60981530D01*
X52317817Y-60953817D01*
X52347525Y-60917619D01*
X52428411Y-60819059D01*
X52450956Y-60776880D01*
X52510589Y-60665313D01*
X52561195Y-60498490D01*
X52574000Y-60368477D01*
X52574000Y-60368469D01*
X52578281Y-60325000D01*
X52574000Y-60281531D01*
X52574000Y-58915078D01*
X52708608Y-58804608D01*
X52887932Y-58586101D01*
X52959000Y-58453142D01*
X53030068Y-58586101D01*
X53209392Y-58804608D01*
X53427899Y-58983932D01*
X53677192Y-59117182D01*
X53947691Y-59199236D01*
X54158508Y-59220000D01*
X54299492Y-59220000D01*
X54510309Y-59199236D01*
X54780808Y-59117182D01*
X55030101Y-58983932D01*
X55248608Y-58804608D01*
X55427932Y-58586101D01*
X55499000Y-58453142D01*
X55570068Y-58586101D01*
X55749392Y-58804608D01*
X55967899Y-58983932D01*
X56217192Y-59117182D01*
X56487691Y-59199236D01*
X56698508Y-59220000D01*
X56839492Y-59220000D01*
X57050309Y-59199236D01*
X57320808Y-59117182D01*
X57570101Y-58983932D01*
X57788608Y-58804608D01*
X57967932Y-58586101D01*
X58039000Y-58453142D01*
X58110068Y-58586101D01*
X58289392Y-58804608D01*
X58507899Y-58983932D01*
X58757192Y-59117182D01*
X58847177Y-59144478D01*
X59356525Y-60599760D01*
X59376411Y-60665313D01*
X59405807Y-60720310D01*
X59432084Y-60776880D01*
X59446819Y-60797038D01*
X59458589Y-60819059D01*
X59498155Y-60867270D01*
X59534958Y-60917619D01*
X59553343Y-60934516D01*
X59569183Y-60953817D01*
X59617392Y-60993381D01*
X59663313Y-61035586D01*
X59684639Y-61048570D01*
X59703941Y-61064411D01*
X59758945Y-61093811D01*
X59812215Y-61126244D01*
X59835668Y-61134820D01*
X59857687Y-61146589D01*
X59917361Y-61164691D01*
X59975943Y-61186112D01*
X60000617Y-61189947D01*
X60024510Y-61197195D01*
X60086587Y-61203309D01*
X60148205Y-61212886D01*
X60216642Y-61210000D01*
X65710989Y-61210000D01*
X65722960Y-61212044D01*
X65798028Y-61210000D01*
X65829477Y-61210000D01*
X65841493Y-61208816D01*
X65897225Y-61207299D01*
X65928037Y-61200293D01*
X65959490Y-61197195D01*
X66012856Y-61181006D01*
X66067215Y-61168646D01*
X66096068Y-61155764D01*
X66126313Y-61146589D01*
X66175489Y-61120304D01*
X66226399Y-61097574D01*
X66252183Y-61079311D01*
X66280059Y-61064411D01*
X66323176Y-61029026D01*
X66368658Y-60996810D01*
X66390380Y-60973872D01*
X66414817Y-60953817D01*
X66450198Y-60910706D01*
X66488527Y-60870231D01*
X66505359Y-60843493D01*
X66525411Y-60819059D01*
X66551697Y-60769881D01*
X66558124Y-60759671D01*
X66572177Y-60731564D01*
X66607589Y-60665313D01*
X66611115Y-60653688D01*
X68237695Y-57400527D01*
X81590078Y-57400527D01*
X81643466Y-57629201D01*
X81873374Y-57735095D01*
X82119524Y-57794102D01*
X82372455Y-57803952D01*
X82622449Y-57764270D01*
X82859896Y-57676578D01*
X82948534Y-57629201D01*
X83001922Y-57400527D01*
X82296000Y-56694605D01*
X81590078Y-57400527D01*
X68237695Y-57400527D01*
X69304000Y-55267919D01*
X69304000Y-55386335D01*
X69359147Y-55663574D01*
X69467320Y-55924727D01*
X69624363Y-56159759D01*
X69824241Y-56359637D01*
X70059273Y-56516680D01*
X70320426Y-56624853D01*
X70597665Y-56680000D01*
X70880335Y-56680000D01*
X71157574Y-56624853D01*
X71418727Y-56516680D01*
X71653759Y-56359637D01*
X71853637Y-56159759D01*
X71873521Y-56130000D01*
X81066885Y-56130000D01*
X81016898Y-56338524D01*
X81007048Y-56591455D01*
X81046730Y-56841449D01*
X81134422Y-57078896D01*
X81181799Y-57167534D01*
X81410473Y-57220922D01*
X82116395Y-56515000D01*
X82102253Y-56500858D01*
X82281858Y-56321253D01*
X82296000Y-56335395D01*
X82310143Y-56321253D01*
X82489748Y-56500858D01*
X82475605Y-56515000D01*
X83181527Y-57220922D01*
X83410201Y-57167534D01*
X83516095Y-56937626D01*
X83575102Y-56691476D01*
X83581390Y-56530000D01*
X83692561Y-56530000D01*
X83940821Y-56480619D01*
X84174676Y-56383753D01*
X84385140Y-56243125D01*
X84564125Y-56064140D01*
X84704753Y-55853676D01*
X84801619Y-55619821D01*
X84851000Y-55371561D01*
X84851000Y-55118439D01*
X84801619Y-54870179D01*
X84704753Y-54636324D01*
X84564125Y-54425860D01*
X84385140Y-54246875D01*
X84174676Y-54106247D01*
X83940821Y-54009381D01*
X83692561Y-53960000D01*
X83584072Y-53960000D01*
X83584072Y-53347044D01*
X89170000Y-53351495D01*
X89170000Y-53628033D01*
X89232832Y-53943912D01*
X89356082Y-54241463D01*
X89535013Y-54509252D01*
X89762748Y-54736987D01*
X90030537Y-54915918D01*
X90328088Y-55039168D01*
X90643967Y-55102000D01*
X90966033Y-55102000D01*
X91281912Y-55039168D01*
X91579463Y-54915918D01*
X91847252Y-54736987D01*
X91981826Y-54602413D01*
X94349192Y-54602413D01*
X94444956Y-54866814D01*
X94734571Y-55007704D01*
X95046108Y-55089384D01*
X95367595Y-55108718D01*
X95686675Y-55064961D01*
X95991088Y-54959795D01*
X96165044Y-54866814D01*
X96260808Y-54602413D01*
X95305000Y-53646605D01*
X94349192Y-54602413D01*
X91981826Y-54602413D01*
X92074987Y-54509252D01*
X92253918Y-54241463D01*
X92377168Y-53943912D01*
X92440000Y-53628033D01*
X92440000Y-53529595D01*
X93663282Y-53529595D01*
X93707039Y-53848675D01*
X93812205Y-54153088D01*
X93905186Y-54327044D01*
X94169587Y-54422808D01*
X95125395Y-53467000D01*
X95484605Y-53467000D01*
X96440413Y-54422808D01*
X96704814Y-54327044D01*
X96845704Y-54037429D01*
X96927384Y-53725892D01*
X96946718Y-53404405D01*
X96902961Y-53085325D01*
X96797795Y-52780912D01*
X96704814Y-52606956D01*
X96440413Y-52511192D01*
X95484605Y-53467000D01*
X95125395Y-53467000D01*
X94169587Y-52511192D01*
X93905186Y-52606956D01*
X93764296Y-52896571D01*
X93682616Y-53208108D01*
X93663282Y-53529595D01*
X92440000Y-53529595D01*
X92440000Y-53305967D01*
X92377168Y-52990088D01*
X92253918Y-52692537D01*
X92074987Y-52424748D01*
X91981826Y-52331587D01*
X94349192Y-52331587D01*
X95305000Y-53287395D01*
X96260808Y-52331587D01*
X96165044Y-52067186D01*
X95875429Y-51926296D01*
X95563892Y-51844616D01*
X95242405Y-51825282D01*
X94923325Y-51869039D01*
X94618912Y-51974205D01*
X94444956Y-52067186D01*
X94349192Y-52331587D01*
X91981826Y-52331587D01*
X91847252Y-52197013D01*
X91690000Y-52091941D01*
X91690000Y-48342059D01*
X91847252Y-48236987D01*
X91981826Y-48102413D01*
X94349192Y-48102413D01*
X94444956Y-48366814D01*
X94734571Y-48507704D01*
X95046108Y-48589384D01*
X95367595Y-48608718D01*
X95686675Y-48564961D01*
X95991088Y-48459795D01*
X96165044Y-48366814D01*
X96260808Y-48102413D01*
X95305000Y-47146605D01*
X94349192Y-48102413D01*
X91981826Y-48102413D01*
X92074987Y-48009252D01*
X92253918Y-47741463D01*
X92377168Y-47443912D01*
X92440000Y-47128033D01*
X92440000Y-47029595D01*
X93663282Y-47029595D01*
X93707039Y-47348675D01*
X93812205Y-47653088D01*
X93905186Y-47827044D01*
X94169587Y-47922808D01*
X95125395Y-46967000D01*
X95484605Y-46967000D01*
X96440413Y-47922808D01*
X96704814Y-47827044D01*
X96845704Y-47537429D01*
X96927384Y-47225892D01*
X96946718Y-46904405D01*
X96902961Y-46585325D01*
X96797795Y-46280912D01*
X96704814Y-46106956D01*
X96440413Y-46011192D01*
X95484605Y-46967000D01*
X95125395Y-46967000D01*
X94169587Y-46011192D01*
X93905186Y-46106956D01*
X93764296Y-46396571D01*
X93682616Y-46708108D01*
X93663282Y-47029595D01*
X92440000Y-47029595D01*
X92440000Y-46805967D01*
X92377168Y-46490088D01*
X92253918Y-46192537D01*
X92074987Y-45924748D01*
X91981826Y-45831587D01*
X94349192Y-45831587D01*
X95305000Y-46787395D01*
X96260808Y-45831587D01*
X96165044Y-45567186D01*
X95875429Y-45426296D01*
X95563892Y-45344616D01*
X95242405Y-45325282D01*
X94923325Y-45369039D01*
X94618912Y-45474205D01*
X94444956Y-45567186D01*
X94349192Y-45831587D01*
X91981826Y-45831587D01*
X91847252Y-45697013D01*
X91579463Y-45518082D01*
X91281912Y-45394832D01*
X90966033Y-45332000D01*
X90643967Y-45332000D01*
X90328088Y-45394832D01*
X90030537Y-45518082D01*
X89762748Y-45697013D01*
X89535013Y-45924748D01*
X89356082Y-46192537D01*
X89232832Y-46490088D01*
X89170000Y-46805967D01*
X89170000Y-47128033D01*
X89232832Y-47443912D01*
X89356082Y-47741463D01*
X89535013Y-48009252D01*
X89762748Y-48236987D01*
X89920000Y-48342059D01*
X89920001Y-51589046D01*
X89892351Y-51586323D01*
X89849182Y-51582036D01*
X89848822Y-51582036D01*
X89805001Y-51577720D01*
X89761883Y-51581966D01*
X69798363Y-51566060D01*
X69786040Y-51563956D01*
X69711311Y-51565991D01*
X69680229Y-51565966D01*
X69667866Y-51567174D01*
X69611775Y-51568701D01*
X69581301Y-51575630D01*
X69550206Y-51578668D01*
X69496506Y-51594911D01*
X69441784Y-51607354D01*
X69413245Y-51620096D01*
X69383342Y-51629141D01*
X69333849Y-51655545D01*
X69282600Y-51678426D01*
X69257096Y-51696491D01*
X69229531Y-51711196D01*
X69186135Y-51746753D01*
X69140341Y-51779189D01*
X69118850Y-51801883D01*
X69094685Y-51821683D01*
X69059063Y-51865017D01*
X69020472Y-51905769D01*
X69003822Y-51932218D01*
X68983983Y-51956353D01*
X68957501Y-52005802D01*
X68950875Y-52016329D01*
X68936954Y-52044170D01*
X68901683Y-52110033D01*
X68898047Y-52121985D01*
X65239040Y-59440000D01*
X60825890Y-59440000D01*
X60519470Y-58564515D01*
X60579000Y-58453142D01*
X60650068Y-58586101D01*
X60829392Y-58804608D01*
X61047899Y-58983932D01*
X61297192Y-59117182D01*
X61567691Y-59199236D01*
X61778508Y-59220000D01*
X61919492Y-59220000D01*
X62130309Y-59199236D01*
X62400808Y-59117182D01*
X62650101Y-58983932D01*
X62868608Y-58804608D01*
X63047932Y-58586101D01*
X63119000Y-58453142D01*
X63190068Y-58586101D01*
X63369392Y-58804608D01*
X63587899Y-58983932D01*
X63837192Y-59117182D01*
X64107691Y-59199236D01*
X64318508Y-59220000D01*
X64459492Y-59220000D01*
X64670309Y-59199236D01*
X64940808Y-59117182D01*
X65190101Y-58983932D01*
X65408608Y-58804608D01*
X65587932Y-58586101D01*
X65721182Y-58336808D01*
X65803236Y-58066309D01*
X65830943Y-57785000D01*
X65803236Y-57503691D01*
X65721182Y-57233192D01*
X65587932Y-56983899D01*
X65408608Y-56765392D01*
X65190101Y-56586068D01*
X64940808Y-56452818D01*
X64670309Y-56370764D01*
X64459492Y-56350000D01*
X64318508Y-56350000D01*
X64107691Y-56370764D01*
X63837192Y-56452818D01*
X63587899Y-56586068D01*
X63369392Y-56765392D01*
X63190068Y-56983899D01*
X63119000Y-57116858D01*
X63047932Y-56983899D01*
X62868608Y-56765392D01*
X62650101Y-56586068D01*
X62400808Y-56452818D01*
X62130309Y-56370764D01*
X61919492Y-56350000D01*
X61778508Y-56350000D01*
X61567691Y-56370764D01*
X61297192Y-56452818D01*
X61047899Y-56586068D01*
X60829392Y-56765392D01*
X60650068Y-56983899D01*
X60579000Y-57116858D01*
X60507932Y-56983899D01*
X60328608Y-56765392D01*
X60110101Y-56586068D01*
X59860808Y-56452818D01*
X59608996Y-56376432D01*
X68835418Y-47895000D01*
X76720928Y-47895000D01*
X76720928Y-49895000D01*
X76733188Y-50019482D01*
X76769498Y-50139180D01*
X76828463Y-50249494D01*
X76907815Y-50346185D01*
X77004506Y-50425537D01*
X77114820Y-50484502D01*
X77234518Y-50520812D01*
X77359000Y-50533072D01*
X79359000Y-50533072D01*
X79483482Y-50520812D01*
X79603180Y-50484502D01*
X79713494Y-50425537D01*
X79810185Y-50346185D01*
X79889537Y-50249494D01*
X79948502Y-50139180D01*
X79984812Y-50019482D01*
X79997072Y-49895000D01*
X79997072Y-47895000D01*
X79984812Y-47770518D01*
X79948502Y-47650820D01*
X79889537Y-47540506D01*
X79810185Y-47443815D01*
X79713494Y-47364463D01*
X79603180Y-47305498D01*
X79483482Y-47269188D01*
X79359000Y-47256928D01*
X77359000Y-47256928D01*
X77234518Y-47269188D01*
X77114820Y-47305498D01*
X77004506Y-47364463D01*
X76907815Y-47443815D01*
X76828463Y-47540506D01*
X76769498Y-47650820D01*
X76733188Y-47770518D01*
X76720928Y-47895000D01*
X68835418Y-47895000D01*
X76993582Y-40395570D01*
X76910082Y-40520537D01*
X76786832Y-40818088D01*
X76724000Y-41133967D01*
X76724000Y-41456033D01*
X76786832Y-41771912D01*
X76910082Y-42069463D01*
X77089013Y-42337252D01*
X77316748Y-42564987D01*
X77584537Y-42743918D01*
X77882088Y-42867168D01*
X78197967Y-42930000D01*
X78520033Y-42930000D01*
X78835912Y-42867168D01*
X79133463Y-42743918D01*
X79401252Y-42564987D01*
X79628987Y-42337252D01*
X79807918Y-42069463D01*
X79931168Y-41771912D01*
X79994000Y-41456033D01*
X79994000Y-41133967D01*
X79931168Y-40818088D01*
X79807918Y-40520537D01*
X79628987Y-40252748D01*
X79401252Y-40025013D01*
X79133463Y-39846082D01*
X78835912Y-39722832D01*
X78520033Y-39660000D01*
X78197967Y-39660000D01*
X78064798Y-39686489D01*
X89689292Y-36733531D01*
X89762748Y-36806987D01*
X89920000Y-36912059D01*
X89920001Y-40661940D01*
X89762748Y-40767013D01*
X89535013Y-40994748D01*
X89356082Y-41262537D01*
X89232832Y-41560088D01*
X89170000Y-41875967D01*
X89170000Y-42198033D01*
X89232832Y-42513912D01*
X89356082Y-42811463D01*
X89535013Y-43079252D01*
X89762748Y-43306987D01*
X90030537Y-43485918D01*
X90328088Y-43609168D01*
X90643967Y-43672000D01*
X90966033Y-43672000D01*
X91281912Y-43609168D01*
X91579463Y-43485918D01*
X91847252Y-43306987D01*
X91981826Y-43172413D01*
X94349192Y-43172413D01*
X94444956Y-43436814D01*
X94734571Y-43577704D01*
X95046108Y-43659384D01*
X95367595Y-43678718D01*
X95686675Y-43634961D01*
X95991088Y-43529795D01*
X96165044Y-43436814D01*
X96260808Y-43172413D01*
X95305000Y-42216605D01*
X94349192Y-43172413D01*
X91981826Y-43172413D01*
X92074987Y-43079252D01*
X92253918Y-42811463D01*
X92377168Y-42513912D01*
X92440000Y-42198033D01*
X92440000Y-42099595D01*
X93663282Y-42099595D01*
X93707039Y-42418675D01*
X93812205Y-42723088D01*
X93905186Y-42897044D01*
X94169587Y-42992808D01*
X95125395Y-42037000D01*
X95484605Y-42037000D01*
X96440413Y-42992808D01*
X96704814Y-42897044D01*
X96845704Y-42607429D01*
X96927384Y-42295892D01*
X96946718Y-41974405D01*
X96902961Y-41655325D01*
X96797795Y-41350912D01*
X96704814Y-41176956D01*
X96440413Y-41081192D01*
X95484605Y-42037000D01*
X95125395Y-42037000D01*
X94169587Y-41081192D01*
X93905186Y-41176956D01*
X93764296Y-41466571D01*
X93682616Y-41778108D01*
X93663282Y-42099595D01*
X92440000Y-42099595D01*
X92440000Y-41875967D01*
X92377168Y-41560088D01*
X92253918Y-41262537D01*
X92074987Y-40994748D01*
X91981826Y-40901587D01*
X94349192Y-40901587D01*
X95305000Y-41857395D01*
X96260808Y-40901587D01*
X96165044Y-40637186D01*
X95875429Y-40496296D01*
X95563892Y-40414616D01*
X95242405Y-40395282D01*
X94923325Y-40439039D01*
X94618912Y-40544205D01*
X94444956Y-40637186D01*
X94349192Y-40901587D01*
X91981826Y-40901587D01*
X91847252Y-40767013D01*
X91690000Y-40661941D01*
X91690000Y-36912059D01*
X91847252Y-36806987D01*
X91981826Y-36672413D01*
X94349192Y-36672413D01*
X94444956Y-36936814D01*
X94734571Y-37077704D01*
X95046108Y-37159384D01*
X95367595Y-37178718D01*
X95686675Y-37134961D01*
X95991088Y-37029795D01*
X96165044Y-36936814D01*
X96260808Y-36672413D01*
X95305000Y-35716605D01*
X94349192Y-36672413D01*
X91981826Y-36672413D01*
X92074987Y-36579252D01*
X92253918Y-36311463D01*
X92377168Y-36013912D01*
X92440000Y-35698033D01*
X92440000Y-35599595D01*
X93663282Y-35599595D01*
X93707039Y-35918675D01*
X93812205Y-36223088D01*
X93905186Y-36397044D01*
X94169587Y-36492808D01*
X95125395Y-35537000D01*
X95484605Y-35537000D01*
X96440413Y-36492808D01*
X96704814Y-36397044D01*
X96845704Y-36107429D01*
X96927384Y-35795892D01*
X96946718Y-35474405D01*
X96902961Y-35155325D01*
X96797795Y-34850912D01*
X96704814Y-34676956D01*
X96440413Y-34581192D01*
X95484605Y-35537000D01*
X95125395Y-35537000D01*
X94169587Y-34581192D01*
X93905186Y-34676956D01*
X93764296Y-34966571D01*
X93682616Y-35278108D01*
X93663282Y-35599595D01*
X92440000Y-35599595D01*
X92440000Y-35375967D01*
X92377168Y-35060088D01*
X92253918Y-34762537D01*
X92074987Y-34494748D01*
X91981826Y-34401587D01*
X94349192Y-34401587D01*
X95305000Y-35357395D01*
X96260808Y-34401587D01*
X96165044Y-34137186D01*
X95875429Y-33996296D01*
X95563892Y-33914616D01*
X95242405Y-33895282D01*
X94923325Y-33939039D01*
X94618912Y-34044205D01*
X94444956Y-34137186D01*
X94349192Y-34401587D01*
X91981826Y-34401587D01*
X91847252Y-34267013D01*
X91579463Y-34088082D01*
X91281912Y-33964832D01*
X90966033Y-33902000D01*
X90643967Y-33902000D01*
X90328088Y-33964832D01*
X90030537Y-34088082D01*
X89762748Y-34267013D01*
X89535013Y-34494748D01*
X89356082Y-34762537D01*
X89249877Y-35018938D01*
X77080981Y-38110191D01*
X77079324Y-38110284D01*
X76996521Y-38131646D01*
X76955967Y-38141948D01*
X76954417Y-38142508D01*
X76910521Y-38153833D01*
X76872646Y-38172074D01*
X76833109Y-38186369D01*
X76794307Y-38209802D01*
X76753457Y-38229476D01*
X76719855Y-38254765D01*
X76683881Y-38276491D01*
X76650407Y-38307034D01*
X76649075Y-38308036D01*
X76617915Y-38336680D01*
X76555101Y-38393993D01*
X76554123Y-38395321D01*
X69271282Y-45090107D01*
X82471302Y-31492000D01*
X89429941Y-31492000D01*
X89535013Y-31649252D01*
X89762748Y-31876987D01*
X90030537Y-32055918D01*
X90328088Y-32179168D01*
X90643967Y-32242000D01*
X90966033Y-32242000D01*
X91281912Y-32179168D01*
X91579463Y-32055918D01*
X91847252Y-31876987D01*
X91981826Y-31742413D01*
X94349192Y-31742413D01*
X94444956Y-32006814D01*
X94734571Y-32147704D01*
X95046108Y-32229384D01*
X95367595Y-32248718D01*
X95686675Y-32204961D01*
X95991088Y-32099795D01*
X96165044Y-32006814D01*
X96260808Y-31742413D01*
X95305000Y-30786605D01*
X94349192Y-31742413D01*
X91981826Y-31742413D01*
X92074987Y-31649252D01*
X92253918Y-31381463D01*
X92377168Y-31083912D01*
X92440000Y-30768033D01*
X92440000Y-30669595D01*
X93663282Y-30669595D01*
X93707039Y-30988675D01*
X93812205Y-31293088D01*
X93905186Y-31467044D01*
X94169587Y-31562808D01*
X95125395Y-30607000D01*
X95484605Y-30607000D01*
X96440413Y-31562808D01*
X96704814Y-31467044D01*
X96845704Y-31177429D01*
X96927384Y-30865892D01*
X96946718Y-30544405D01*
X96902961Y-30225325D01*
X96797795Y-29920912D01*
X96704814Y-29746956D01*
X96440413Y-29651192D01*
X95484605Y-30607000D01*
X95125395Y-30607000D01*
X94169587Y-29651192D01*
X93905186Y-29746956D01*
X93764296Y-30036571D01*
X93682616Y-30348108D01*
X93663282Y-30669595D01*
X92440000Y-30669595D01*
X92440000Y-30445967D01*
X92377168Y-30130088D01*
X92253918Y-29832537D01*
X92074987Y-29564748D01*
X91981826Y-29471587D01*
X94349192Y-29471587D01*
X95305000Y-30427395D01*
X96260808Y-29471587D01*
X96165044Y-29207186D01*
X95875429Y-29066296D01*
X95563892Y-28984616D01*
X95242405Y-28965282D01*
X94923325Y-29009039D01*
X94618912Y-29114205D01*
X94444956Y-29207186D01*
X94349192Y-29471587D01*
X91981826Y-29471587D01*
X91847252Y-29337013D01*
X91690000Y-29231941D01*
X91690000Y-25482059D01*
X91847252Y-25376987D01*
X91981826Y-25242413D01*
X94349192Y-25242413D01*
X94444956Y-25506814D01*
X94734571Y-25647704D01*
X95046108Y-25729384D01*
X95367595Y-25748718D01*
X95686675Y-25704961D01*
X95991088Y-25599795D01*
X96165044Y-25506814D01*
X96260808Y-25242413D01*
X95305000Y-24286605D01*
X94349192Y-25242413D01*
X91981826Y-25242413D01*
X92074987Y-25149252D01*
X92253918Y-24881463D01*
X92377168Y-24583912D01*
X92440000Y-24268033D01*
X92440000Y-24169595D01*
X93663282Y-24169595D01*
X93707039Y-24488675D01*
X93812205Y-24793088D01*
X93905186Y-24967044D01*
X94169587Y-25062808D01*
X95125395Y-24107000D01*
X95484605Y-24107000D01*
X96440413Y-25062808D01*
X96704814Y-24967044D01*
X96845704Y-24677429D01*
X96927384Y-24365892D01*
X96946718Y-24044405D01*
X96902961Y-23725325D01*
X96797795Y-23420912D01*
X96704814Y-23246956D01*
X96440413Y-23151192D01*
X95484605Y-24107000D01*
X95125395Y-24107000D01*
X94169587Y-23151192D01*
X93905186Y-23246956D01*
X93764296Y-23536571D01*
X93682616Y-23848108D01*
X93663282Y-24169595D01*
X92440000Y-24169595D01*
X92440000Y-23945967D01*
X92377168Y-23630088D01*
X92253918Y-23332537D01*
X92074987Y-23064748D01*
X91981826Y-22971587D01*
X94349192Y-22971587D01*
X95305000Y-23927395D01*
X96260808Y-22971587D01*
X96165044Y-22707186D01*
X95875429Y-22566296D01*
X95563892Y-22484616D01*
X95242405Y-22465282D01*
X94923325Y-22509039D01*
X94618912Y-22614205D01*
X94444956Y-22707186D01*
X94349192Y-22971587D01*
X91981826Y-22971587D01*
X91847252Y-22837013D01*
X91579463Y-22658082D01*
X91281912Y-22534832D01*
X90966033Y-22472000D01*
X90643967Y-22472000D01*
X90328088Y-22534832D01*
X90030537Y-22658082D01*
X89762748Y-22837013D01*
X89535013Y-23064748D01*
X89356082Y-23332537D01*
X89232832Y-23630088D01*
X89170000Y-23945967D01*
X89170000Y-24268033D01*
X89232832Y-24583912D01*
X89356082Y-24881463D01*
X89535013Y-25149252D01*
X89762748Y-25376987D01*
X89920000Y-25482060D01*
X89920001Y-29231940D01*
X89762748Y-29337013D01*
X89535013Y-29564748D01*
X89429941Y-29722000D01*
X82133878Y-29722000D01*
X82083789Y-29717817D01*
X82003742Y-29726903D01*
X81923508Y-29734805D01*
X81917162Y-29736730D01*
X81910572Y-29737478D01*
X81833803Y-29762017D01*
X81756685Y-29785411D01*
X81750835Y-29788538D01*
X81744518Y-29790557D01*
X81674006Y-29829603D01*
X81602939Y-29867589D01*
X81597814Y-29871795D01*
X81592010Y-29875009D01*
X81530460Y-29927072D01*
X81468181Y-29978183D01*
X81436289Y-30017043D01*
X63401024Y-48596219D01*
X63390236Y-48486691D01*
X63308182Y-48216192D01*
X63174932Y-47966899D01*
X62995608Y-47748392D01*
X62777101Y-47569068D01*
X62527808Y-47435818D01*
X62257309Y-47353764D01*
X62046492Y-47333000D01*
X61905508Y-47333000D01*
X61694691Y-47353764D01*
X61492715Y-47415032D01*
X64706358Y-44617973D01*
X64763817Y-44570817D01*
X64799678Y-44527121D01*
X64838481Y-44486001D01*
X64854855Y-44459887D01*
X64874411Y-44436059D01*
X64901062Y-44386198D01*
X64931093Y-44338305D01*
X64942059Y-44309497D01*
X64956589Y-44282313D01*
X64972999Y-44228217D01*
X64993112Y-44175380D01*
X64998247Y-44144989D01*
X65007195Y-44115490D01*
X65012737Y-44059218D01*
X65022153Y-44003486D01*
X65020000Y-43929194D01*
X65020000Y-35893793D01*
X65021316Y-35886555D01*
X65020000Y-35806768D01*
X65020000Y-35770523D01*
X65019282Y-35763232D01*
X65018441Y-35712248D01*
X65010760Y-35676709D01*
X65007195Y-35640510D01*
X64992387Y-35591695D01*
X64981615Y-35541853D01*
X64967147Y-35508490D01*
X64956589Y-35473687D01*
X64932548Y-35428709D01*
X64912255Y-35381915D01*
X64891555Y-35352015D01*
X64874411Y-35319941D01*
X64842052Y-35280511D01*
X64813024Y-35238583D01*
X64786889Y-35213296D01*
X64763817Y-35185183D01*
X64724399Y-35152833D01*
X64687738Y-35117362D01*
X64657165Y-35097656D01*
X64629058Y-35074589D01*
X64584080Y-35050548D01*
X64577930Y-35046584D01*
X64545729Y-35030049D01*
X64475312Y-34992411D01*
X64468268Y-34990274D01*
X63945471Y-34721825D01*
X63965371Y-34692043D01*
X64069775Y-34439989D01*
X64123000Y-34172411D01*
X64123000Y-33899589D01*
X64069775Y-33632011D01*
X63965371Y-33379957D01*
X63813799Y-33153114D01*
X63620886Y-32960201D01*
X63394043Y-32808629D01*
X63141989Y-32704225D01*
X62874411Y-32651000D01*
X62601589Y-32651000D01*
X62334011Y-32704225D01*
X62081957Y-32808629D01*
X61855114Y-32960201D01*
X61662201Y-33153114D01*
X61510629Y-33379957D01*
X61468000Y-33482873D01*
X61425371Y-33379957D01*
X61273799Y-33153114D01*
X61080886Y-32960201D01*
X60854043Y-32808629D01*
X60601989Y-32704225D01*
X60334411Y-32651000D01*
X60061589Y-32651000D01*
X59794011Y-32704225D01*
X59541957Y-32808629D01*
X59315114Y-32960201D01*
X59122201Y-33153114D01*
X58970629Y-33379957D01*
X58928000Y-33482873D01*
X58885371Y-33379957D01*
X58733799Y-33153114D01*
X58540886Y-32960201D01*
X58314043Y-32808629D01*
X58061989Y-32704225D01*
X57794411Y-32651000D01*
X57531814Y-32651000D01*
X56492534Y-31383171D01*
X56492411Y-31382941D01*
X56436077Y-31314299D01*
X56409869Y-31282327D01*
X56409698Y-31282156D01*
X56381817Y-31248183D01*
X56348238Y-31220625D01*
X56317544Y-31189896D01*
X56281029Y-31165467D01*
X56247059Y-31137589D01*
X56208745Y-31117110D01*
X56172649Y-31092962D01*
X56132068Y-31076126D01*
X56093313Y-31055411D01*
X56051746Y-31042802D01*
X56011627Y-31026157D01*
X55968544Y-31017562D01*
X55926490Y-31004805D01*
X55883250Y-31000546D01*
X55840666Y-30992051D01*
X55796739Y-30992026D01*
X55796477Y-30992000D01*
X55751759Y-30992000D01*
X55666338Y-30991951D01*
X55666091Y-30992000D01*
X45278830Y-30992000D01*
X45258739Y-30988948D01*
X45191842Y-30992000D01*
X45168523Y-30992000D01*
X45148400Y-30993982D01*
X45084591Y-30996893D01*
X45061842Y-31002507D01*
X45038510Y-31004805D01*
X44977354Y-31023357D01*
X44915338Y-31038661D01*
X44894119Y-31048606D01*
X44871687Y-31055411D01*
X44815332Y-31085533D01*
X44757486Y-31112645D01*
X44738615Y-31126539D01*
X44717941Y-31137589D01*
X44668547Y-31178126D01*
X44652282Y-31190101D01*
X44634966Y-31205686D01*
X44583183Y-31248183D01*
X44570288Y-31263896D01*
X38311890Y-36896455D01*
X37641938Y-37360268D01*
X37629574Y-37355147D01*
X37352335Y-37300000D01*
X37069665Y-37300000D01*
X36792426Y-37355147D01*
X36531273Y-37463320D01*
X36296241Y-37620363D01*
X36096363Y-37820241D01*
X35939320Y-38055273D01*
X35831147Y-38316426D01*
X35776000Y-38593665D01*
X35776000Y-38876335D01*
X35831147Y-39153574D01*
X35939320Y-39414727D01*
X36096363Y-39649759D01*
X36296241Y-39849637D01*
X36531273Y-40006680D01*
X36792426Y-40114853D01*
X37069665Y-40170000D01*
X37352335Y-40170000D01*
X37629574Y-40114853D01*
X37890727Y-40006680D01*
X38125759Y-39849637D01*
X38325637Y-39649759D01*
X38482680Y-39414727D01*
X38590853Y-39153574D01*
X38646000Y-38876335D01*
X38646000Y-38817929D01*
X39304761Y-38361864D01*
X39316513Y-38356356D01*
X39376310Y-38312330D01*
X39401497Y-38294893D01*
X39411343Y-38286537D01*
X39421717Y-38278899D01*
X39444438Y-38258450D01*
X39501103Y-38210360D01*
X39509174Y-38200187D01*
X39868689Y-37876624D01*
X39749320Y-38055273D01*
X39641147Y-38316426D01*
X39586000Y-38593665D01*
X39586000Y-38876335D01*
X39641147Y-39153574D01*
X39749320Y-39414727D01*
X39906363Y-39649759D01*
X40106241Y-39849637D01*
X40341273Y-40006680D01*
X40602426Y-40114853D01*
X40879665Y-40170000D01*
X41162335Y-40170000D01*
X41195489Y-40163405D01*
X41215056Y-40180635D01*
X41225952Y-40191531D01*
X41247692Y-40209373D01*
X41268768Y-40227931D01*
X41281257Y-40236918D01*
X41326939Y-40274409D01*
X41351868Y-40287734D01*
X42639897Y-41214660D01*
X42685169Y-41251893D01*
X42748833Y-41286008D01*
X42811353Y-41322273D01*
X42825582Y-41327135D01*
X42838828Y-41334233D01*
X42907948Y-41355279D01*
X42976318Y-41378641D01*
X43034416Y-41386409D01*
X43599258Y-41499378D01*
X43641510Y-41512195D01*
X43728206Y-41520734D01*
X43814068Y-41529281D01*
X43858005Y-41525000D01*
X50375524Y-41525000D01*
X50419000Y-41529282D01*
X50550405Y-41516340D01*
X50592490Y-41512195D01*
X50759313Y-41461589D01*
X50913059Y-41379411D01*
X50931000Y-41364687D01*
X50931001Y-45676521D01*
X50926719Y-45720000D01*
X50943805Y-45893490D01*
X50994412Y-46060313D01*
X51076590Y-46214059D01*
X51159468Y-46315046D01*
X51159471Y-46315049D01*
X51187184Y-46348817D01*
X51220951Y-46376529D01*
X53562983Y-48718562D01*
X53556000Y-48753665D01*
X53556000Y-49036335D01*
X53611147Y-49313574D01*
X53719320Y-49574727D01*
X53876363Y-49809759D01*
X54076241Y-50009637D01*
X54311273Y-50166680D01*
X54572426Y-50274853D01*
X54849665Y-50330000D01*
X55132335Y-50330000D01*
X55409574Y-50274853D01*
X55603003Y-50194732D01*
X50339967Y-54775523D01*
X50420680Y-54654727D01*
X50528853Y-54393574D01*
X50584000Y-54116335D01*
X50584000Y-53833665D01*
X50528853Y-53556426D01*
X50420680Y-53295273D01*
X50263637Y-53060241D01*
X50063759Y-52860363D01*
X49828727Y-52703320D01*
X49567574Y-52595147D01*
X49290335Y-52540000D01*
X49007665Y-52540000D01*
X48730426Y-52595147D01*
X48469273Y-52703320D01*
X48234241Y-52860363D01*
X48034363Y-53060241D01*
X47900308Y-53260869D01*
X47885671Y-53233486D01*
X47641702Y-53161903D01*
X46828605Y-53975000D01*
X47641702Y-54788097D01*
X47885671Y-54716514D01*
X47899324Y-54687659D01*
X48034363Y-54889759D01*
X48234241Y-55089637D01*
X48264000Y-55109521D01*
X48264001Y-56654922D01*
X48129392Y-56765392D01*
X47950068Y-56983899D01*
X47876421Y-57121682D01*
X47761385Y-56929869D01*
X47572414Y-56721481D01*
X47346420Y-56553963D01*
X47092087Y-56433754D01*
X46958039Y-56393096D01*
X46736000Y-56515085D01*
X46736000Y-57658000D01*
X46756000Y-57658000D01*
X46756000Y-57912000D01*
X46736000Y-57912000D01*
X46736000Y-59054915D01*
X46958039Y-59176904D01*
X47092087Y-59136246D01*
X47346420Y-59016037D01*
X47572414Y-58848519D01*
X47761385Y-58640131D01*
X47876421Y-58448318D01*
X47950068Y-58586101D01*
X48129392Y-58804608D01*
X48347899Y-58983932D01*
X48597192Y-59117182D01*
X48867691Y-59199236D01*
X49078508Y-59220000D01*
X49219492Y-59220000D01*
X49430309Y-59199236D01*
X49610773Y-59144494D01*
X44520394Y-62222398D01*
X42438946Y-63333332D01*
X42438687Y-63333411D01*
X42361536Y-63374649D01*
X42323934Y-63394718D01*
X42323715Y-63394864D01*
X42284943Y-63415588D01*
X42251379Y-63443134D01*
X42215265Y-63467232D01*
X42184164Y-63498296D01*
X42183955Y-63498467D01*
X42153179Y-63529243D01*
X42091920Y-63590428D01*
X42091770Y-63590652D01*
X41733958Y-63948464D01*
X41733952Y-63948469D01*
X41702296Y-63980125D01*
X41599492Y-63970000D01*
X41458508Y-63970000D01*
X41247691Y-63990764D01*
X40977192Y-64072818D01*
X40727899Y-64206068D01*
X40509392Y-64385392D01*
X40330068Y-64603899D01*
X40259000Y-64736858D01*
X40187932Y-64603899D01*
X40008608Y-64385392D01*
X39790101Y-64206068D01*
X39540808Y-64072818D01*
X39270309Y-63990764D01*
X39059492Y-63970000D01*
X38918508Y-63970000D01*
X38815704Y-63980125D01*
X35073532Y-60237954D01*
X35045817Y-60204183D01*
X34911059Y-60093589D01*
X34757313Y-60011411D01*
X34590490Y-59960805D01*
X34460477Y-59948000D01*
X34460469Y-59948000D01*
X34417000Y-59943719D01*
X34373531Y-59948000D01*
X30846578Y-59948000D01*
X30733214Y-59834636D01*
X30711468Y-59811689D01*
X30702461Y-59803883D01*
X30694046Y-59795468D01*
X30669649Y-59775446D01*
X27174000Y-56745884D01*
X27174000Y-48768000D01*
X27260057Y-48768000D01*
X27287764Y-49049309D01*
X27369818Y-49319808D01*
X27503068Y-49569101D01*
X27682392Y-49787608D01*
X27817000Y-49898078D01*
X27817001Y-55074521D01*
X27812719Y-55118000D01*
X27829805Y-55291490D01*
X27880412Y-55458313D01*
X27962590Y-55612059D01*
X28045468Y-55713046D01*
X28045471Y-55713049D01*
X28073184Y-55746817D01*
X28106951Y-55774529D01*
X29944125Y-57611704D01*
X29927057Y-57785000D01*
X29954764Y-58066309D01*
X30036818Y-58336808D01*
X30170068Y-58586101D01*
X30349392Y-58804608D01*
X30567899Y-58983932D01*
X30817192Y-59117182D01*
X31087691Y-59199236D01*
X31298508Y-59220000D01*
X31439492Y-59220000D01*
X31650309Y-59199236D01*
X31920808Y-59117182D01*
X32170101Y-58983932D01*
X32388608Y-58804608D01*
X32567932Y-58586101D01*
X32639000Y-58453142D01*
X32710068Y-58586101D01*
X32889392Y-58804608D01*
X33107899Y-58983932D01*
X33357192Y-59117182D01*
X33627691Y-59199236D01*
X33838508Y-59220000D01*
X33979492Y-59220000D01*
X34190309Y-59199236D01*
X34460808Y-59117182D01*
X34710101Y-58983932D01*
X34928608Y-58804608D01*
X35107932Y-58586101D01*
X35179000Y-58453142D01*
X35250068Y-58586101D01*
X35429392Y-58804608D01*
X35647899Y-58983932D01*
X35897192Y-59117182D01*
X36167691Y-59199236D01*
X36378508Y-59220000D01*
X36519492Y-59220000D01*
X36730309Y-59199236D01*
X37000808Y-59117182D01*
X37250101Y-58983932D01*
X37468608Y-58804608D01*
X37647932Y-58586101D01*
X37719000Y-58453142D01*
X37790068Y-58586101D01*
X37969392Y-58804608D01*
X38187899Y-58983932D01*
X38437192Y-59117182D01*
X38707691Y-59199236D01*
X38918508Y-59220000D01*
X39059492Y-59220000D01*
X39270309Y-59199236D01*
X39540808Y-59117182D01*
X39790101Y-58983932D01*
X40008608Y-58804608D01*
X40187932Y-58586101D01*
X40259000Y-58453142D01*
X40330068Y-58586101D01*
X40509392Y-58804608D01*
X40727899Y-58983932D01*
X40977192Y-59117182D01*
X41247691Y-59199236D01*
X41458508Y-59220000D01*
X41599492Y-59220000D01*
X41810309Y-59199236D01*
X42080808Y-59117182D01*
X42330101Y-58983932D01*
X42548608Y-58804608D01*
X42727932Y-58586101D01*
X42799000Y-58453142D01*
X42870068Y-58586101D01*
X43049392Y-58804608D01*
X43267899Y-58983932D01*
X43517192Y-59117182D01*
X43787691Y-59199236D01*
X43998508Y-59220000D01*
X44139492Y-59220000D01*
X44350309Y-59199236D01*
X44620808Y-59117182D01*
X44870101Y-58983932D01*
X45088608Y-58804608D01*
X45267932Y-58586101D01*
X45341579Y-58448318D01*
X45456615Y-58640131D01*
X45645586Y-58848519D01*
X45871580Y-59016037D01*
X46125913Y-59136246D01*
X46259961Y-59176904D01*
X46482000Y-59054915D01*
X46482000Y-57912000D01*
X46462000Y-57912000D01*
X46462000Y-57658000D01*
X46482000Y-57658000D01*
X46482000Y-56515085D01*
X46259961Y-56393096D01*
X46125913Y-56433754D01*
X45871580Y-56553963D01*
X45645586Y-56721481D01*
X45456615Y-56929869D01*
X45341579Y-57121682D01*
X45267932Y-56983899D01*
X45088608Y-56765392D01*
X44954000Y-56654922D01*
X44954000Y-54967702D01*
X45835903Y-54967702D01*
X45907486Y-55211671D01*
X46162996Y-55332571D01*
X46437184Y-55401300D01*
X46719512Y-55415217D01*
X46999130Y-55373787D01*
X47265292Y-55278603D01*
X47390514Y-55211671D01*
X47462097Y-54967702D01*
X46649000Y-54154605D01*
X45835903Y-54967702D01*
X44954000Y-54967702D01*
X44954000Y-53833578D01*
X45289036Y-53498542D01*
X45222700Y-53763184D01*
X45208783Y-54045512D01*
X45250213Y-54325130D01*
X45345397Y-54591292D01*
X45412329Y-54716514D01*
X45656298Y-54788097D01*
X46469395Y-53975000D01*
X46455253Y-53960858D01*
X46634858Y-53781253D01*
X46649000Y-53795395D01*
X47462097Y-52982298D01*
X47390514Y-52738329D01*
X47135004Y-52617429D01*
X46860816Y-52548700D01*
X46578488Y-52534783D01*
X46298870Y-52576213D01*
X46162651Y-52624927D01*
X48467704Y-50319875D01*
X48570508Y-50330000D01*
X48711492Y-50330000D01*
X48922309Y-50309236D01*
X49192808Y-50227182D01*
X49442101Y-50093932D01*
X49660608Y-49914608D01*
X49839932Y-49696101D01*
X49973182Y-49446808D01*
X50055236Y-49176309D01*
X50082943Y-48895000D01*
X50055236Y-48613691D01*
X49973182Y-48343192D01*
X49839932Y-48093899D01*
X49660608Y-47875392D01*
X49442101Y-47696068D01*
X49192808Y-47562818D01*
X48922309Y-47480764D01*
X48711492Y-47460000D01*
X48570508Y-47460000D01*
X48359691Y-47480764D01*
X48089192Y-47562818D01*
X47839899Y-47696068D01*
X47621392Y-47875392D01*
X47442068Y-48093899D01*
X47308818Y-48343192D01*
X47226764Y-48613691D01*
X47199057Y-48895000D01*
X47216125Y-49068296D01*
X43473956Y-52810466D01*
X43440183Y-52838183D01*
X43329589Y-52972942D01*
X43247411Y-53126688D01*
X43222712Y-53208108D01*
X43196806Y-53293509D01*
X43196805Y-53293511D01*
X43184000Y-53423524D01*
X43184000Y-53423531D01*
X43179719Y-53467000D01*
X43184000Y-53510469D01*
X43184001Y-56654922D01*
X43049392Y-56765392D01*
X42870068Y-56983899D01*
X42799000Y-57116858D01*
X42727932Y-56983899D01*
X42548608Y-56765392D01*
X42414000Y-56654922D01*
X42414000Y-52563578D01*
X44657704Y-50319875D01*
X44760508Y-50330000D01*
X44901492Y-50330000D01*
X45112309Y-50309236D01*
X45382808Y-50227182D01*
X45632101Y-50093932D01*
X45850608Y-49914608D01*
X46029932Y-49696101D01*
X46163182Y-49446808D01*
X46245236Y-49176309D01*
X46272943Y-48895000D01*
X46245236Y-48613691D01*
X46163182Y-48343192D01*
X46029932Y-48093899D01*
X45850608Y-47875392D01*
X45632101Y-47696068D01*
X45382808Y-47562818D01*
X45112309Y-47480764D01*
X44901492Y-47460000D01*
X44760508Y-47460000D01*
X44549691Y-47480764D01*
X44279192Y-47562818D01*
X44029899Y-47696068D01*
X43811392Y-47875392D01*
X43632068Y-48093899D01*
X43498818Y-48343192D01*
X43416764Y-48613691D01*
X43389057Y-48895000D01*
X43406125Y-49068296D01*
X40933956Y-51540466D01*
X40900183Y-51568183D01*
X40789589Y-51702942D01*
X40707411Y-51856688D01*
X40672157Y-51972904D01*
X40658984Y-52016329D01*
X40656805Y-52023511D01*
X40644000Y-52153524D01*
X40644000Y-52153531D01*
X40639719Y-52197000D01*
X40644000Y-52240469D01*
X40644001Y-56654921D01*
X40509392Y-56765392D01*
X40330068Y-56983899D01*
X40259000Y-57116858D01*
X40187932Y-56983899D01*
X40008608Y-56765392D01*
X39874000Y-56654922D01*
X39874000Y-51293578D01*
X40847704Y-50319875D01*
X40950508Y-50330000D01*
X41091492Y-50330000D01*
X41302309Y-50309236D01*
X41572808Y-50227182D01*
X41822101Y-50093932D01*
X42040608Y-49914608D01*
X42219932Y-49696101D01*
X42353182Y-49446808D01*
X42435236Y-49176309D01*
X42462943Y-48895000D01*
X42435236Y-48613691D01*
X42353182Y-48343192D01*
X42219932Y-48093899D01*
X42040608Y-47875392D01*
X41822101Y-47696068D01*
X41572808Y-47562818D01*
X41302309Y-47480764D01*
X41091492Y-47460000D01*
X40950508Y-47460000D01*
X40739691Y-47480764D01*
X40469192Y-47562818D01*
X40219899Y-47696068D01*
X40001392Y-47875392D01*
X39822068Y-48093899D01*
X39688818Y-48343192D01*
X39606764Y-48613691D01*
X39579057Y-48895000D01*
X39596125Y-49068296D01*
X38393956Y-50270466D01*
X38360183Y-50298183D01*
X38249589Y-50432942D01*
X38167411Y-50586688D01*
X38116805Y-50753511D01*
X38104000Y-50883524D01*
X38104000Y-50883531D01*
X38099719Y-50927000D01*
X38104000Y-50970469D01*
X38104001Y-56654921D01*
X38096000Y-56661488D01*
X38096000Y-50025078D01*
X38230608Y-49914608D01*
X38409932Y-49696101D01*
X38543182Y-49446808D01*
X38625236Y-49176309D01*
X38652943Y-48895000D01*
X38625236Y-48613691D01*
X38543182Y-48343192D01*
X38409932Y-48093899D01*
X38230608Y-47875392D01*
X38012101Y-47696068D01*
X37762808Y-47562818D01*
X37492309Y-47480764D01*
X37281492Y-47460000D01*
X37140508Y-47460000D01*
X36929691Y-47480764D01*
X36659192Y-47562818D01*
X36409899Y-47696068D01*
X36191392Y-47875392D01*
X36012068Y-48093899D01*
X35878818Y-48343192D01*
X35796764Y-48613691D01*
X35769057Y-48895000D01*
X35796764Y-49176309D01*
X35878818Y-49446808D01*
X36012068Y-49696101D01*
X36191392Y-49914608D01*
X36326000Y-50025078D01*
X36326001Y-56355172D01*
X36167691Y-56370764D01*
X35897192Y-56452818D01*
X35647899Y-56586068D01*
X35429392Y-56765392D01*
X35250068Y-56983899D01*
X35179000Y-57116858D01*
X35107932Y-56983899D01*
X34928608Y-56765392D01*
X34710101Y-56586068D01*
X34460808Y-56452818D01*
X34286000Y-56399791D01*
X34286000Y-50025078D01*
X34420608Y-49914608D01*
X34599932Y-49696101D01*
X34733182Y-49446808D01*
X34815236Y-49176309D01*
X34842943Y-48895000D01*
X34815236Y-48613691D01*
X34733182Y-48343192D01*
X34599932Y-48093899D01*
X34420608Y-47875392D01*
X34202101Y-47696068D01*
X33952808Y-47562818D01*
X33682309Y-47480764D01*
X33471492Y-47460000D01*
X33330508Y-47460000D01*
X33119691Y-47480764D01*
X32849192Y-47562818D01*
X32599899Y-47696068D01*
X32381392Y-47875392D01*
X32202068Y-48093899D01*
X32068818Y-48343192D01*
X31986764Y-48613691D01*
X31959057Y-48895000D01*
X31986764Y-49176309D01*
X32068818Y-49446808D01*
X32202068Y-49696101D01*
X32381392Y-49914608D01*
X32516000Y-50025078D01*
X32516001Y-56920621D01*
X32388608Y-56765392D01*
X32170101Y-56586068D01*
X31920808Y-56452818D01*
X31650309Y-56370764D01*
X31439492Y-56350000D01*
X31298508Y-56350000D01*
X31195704Y-56360125D01*
X29587000Y-54751422D01*
X29587000Y-49898078D01*
X29721608Y-49787608D01*
X29900932Y-49569101D01*
X30034182Y-49319808D01*
X30116236Y-49049309D01*
X30143943Y-48768000D01*
X30116236Y-48486691D01*
X30034182Y-48216192D01*
X29900932Y-47966899D01*
X29721608Y-47748392D01*
X29503101Y-47569068D01*
X29253808Y-47435818D01*
X28983309Y-47353764D01*
X28772492Y-47333000D01*
X28631508Y-47333000D01*
X28420691Y-47353764D01*
X28150192Y-47435818D01*
X27900899Y-47569068D01*
X27682392Y-47748392D01*
X27503068Y-47966899D01*
X27369818Y-48216192D01*
X27287764Y-48486691D01*
X27260057Y-48768000D01*
X27174000Y-48768000D01*
X27174000Y-38341108D01*
X27321054Y-38194919D01*
X27267000Y-38466665D01*
X27267000Y-38749335D01*
X27322147Y-39026574D01*
X27430320Y-39287727D01*
X27587363Y-39522759D01*
X27787241Y-39722637D01*
X28022273Y-39879680D01*
X28283426Y-39987853D01*
X28560665Y-40043000D01*
X28843335Y-40043000D01*
X29120574Y-39987853D01*
X29381727Y-39879680D01*
X29616759Y-39722637D01*
X29816637Y-39522759D01*
X29973680Y-39287727D01*
X30081853Y-39026574D01*
X30137000Y-38749335D01*
X30137000Y-38466665D01*
X30130017Y-38431561D01*
X30345503Y-38216076D01*
X33905170Y-36487673D01*
X33974830Y-36455872D01*
X34018796Y-36424177D01*
X34065028Y-36395819D01*
X34121325Y-36343735D01*
X52401625Y-20220112D01*
X52423047Y-20202531D01*
X52434185Y-20191393D01*
X52445968Y-20181000D01*
X52714411Y-20181000D01*
X52981989Y-20127775D01*
X53234043Y-20023371D01*
X53460886Y-19871799D01*
X53653799Y-19678886D01*
X53805371Y-19452043D01*
X53848000Y-19349127D01*
X53890629Y-19452043D01*
X54042201Y-19678886D01*
X54235114Y-19871799D01*
X54461957Y-20023371D01*
X54714011Y-20127775D01*
X54981589Y-20181000D01*
X55254411Y-20181000D01*
X55521989Y-20127775D01*
X55774043Y-20023371D01*
X56000886Y-19871799D01*
X56193799Y-19678886D01*
X56345371Y-19452043D01*
X56388000Y-19349127D01*
X56430629Y-19452043D01*
X56582201Y-19678886D01*
X56775114Y-19871799D01*
X57001957Y-20023371D01*
X57254011Y-20127775D01*
X57521589Y-20181000D01*
X57794411Y-20181000D01*
X58061989Y-20127775D01*
X58314043Y-20023371D01*
X58540886Y-19871799D01*
X58733799Y-19678886D01*
X58885371Y-19452043D01*
X58928000Y-19349127D01*
X58970629Y-19452043D01*
X59122201Y-19678886D01*
X59315114Y-19871799D01*
X59541957Y-20023371D01*
X59794011Y-20127775D01*
X59934588Y-20155738D01*
X59740626Y-20324000D01*
X54485546Y-20324000D01*
X54401080Y-20323499D01*
X54355606Y-20332265D01*
X54309510Y-20336805D01*
X54270210Y-20348727D01*
X54229901Y-20356497D01*
X54187013Y-20373965D01*
X54142687Y-20387411D01*
X54106474Y-20406767D01*
X54068449Y-20422254D01*
X54029791Y-20447755D01*
X53988941Y-20469589D01*
X53923565Y-20523242D01*
X35151009Y-35744234D01*
X35137982Y-35753518D01*
X35117203Y-35771645D01*
X35095855Y-35788954D01*
X35084512Y-35800164D01*
X33365232Y-37300000D01*
X33259665Y-37300000D01*
X32982426Y-37355147D01*
X32721273Y-37463320D01*
X32486241Y-37620363D01*
X32286363Y-37820241D01*
X32129320Y-38055273D01*
X32021147Y-38316426D01*
X31966000Y-38593665D01*
X31966000Y-38876335D01*
X32021147Y-39153574D01*
X32129320Y-39414727D01*
X32286363Y-39649759D01*
X32486241Y-39849637D01*
X32721273Y-40006680D01*
X32982426Y-40114853D01*
X33259665Y-40170000D01*
X33542335Y-40170000D01*
X33819574Y-40114853D01*
X34080727Y-40006680D01*
X34315759Y-39849637D01*
X34515637Y-39649759D01*
X34672680Y-39414727D01*
X34780853Y-39153574D01*
X34836000Y-38876335D01*
X34836000Y-38593665D01*
X34797377Y-38399497D01*
X36256788Y-37126363D01*
X54796703Y-22094000D01*
X59996044Y-22094000D01*
X60008064Y-22096051D01*
X60083072Y-22094000D01*
X60114477Y-22094000D01*
X60126547Y-22092811D01*
X60182328Y-22091286D01*
X60213089Y-22084288D01*
X60244490Y-22081195D01*
X60297906Y-22064991D01*
X60352314Y-22052613D01*
X60381117Y-22039749D01*
X60411313Y-22030589D01*
X60460537Y-22004279D01*
X60511490Y-21981522D01*
X60537230Y-21963286D01*
X60565059Y-21948411D01*
X60608208Y-21912999D01*
X60618090Y-21905998D01*
X60641775Y-21885451D01*
X60699817Y-21837817D01*
X60707559Y-21828384D01*
X62558810Y-20222422D01*
X62583047Y-20202531D01*
X62591612Y-20193966D01*
X62600774Y-20186018D01*
X62605525Y-20181000D01*
X62874411Y-20181000D01*
X63141989Y-20127775D01*
X63394043Y-20023371D01*
X63620886Y-19871799D01*
X63813799Y-19678886D01*
X63965371Y-19452043D01*
X64069775Y-19199989D01*
X64123000Y-18932411D01*
X64123000Y-18659589D01*
X64069775Y-18392011D01*
X63965371Y-18139957D01*
X63813799Y-17913114D01*
X63620886Y-17720201D01*
X63394043Y-17568629D01*
X63141989Y-17464225D01*
X62874411Y-17411000D01*
X62601589Y-17411000D01*
X62334011Y-17464225D01*
X62081957Y-17568629D01*
X61855114Y-17720201D01*
X61662201Y-17913114D01*
X61510629Y-18139957D01*
X61468000Y-18242873D01*
X61425371Y-18139957D01*
X61273799Y-17913114D01*
X61083000Y-17722315D01*
X61083000Y-16797872D01*
X92634000Y-16797872D01*
X92634000Y-17238128D01*
X92719890Y-17669925D01*
X92888369Y-18076669D01*
X93132962Y-18442729D01*
X93444271Y-18754038D01*
X93810331Y-18998631D01*
X94217075Y-19167110D01*
X94648872Y-19253000D01*
X95089128Y-19253000D01*
X95520925Y-19167110D01*
X95927669Y-18998631D01*
X96293729Y-18754038D01*
X96605038Y-18442729D01*
X96849631Y-18076669D01*
X97018110Y-17669925D01*
X97104000Y-17238128D01*
X97104000Y-16797872D01*
X97018110Y-16366075D01*
X96849631Y-15959331D01*
X96605038Y-15593271D01*
X96293729Y-15281962D01*
X95927669Y-15037369D01*
X95520925Y-14868890D01*
X95089128Y-14783000D01*
X94648872Y-14783000D01*
X94217075Y-14868890D01*
X93810331Y-15037369D01*
X93444271Y-15281962D01*
X93132962Y-15593271D01*
X92888369Y-15959331D01*
X92719890Y-16366075D01*
X92634000Y-16797872D01*
X61083000Y-16797872D01*
X61083000Y-16553477D01*
X61087282Y-16510000D01*
X61070195Y-16336510D01*
X61019589Y-16169687D01*
X60937411Y-16015941D01*
X60826817Y-15881183D01*
X60692059Y-15770589D01*
X60538313Y-15688411D01*
X60371490Y-15637805D01*
X60241477Y-15625000D01*
X60198000Y-15620718D01*
X60154524Y-15625000D01*
X47923775Y-15625000D01*
X47881623Y-15620723D01*
X47836840Y-15625000D01*
X47835523Y-15625000D01*
X47793377Y-15629151D01*
X47708083Y-15637297D01*
X47706820Y-15637676D01*
X47705510Y-15637805D01*
X47623377Y-15662720D01*
X47541111Y-15687411D01*
X47539947Y-15688029D01*
X47538687Y-15688411D01*
X47462999Y-15728866D01*
X47387124Y-15769135D01*
X47386103Y-15769968D01*
X47384941Y-15770589D01*
X47318737Y-15824921D01*
X47285892Y-15851715D01*
X47284957Y-15852644D01*
X47250183Y-15881183D01*
X47223304Y-15913935D01*
X25694967Y-37315636D01*
X25660183Y-37344183D01*
X25605729Y-37410535D01*
X25551050Y-37476762D01*
X25550425Y-37477924D01*
X25549589Y-37478942D01*
X25509120Y-37554656D01*
X25468419Y-37630265D01*
X25468033Y-37631525D01*
X25467411Y-37632688D01*
X25442468Y-37714913D01*
X25417321Y-37796938D01*
X25417188Y-37798248D01*
X25416805Y-37799511D01*
X25408365Y-37885204D01*
X25399723Y-37970377D01*
X25404000Y-38015157D01*
X25404001Y-57138099D01*
X25401979Y-57213358D01*
X25411356Y-57268157D01*
X25416806Y-57323490D01*
X25426026Y-57353883D01*
X25431383Y-57385190D01*
X25451274Y-57437114D01*
X25467412Y-57490313D01*
X25482383Y-57518323D01*
X25493746Y-57547984D01*
X25523380Y-57595024D01*
X25549590Y-57644059D01*
X25569739Y-57668610D01*
X25586669Y-57695484D01*
X25624917Y-57735844D01*
X25660184Y-57778817D01*
X25718366Y-57826566D01*
X29495541Y-61100119D01*
X29823466Y-61428044D01*
X29851183Y-61461817D01*
X29985941Y-61572411D01*
X30139687Y-61654589D01*
X30306510Y-61705195D01*
X30436523Y-61718000D01*
X30436533Y-61718000D01*
X30479999Y-61722281D01*
X30523465Y-61718000D01*
X34050422Y-61718000D01*
X36309244Y-63976822D01*
X36167691Y-63990764D01*
X35897192Y-64072818D01*
X35647899Y-64206068D01*
X35429392Y-64385392D01*
X35250068Y-64603899D01*
X35179000Y-64736858D01*
X35107932Y-64603899D01*
X34928608Y-64385392D01*
X34710101Y-64206068D01*
X34460808Y-64072818D01*
X34190309Y-63990764D01*
X33979492Y-63970000D01*
X33838508Y-63970000D01*
X33627691Y-63990764D01*
X33357192Y-64072818D01*
X33107899Y-64206068D01*
X32889392Y-64385392D01*
X32796581Y-64498482D01*
X32794812Y-64480518D01*
X32758502Y-64360820D01*
X32699537Y-64250506D01*
X32620185Y-64153815D01*
X32523494Y-64074463D01*
X32413180Y-64015498D01*
X32293482Y-63979188D01*
X32169000Y-63966928D01*
X30569000Y-63966928D01*
X30444518Y-63979188D01*
X30324820Y-64015498D01*
X30214506Y-64074463D01*
X30117815Y-64153815D01*
X30038463Y-64250506D01*
X29979498Y-64360820D01*
X29943188Y-64480518D01*
X29930928Y-64605000D01*
X29930928Y-64647000D01*
X29201521Y-64647000D01*
X29181637Y-64617241D01*
X28981759Y-64417363D01*
X28952000Y-64397479D01*
X28952000Y-64178465D01*
X28956281Y-64134999D01*
X28952000Y-64091533D01*
X28952000Y-64091523D01*
X28939195Y-63961510D01*
X28888589Y-63794687D01*
X28806411Y-63640941D01*
X28782210Y-63611452D01*
X28723532Y-63539953D01*
X28723530Y-63539951D01*
X28695817Y-63506183D01*
X28662051Y-63478472D01*
X22221000Y-57037422D01*
X22221000Y-49898078D01*
X22355608Y-49787608D01*
X22534932Y-49569101D01*
X22668182Y-49319808D01*
X22750236Y-49049309D01*
X22777943Y-48768000D01*
X22750236Y-48486691D01*
X22668182Y-48216192D01*
X22534932Y-47966899D01*
X22355608Y-47748392D01*
X22137101Y-47569068D01*
X21887808Y-47435818D01*
X21617309Y-47353764D01*
X21406492Y-47333000D01*
X21265508Y-47333000D01*
X21054691Y-47353764D01*
X20784192Y-47435818D01*
X20534899Y-47569068D01*
X20316392Y-47748392D01*
X20137068Y-47966899D01*
X20003818Y-48216192D01*
X19921764Y-48486691D01*
X19894057Y-48768000D01*
X19921764Y-49049309D01*
X20003818Y-49319808D01*
X20137068Y-49569101D01*
X20316392Y-49787608D01*
X20451000Y-49898078D01*
X20451001Y-57360521D01*
X20446719Y-57404000D01*
X20463805Y-57577490D01*
X20514412Y-57744313D01*
X20596590Y-57898059D01*
X20679468Y-57999046D01*
X20679471Y-57999049D01*
X20707184Y-58032817D01*
X20740952Y-58060530D01*
X27125013Y-64444591D01*
X26952363Y-64617241D01*
X26795320Y-64852273D01*
X26687147Y-65113426D01*
X26632000Y-65390665D01*
X26632000Y-65673335D01*
X26687147Y-65950574D01*
X26795320Y-66211727D01*
X26952363Y-66446759D01*
X27152241Y-66646637D01*
X27354827Y-66782000D01*
X27152241Y-66917363D01*
X26952363Y-67117241D01*
X26795320Y-67352273D01*
X26687147Y-67613426D01*
X26632000Y-67890665D01*
X26632000Y-68173335D01*
X26687147Y-68450574D01*
X26795320Y-68711727D01*
X26952363Y-68946759D01*
X26970604Y-68965000D01*
X25535719Y-68965000D01*
X19173000Y-62013142D01*
X19173000Y-40891208D01*
X20381406Y-39682802D01*
X20421241Y-39722637D01*
X20656273Y-39879680D01*
X20917426Y-39987853D01*
X21194665Y-40043000D01*
X21477335Y-40043000D01*
X21754574Y-39987853D01*
X22015727Y-39879680D01*
X22250759Y-39722637D01*
X22450637Y-39522759D01*
X22607680Y-39287727D01*
X22715853Y-39026574D01*
X22771000Y-38749335D01*
X22771000Y-38466665D01*
X22715853Y-38189426D01*
X22607680Y-37928273D01*
X22450637Y-37693241D01*
X22250759Y-37493363D01*
X22221000Y-37473479D01*
X22221000Y-35310621D01*
X22330180Y-35277502D01*
X22440494Y-35218537D01*
X22537185Y-35139185D01*
X22612018Y-35048000D01*
X24900479Y-35048000D01*
X24920363Y-35077759D01*
X25120241Y-35277637D01*
X25355273Y-35434680D01*
X25616426Y-35542853D01*
X25893665Y-35598000D01*
X26176335Y-35598000D01*
X26453574Y-35542853D01*
X26714727Y-35434680D01*
X26949759Y-35277637D01*
X27149637Y-35077759D01*
X27306680Y-34842727D01*
X27414853Y-34581574D01*
X27470000Y-34304335D01*
X27470000Y-34021665D01*
X27414853Y-33744426D01*
X27306680Y-33483273D01*
X27149637Y-33248241D01*
X26949759Y-33048363D01*
X26749131Y-32914308D01*
X26776514Y-32899671D01*
X26848097Y-32655702D01*
X26035000Y-31842605D01*
X25221903Y-32655702D01*
X25293486Y-32899671D01*
X25322341Y-32913324D01*
X25120241Y-33048363D01*
X24920363Y-33248241D01*
X24900479Y-33278000D01*
X22663433Y-33278000D01*
X22671272Y-33260337D01*
X22679964Y-33198810D01*
X22554163Y-33020000D01*
X22236235Y-33020000D01*
X22210482Y-33012188D01*
X22086000Y-32999928D01*
X20586000Y-32999928D01*
X20461518Y-33012188D01*
X20435765Y-33020000D01*
X20117837Y-33020000D01*
X19992036Y-33198810D01*
X20000728Y-33260337D01*
X20031176Y-33328943D01*
X19996498Y-33393820D01*
X19960188Y-33513518D01*
X19947928Y-33638000D01*
X19947928Y-34688000D01*
X19960188Y-34812482D01*
X19996498Y-34932180D01*
X20055463Y-35042494D01*
X20134815Y-35139185D01*
X20231506Y-35218537D01*
X20341820Y-35277502D01*
X20451001Y-35310622D01*
X20451000Y-37473479D01*
X20421241Y-37493363D01*
X20221363Y-37693241D01*
X20204319Y-37718750D01*
X20161163Y-37723000D01*
X20161153Y-37723000D01*
X20031140Y-37735805D01*
X19864317Y-37786411D01*
X19710571Y-37868589D01*
X19710569Y-37868590D01*
X19710570Y-37868590D01*
X19609583Y-37951468D01*
X19609581Y-37951470D01*
X19575813Y-37979183D01*
X19548100Y-38012951D01*
X17692956Y-39868096D01*
X17659183Y-39895813D01*
X17548589Y-40030572D01*
X17466411Y-40184318D01*
X17415805Y-40351141D01*
X17403000Y-40481154D01*
X17403000Y-40481161D01*
X17398719Y-40524630D01*
X13385000Y-40524630D01*
X13385000Y-27665513D01*
X13588954Y-27665513D01*
X13593000Y-27719257D01*
X13593000Y-27729476D01*
X13596265Y-27762627D01*
X13602041Y-27839350D01*
X13604796Y-27849249D01*
X13605805Y-27859489D01*
X13628156Y-27933170D01*
X13648789Y-28007294D01*
X13653426Y-28016471D01*
X13656411Y-28026312D01*
X13692703Y-28094210D01*
X13727404Y-28162892D01*
X13733740Y-28170985D01*
X13738589Y-28180058D01*
X13787431Y-28239572D01*
X13834863Y-28300163D01*
X13842659Y-28306867D01*
X13849183Y-28314817D01*
X13908706Y-28363667D01*
X13933915Y-28385346D01*
X13942264Y-28391207D01*
X13983941Y-28425411D01*
X14013459Y-28441189D01*
X19550273Y-32328215D01*
X19591941Y-32362411D01*
X19659816Y-32398690D01*
X19726848Y-32436531D01*
X19736621Y-32439743D01*
X19745687Y-32444589D01*
X19819352Y-32466935D01*
X19892461Y-32490965D01*
X19902662Y-32492208D01*
X19912510Y-32495195D01*
X19989136Y-32502742D01*
X20009784Y-32505257D01*
X20000728Y-32525663D01*
X19992036Y-32587190D01*
X20117837Y-32766000D01*
X20882891Y-32766000D01*
X20883600Y-32766215D01*
X21054021Y-32783000D01*
X21617979Y-32783000D01*
X21788400Y-32766215D01*
X21789109Y-32766000D01*
X22554163Y-32766000D01*
X22679964Y-32587190D01*
X22671272Y-32525663D01*
X22578275Y-32316118D01*
X22537071Y-32257669D01*
X22637885Y-32069060D01*
X22704215Y-31850400D01*
X22715727Y-31733512D01*
X24594783Y-31733512D01*
X24636213Y-32013130D01*
X24731397Y-32279292D01*
X24798329Y-32404514D01*
X25042298Y-32476097D01*
X25855395Y-31663000D01*
X26214605Y-31663000D01*
X27027702Y-32476097D01*
X27271671Y-32404514D01*
X27392571Y-32149004D01*
X27461300Y-31874816D01*
X27475217Y-31592488D01*
X27433787Y-31312870D01*
X27338603Y-31046708D01*
X27271671Y-30921486D01*
X27027702Y-30849903D01*
X26214605Y-31663000D01*
X25855395Y-31663000D01*
X25042298Y-30849903D01*
X24798329Y-30921486D01*
X24677429Y-31176996D01*
X24608700Y-31451184D01*
X24594783Y-31733512D01*
X22715727Y-31733512D01*
X22726612Y-31623000D01*
X22704215Y-31395600D01*
X22637885Y-31176940D01*
X22530171Y-30975421D01*
X22385212Y-30798788D01*
X22228647Y-30670298D01*
X25221903Y-30670298D01*
X26035000Y-31483395D01*
X26848097Y-30670298D01*
X26776514Y-30426329D01*
X26521004Y-30305429D01*
X26246816Y-30236700D01*
X25964488Y-30222783D01*
X25684870Y-30264213D01*
X25418708Y-30359397D01*
X25293486Y-30426329D01*
X25221903Y-30670298D01*
X22228647Y-30670298D01*
X22208579Y-30653829D01*
X22007060Y-30546115D01*
X21788400Y-30479785D01*
X21617979Y-30463000D01*
X21054021Y-30463000D01*
X20883600Y-30479785D01*
X20664940Y-30546115D01*
X20463421Y-30653829D01*
X20363061Y-30736192D01*
X15363000Y-27225987D01*
X15363000Y-26518890D01*
X15703524Y-26518890D01*
X15748175Y-26666099D01*
X15873359Y-26928920D01*
X16047412Y-27162269D01*
X16263645Y-27357178D01*
X16513748Y-27506157D01*
X16788109Y-27603481D01*
X17018000Y-27482814D01*
X17018000Y-26289000D01*
X17272000Y-26289000D01*
X17272000Y-27482814D01*
X17501891Y-27603481D01*
X17776252Y-27506157D01*
X18026355Y-27357178D01*
X18242588Y-27162269D01*
X18416641Y-26928920D01*
X18541825Y-26666099D01*
X18586476Y-26518890D01*
X18561606Y-26471764D01*
X22570841Y-26471764D01*
X22618148Y-26695348D01*
X22839516Y-26796237D01*
X23076313Y-26852000D01*
X23319438Y-26860495D01*
X23559549Y-26821395D01*
X23787418Y-26736202D01*
X23863852Y-26695348D01*
X23911159Y-26471764D01*
X23241000Y-25801605D01*
X22570841Y-26471764D01*
X18561606Y-26471764D01*
X18465155Y-26289000D01*
X17272000Y-26289000D01*
X17018000Y-26289000D01*
X15824845Y-26289000D01*
X15703524Y-26518890D01*
X15363000Y-26518890D01*
X15363000Y-24956024D01*
X15787766Y-24854889D01*
X15843815Y-24923185D01*
X15940506Y-25002537D01*
X16050820Y-25061502D01*
X16131466Y-25085966D01*
X16047412Y-25161731D01*
X15873359Y-25395080D01*
X15748175Y-25657901D01*
X15703524Y-25805110D01*
X15824845Y-26035000D01*
X17018000Y-26035000D01*
X17018000Y-26015000D01*
X17272000Y-26015000D01*
X17272000Y-26035000D01*
X18465155Y-26035000D01*
X18586476Y-25805110D01*
X18554728Y-25700438D01*
X22002505Y-25700438D01*
X22041605Y-25940549D01*
X22126798Y-26168418D01*
X22167652Y-26244852D01*
X22391236Y-26292159D01*
X23061395Y-25622000D01*
X23420605Y-25622000D01*
X24090764Y-26292159D01*
X24314348Y-26244852D01*
X24415237Y-26023484D01*
X24471000Y-25786687D01*
X24479495Y-25543562D01*
X24440395Y-25303451D01*
X24355202Y-25075582D01*
X24314348Y-24999148D01*
X24090764Y-24951841D01*
X23420605Y-25622000D01*
X23061395Y-25622000D01*
X22391236Y-24951841D01*
X22167652Y-24999148D01*
X22066763Y-25220516D01*
X22011000Y-25457313D01*
X22002505Y-25700438D01*
X18554728Y-25700438D01*
X18541825Y-25657901D01*
X18416641Y-25395080D01*
X18242588Y-25161731D01*
X18158534Y-25085966D01*
X18239180Y-25061502D01*
X18349494Y-25002537D01*
X18446185Y-24923185D01*
X18525537Y-24826494D01*
X18584502Y-24716180D01*
X18620812Y-24596482D01*
X18629625Y-24507000D01*
X22379446Y-24507000D01*
X22453733Y-24581287D01*
X22591733Y-24673496D01*
X22570841Y-24772236D01*
X23241000Y-25442395D01*
X23911159Y-24772236D01*
X23890267Y-24673496D01*
X24028267Y-24581287D01*
X24200287Y-24409267D01*
X24335443Y-24206992D01*
X24428540Y-23982236D01*
X24476000Y-23743637D01*
X24476000Y-23500363D01*
X24428540Y-23261764D01*
X24335443Y-23037008D01*
X24200287Y-22834733D01*
X24028267Y-22662713D01*
X23825992Y-22527557D01*
X23601236Y-22434460D01*
X23362637Y-22387000D01*
X23119363Y-22387000D01*
X22880764Y-22434460D01*
X22656008Y-22527557D01*
X22453733Y-22662713D01*
X22379446Y-22737000D01*
X18629625Y-22737000D01*
X18620812Y-22647518D01*
X18584502Y-22527820D01*
X18525537Y-22417506D01*
X18446185Y-22320815D01*
X18349494Y-22241463D01*
X18239180Y-22182498D01*
X18119482Y-22146188D01*
X17995000Y-22133928D01*
X16295000Y-22133928D01*
X16170518Y-22146188D01*
X16050820Y-22182498D01*
X15940506Y-22241463D01*
X15843815Y-22320815D01*
X15764463Y-22417506D01*
X15705498Y-22527820D01*
X15669188Y-22647518D01*
X15656928Y-22772000D01*
X15656928Y-23066564D01*
X14331467Y-23382150D01*
X14304511Y-23384805D01*
X14246843Y-23402299D01*
X14230722Y-23406137D01*
X14205262Y-23414912D01*
X14137688Y-23435411D01*
X14122980Y-23443273D01*
X14107210Y-23448708D01*
X14046227Y-23484297D01*
X13983942Y-23517589D01*
X13971046Y-23528173D01*
X13956645Y-23536577D01*
X13903772Y-23583383D01*
X13849184Y-23628183D01*
X13838606Y-23641073D01*
X13826114Y-23652131D01*
X13783382Y-23708363D01*
X13738590Y-23762941D01*
X13730728Y-23777650D01*
X13720636Y-23790930D01*
X13689694Y-23854421D01*
X13656412Y-23916687D01*
X13651572Y-23932644D01*
X13644263Y-23947640D01*
X13626304Y-24015938D01*
X13605806Y-24083510D01*
X13604171Y-24100110D01*
X13599930Y-24116239D01*
X13595640Y-24186727D01*
X13593001Y-24213523D01*
X13593001Y-24230091D01*
X13589340Y-24290246D01*
X13593001Y-24317085D01*
X13593000Y-27632300D01*
X13588954Y-27665513D01*
X13385000Y-27665513D01*
X13385000Y-16797872D01*
X14783000Y-16797872D01*
X14783000Y-17238128D01*
X14868890Y-17669925D01*
X15037369Y-18076669D01*
X15281962Y-18442729D01*
X15593271Y-18754038D01*
X15959331Y-18998631D01*
X16366075Y-19167110D01*
X16797872Y-19253000D01*
X17238128Y-19253000D01*
X17669925Y-19167110D01*
X18076669Y-18998631D01*
X18442729Y-18754038D01*
X18754038Y-18442729D01*
X18998631Y-18076669D01*
X19167110Y-17669925D01*
X19253000Y-17238128D01*
X19253000Y-16797872D01*
X19167110Y-16366075D01*
X18998631Y-15959331D01*
X18754038Y-15593271D01*
X18442729Y-15281962D01*
X18076669Y-15037369D01*
X17669925Y-14868890D01*
X17238128Y-14783000D01*
X16797872Y-14783000D01*
X16366075Y-14868890D01*
X15959331Y-15037369D01*
X15593271Y-15281962D01*
X15281962Y-15593271D01*
X15037369Y-15959331D01*
X14868890Y-16366075D01*
X14783000Y-16797872D01*
X13385000Y-16797872D01*
X13385000Y-13385000D01*
X98375000Y-13385000D01*
X98375001Y-78055000D01*
M02*
