G04 #@! TF.GenerationSoftware,KiCad,Pcbnew,(5.1.0)-1*
G04 #@! TF.CreationDate,2019-07-19T11:38:46-03:00*
G04 #@! TF.ProjectId,Capacimetro_v2,43617061-6369-46d6-9574-726f5f76322e,rev?*
G04 #@! TF.SameCoordinates,Original*
G04 #@! TF.FileFunction,Soldermask,Bot*
G04 #@! TF.FilePolarity,Negative*
%FSLAX46Y46*%
G04 Gerber Fmt 4.6, Leading zero omitted, Abs format (unit mm)*
G04 Created by KiCad (PCBNEW (5.1.0)-1) date 2019-07-19 11:38:46*
%MOMM*%
%LPD*%
G04 APERTURE LIST*
%ADD10C,0.100000*%
G04 APERTURE END LIST*
D10*
G36*
X95184144Y-73563341D02*
G01*
X95350579Y-73596447D01*
X95651042Y-73720903D01*
X95921451Y-73901585D01*
X96151415Y-74131549D01*
X96332097Y-74401958D01*
X96456553Y-74702421D01*
X96470524Y-74772659D01*
X96520000Y-75021389D01*
X96520000Y-75346611D01*
X96490623Y-75494297D01*
X96456553Y-75665579D01*
X96332097Y-75966042D01*
X96151415Y-76236451D01*
X95921451Y-76466415D01*
X95651042Y-76647097D01*
X95350579Y-76771553D01*
X95244256Y-76792702D01*
X95031611Y-76835000D01*
X94706389Y-76835000D01*
X94493744Y-76792702D01*
X94387421Y-76771553D01*
X94086958Y-76647097D01*
X93816549Y-76466415D01*
X93586585Y-76236451D01*
X93405903Y-75966042D01*
X93281447Y-75665579D01*
X93247377Y-75494297D01*
X93218000Y-75346611D01*
X93218000Y-75021389D01*
X93267476Y-74772659D01*
X93281447Y-74702421D01*
X93405903Y-74401958D01*
X93586585Y-74131549D01*
X93816549Y-73901585D01*
X94086958Y-73720903D01*
X94387421Y-73596447D01*
X94553856Y-73563341D01*
X94706389Y-73533000D01*
X95031611Y-73533000D01*
X95184144Y-73563341D01*
X95184144Y-73563341D01*
G37*
G36*
X17333144Y-73563341D02*
G01*
X17499579Y-73596447D01*
X17800042Y-73720903D01*
X18070451Y-73901585D01*
X18300415Y-74131549D01*
X18481097Y-74401958D01*
X18605553Y-74702421D01*
X18619524Y-74772659D01*
X18669000Y-75021389D01*
X18669000Y-75346611D01*
X18639623Y-75494297D01*
X18605553Y-75665579D01*
X18481097Y-75966042D01*
X18300415Y-76236451D01*
X18070451Y-76466415D01*
X17800042Y-76647097D01*
X17499579Y-76771553D01*
X17393256Y-76792702D01*
X17180611Y-76835000D01*
X16855389Y-76835000D01*
X16642744Y-76792702D01*
X16536421Y-76771553D01*
X16235958Y-76647097D01*
X15965549Y-76466415D01*
X15735585Y-76236451D01*
X15554903Y-75966042D01*
X15430447Y-75665579D01*
X15396377Y-75494297D01*
X15367000Y-75346611D01*
X15367000Y-75021389D01*
X15416476Y-74772659D01*
X15430447Y-74702421D01*
X15554903Y-74401958D01*
X15735585Y-74131549D01*
X15965549Y-73901585D01*
X16235958Y-73720903D01*
X16536421Y-73596447D01*
X16702856Y-73563341D01*
X16855389Y-73533000D01*
X17180611Y-73533000D01*
X17333144Y-73563341D01*
X17333144Y-73563341D01*
G37*
G36*
X43555228Y-73984703D02*
G01*
X43710100Y-74048853D01*
X43849481Y-74141985D01*
X43968015Y-74260519D01*
X44061147Y-74399900D01*
X44125297Y-74554772D01*
X44158000Y-74719184D01*
X44158000Y-74886816D01*
X44125297Y-75051228D01*
X44061147Y-75206100D01*
X43968015Y-75345481D01*
X43849481Y-75464015D01*
X43710100Y-75557147D01*
X43555228Y-75621297D01*
X43390816Y-75654000D01*
X43223184Y-75654000D01*
X43058772Y-75621297D01*
X42903900Y-75557147D01*
X42764519Y-75464015D01*
X42645985Y-75345481D01*
X42552853Y-75206100D01*
X42488703Y-75051228D01*
X42456000Y-74886816D01*
X42456000Y-74719184D01*
X42488703Y-74554772D01*
X42552853Y-74399900D01*
X42645985Y-74260519D01*
X42764519Y-74141985D01*
X42903900Y-74048853D01*
X43058772Y-73984703D01*
X43223184Y-73952000D01*
X43390816Y-73952000D01*
X43555228Y-73984703D01*
X43555228Y-73984703D01*
G37*
G36*
X60827228Y-73857703D02*
G01*
X60982100Y-73921853D01*
X61121481Y-74014985D01*
X61240015Y-74133519D01*
X61333147Y-74272900D01*
X61397297Y-74427772D01*
X61430000Y-74592184D01*
X61430000Y-74759816D01*
X61397297Y-74924228D01*
X61333147Y-75079100D01*
X61240015Y-75218481D01*
X61121481Y-75337015D01*
X60982100Y-75430147D01*
X60827228Y-75494297D01*
X60662816Y-75527000D01*
X60495184Y-75527000D01*
X60330772Y-75494297D01*
X60175900Y-75430147D01*
X60036519Y-75337015D01*
X59917985Y-75218481D01*
X59824853Y-75079100D01*
X59760703Y-74924228D01*
X59728000Y-74759816D01*
X59728000Y-74592184D01*
X59760703Y-74427772D01*
X59824853Y-74272900D01*
X59917985Y-74133519D01*
X60036519Y-74014985D01*
X60175900Y-73921853D01*
X60330772Y-73857703D01*
X60495184Y-73825000D01*
X60662816Y-73825000D01*
X60827228Y-73857703D01*
X60827228Y-73857703D01*
G37*
G36*
X66714823Y-73329313D02*
G01*
X66875242Y-73377976D01*
X66942361Y-73413852D01*
X67023078Y-73456996D01*
X67152659Y-73563341D01*
X67259004Y-73692922D01*
X67259005Y-73692924D01*
X67338024Y-73840758D01*
X67386687Y-74001177D01*
X67403117Y-74168000D01*
X67386687Y-74334823D01*
X67338024Y-74495242D01*
X67297477Y-74571100D01*
X67259004Y-74643078D01*
X67152659Y-74772659D01*
X67023078Y-74879004D01*
X67023076Y-74879005D01*
X66875242Y-74958024D01*
X66714823Y-75006687D01*
X66589804Y-75019000D01*
X66506196Y-75019000D01*
X66381177Y-75006687D01*
X66220758Y-74958024D01*
X66072924Y-74879005D01*
X66072922Y-74879004D01*
X65943341Y-74772659D01*
X65836996Y-74643078D01*
X65798523Y-74571100D01*
X65757976Y-74495242D01*
X65709313Y-74334823D01*
X65692883Y-74168000D01*
X65709313Y-74001177D01*
X65757976Y-73840758D01*
X65836995Y-73692924D01*
X65836996Y-73692922D01*
X65943341Y-73563341D01*
X66072922Y-73456996D01*
X66153639Y-73413852D01*
X66220758Y-73377976D01*
X66381177Y-73329313D01*
X66506196Y-73317000D01*
X66589804Y-73317000D01*
X66714823Y-73329313D01*
X66714823Y-73329313D01*
G37*
G36*
X76956228Y-73349703D02*
G01*
X77111100Y-73413853D01*
X77250481Y-73506985D01*
X77369015Y-73625519D01*
X77462147Y-73764900D01*
X77526297Y-73919772D01*
X77559000Y-74084184D01*
X77559000Y-74251816D01*
X77526297Y-74416228D01*
X77462147Y-74571100D01*
X77369015Y-74710481D01*
X77250481Y-74829015D01*
X77111100Y-74922147D01*
X76956228Y-74986297D01*
X76791816Y-75019000D01*
X76624184Y-75019000D01*
X76459772Y-74986297D01*
X76304900Y-74922147D01*
X76165519Y-74829015D01*
X76046985Y-74710481D01*
X75953853Y-74571100D01*
X75889703Y-74416228D01*
X75857000Y-74251816D01*
X75857000Y-74084184D01*
X75889703Y-73919772D01*
X75953853Y-73764900D01*
X76046985Y-73625519D01*
X76165519Y-73506985D01*
X76304900Y-73413853D01*
X76459772Y-73349703D01*
X76624184Y-73317000D01*
X76791816Y-73317000D01*
X76956228Y-73349703D01*
X76956228Y-73349703D01*
G37*
G36*
X27190000Y-73164000D02*
G01*
X25388000Y-73164000D01*
X25388000Y-71362000D01*
X27190000Y-71362000D01*
X27190000Y-73164000D01*
X27190000Y-73164000D01*
G37*
G36*
X28939442Y-71368518D02*
G01*
X29005627Y-71375037D01*
X29175466Y-71426557D01*
X29331991Y-71510222D01*
X29367729Y-71539552D01*
X29469186Y-71622814D01*
X29552448Y-71724271D01*
X29581778Y-71760009D01*
X29581779Y-71760011D01*
X29656554Y-71899903D01*
X29665443Y-71916534D01*
X29716963Y-72086373D01*
X29734359Y-72263000D01*
X29716963Y-72439627D01*
X29665443Y-72609466D01*
X29581778Y-72765991D01*
X29552448Y-72801729D01*
X29469186Y-72903186D01*
X29367729Y-72986448D01*
X29331991Y-73015778D01*
X29175466Y-73099443D01*
X29005627Y-73150963D01*
X28939443Y-73157481D01*
X28873260Y-73164000D01*
X28784740Y-73164000D01*
X28718557Y-73157481D01*
X28652373Y-73150963D01*
X28482534Y-73099443D01*
X28326009Y-73015778D01*
X28290271Y-72986448D01*
X28188814Y-72903186D01*
X28105552Y-72801729D01*
X28076222Y-72765991D01*
X27992557Y-72609466D01*
X27941037Y-72439627D01*
X27923641Y-72263000D01*
X27941037Y-72086373D01*
X27992557Y-71916534D01*
X28001447Y-71899903D01*
X28076221Y-71760011D01*
X28076222Y-71760009D01*
X28105552Y-71724271D01*
X28188814Y-71622814D01*
X28290271Y-71539552D01*
X28326009Y-71510222D01*
X28482534Y-71426557D01*
X28652373Y-71375037D01*
X28718558Y-71368518D01*
X28784740Y-71362000D01*
X28873260Y-71362000D01*
X28939442Y-71368518D01*
X28939442Y-71368518D01*
G37*
G36*
X31479442Y-71368518D02*
G01*
X31545627Y-71375037D01*
X31715466Y-71426557D01*
X31871991Y-71510222D01*
X31907729Y-71539552D01*
X32009186Y-71622814D01*
X32092448Y-71724271D01*
X32121778Y-71760009D01*
X32121779Y-71760011D01*
X32196554Y-71899903D01*
X32205443Y-71916534D01*
X32256963Y-72086373D01*
X32274359Y-72263000D01*
X32256963Y-72439627D01*
X32205443Y-72609466D01*
X32121778Y-72765991D01*
X32092448Y-72801729D01*
X32009186Y-72903186D01*
X31907729Y-72986448D01*
X31871991Y-73015778D01*
X31715466Y-73099443D01*
X31545627Y-73150963D01*
X31479443Y-73157481D01*
X31413260Y-73164000D01*
X31324740Y-73164000D01*
X31258557Y-73157481D01*
X31192373Y-73150963D01*
X31022534Y-73099443D01*
X30866009Y-73015778D01*
X30830271Y-72986448D01*
X30728814Y-72903186D01*
X30645552Y-72801729D01*
X30616222Y-72765991D01*
X30532557Y-72609466D01*
X30481037Y-72439627D01*
X30463641Y-72263000D01*
X30481037Y-72086373D01*
X30532557Y-71916534D01*
X30541447Y-71899903D01*
X30616221Y-71760011D01*
X30616222Y-71760009D01*
X30645552Y-71724271D01*
X30728814Y-71622814D01*
X30830271Y-71539552D01*
X30866009Y-71510222D01*
X31022534Y-71426557D01*
X31192373Y-71375037D01*
X31258558Y-71368518D01*
X31324740Y-71362000D01*
X31413260Y-71362000D01*
X31479442Y-71368518D01*
X31479442Y-71368518D01*
G37*
G36*
X34019442Y-71368518D02*
G01*
X34085627Y-71375037D01*
X34255466Y-71426557D01*
X34411991Y-71510222D01*
X34447729Y-71539552D01*
X34549186Y-71622814D01*
X34632448Y-71724271D01*
X34661778Y-71760009D01*
X34661779Y-71760011D01*
X34736554Y-71899903D01*
X34745443Y-71916534D01*
X34796963Y-72086373D01*
X34814359Y-72263000D01*
X34796963Y-72439627D01*
X34745443Y-72609466D01*
X34661778Y-72765991D01*
X34632448Y-72801729D01*
X34549186Y-72903186D01*
X34447729Y-72986448D01*
X34411991Y-73015778D01*
X34255466Y-73099443D01*
X34085627Y-73150963D01*
X34019443Y-73157481D01*
X33953260Y-73164000D01*
X33864740Y-73164000D01*
X33798557Y-73157481D01*
X33732373Y-73150963D01*
X33562534Y-73099443D01*
X33406009Y-73015778D01*
X33370271Y-72986448D01*
X33268814Y-72903186D01*
X33185552Y-72801729D01*
X33156222Y-72765991D01*
X33072557Y-72609466D01*
X33021037Y-72439627D01*
X33003641Y-72263000D01*
X33021037Y-72086373D01*
X33072557Y-71916534D01*
X33081447Y-71899903D01*
X33156221Y-71760011D01*
X33156222Y-71760009D01*
X33185552Y-71724271D01*
X33268814Y-71622814D01*
X33370271Y-71539552D01*
X33406009Y-71510222D01*
X33562534Y-71426557D01*
X33732373Y-71375037D01*
X33798558Y-71368518D01*
X33864740Y-71362000D01*
X33953260Y-71362000D01*
X34019442Y-71368518D01*
X34019442Y-71368518D01*
G37*
G36*
X39099442Y-71368518D02*
G01*
X39165627Y-71375037D01*
X39335466Y-71426557D01*
X39491991Y-71510222D01*
X39527729Y-71539552D01*
X39629186Y-71622814D01*
X39712448Y-71724271D01*
X39741778Y-71760009D01*
X39741779Y-71760011D01*
X39816554Y-71899903D01*
X39825443Y-71916534D01*
X39876963Y-72086373D01*
X39894359Y-72263000D01*
X39876963Y-72439627D01*
X39825443Y-72609466D01*
X39741778Y-72765991D01*
X39712448Y-72801729D01*
X39629186Y-72903186D01*
X39527729Y-72986448D01*
X39491991Y-73015778D01*
X39335466Y-73099443D01*
X39165627Y-73150963D01*
X39099443Y-73157481D01*
X39033260Y-73164000D01*
X38944740Y-73164000D01*
X38878557Y-73157481D01*
X38812373Y-73150963D01*
X38642534Y-73099443D01*
X38486009Y-73015778D01*
X38450271Y-72986448D01*
X38348814Y-72903186D01*
X38265552Y-72801729D01*
X38236222Y-72765991D01*
X38152557Y-72609466D01*
X38101037Y-72439627D01*
X38083641Y-72263000D01*
X38101037Y-72086373D01*
X38152557Y-71916534D01*
X38161447Y-71899903D01*
X38236221Y-71760011D01*
X38236222Y-71760009D01*
X38265552Y-71724271D01*
X38348814Y-71622814D01*
X38450271Y-71539552D01*
X38486009Y-71510222D01*
X38642534Y-71426557D01*
X38812373Y-71375037D01*
X38878558Y-71368518D01*
X38944740Y-71362000D01*
X39033260Y-71362000D01*
X39099442Y-71368518D01*
X39099442Y-71368518D01*
G37*
G36*
X36559442Y-71368518D02*
G01*
X36625627Y-71375037D01*
X36795466Y-71426557D01*
X36951991Y-71510222D01*
X36987729Y-71539552D01*
X37089186Y-71622814D01*
X37172448Y-71724271D01*
X37201778Y-71760009D01*
X37201779Y-71760011D01*
X37276554Y-71899903D01*
X37285443Y-71916534D01*
X37336963Y-72086373D01*
X37354359Y-72263000D01*
X37336963Y-72439627D01*
X37285443Y-72609466D01*
X37201778Y-72765991D01*
X37172448Y-72801729D01*
X37089186Y-72903186D01*
X36987729Y-72986448D01*
X36951991Y-73015778D01*
X36795466Y-73099443D01*
X36625627Y-73150963D01*
X36559443Y-73157481D01*
X36493260Y-73164000D01*
X36404740Y-73164000D01*
X36338557Y-73157481D01*
X36272373Y-73150963D01*
X36102534Y-73099443D01*
X35946009Y-73015778D01*
X35910271Y-72986448D01*
X35808814Y-72903186D01*
X35725552Y-72801729D01*
X35696222Y-72765991D01*
X35612557Y-72609466D01*
X35561037Y-72439627D01*
X35543641Y-72263000D01*
X35561037Y-72086373D01*
X35612557Y-71916534D01*
X35621447Y-71899903D01*
X35696221Y-71760011D01*
X35696222Y-71760009D01*
X35725552Y-71724271D01*
X35808814Y-71622814D01*
X35910271Y-71539552D01*
X35946009Y-71510222D01*
X36102534Y-71426557D01*
X36272373Y-71375037D01*
X36338558Y-71368518D01*
X36404740Y-71362000D01*
X36493260Y-71362000D01*
X36559442Y-71368518D01*
X36559442Y-71368518D01*
G37*
G36*
X43555228Y-71484703D02*
G01*
X43710100Y-71548853D01*
X43849481Y-71641985D01*
X43968015Y-71760519D01*
X44061147Y-71899900D01*
X44125297Y-72054772D01*
X44158000Y-72219184D01*
X44158000Y-72386816D01*
X44125297Y-72551228D01*
X44061147Y-72706100D01*
X43968015Y-72845481D01*
X43849481Y-72964015D01*
X43710100Y-73057147D01*
X43555228Y-73121297D01*
X43390816Y-73154000D01*
X43223184Y-73154000D01*
X43058772Y-73121297D01*
X42903900Y-73057147D01*
X42764519Y-72964015D01*
X42645985Y-72845481D01*
X42552853Y-72706100D01*
X42488703Y-72551228D01*
X42456000Y-72386816D01*
X42456000Y-72219184D01*
X42488703Y-72054772D01*
X42552853Y-71899900D01*
X42645985Y-71760519D01*
X42764519Y-71641985D01*
X42903900Y-71548853D01*
X43058772Y-71484703D01*
X43223184Y-71452000D01*
X43390816Y-71452000D01*
X43555228Y-71484703D01*
X43555228Y-71484703D01*
G37*
G36*
X54389642Y-71492781D02*
G01*
X54525011Y-71548853D01*
X54535416Y-71553163D01*
X54666608Y-71640822D01*
X54778178Y-71752392D01*
X54865837Y-71883584D01*
X54865838Y-71883586D01*
X54926219Y-72029358D01*
X54957000Y-72184107D01*
X54957000Y-72341893D01*
X54926219Y-72496642D01*
X54865838Y-72642414D01*
X54865837Y-72642416D01*
X54778178Y-72773608D01*
X54666608Y-72885178D01*
X54535416Y-72972837D01*
X54535415Y-72972838D01*
X54535414Y-72972838D01*
X54389642Y-73033219D01*
X54234893Y-73064000D01*
X54077107Y-73064000D01*
X53922358Y-73033219D01*
X53776586Y-72972838D01*
X53776585Y-72972838D01*
X53776584Y-72972837D01*
X53645392Y-72885178D01*
X53533822Y-72773608D01*
X53446163Y-72642416D01*
X53446162Y-72642414D01*
X53385781Y-72496642D01*
X53355000Y-72341893D01*
X53355000Y-72184107D01*
X53385781Y-72029358D01*
X53446162Y-71883586D01*
X53446163Y-71883584D01*
X53533822Y-71752392D01*
X53645392Y-71640822D01*
X53776584Y-71553163D01*
X53786989Y-71548853D01*
X53922358Y-71492781D01*
X54077107Y-71462000D01*
X54234893Y-71462000D01*
X54389642Y-71492781D01*
X54389642Y-71492781D01*
G37*
G36*
X49509642Y-71492781D02*
G01*
X49645011Y-71548853D01*
X49655416Y-71553163D01*
X49786608Y-71640822D01*
X49898178Y-71752392D01*
X49985837Y-71883584D01*
X49985838Y-71883586D01*
X50046219Y-72029358D01*
X50077000Y-72184107D01*
X50077000Y-72341893D01*
X50046219Y-72496642D01*
X49985838Y-72642414D01*
X49985837Y-72642416D01*
X49898178Y-72773608D01*
X49786608Y-72885178D01*
X49655416Y-72972837D01*
X49655415Y-72972838D01*
X49655414Y-72972838D01*
X49509642Y-73033219D01*
X49354893Y-73064000D01*
X49197107Y-73064000D01*
X49042358Y-73033219D01*
X48896586Y-72972838D01*
X48896585Y-72972838D01*
X48896584Y-72972837D01*
X48765392Y-72885178D01*
X48653822Y-72773608D01*
X48566163Y-72642416D01*
X48566162Y-72642414D01*
X48505781Y-72496642D01*
X48475000Y-72341893D01*
X48475000Y-72184107D01*
X48505781Y-72029358D01*
X48566162Y-71883586D01*
X48566163Y-71883584D01*
X48653822Y-71752392D01*
X48765392Y-71640822D01*
X48896584Y-71553163D01*
X48906989Y-71548853D01*
X49042358Y-71492781D01*
X49197107Y-71462000D01*
X49354893Y-71462000D01*
X49509642Y-71492781D01*
X49509642Y-71492781D01*
G37*
G36*
X60827228Y-71357703D02*
G01*
X60982100Y-71421853D01*
X61121481Y-71514985D01*
X61240015Y-71633519D01*
X61333147Y-71772900D01*
X61397297Y-71927772D01*
X61430000Y-72092184D01*
X61430000Y-72259816D01*
X61397297Y-72424228D01*
X61333147Y-72579100D01*
X61240015Y-72718481D01*
X61121481Y-72837015D01*
X60982100Y-72930147D01*
X60827228Y-72994297D01*
X60662816Y-73027000D01*
X60495184Y-73027000D01*
X60330772Y-72994297D01*
X60175900Y-72930147D01*
X60036519Y-72837015D01*
X59917985Y-72718481D01*
X59824853Y-72579100D01*
X59760703Y-72424228D01*
X59728000Y-72259816D01*
X59728000Y-72092184D01*
X59760703Y-71927772D01*
X59824853Y-71772900D01*
X59917985Y-71633519D01*
X60036519Y-71514985D01*
X60175900Y-71421853D01*
X60330772Y-71357703D01*
X60495184Y-71325000D01*
X60662816Y-71325000D01*
X60827228Y-71357703D01*
X60827228Y-71357703D01*
G37*
G36*
X76956228Y-68523703D02*
G01*
X77111100Y-68587853D01*
X77250481Y-68680985D01*
X77369015Y-68799519D01*
X77462147Y-68938900D01*
X77526297Y-69093772D01*
X77559000Y-69258184D01*
X77559000Y-69425816D01*
X77526297Y-69590228D01*
X77462147Y-69745100D01*
X77369015Y-69884481D01*
X77250481Y-70003015D01*
X77111100Y-70096147D01*
X76956228Y-70160297D01*
X76791816Y-70193000D01*
X76624184Y-70193000D01*
X76459772Y-70160297D01*
X76304900Y-70096147D01*
X76165519Y-70003015D01*
X76046985Y-69884481D01*
X75953853Y-69745100D01*
X75889703Y-69590228D01*
X75857000Y-69425816D01*
X75857000Y-69258184D01*
X75889703Y-69093772D01*
X75953853Y-68938900D01*
X76046985Y-68799519D01*
X76165519Y-68680985D01*
X76304900Y-68587853D01*
X76459772Y-68523703D01*
X76624184Y-68491000D01*
X76791816Y-68491000D01*
X76956228Y-68523703D01*
X76956228Y-68523703D01*
G37*
G36*
X66714823Y-68503313D02*
G01*
X66875242Y-68551976D01*
X66942361Y-68587852D01*
X67023078Y-68630996D01*
X67152659Y-68737341D01*
X67259004Y-68866922D01*
X67259005Y-68866924D01*
X67338024Y-69014758D01*
X67386687Y-69175177D01*
X67403117Y-69342000D01*
X67386687Y-69508823D01*
X67338024Y-69669242D01*
X67297477Y-69745100D01*
X67259004Y-69817078D01*
X67152659Y-69946659D01*
X67023078Y-70053004D01*
X67023076Y-70053005D01*
X66875242Y-70132024D01*
X66714823Y-70180687D01*
X66589804Y-70193000D01*
X66506196Y-70193000D01*
X66381177Y-70180687D01*
X66220758Y-70132024D01*
X66072924Y-70053005D01*
X66072922Y-70053004D01*
X65943341Y-69946659D01*
X65836996Y-69817078D01*
X65798523Y-69745100D01*
X65757976Y-69669242D01*
X65709313Y-69508823D01*
X65692883Y-69342000D01*
X65709313Y-69175177D01*
X65757976Y-69014758D01*
X65836995Y-68866924D01*
X65836996Y-68866922D01*
X65943341Y-68737341D01*
X66072922Y-68630996D01*
X66153639Y-68587852D01*
X66220758Y-68551976D01*
X66381177Y-68503313D01*
X66506196Y-68491000D01*
X66589804Y-68491000D01*
X66714823Y-68503313D01*
X66714823Y-68503313D01*
G37*
G36*
X28315228Y-67213703D02*
G01*
X28470100Y-67277853D01*
X28609481Y-67370985D01*
X28728015Y-67489519D01*
X28821147Y-67628900D01*
X28885297Y-67783772D01*
X28918000Y-67948184D01*
X28918000Y-68115816D01*
X28885297Y-68280228D01*
X28821147Y-68435100D01*
X28728015Y-68574481D01*
X28609481Y-68693015D01*
X28470100Y-68786147D01*
X28315228Y-68850297D01*
X28150816Y-68883000D01*
X27983184Y-68883000D01*
X27818772Y-68850297D01*
X27663900Y-68786147D01*
X27524519Y-68693015D01*
X27405985Y-68574481D01*
X27312853Y-68435100D01*
X27248703Y-68280228D01*
X27216000Y-68115816D01*
X27216000Y-67948184D01*
X27248703Y-67783772D01*
X27312853Y-67628900D01*
X27405985Y-67489519D01*
X27524519Y-67370985D01*
X27663900Y-67277853D01*
X27818772Y-67213703D01*
X27983184Y-67181000D01*
X28150816Y-67181000D01*
X28315228Y-67213703D01*
X28315228Y-67213703D01*
G37*
G36*
X78734228Y-65221703D02*
G01*
X78889100Y-65285853D01*
X79028481Y-65378985D01*
X79147015Y-65497519D01*
X79240147Y-65636900D01*
X79304297Y-65791772D01*
X79337000Y-65956184D01*
X79337000Y-66123816D01*
X79304297Y-66288228D01*
X79240147Y-66443100D01*
X79147015Y-66582481D01*
X79028481Y-66701015D01*
X78889100Y-66794147D01*
X78734228Y-66858297D01*
X78569816Y-66891000D01*
X78402184Y-66891000D01*
X78237772Y-66858297D01*
X78082900Y-66794147D01*
X77943519Y-66701015D01*
X77824985Y-66582481D01*
X77731853Y-66443100D01*
X77667703Y-66288228D01*
X77635000Y-66123816D01*
X77635000Y-65956184D01*
X77667703Y-65791772D01*
X77731853Y-65636900D01*
X77824985Y-65497519D01*
X77943519Y-65378985D01*
X78082900Y-65285853D01*
X78237772Y-65221703D01*
X78402184Y-65189000D01*
X78569816Y-65189000D01*
X78734228Y-65221703D01*
X78734228Y-65221703D01*
G37*
G36*
X88812823Y-65201313D02*
G01*
X88973242Y-65249976D01*
X89040361Y-65285852D01*
X89121078Y-65328996D01*
X89250659Y-65435341D01*
X89357004Y-65564922D01*
X89357005Y-65564924D01*
X89436024Y-65712758D01*
X89484687Y-65873177D01*
X89501117Y-66040000D01*
X89484687Y-66206823D01*
X89436024Y-66367242D01*
X89395477Y-66443100D01*
X89357004Y-66515078D01*
X89250659Y-66644659D01*
X89121078Y-66751004D01*
X89121076Y-66751005D01*
X88973242Y-66830024D01*
X88812823Y-66878687D01*
X88687804Y-66891000D01*
X88604196Y-66891000D01*
X88479177Y-66878687D01*
X88318758Y-66830024D01*
X88170924Y-66751005D01*
X88170922Y-66751004D01*
X88041341Y-66644659D01*
X87934996Y-66515078D01*
X87896523Y-66443100D01*
X87855976Y-66367242D01*
X87807313Y-66206823D01*
X87790883Y-66040000D01*
X87807313Y-65873177D01*
X87855976Y-65712758D01*
X87934995Y-65564924D01*
X87934996Y-65564922D01*
X88041341Y-65435341D01*
X88170922Y-65328996D01*
X88251639Y-65285852D01*
X88318758Y-65249976D01*
X88479177Y-65201313D01*
X88604196Y-65189000D01*
X88687804Y-65189000D01*
X88812823Y-65201313D01*
X88812823Y-65201313D01*
G37*
G36*
X28315228Y-64713703D02*
G01*
X28470100Y-64777853D01*
X28609481Y-64870985D01*
X28728015Y-64989519D01*
X28821147Y-65128900D01*
X28885297Y-65283772D01*
X28918000Y-65448184D01*
X28918000Y-65615816D01*
X28885297Y-65780228D01*
X28821147Y-65935100D01*
X28728015Y-66074481D01*
X28609481Y-66193015D01*
X28470100Y-66286147D01*
X28315228Y-66350297D01*
X28150816Y-66383000D01*
X27983184Y-66383000D01*
X27818772Y-66350297D01*
X27663900Y-66286147D01*
X27524519Y-66193015D01*
X27405985Y-66074481D01*
X27312853Y-65935100D01*
X27248703Y-65780228D01*
X27216000Y-65615816D01*
X27216000Y-65448184D01*
X27248703Y-65283772D01*
X27312853Y-65128900D01*
X27405985Y-64989519D01*
X27524519Y-64870985D01*
X27663900Y-64777853D01*
X27818772Y-64713703D01*
X27983184Y-64681000D01*
X28150816Y-64681000D01*
X28315228Y-64713703D01*
X28315228Y-64713703D01*
G37*
G36*
X51855823Y-64566313D02*
G01*
X52016242Y-64614976D01*
X52139764Y-64681000D01*
X52164078Y-64693996D01*
X52293659Y-64800341D01*
X52400004Y-64929922D01*
X52400005Y-64929924D01*
X52479024Y-65077758D01*
X52527687Y-65238177D01*
X52544117Y-65405000D01*
X52527687Y-65571823D01*
X52479024Y-65732242D01*
X52408114Y-65864906D01*
X52400004Y-65880078D01*
X52293659Y-66009659D01*
X52164078Y-66116004D01*
X52164076Y-66116005D01*
X52016242Y-66195024D01*
X51855823Y-66243687D01*
X51730804Y-66256000D01*
X51647196Y-66256000D01*
X51522177Y-66243687D01*
X51361758Y-66195024D01*
X51213924Y-66116005D01*
X51213922Y-66116004D01*
X51084341Y-66009659D01*
X50977996Y-65880078D01*
X50969886Y-65864906D01*
X50898976Y-65732242D01*
X50850313Y-65571823D01*
X50833883Y-65405000D01*
X50850313Y-65238177D01*
X50898976Y-65077758D01*
X50977995Y-64929924D01*
X50977996Y-64929922D01*
X51084341Y-64800341D01*
X51213922Y-64693996D01*
X51238236Y-64681000D01*
X51361758Y-64614976D01*
X51522177Y-64566313D01*
X51647196Y-64554000D01*
X51730804Y-64554000D01*
X51855823Y-64566313D01*
X51855823Y-64566313D01*
G37*
G36*
X70905823Y-64566313D02*
G01*
X71066242Y-64614976D01*
X71189764Y-64681000D01*
X71214078Y-64693996D01*
X71343659Y-64800341D01*
X71450004Y-64929922D01*
X71450005Y-64929924D01*
X71529024Y-65077758D01*
X71577687Y-65238177D01*
X71594117Y-65405000D01*
X71577687Y-65571823D01*
X71529024Y-65732242D01*
X71458114Y-65864906D01*
X71450004Y-65880078D01*
X71343659Y-66009659D01*
X71214078Y-66116004D01*
X71214076Y-66116005D01*
X71066242Y-66195024D01*
X70905823Y-66243687D01*
X70780804Y-66256000D01*
X70697196Y-66256000D01*
X70572177Y-66243687D01*
X70411758Y-66195024D01*
X70263924Y-66116005D01*
X70263922Y-66116004D01*
X70134341Y-66009659D01*
X70027996Y-65880078D01*
X70019886Y-65864906D01*
X69948976Y-65732242D01*
X69900313Y-65571823D01*
X69883883Y-65405000D01*
X69900313Y-65238177D01*
X69948976Y-65077758D01*
X70027995Y-64929924D01*
X70027996Y-64929922D01*
X70134341Y-64800341D01*
X70263922Y-64693996D01*
X70288236Y-64681000D01*
X70411758Y-64614976D01*
X70572177Y-64566313D01*
X70697196Y-64554000D01*
X70780804Y-64554000D01*
X70905823Y-64566313D01*
X70905823Y-64566313D01*
G37*
G36*
X64555823Y-64566313D02*
G01*
X64716242Y-64614976D01*
X64839764Y-64681000D01*
X64864078Y-64693996D01*
X64993659Y-64800341D01*
X65100004Y-64929922D01*
X65100005Y-64929924D01*
X65179024Y-65077758D01*
X65227687Y-65238177D01*
X65244117Y-65405000D01*
X65227687Y-65571823D01*
X65179024Y-65732242D01*
X65108114Y-65864906D01*
X65100004Y-65880078D01*
X64993659Y-66009659D01*
X64864078Y-66116004D01*
X64864076Y-66116005D01*
X64716242Y-66195024D01*
X64555823Y-66243687D01*
X64430804Y-66256000D01*
X64347196Y-66256000D01*
X64222177Y-66243687D01*
X64061758Y-66195024D01*
X63913924Y-66116005D01*
X63913922Y-66116004D01*
X63784341Y-66009659D01*
X63677996Y-65880078D01*
X63669886Y-65864906D01*
X63598976Y-65732242D01*
X63550313Y-65571823D01*
X63533883Y-65405000D01*
X63550313Y-65238177D01*
X63598976Y-65077758D01*
X63677995Y-64929924D01*
X63677996Y-64929922D01*
X63784341Y-64800341D01*
X63913922Y-64693996D01*
X63938236Y-64681000D01*
X64061758Y-64614976D01*
X64222177Y-64566313D01*
X64347196Y-64554000D01*
X64430804Y-64554000D01*
X64555823Y-64566313D01*
X64555823Y-64566313D01*
G37*
G36*
X62015823Y-64566313D02*
G01*
X62176242Y-64614976D01*
X62299764Y-64681000D01*
X62324078Y-64693996D01*
X62453659Y-64800341D01*
X62560004Y-64929922D01*
X62560005Y-64929924D01*
X62639024Y-65077758D01*
X62687687Y-65238177D01*
X62704117Y-65405000D01*
X62687687Y-65571823D01*
X62639024Y-65732242D01*
X62568114Y-65864906D01*
X62560004Y-65880078D01*
X62453659Y-66009659D01*
X62324078Y-66116004D01*
X62324076Y-66116005D01*
X62176242Y-66195024D01*
X62015823Y-66243687D01*
X61890804Y-66256000D01*
X61807196Y-66256000D01*
X61682177Y-66243687D01*
X61521758Y-66195024D01*
X61373924Y-66116005D01*
X61373922Y-66116004D01*
X61244341Y-66009659D01*
X61137996Y-65880078D01*
X61129886Y-65864906D01*
X61058976Y-65732242D01*
X61010313Y-65571823D01*
X60993883Y-65405000D01*
X61010313Y-65238177D01*
X61058976Y-65077758D01*
X61137995Y-64929924D01*
X61137996Y-64929922D01*
X61244341Y-64800341D01*
X61373922Y-64693996D01*
X61398236Y-64681000D01*
X61521758Y-64614976D01*
X61682177Y-64566313D01*
X61807196Y-64554000D01*
X61890804Y-64554000D01*
X62015823Y-64566313D01*
X62015823Y-64566313D01*
G37*
G36*
X59475823Y-64566313D02*
G01*
X59636242Y-64614976D01*
X59759764Y-64681000D01*
X59784078Y-64693996D01*
X59913659Y-64800341D01*
X60020004Y-64929922D01*
X60020005Y-64929924D01*
X60099024Y-65077758D01*
X60147687Y-65238177D01*
X60164117Y-65405000D01*
X60147687Y-65571823D01*
X60099024Y-65732242D01*
X60028114Y-65864906D01*
X60020004Y-65880078D01*
X59913659Y-66009659D01*
X59784078Y-66116004D01*
X59784076Y-66116005D01*
X59636242Y-66195024D01*
X59475823Y-66243687D01*
X59350804Y-66256000D01*
X59267196Y-66256000D01*
X59142177Y-66243687D01*
X58981758Y-66195024D01*
X58833924Y-66116005D01*
X58833922Y-66116004D01*
X58704341Y-66009659D01*
X58597996Y-65880078D01*
X58589886Y-65864906D01*
X58518976Y-65732242D01*
X58470313Y-65571823D01*
X58453883Y-65405000D01*
X58470313Y-65238177D01*
X58518976Y-65077758D01*
X58597995Y-64929924D01*
X58597996Y-64929922D01*
X58704341Y-64800341D01*
X58833922Y-64693996D01*
X58858236Y-64681000D01*
X58981758Y-64614976D01*
X59142177Y-64566313D01*
X59267196Y-64554000D01*
X59350804Y-64554000D01*
X59475823Y-64566313D01*
X59475823Y-64566313D01*
G37*
G36*
X56935823Y-64566313D02*
G01*
X57096242Y-64614976D01*
X57219764Y-64681000D01*
X57244078Y-64693996D01*
X57373659Y-64800341D01*
X57480004Y-64929922D01*
X57480005Y-64929924D01*
X57559024Y-65077758D01*
X57607687Y-65238177D01*
X57624117Y-65405000D01*
X57607687Y-65571823D01*
X57559024Y-65732242D01*
X57488114Y-65864906D01*
X57480004Y-65880078D01*
X57373659Y-66009659D01*
X57244078Y-66116004D01*
X57244076Y-66116005D01*
X57096242Y-66195024D01*
X56935823Y-66243687D01*
X56810804Y-66256000D01*
X56727196Y-66256000D01*
X56602177Y-66243687D01*
X56441758Y-66195024D01*
X56293924Y-66116005D01*
X56293922Y-66116004D01*
X56164341Y-66009659D01*
X56057996Y-65880078D01*
X56049886Y-65864906D01*
X55978976Y-65732242D01*
X55930313Y-65571823D01*
X55913883Y-65405000D01*
X55930313Y-65238177D01*
X55978976Y-65077758D01*
X56057995Y-64929924D01*
X56057996Y-64929922D01*
X56164341Y-64800341D01*
X56293922Y-64693996D01*
X56318236Y-64681000D01*
X56441758Y-64614976D01*
X56602177Y-64566313D01*
X56727196Y-64554000D01*
X56810804Y-64554000D01*
X56935823Y-64566313D01*
X56935823Y-64566313D01*
G37*
G36*
X54395823Y-64566313D02*
G01*
X54556242Y-64614976D01*
X54679764Y-64681000D01*
X54704078Y-64693996D01*
X54833659Y-64800341D01*
X54940004Y-64929922D01*
X54940005Y-64929924D01*
X55019024Y-65077758D01*
X55067687Y-65238177D01*
X55084117Y-65405000D01*
X55067687Y-65571823D01*
X55019024Y-65732242D01*
X54948114Y-65864906D01*
X54940004Y-65880078D01*
X54833659Y-66009659D01*
X54704078Y-66116004D01*
X54704076Y-66116005D01*
X54556242Y-66195024D01*
X54395823Y-66243687D01*
X54270804Y-66256000D01*
X54187196Y-66256000D01*
X54062177Y-66243687D01*
X53901758Y-66195024D01*
X53753924Y-66116005D01*
X53753922Y-66116004D01*
X53624341Y-66009659D01*
X53517996Y-65880078D01*
X53509886Y-65864906D01*
X53438976Y-65732242D01*
X53390313Y-65571823D01*
X53373883Y-65405000D01*
X53390313Y-65238177D01*
X53438976Y-65077758D01*
X53517995Y-64929924D01*
X53517996Y-64929922D01*
X53624341Y-64800341D01*
X53753922Y-64693996D01*
X53778236Y-64681000D01*
X53901758Y-64614976D01*
X54062177Y-64566313D01*
X54187196Y-64554000D01*
X54270804Y-64554000D01*
X54395823Y-64566313D01*
X54395823Y-64566313D01*
G37*
G36*
X46775823Y-64566313D02*
G01*
X46936242Y-64614976D01*
X47059764Y-64681000D01*
X47084078Y-64693996D01*
X47213659Y-64800341D01*
X47320004Y-64929922D01*
X47320005Y-64929924D01*
X47399024Y-65077758D01*
X47447687Y-65238177D01*
X47464117Y-65405000D01*
X47447687Y-65571823D01*
X47399024Y-65732242D01*
X47328114Y-65864906D01*
X47320004Y-65880078D01*
X47213659Y-66009659D01*
X47084078Y-66116004D01*
X47084076Y-66116005D01*
X46936242Y-66195024D01*
X46775823Y-66243687D01*
X46650804Y-66256000D01*
X46567196Y-66256000D01*
X46442177Y-66243687D01*
X46281758Y-66195024D01*
X46133924Y-66116005D01*
X46133922Y-66116004D01*
X46004341Y-66009659D01*
X45897996Y-65880078D01*
X45889886Y-65864906D01*
X45818976Y-65732242D01*
X45770313Y-65571823D01*
X45753883Y-65405000D01*
X45770313Y-65238177D01*
X45818976Y-65077758D01*
X45897995Y-64929924D01*
X45897996Y-64929922D01*
X46004341Y-64800341D01*
X46133922Y-64693996D01*
X46158236Y-64681000D01*
X46281758Y-64614976D01*
X46442177Y-64566313D01*
X46567196Y-64554000D01*
X46650804Y-64554000D01*
X46775823Y-64566313D01*
X46775823Y-64566313D01*
G37*
G36*
X44235823Y-64566313D02*
G01*
X44396242Y-64614976D01*
X44519764Y-64681000D01*
X44544078Y-64693996D01*
X44673659Y-64800341D01*
X44780004Y-64929922D01*
X44780005Y-64929924D01*
X44859024Y-65077758D01*
X44907687Y-65238177D01*
X44924117Y-65405000D01*
X44907687Y-65571823D01*
X44859024Y-65732242D01*
X44788114Y-65864906D01*
X44780004Y-65880078D01*
X44673659Y-66009659D01*
X44544078Y-66116004D01*
X44544076Y-66116005D01*
X44396242Y-66195024D01*
X44235823Y-66243687D01*
X44110804Y-66256000D01*
X44027196Y-66256000D01*
X43902177Y-66243687D01*
X43741758Y-66195024D01*
X43593924Y-66116005D01*
X43593922Y-66116004D01*
X43464341Y-66009659D01*
X43357996Y-65880078D01*
X43349886Y-65864906D01*
X43278976Y-65732242D01*
X43230313Y-65571823D01*
X43213883Y-65405000D01*
X43230313Y-65238177D01*
X43278976Y-65077758D01*
X43357995Y-64929924D01*
X43357996Y-64929922D01*
X43464341Y-64800341D01*
X43593922Y-64693996D01*
X43618236Y-64681000D01*
X43741758Y-64614976D01*
X43902177Y-64566313D01*
X44027196Y-64554000D01*
X44110804Y-64554000D01*
X44235823Y-64566313D01*
X44235823Y-64566313D01*
G37*
G36*
X41695823Y-64566313D02*
G01*
X41856242Y-64614976D01*
X41979764Y-64681000D01*
X42004078Y-64693996D01*
X42133659Y-64800341D01*
X42240004Y-64929922D01*
X42240005Y-64929924D01*
X42319024Y-65077758D01*
X42367687Y-65238177D01*
X42384117Y-65405000D01*
X42367687Y-65571823D01*
X42319024Y-65732242D01*
X42248114Y-65864906D01*
X42240004Y-65880078D01*
X42133659Y-66009659D01*
X42004078Y-66116004D01*
X42004076Y-66116005D01*
X41856242Y-66195024D01*
X41695823Y-66243687D01*
X41570804Y-66256000D01*
X41487196Y-66256000D01*
X41362177Y-66243687D01*
X41201758Y-66195024D01*
X41053924Y-66116005D01*
X41053922Y-66116004D01*
X40924341Y-66009659D01*
X40817996Y-65880078D01*
X40809886Y-65864906D01*
X40738976Y-65732242D01*
X40690313Y-65571823D01*
X40673883Y-65405000D01*
X40690313Y-65238177D01*
X40738976Y-65077758D01*
X40817995Y-64929924D01*
X40817996Y-64929922D01*
X40924341Y-64800341D01*
X41053922Y-64693996D01*
X41078236Y-64681000D01*
X41201758Y-64614976D01*
X41362177Y-64566313D01*
X41487196Y-64554000D01*
X41570804Y-64554000D01*
X41695823Y-64566313D01*
X41695823Y-64566313D01*
G37*
G36*
X39155823Y-64566313D02*
G01*
X39316242Y-64614976D01*
X39439764Y-64681000D01*
X39464078Y-64693996D01*
X39593659Y-64800341D01*
X39700004Y-64929922D01*
X39700005Y-64929924D01*
X39779024Y-65077758D01*
X39827687Y-65238177D01*
X39844117Y-65405000D01*
X39827687Y-65571823D01*
X39779024Y-65732242D01*
X39708114Y-65864906D01*
X39700004Y-65880078D01*
X39593659Y-66009659D01*
X39464078Y-66116004D01*
X39464076Y-66116005D01*
X39316242Y-66195024D01*
X39155823Y-66243687D01*
X39030804Y-66256000D01*
X38947196Y-66256000D01*
X38822177Y-66243687D01*
X38661758Y-66195024D01*
X38513924Y-66116005D01*
X38513922Y-66116004D01*
X38384341Y-66009659D01*
X38277996Y-65880078D01*
X38269886Y-65864906D01*
X38198976Y-65732242D01*
X38150313Y-65571823D01*
X38133883Y-65405000D01*
X38150313Y-65238177D01*
X38198976Y-65077758D01*
X38277995Y-64929924D01*
X38277996Y-64929922D01*
X38384341Y-64800341D01*
X38513922Y-64693996D01*
X38538236Y-64681000D01*
X38661758Y-64614976D01*
X38822177Y-64566313D01*
X38947196Y-64554000D01*
X39030804Y-64554000D01*
X39155823Y-64566313D01*
X39155823Y-64566313D01*
G37*
G36*
X36615823Y-64566313D02*
G01*
X36776242Y-64614976D01*
X36899764Y-64681000D01*
X36924078Y-64693996D01*
X37053659Y-64800341D01*
X37160004Y-64929922D01*
X37160005Y-64929924D01*
X37239024Y-65077758D01*
X37287687Y-65238177D01*
X37304117Y-65405000D01*
X37287687Y-65571823D01*
X37239024Y-65732242D01*
X37168114Y-65864906D01*
X37160004Y-65880078D01*
X37053659Y-66009659D01*
X36924078Y-66116004D01*
X36924076Y-66116005D01*
X36776242Y-66195024D01*
X36615823Y-66243687D01*
X36490804Y-66256000D01*
X36407196Y-66256000D01*
X36282177Y-66243687D01*
X36121758Y-66195024D01*
X35973924Y-66116005D01*
X35973922Y-66116004D01*
X35844341Y-66009659D01*
X35737996Y-65880078D01*
X35729886Y-65864906D01*
X35658976Y-65732242D01*
X35610313Y-65571823D01*
X35593883Y-65405000D01*
X35610313Y-65238177D01*
X35658976Y-65077758D01*
X35737995Y-64929924D01*
X35737996Y-64929922D01*
X35844341Y-64800341D01*
X35973922Y-64693996D01*
X35998236Y-64681000D01*
X36121758Y-64614976D01*
X36282177Y-64566313D01*
X36407196Y-64554000D01*
X36490804Y-64554000D01*
X36615823Y-64566313D01*
X36615823Y-64566313D01*
G37*
G36*
X34075823Y-64566313D02*
G01*
X34236242Y-64614976D01*
X34359764Y-64681000D01*
X34384078Y-64693996D01*
X34513659Y-64800341D01*
X34620004Y-64929922D01*
X34620005Y-64929924D01*
X34699024Y-65077758D01*
X34747687Y-65238177D01*
X34764117Y-65405000D01*
X34747687Y-65571823D01*
X34699024Y-65732242D01*
X34628114Y-65864906D01*
X34620004Y-65880078D01*
X34513659Y-66009659D01*
X34384078Y-66116004D01*
X34384076Y-66116005D01*
X34236242Y-66195024D01*
X34075823Y-66243687D01*
X33950804Y-66256000D01*
X33867196Y-66256000D01*
X33742177Y-66243687D01*
X33581758Y-66195024D01*
X33433924Y-66116005D01*
X33433922Y-66116004D01*
X33304341Y-66009659D01*
X33197996Y-65880078D01*
X33189886Y-65864906D01*
X33118976Y-65732242D01*
X33070313Y-65571823D01*
X33053883Y-65405000D01*
X33070313Y-65238177D01*
X33118976Y-65077758D01*
X33197995Y-64929924D01*
X33197996Y-64929922D01*
X33304341Y-64800341D01*
X33433922Y-64693996D01*
X33458236Y-64681000D01*
X33581758Y-64614976D01*
X33742177Y-64566313D01*
X33867196Y-64554000D01*
X33950804Y-64554000D01*
X34075823Y-64566313D01*
X34075823Y-64566313D01*
G37*
G36*
X32220000Y-66256000D02*
G01*
X30518000Y-66256000D01*
X30518000Y-64554000D01*
X32220000Y-64554000D01*
X32220000Y-66256000D01*
X32220000Y-66256000D01*
G37*
G36*
X49315823Y-64566313D02*
G01*
X49476242Y-64614976D01*
X49599764Y-64681000D01*
X49624078Y-64693996D01*
X49753659Y-64800341D01*
X49860004Y-64929922D01*
X49860005Y-64929924D01*
X49939024Y-65077758D01*
X49987687Y-65238177D01*
X50004117Y-65405000D01*
X49987687Y-65571823D01*
X49939024Y-65732242D01*
X49868114Y-65864906D01*
X49860004Y-65880078D01*
X49753659Y-66009659D01*
X49624078Y-66116004D01*
X49624076Y-66116005D01*
X49476242Y-66195024D01*
X49315823Y-66243687D01*
X49190804Y-66256000D01*
X49107196Y-66256000D01*
X48982177Y-66243687D01*
X48821758Y-66195024D01*
X48673924Y-66116005D01*
X48673922Y-66116004D01*
X48544341Y-66009659D01*
X48437996Y-65880078D01*
X48429886Y-65864906D01*
X48358976Y-65732242D01*
X48310313Y-65571823D01*
X48293883Y-65405000D01*
X48310313Y-65238177D01*
X48358976Y-65077758D01*
X48437995Y-64929924D01*
X48437996Y-64929922D01*
X48544341Y-64800341D01*
X48673922Y-64693996D01*
X48698236Y-64681000D01*
X48821758Y-64614976D01*
X48982177Y-64566313D01*
X49107196Y-64554000D01*
X49190804Y-64554000D01*
X49315823Y-64566313D01*
X49315823Y-64566313D01*
G37*
G36*
X95360443Y-63240519D02*
G01*
X95426627Y-63247037D01*
X95596466Y-63298557D01*
X95752991Y-63382222D01*
X95788729Y-63411552D01*
X95890186Y-63494814D01*
X95973448Y-63596271D01*
X96002778Y-63632009D01*
X96086443Y-63788534D01*
X96137963Y-63958373D01*
X96155359Y-64135000D01*
X96137963Y-64311627D01*
X96086443Y-64481466D01*
X96002778Y-64637991D01*
X95973448Y-64673729D01*
X95890186Y-64775186D01*
X95788729Y-64858448D01*
X95752991Y-64887778D01*
X95596466Y-64971443D01*
X95426627Y-65022963D01*
X95360442Y-65029482D01*
X95294260Y-65036000D01*
X95205740Y-65036000D01*
X95139558Y-65029482D01*
X95073373Y-65022963D01*
X94903534Y-64971443D01*
X94747009Y-64887778D01*
X94711271Y-64858448D01*
X94609814Y-64775186D01*
X94526552Y-64673729D01*
X94497222Y-64637991D01*
X94413557Y-64481466D01*
X94362037Y-64311627D01*
X94344641Y-64135000D01*
X94362037Y-63958373D01*
X94413557Y-63788534D01*
X94497222Y-63632009D01*
X94526552Y-63596271D01*
X94609814Y-63494814D01*
X94711271Y-63411552D01*
X94747009Y-63382222D01*
X94903534Y-63298557D01*
X95073373Y-63247037D01*
X95139557Y-63240519D01*
X95205740Y-63234000D01*
X95294260Y-63234000D01*
X95360443Y-63240519D01*
X95360443Y-63240519D01*
G37*
G36*
X96151000Y-62496000D02*
G01*
X94349000Y-62496000D01*
X94349000Y-60694000D01*
X96151000Y-60694000D01*
X96151000Y-62496000D01*
X96151000Y-62496000D01*
G37*
G36*
X78734228Y-60776703D02*
G01*
X78889100Y-60840853D01*
X79028481Y-60933985D01*
X79147015Y-61052519D01*
X79240147Y-61191900D01*
X79304297Y-61346772D01*
X79337000Y-61511184D01*
X79337000Y-61678816D01*
X79304297Y-61843228D01*
X79240147Y-61998100D01*
X79147015Y-62137481D01*
X79028481Y-62256015D01*
X78889100Y-62349147D01*
X78734228Y-62413297D01*
X78569816Y-62446000D01*
X78402184Y-62446000D01*
X78237772Y-62413297D01*
X78082900Y-62349147D01*
X77943519Y-62256015D01*
X77824985Y-62137481D01*
X77731853Y-61998100D01*
X77667703Y-61843228D01*
X77635000Y-61678816D01*
X77635000Y-61511184D01*
X77667703Y-61346772D01*
X77731853Y-61191900D01*
X77824985Y-61052519D01*
X77943519Y-60933985D01*
X78082900Y-60840853D01*
X78237772Y-60776703D01*
X78402184Y-60744000D01*
X78569816Y-60744000D01*
X78734228Y-60776703D01*
X78734228Y-60776703D01*
G37*
G36*
X88812823Y-60756313D02*
G01*
X88973242Y-60804976D01*
X89040361Y-60840852D01*
X89121078Y-60883996D01*
X89250659Y-60990341D01*
X89357004Y-61119922D01*
X89357005Y-61119924D01*
X89436024Y-61267758D01*
X89484687Y-61428177D01*
X89501117Y-61595000D01*
X89484687Y-61761823D01*
X89436024Y-61922242D01*
X89395477Y-61998100D01*
X89357004Y-62070078D01*
X89250659Y-62199659D01*
X89121078Y-62306004D01*
X89121076Y-62306005D01*
X88973242Y-62385024D01*
X88812823Y-62433687D01*
X88687804Y-62446000D01*
X88604196Y-62446000D01*
X88479177Y-62433687D01*
X88318758Y-62385024D01*
X88170924Y-62306005D01*
X88170922Y-62306004D01*
X88041341Y-62199659D01*
X87934996Y-62070078D01*
X87896523Y-61998100D01*
X87855976Y-61922242D01*
X87807313Y-61761823D01*
X87790883Y-61595000D01*
X87807313Y-61428177D01*
X87855976Y-61267758D01*
X87934995Y-61119924D01*
X87934996Y-61119922D01*
X88041341Y-60990341D01*
X88170922Y-60883996D01*
X88251639Y-60840852D01*
X88318758Y-60804976D01*
X88479177Y-60756313D01*
X88604196Y-60744000D01*
X88687804Y-60744000D01*
X88812823Y-60756313D01*
X88812823Y-60756313D01*
G37*
G36*
X62015823Y-56946313D02*
G01*
X62176242Y-56994976D01*
X62296967Y-57059505D01*
X62324078Y-57073996D01*
X62453659Y-57180341D01*
X62560004Y-57309922D01*
X62560005Y-57309924D01*
X62639024Y-57457758D01*
X62687687Y-57618177D01*
X62704117Y-57785000D01*
X62687687Y-57951823D01*
X62639024Y-58112242D01*
X62568114Y-58244906D01*
X62560004Y-58260078D01*
X62453659Y-58389659D01*
X62324078Y-58496004D01*
X62324076Y-58496005D01*
X62176242Y-58575024D01*
X62015823Y-58623687D01*
X61890804Y-58636000D01*
X61807196Y-58636000D01*
X61682177Y-58623687D01*
X61521758Y-58575024D01*
X61373924Y-58496005D01*
X61373922Y-58496004D01*
X61244341Y-58389659D01*
X61137996Y-58260078D01*
X61129886Y-58244906D01*
X61058976Y-58112242D01*
X61010313Y-57951823D01*
X60993883Y-57785000D01*
X61010313Y-57618177D01*
X61058976Y-57457758D01*
X61137995Y-57309924D01*
X61137996Y-57309922D01*
X61244341Y-57180341D01*
X61373922Y-57073996D01*
X61401033Y-57059505D01*
X61521758Y-56994976D01*
X61682177Y-56946313D01*
X61807196Y-56934000D01*
X61890804Y-56934000D01*
X62015823Y-56946313D01*
X62015823Y-56946313D01*
G37*
G36*
X36615823Y-56946313D02*
G01*
X36776242Y-56994976D01*
X36896967Y-57059505D01*
X36924078Y-57073996D01*
X37053659Y-57180341D01*
X37160004Y-57309922D01*
X37160005Y-57309924D01*
X37239024Y-57457758D01*
X37287687Y-57618177D01*
X37304117Y-57785000D01*
X37287687Y-57951823D01*
X37239024Y-58112242D01*
X37168114Y-58244906D01*
X37160004Y-58260078D01*
X37053659Y-58389659D01*
X36924078Y-58496004D01*
X36924076Y-58496005D01*
X36776242Y-58575024D01*
X36615823Y-58623687D01*
X36490804Y-58636000D01*
X36407196Y-58636000D01*
X36282177Y-58623687D01*
X36121758Y-58575024D01*
X35973924Y-58496005D01*
X35973922Y-58496004D01*
X35844341Y-58389659D01*
X35737996Y-58260078D01*
X35729886Y-58244906D01*
X35658976Y-58112242D01*
X35610313Y-57951823D01*
X35593883Y-57785000D01*
X35610313Y-57618177D01*
X35658976Y-57457758D01*
X35737995Y-57309924D01*
X35737996Y-57309922D01*
X35844341Y-57180341D01*
X35973922Y-57073996D01*
X36001033Y-57059505D01*
X36121758Y-56994976D01*
X36282177Y-56946313D01*
X36407196Y-56934000D01*
X36490804Y-56934000D01*
X36615823Y-56946313D01*
X36615823Y-56946313D01*
G37*
G36*
X31535823Y-56946313D02*
G01*
X31696242Y-56994976D01*
X31816967Y-57059505D01*
X31844078Y-57073996D01*
X31973659Y-57180341D01*
X32080004Y-57309922D01*
X32080005Y-57309924D01*
X32159024Y-57457758D01*
X32207687Y-57618177D01*
X32224117Y-57785000D01*
X32207687Y-57951823D01*
X32159024Y-58112242D01*
X32088114Y-58244906D01*
X32080004Y-58260078D01*
X31973659Y-58389659D01*
X31844078Y-58496004D01*
X31844076Y-58496005D01*
X31696242Y-58575024D01*
X31535823Y-58623687D01*
X31410804Y-58636000D01*
X31327196Y-58636000D01*
X31202177Y-58623687D01*
X31041758Y-58575024D01*
X30893924Y-58496005D01*
X30893922Y-58496004D01*
X30764341Y-58389659D01*
X30657996Y-58260078D01*
X30649886Y-58244906D01*
X30578976Y-58112242D01*
X30530313Y-57951823D01*
X30513883Y-57785000D01*
X30530313Y-57618177D01*
X30578976Y-57457758D01*
X30657995Y-57309924D01*
X30657996Y-57309922D01*
X30764341Y-57180341D01*
X30893922Y-57073996D01*
X30921033Y-57059505D01*
X31041758Y-56994976D01*
X31202177Y-56946313D01*
X31327196Y-56934000D01*
X31410804Y-56934000D01*
X31535823Y-56946313D01*
X31535823Y-56946313D01*
G37*
G36*
X39155823Y-56946313D02*
G01*
X39316242Y-56994976D01*
X39436967Y-57059505D01*
X39464078Y-57073996D01*
X39593659Y-57180341D01*
X39700004Y-57309922D01*
X39700005Y-57309924D01*
X39779024Y-57457758D01*
X39827687Y-57618177D01*
X39844117Y-57785000D01*
X39827687Y-57951823D01*
X39779024Y-58112242D01*
X39708114Y-58244906D01*
X39700004Y-58260078D01*
X39593659Y-58389659D01*
X39464078Y-58496004D01*
X39464076Y-58496005D01*
X39316242Y-58575024D01*
X39155823Y-58623687D01*
X39030804Y-58636000D01*
X38947196Y-58636000D01*
X38822177Y-58623687D01*
X38661758Y-58575024D01*
X38513924Y-58496005D01*
X38513922Y-58496004D01*
X38384341Y-58389659D01*
X38277996Y-58260078D01*
X38269886Y-58244906D01*
X38198976Y-58112242D01*
X38150313Y-57951823D01*
X38133883Y-57785000D01*
X38150313Y-57618177D01*
X38198976Y-57457758D01*
X38277995Y-57309924D01*
X38277996Y-57309922D01*
X38384341Y-57180341D01*
X38513922Y-57073996D01*
X38541033Y-57059505D01*
X38661758Y-56994976D01*
X38822177Y-56946313D01*
X38947196Y-56934000D01*
X39030804Y-56934000D01*
X39155823Y-56946313D01*
X39155823Y-56946313D01*
G37*
G36*
X41695823Y-56946313D02*
G01*
X41856242Y-56994976D01*
X41976967Y-57059505D01*
X42004078Y-57073996D01*
X42133659Y-57180341D01*
X42240004Y-57309922D01*
X42240005Y-57309924D01*
X42319024Y-57457758D01*
X42367687Y-57618177D01*
X42384117Y-57785000D01*
X42367687Y-57951823D01*
X42319024Y-58112242D01*
X42248114Y-58244906D01*
X42240004Y-58260078D01*
X42133659Y-58389659D01*
X42004078Y-58496004D01*
X42004076Y-58496005D01*
X41856242Y-58575024D01*
X41695823Y-58623687D01*
X41570804Y-58636000D01*
X41487196Y-58636000D01*
X41362177Y-58623687D01*
X41201758Y-58575024D01*
X41053924Y-58496005D01*
X41053922Y-58496004D01*
X40924341Y-58389659D01*
X40817996Y-58260078D01*
X40809886Y-58244906D01*
X40738976Y-58112242D01*
X40690313Y-57951823D01*
X40673883Y-57785000D01*
X40690313Y-57618177D01*
X40738976Y-57457758D01*
X40817995Y-57309924D01*
X40817996Y-57309922D01*
X40924341Y-57180341D01*
X41053922Y-57073996D01*
X41081033Y-57059505D01*
X41201758Y-56994976D01*
X41362177Y-56946313D01*
X41487196Y-56934000D01*
X41570804Y-56934000D01*
X41695823Y-56946313D01*
X41695823Y-56946313D01*
G37*
G36*
X44235823Y-56946313D02*
G01*
X44396242Y-56994976D01*
X44516967Y-57059505D01*
X44544078Y-57073996D01*
X44673659Y-57180341D01*
X44780004Y-57309922D01*
X44780005Y-57309924D01*
X44859024Y-57457758D01*
X44907687Y-57618177D01*
X44924117Y-57785000D01*
X44907687Y-57951823D01*
X44859024Y-58112242D01*
X44788114Y-58244906D01*
X44780004Y-58260078D01*
X44673659Y-58389659D01*
X44544078Y-58496004D01*
X44544076Y-58496005D01*
X44396242Y-58575024D01*
X44235823Y-58623687D01*
X44110804Y-58636000D01*
X44027196Y-58636000D01*
X43902177Y-58623687D01*
X43741758Y-58575024D01*
X43593924Y-58496005D01*
X43593922Y-58496004D01*
X43464341Y-58389659D01*
X43357996Y-58260078D01*
X43349886Y-58244906D01*
X43278976Y-58112242D01*
X43230313Y-57951823D01*
X43213883Y-57785000D01*
X43230313Y-57618177D01*
X43278976Y-57457758D01*
X43357995Y-57309924D01*
X43357996Y-57309922D01*
X43464341Y-57180341D01*
X43593922Y-57073996D01*
X43621033Y-57059505D01*
X43741758Y-56994976D01*
X43902177Y-56946313D01*
X44027196Y-56934000D01*
X44110804Y-56934000D01*
X44235823Y-56946313D01*
X44235823Y-56946313D01*
G37*
G36*
X46775823Y-56946313D02*
G01*
X46936242Y-56994976D01*
X47056967Y-57059505D01*
X47084078Y-57073996D01*
X47213659Y-57180341D01*
X47320004Y-57309922D01*
X47320005Y-57309924D01*
X47399024Y-57457758D01*
X47447687Y-57618177D01*
X47464117Y-57785000D01*
X47447687Y-57951823D01*
X47399024Y-58112242D01*
X47328114Y-58244906D01*
X47320004Y-58260078D01*
X47213659Y-58389659D01*
X47084078Y-58496004D01*
X47084076Y-58496005D01*
X46936242Y-58575024D01*
X46775823Y-58623687D01*
X46650804Y-58636000D01*
X46567196Y-58636000D01*
X46442177Y-58623687D01*
X46281758Y-58575024D01*
X46133924Y-58496005D01*
X46133922Y-58496004D01*
X46004341Y-58389659D01*
X45897996Y-58260078D01*
X45889886Y-58244906D01*
X45818976Y-58112242D01*
X45770313Y-57951823D01*
X45753883Y-57785000D01*
X45770313Y-57618177D01*
X45818976Y-57457758D01*
X45897995Y-57309924D01*
X45897996Y-57309922D01*
X46004341Y-57180341D01*
X46133922Y-57073996D01*
X46161033Y-57059505D01*
X46281758Y-56994976D01*
X46442177Y-56946313D01*
X46567196Y-56934000D01*
X46650804Y-56934000D01*
X46775823Y-56946313D01*
X46775823Y-56946313D01*
G37*
G36*
X49315823Y-56946313D02*
G01*
X49476242Y-56994976D01*
X49596967Y-57059505D01*
X49624078Y-57073996D01*
X49753659Y-57180341D01*
X49860004Y-57309922D01*
X49860005Y-57309924D01*
X49939024Y-57457758D01*
X49987687Y-57618177D01*
X50004117Y-57785000D01*
X49987687Y-57951823D01*
X49939024Y-58112242D01*
X49868114Y-58244906D01*
X49860004Y-58260078D01*
X49753659Y-58389659D01*
X49624078Y-58496004D01*
X49624076Y-58496005D01*
X49476242Y-58575024D01*
X49315823Y-58623687D01*
X49190804Y-58636000D01*
X49107196Y-58636000D01*
X48982177Y-58623687D01*
X48821758Y-58575024D01*
X48673924Y-58496005D01*
X48673922Y-58496004D01*
X48544341Y-58389659D01*
X48437996Y-58260078D01*
X48429886Y-58244906D01*
X48358976Y-58112242D01*
X48310313Y-57951823D01*
X48293883Y-57785000D01*
X48310313Y-57618177D01*
X48358976Y-57457758D01*
X48437995Y-57309924D01*
X48437996Y-57309922D01*
X48544341Y-57180341D01*
X48673922Y-57073996D01*
X48701033Y-57059505D01*
X48821758Y-56994976D01*
X48982177Y-56946313D01*
X49107196Y-56934000D01*
X49190804Y-56934000D01*
X49315823Y-56946313D01*
X49315823Y-56946313D01*
G37*
G36*
X54395823Y-56946313D02*
G01*
X54556242Y-56994976D01*
X54676967Y-57059505D01*
X54704078Y-57073996D01*
X54833659Y-57180341D01*
X54940004Y-57309922D01*
X54940005Y-57309924D01*
X55019024Y-57457758D01*
X55067687Y-57618177D01*
X55084117Y-57785000D01*
X55067687Y-57951823D01*
X55019024Y-58112242D01*
X54948114Y-58244906D01*
X54940004Y-58260078D01*
X54833659Y-58389659D01*
X54704078Y-58496004D01*
X54704076Y-58496005D01*
X54556242Y-58575024D01*
X54395823Y-58623687D01*
X54270804Y-58636000D01*
X54187196Y-58636000D01*
X54062177Y-58623687D01*
X53901758Y-58575024D01*
X53753924Y-58496005D01*
X53753922Y-58496004D01*
X53624341Y-58389659D01*
X53517996Y-58260078D01*
X53509886Y-58244906D01*
X53438976Y-58112242D01*
X53390313Y-57951823D01*
X53373883Y-57785000D01*
X53390313Y-57618177D01*
X53438976Y-57457758D01*
X53517995Y-57309924D01*
X53517996Y-57309922D01*
X53624341Y-57180341D01*
X53753922Y-57073996D01*
X53781033Y-57059505D01*
X53901758Y-56994976D01*
X54062177Y-56946313D01*
X54187196Y-56934000D01*
X54270804Y-56934000D01*
X54395823Y-56946313D01*
X54395823Y-56946313D01*
G37*
G36*
X56935823Y-56946313D02*
G01*
X57096242Y-56994976D01*
X57216967Y-57059505D01*
X57244078Y-57073996D01*
X57373659Y-57180341D01*
X57480004Y-57309922D01*
X57480005Y-57309924D01*
X57559024Y-57457758D01*
X57607687Y-57618177D01*
X57624117Y-57785000D01*
X57607687Y-57951823D01*
X57559024Y-58112242D01*
X57488114Y-58244906D01*
X57480004Y-58260078D01*
X57373659Y-58389659D01*
X57244078Y-58496004D01*
X57244076Y-58496005D01*
X57096242Y-58575024D01*
X56935823Y-58623687D01*
X56810804Y-58636000D01*
X56727196Y-58636000D01*
X56602177Y-58623687D01*
X56441758Y-58575024D01*
X56293924Y-58496005D01*
X56293922Y-58496004D01*
X56164341Y-58389659D01*
X56057996Y-58260078D01*
X56049886Y-58244906D01*
X55978976Y-58112242D01*
X55930313Y-57951823D01*
X55913883Y-57785000D01*
X55930313Y-57618177D01*
X55978976Y-57457758D01*
X56057995Y-57309924D01*
X56057996Y-57309922D01*
X56164341Y-57180341D01*
X56293922Y-57073996D01*
X56321033Y-57059505D01*
X56441758Y-56994976D01*
X56602177Y-56946313D01*
X56727196Y-56934000D01*
X56810804Y-56934000D01*
X56935823Y-56946313D01*
X56935823Y-56946313D01*
G37*
G36*
X59475823Y-56946313D02*
G01*
X59636242Y-56994976D01*
X59756967Y-57059505D01*
X59784078Y-57073996D01*
X59913659Y-57180341D01*
X60020004Y-57309922D01*
X60020005Y-57309924D01*
X60099024Y-57457758D01*
X60147687Y-57618177D01*
X60164117Y-57785000D01*
X60147687Y-57951823D01*
X60099024Y-58112242D01*
X60028114Y-58244906D01*
X60020004Y-58260078D01*
X59913659Y-58389659D01*
X59784078Y-58496004D01*
X59784076Y-58496005D01*
X59636242Y-58575024D01*
X59475823Y-58623687D01*
X59350804Y-58636000D01*
X59267196Y-58636000D01*
X59142177Y-58623687D01*
X58981758Y-58575024D01*
X58833924Y-58496005D01*
X58833922Y-58496004D01*
X58704341Y-58389659D01*
X58597996Y-58260078D01*
X58589886Y-58244906D01*
X58518976Y-58112242D01*
X58470313Y-57951823D01*
X58453883Y-57785000D01*
X58470313Y-57618177D01*
X58518976Y-57457758D01*
X58597995Y-57309924D01*
X58597996Y-57309922D01*
X58704341Y-57180341D01*
X58833922Y-57073996D01*
X58861033Y-57059505D01*
X58981758Y-56994976D01*
X59142177Y-56946313D01*
X59267196Y-56934000D01*
X59350804Y-56934000D01*
X59475823Y-56946313D01*
X59475823Y-56946313D01*
G37*
G36*
X64555823Y-56946313D02*
G01*
X64716242Y-56994976D01*
X64836967Y-57059505D01*
X64864078Y-57073996D01*
X64993659Y-57180341D01*
X65100004Y-57309922D01*
X65100005Y-57309924D01*
X65179024Y-57457758D01*
X65227687Y-57618177D01*
X65244117Y-57785000D01*
X65227687Y-57951823D01*
X65179024Y-58112242D01*
X65108114Y-58244906D01*
X65100004Y-58260078D01*
X64993659Y-58389659D01*
X64864078Y-58496004D01*
X64864076Y-58496005D01*
X64716242Y-58575024D01*
X64555823Y-58623687D01*
X64430804Y-58636000D01*
X64347196Y-58636000D01*
X64222177Y-58623687D01*
X64061758Y-58575024D01*
X63913924Y-58496005D01*
X63913922Y-58496004D01*
X63784341Y-58389659D01*
X63677996Y-58260078D01*
X63669886Y-58244906D01*
X63598976Y-58112242D01*
X63550313Y-57951823D01*
X63533883Y-57785000D01*
X63550313Y-57618177D01*
X63598976Y-57457758D01*
X63677995Y-57309924D01*
X63677996Y-57309922D01*
X63784341Y-57180341D01*
X63913922Y-57073996D01*
X63941033Y-57059505D01*
X64061758Y-56994976D01*
X64222177Y-56946313D01*
X64347196Y-56934000D01*
X64430804Y-56934000D01*
X64555823Y-56946313D01*
X64555823Y-56946313D01*
G37*
G36*
X51855823Y-56946313D02*
G01*
X52016242Y-56994976D01*
X52136967Y-57059505D01*
X52164078Y-57073996D01*
X52293659Y-57180341D01*
X52400004Y-57309922D01*
X52400005Y-57309924D01*
X52479024Y-57457758D01*
X52527687Y-57618177D01*
X52544117Y-57785000D01*
X52527687Y-57951823D01*
X52479024Y-58112242D01*
X52408114Y-58244906D01*
X52400004Y-58260078D01*
X52293659Y-58389659D01*
X52164078Y-58496004D01*
X52164076Y-58496005D01*
X52016242Y-58575024D01*
X51855823Y-58623687D01*
X51730804Y-58636000D01*
X51647196Y-58636000D01*
X51522177Y-58623687D01*
X51361758Y-58575024D01*
X51213924Y-58496005D01*
X51213922Y-58496004D01*
X51084341Y-58389659D01*
X50977996Y-58260078D01*
X50969886Y-58244906D01*
X50898976Y-58112242D01*
X50850313Y-57951823D01*
X50833883Y-57785000D01*
X50850313Y-57618177D01*
X50898976Y-57457758D01*
X50977995Y-57309924D01*
X50977996Y-57309922D01*
X51084341Y-57180341D01*
X51213922Y-57073996D01*
X51241033Y-57059505D01*
X51361758Y-56994976D01*
X51522177Y-56946313D01*
X51647196Y-56934000D01*
X51730804Y-56934000D01*
X51855823Y-56946313D01*
X51855823Y-56946313D01*
G37*
G36*
X34075823Y-56946313D02*
G01*
X34236242Y-56994976D01*
X34356967Y-57059505D01*
X34384078Y-57073996D01*
X34513659Y-57180341D01*
X34620004Y-57309922D01*
X34620005Y-57309924D01*
X34699024Y-57457758D01*
X34747687Y-57618177D01*
X34764117Y-57785000D01*
X34747687Y-57951823D01*
X34699024Y-58112242D01*
X34628114Y-58244906D01*
X34620004Y-58260078D01*
X34513659Y-58389659D01*
X34384078Y-58496004D01*
X34384076Y-58496005D01*
X34236242Y-58575024D01*
X34075823Y-58623687D01*
X33950804Y-58636000D01*
X33867196Y-58636000D01*
X33742177Y-58623687D01*
X33581758Y-58575024D01*
X33433924Y-58496005D01*
X33433922Y-58496004D01*
X33304341Y-58389659D01*
X33197996Y-58260078D01*
X33189886Y-58244906D01*
X33118976Y-58112242D01*
X33070313Y-57951823D01*
X33053883Y-57785000D01*
X33070313Y-57618177D01*
X33118976Y-57457758D01*
X33197995Y-57309924D01*
X33197996Y-57309922D01*
X33304341Y-57180341D01*
X33433922Y-57073996D01*
X33461033Y-57059505D01*
X33581758Y-56994976D01*
X33742177Y-56946313D01*
X33867196Y-56934000D01*
X33950804Y-56934000D01*
X34075823Y-56946313D01*
X34075823Y-56946313D01*
G37*
G36*
X82500473Y-55840938D02*
G01*
X82628049Y-55893782D01*
X82742859Y-55970495D01*
X82840505Y-56068141D01*
X82917218Y-56182951D01*
X82970062Y-56310527D01*
X82997000Y-56445956D01*
X82997000Y-56584044D01*
X82970062Y-56719473D01*
X82917218Y-56847049D01*
X82840505Y-56961859D01*
X82742859Y-57059505D01*
X82628049Y-57136218D01*
X82500473Y-57189062D01*
X82365044Y-57216000D01*
X82226956Y-57216000D01*
X82091527Y-57189062D01*
X81963951Y-57136218D01*
X81849141Y-57059505D01*
X81751495Y-56961859D01*
X81674782Y-56847049D01*
X81621938Y-56719473D01*
X81595000Y-56584044D01*
X81595000Y-56445956D01*
X81621938Y-56310527D01*
X81674782Y-56182951D01*
X81751495Y-56068141D01*
X81849141Y-55970495D01*
X81963951Y-55893782D01*
X82091527Y-55840938D01*
X82226956Y-55814000D01*
X82365044Y-55814000D01*
X82500473Y-55840938D01*
X82500473Y-55840938D01*
G37*
G36*
X70987228Y-54426703D02*
G01*
X71142100Y-54490853D01*
X71281481Y-54583985D01*
X71400015Y-54702519D01*
X71493147Y-54841900D01*
X71557297Y-54996772D01*
X71590000Y-55161184D01*
X71590000Y-55328816D01*
X71557297Y-55493228D01*
X71493147Y-55648100D01*
X71400015Y-55787481D01*
X71281481Y-55906015D01*
X71142100Y-55999147D01*
X70987228Y-56063297D01*
X70822816Y-56096000D01*
X70655184Y-56096000D01*
X70490772Y-56063297D01*
X70335900Y-55999147D01*
X70196519Y-55906015D01*
X70077985Y-55787481D01*
X69984853Y-55648100D01*
X69920703Y-55493228D01*
X69888000Y-55328816D01*
X69888000Y-55161184D01*
X69920703Y-54996772D01*
X69984853Y-54841900D01*
X70077985Y-54702519D01*
X70196519Y-54583985D01*
X70335900Y-54490853D01*
X70490772Y-54426703D01*
X70655184Y-54394000D01*
X70822816Y-54394000D01*
X70987228Y-54426703D01*
X70987228Y-54426703D01*
G37*
G36*
X82997000Y-54548251D02*
G01*
X82999402Y-54572637D01*
X83006515Y-54596086D01*
X83018066Y-54617697D01*
X83033611Y-54636639D01*
X83052553Y-54652184D01*
X83074164Y-54663735D01*
X83097613Y-54670848D01*
X83121999Y-54673250D01*
X83146385Y-54670848D01*
X83169834Y-54663735D01*
X83191444Y-54652184D01*
X83233951Y-54623782D01*
X83361527Y-54570938D01*
X83496956Y-54544000D01*
X83635044Y-54544000D01*
X83770473Y-54570938D01*
X83898049Y-54623782D01*
X84012859Y-54700495D01*
X84110505Y-54798141D01*
X84187218Y-54912951D01*
X84240062Y-55040527D01*
X84267000Y-55175956D01*
X84267000Y-55314044D01*
X84240062Y-55449473D01*
X84187218Y-55577049D01*
X84110505Y-55691859D01*
X84012859Y-55789505D01*
X83898049Y-55866218D01*
X83770473Y-55919062D01*
X83635044Y-55946000D01*
X83496956Y-55946000D01*
X83361527Y-55919062D01*
X83233951Y-55866218D01*
X83119141Y-55789505D01*
X83021495Y-55691859D01*
X82944782Y-55577049D01*
X82891938Y-55449473D01*
X82865000Y-55314044D01*
X82865000Y-55175956D01*
X82891938Y-55040527D01*
X82944782Y-54912951D01*
X82973184Y-54870444D01*
X82984735Y-54848833D01*
X82991848Y-54825384D01*
X82994250Y-54800998D01*
X82991848Y-54776612D01*
X82984735Y-54753163D01*
X82973183Y-54731553D01*
X82957638Y-54712611D01*
X82938696Y-54697066D01*
X82917085Y-54685515D01*
X82893636Y-54678402D01*
X82869251Y-54676000D01*
X81595000Y-54676000D01*
X81595000Y-53274000D01*
X82997000Y-53274000D01*
X82997000Y-54548251D01*
X82997000Y-54548251D01*
G37*
G36*
X49397228Y-53156703D02*
G01*
X49552100Y-53220853D01*
X49691481Y-53313985D01*
X49810015Y-53432519D01*
X49903147Y-53571900D01*
X49967297Y-53726772D01*
X50000000Y-53891184D01*
X50000000Y-54058816D01*
X49967297Y-54223228D01*
X49903147Y-54378100D01*
X49810015Y-54517481D01*
X49691481Y-54636015D01*
X49552100Y-54729147D01*
X49397228Y-54793297D01*
X49232816Y-54826000D01*
X49065184Y-54826000D01*
X48900772Y-54793297D01*
X48745900Y-54729147D01*
X48606519Y-54636015D01*
X48487985Y-54517481D01*
X48394853Y-54378100D01*
X48330703Y-54223228D01*
X48298000Y-54058816D01*
X48298000Y-53891184D01*
X48330703Y-53726772D01*
X48394853Y-53571900D01*
X48487985Y-53432519D01*
X48606519Y-53313985D01*
X48745900Y-53220853D01*
X48900772Y-53156703D01*
X49065184Y-53124000D01*
X49232816Y-53124000D01*
X49397228Y-53156703D01*
X49397228Y-53156703D01*
G37*
G36*
X46897228Y-53156703D02*
G01*
X47052100Y-53220853D01*
X47191481Y-53313985D01*
X47310015Y-53432519D01*
X47403147Y-53571900D01*
X47467297Y-53726772D01*
X47500000Y-53891184D01*
X47500000Y-54058816D01*
X47467297Y-54223228D01*
X47403147Y-54378100D01*
X47310015Y-54517481D01*
X47191481Y-54636015D01*
X47052100Y-54729147D01*
X46897228Y-54793297D01*
X46732816Y-54826000D01*
X46565184Y-54826000D01*
X46400772Y-54793297D01*
X46245900Y-54729147D01*
X46106519Y-54636015D01*
X45987985Y-54517481D01*
X45894853Y-54378100D01*
X45830703Y-54223228D01*
X45798000Y-54058816D01*
X45798000Y-53891184D01*
X45830703Y-53726772D01*
X45894853Y-53571900D01*
X45987985Y-53432519D01*
X46106519Y-53313985D01*
X46245900Y-53220853D01*
X46400772Y-53156703D01*
X46565184Y-53124000D01*
X46732816Y-53124000D01*
X46897228Y-53156703D01*
X46897228Y-53156703D01*
G37*
G36*
X91111564Y-52456389D02*
G01*
X91302833Y-52535615D01*
X91302835Y-52535616D01*
X91474973Y-52650635D01*
X91621365Y-52797027D01*
X91736385Y-52969167D01*
X91815611Y-53160436D01*
X91856000Y-53363484D01*
X91856000Y-53570516D01*
X91815611Y-53773564D01*
X91766891Y-53891184D01*
X91736384Y-53964835D01*
X91621365Y-54136973D01*
X91474973Y-54283365D01*
X91302835Y-54398384D01*
X91302834Y-54398385D01*
X91302833Y-54398385D01*
X91111564Y-54477611D01*
X90908516Y-54518000D01*
X90701484Y-54518000D01*
X90498436Y-54477611D01*
X90307167Y-54398385D01*
X90307166Y-54398385D01*
X90307165Y-54398384D01*
X90135027Y-54283365D01*
X89988635Y-54136973D01*
X89873616Y-53964835D01*
X89843109Y-53891184D01*
X89794389Y-53773564D01*
X89754000Y-53570516D01*
X89754000Y-53363484D01*
X89794389Y-53160436D01*
X89873615Y-52969167D01*
X89988635Y-52797027D01*
X90135027Y-52650635D01*
X90307165Y-52535616D01*
X90307167Y-52535615D01*
X90498436Y-52456389D01*
X90701484Y-52416000D01*
X90908516Y-52416000D01*
X91111564Y-52456389D01*
X91111564Y-52456389D01*
G37*
G36*
X95611564Y-52456389D02*
G01*
X95802833Y-52535615D01*
X95802835Y-52535616D01*
X95974973Y-52650635D01*
X96121365Y-52797027D01*
X96236385Y-52969167D01*
X96315611Y-53160436D01*
X96356000Y-53363484D01*
X96356000Y-53570516D01*
X96315611Y-53773564D01*
X96266891Y-53891184D01*
X96236384Y-53964835D01*
X96121365Y-54136973D01*
X95974973Y-54283365D01*
X95802835Y-54398384D01*
X95802834Y-54398385D01*
X95802833Y-54398385D01*
X95611564Y-54477611D01*
X95408516Y-54518000D01*
X95201484Y-54518000D01*
X94998436Y-54477611D01*
X94807167Y-54398385D01*
X94807166Y-54398385D01*
X94807165Y-54398384D01*
X94635027Y-54283365D01*
X94488635Y-54136973D01*
X94373616Y-53964835D01*
X94343109Y-53891184D01*
X94294389Y-53773564D01*
X94254000Y-53570516D01*
X94254000Y-53363484D01*
X94294389Y-53160436D01*
X94373615Y-52969167D01*
X94488635Y-52797027D01*
X94635027Y-52650635D01*
X94807165Y-52535616D01*
X94807167Y-52535615D01*
X94998436Y-52456389D01*
X95201484Y-52416000D01*
X95408516Y-52416000D01*
X95611564Y-52456389D01*
X95611564Y-52456389D01*
G37*
G36*
X79410000Y-49946000D02*
G01*
X77308000Y-49946000D01*
X77308000Y-47844000D01*
X79410000Y-47844000D01*
X79410000Y-49946000D01*
X79410000Y-49946000D01*
G37*
G36*
X44997823Y-48056313D02*
G01*
X45158242Y-48104976D01*
X45225361Y-48140852D01*
X45306078Y-48183996D01*
X45435659Y-48290341D01*
X45542004Y-48419922D01*
X45542005Y-48419924D01*
X45621024Y-48567758D01*
X45669687Y-48728177D01*
X45686117Y-48895000D01*
X45669687Y-49061823D01*
X45621024Y-49222242D01*
X45580477Y-49298100D01*
X45542004Y-49370078D01*
X45435659Y-49499659D01*
X45306078Y-49606004D01*
X45306076Y-49606005D01*
X45158242Y-49685024D01*
X44997823Y-49733687D01*
X44872804Y-49746000D01*
X44789196Y-49746000D01*
X44664177Y-49733687D01*
X44503758Y-49685024D01*
X44355924Y-49606005D01*
X44355922Y-49606004D01*
X44226341Y-49499659D01*
X44119996Y-49370078D01*
X44081523Y-49298100D01*
X44040976Y-49222242D01*
X43992313Y-49061823D01*
X43975883Y-48895000D01*
X43992313Y-48728177D01*
X44040976Y-48567758D01*
X44119995Y-48419924D01*
X44119996Y-48419922D01*
X44226341Y-48290341D01*
X44355922Y-48183996D01*
X44436639Y-48140852D01*
X44503758Y-48104976D01*
X44664177Y-48056313D01*
X44789196Y-48044000D01*
X44872804Y-48044000D01*
X44997823Y-48056313D01*
X44997823Y-48056313D01*
G37*
G36*
X55239228Y-48076703D02*
G01*
X55394100Y-48140853D01*
X55533481Y-48233985D01*
X55652015Y-48352519D01*
X55745147Y-48491900D01*
X55809297Y-48646772D01*
X55842000Y-48811184D01*
X55842000Y-48978816D01*
X55809297Y-49143228D01*
X55745147Y-49298100D01*
X55652015Y-49437481D01*
X55533481Y-49556015D01*
X55394100Y-49649147D01*
X55239228Y-49713297D01*
X55074816Y-49746000D01*
X54907184Y-49746000D01*
X54742772Y-49713297D01*
X54587900Y-49649147D01*
X54448519Y-49556015D01*
X54329985Y-49437481D01*
X54236853Y-49298100D01*
X54172703Y-49143228D01*
X54140000Y-48978816D01*
X54140000Y-48811184D01*
X54172703Y-48646772D01*
X54236853Y-48491900D01*
X54329985Y-48352519D01*
X54448519Y-48233985D01*
X54587900Y-48140853D01*
X54742772Y-48076703D01*
X54907184Y-48044000D01*
X55074816Y-48044000D01*
X55239228Y-48076703D01*
X55239228Y-48076703D01*
G37*
G36*
X41187823Y-48056313D02*
G01*
X41348242Y-48104976D01*
X41415361Y-48140852D01*
X41496078Y-48183996D01*
X41625659Y-48290341D01*
X41732004Y-48419922D01*
X41732005Y-48419924D01*
X41811024Y-48567758D01*
X41859687Y-48728177D01*
X41876117Y-48895000D01*
X41859687Y-49061823D01*
X41811024Y-49222242D01*
X41770477Y-49298100D01*
X41732004Y-49370078D01*
X41625659Y-49499659D01*
X41496078Y-49606004D01*
X41496076Y-49606005D01*
X41348242Y-49685024D01*
X41187823Y-49733687D01*
X41062804Y-49746000D01*
X40979196Y-49746000D01*
X40854177Y-49733687D01*
X40693758Y-49685024D01*
X40545924Y-49606005D01*
X40545922Y-49606004D01*
X40416341Y-49499659D01*
X40309996Y-49370078D01*
X40271523Y-49298100D01*
X40230976Y-49222242D01*
X40182313Y-49061823D01*
X40165883Y-48895000D01*
X40182313Y-48728177D01*
X40230976Y-48567758D01*
X40309995Y-48419924D01*
X40309996Y-48419922D01*
X40416341Y-48290341D01*
X40545922Y-48183996D01*
X40626639Y-48140852D01*
X40693758Y-48104976D01*
X40854177Y-48056313D01*
X40979196Y-48044000D01*
X41062804Y-48044000D01*
X41187823Y-48056313D01*
X41187823Y-48056313D01*
G37*
G36*
X33567823Y-48056313D02*
G01*
X33728242Y-48104976D01*
X33795361Y-48140852D01*
X33876078Y-48183996D01*
X34005659Y-48290341D01*
X34112004Y-48419922D01*
X34112005Y-48419924D01*
X34191024Y-48567758D01*
X34239687Y-48728177D01*
X34256117Y-48895000D01*
X34239687Y-49061823D01*
X34191024Y-49222242D01*
X34150477Y-49298100D01*
X34112004Y-49370078D01*
X34005659Y-49499659D01*
X33876078Y-49606004D01*
X33876076Y-49606005D01*
X33728242Y-49685024D01*
X33567823Y-49733687D01*
X33442804Y-49746000D01*
X33359196Y-49746000D01*
X33234177Y-49733687D01*
X33073758Y-49685024D01*
X32925924Y-49606005D01*
X32925922Y-49606004D01*
X32796341Y-49499659D01*
X32689996Y-49370078D01*
X32651523Y-49298100D01*
X32610976Y-49222242D01*
X32562313Y-49061823D01*
X32545883Y-48895000D01*
X32562313Y-48728177D01*
X32610976Y-48567758D01*
X32689995Y-48419924D01*
X32689996Y-48419922D01*
X32796341Y-48290341D01*
X32925922Y-48183996D01*
X33006639Y-48140852D01*
X33073758Y-48104976D01*
X33234177Y-48056313D01*
X33359196Y-48044000D01*
X33442804Y-48044000D01*
X33567823Y-48056313D01*
X33567823Y-48056313D01*
G37*
G36*
X48807823Y-48056313D02*
G01*
X48968242Y-48104976D01*
X49035361Y-48140852D01*
X49116078Y-48183996D01*
X49245659Y-48290341D01*
X49352004Y-48419922D01*
X49352005Y-48419924D01*
X49431024Y-48567758D01*
X49479687Y-48728177D01*
X49496117Y-48895000D01*
X49479687Y-49061823D01*
X49431024Y-49222242D01*
X49390477Y-49298100D01*
X49352004Y-49370078D01*
X49245659Y-49499659D01*
X49116078Y-49606004D01*
X49116076Y-49606005D01*
X48968242Y-49685024D01*
X48807823Y-49733687D01*
X48682804Y-49746000D01*
X48599196Y-49746000D01*
X48474177Y-49733687D01*
X48313758Y-49685024D01*
X48165924Y-49606005D01*
X48165922Y-49606004D01*
X48036341Y-49499659D01*
X47929996Y-49370078D01*
X47891523Y-49298100D01*
X47850976Y-49222242D01*
X47802313Y-49061823D01*
X47785883Y-48895000D01*
X47802313Y-48728177D01*
X47850976Y-48567758D01*
X47929995Y-48419924D01*
X47929996Y-48419922D01*
X48036341Y-48290341D01*
X48165922Y-48183996D01*
X48246639Y-48140852D01*
X48313758Y-48104976D01*
X48474177Y-48056313D01*
X48599196Y-48044000D01*
X48682804Y-48044000D01*
X48807823Y-48056313D01*
X48807823Y-48056313D01*
G37*
G36*
X37377823Y-48056313D02*
G01*
X37538242Y-48104976D01*
X37605361Y-48140852D01*
X37686078Y-48183996D01*
X37815659Y-48290341D01*
X37922004Y-48419922D01*
X37922005Y-48419924D01*
X38001024Y-48567758D01*
X38049687Y-48728177D01*
X38066117Y-48895000D01*
X38049687Y-49061823D01*
X38001024Y-49222242D01*
X37960477Y-49298100D01*
X37922004Y-49370078D01*
X37815659Y-49499659D01*
X37686078Y-49606004D01*
X37686076Y-49606005D01*
X37538242Y-49685024D01*
X37377823Y-49733687D01*
X37252804Y-49746000D01*
X37169196Y-49746000D01*
X37044177Y-49733687D01*
X36883758Y-49685024D01*
X36735924Y-49606005D01*
X36735922Y-49606004D01*
X36606341Y-49499659D01*
X36499996Y-49370078D01*
X36461523Y-49298100D01*
X36420976Y-49222242D01*
X36372313Y-49061823D01*
X36355883Y-48895000D01*
X36372313Y-48728177D01*
X36420976Y-48567758D01*
X36499995Y-48419924D01*
X36499996Y-48419922D01*
X36606341Y-48290341D01*
X36735922Y-48183996D01*
X36816639Y-48140852D01*
X36883758Y-48104976D01*
X37044177Y-48056313D01*
X37169196Y-48044000D01*
X37252804Y-48044000D01*
X37377823Y-48056313D01*
X37377823Y-48056313D01*
G37*
G36*
X21502823Y-47929313D02*
G01*
X21633380Y-47968917D01*
X21662036Y-47977610D01*
X21663242Y-47977976D01*
X21786764Y-48044000D01*
X21811078Y-48056996D01*
X21940659Y-48163341D01*
X22047004Y-48292922D01*
X22047005Y-48292924D01*
X22126024Y-48440758D01*
X22174687Y-48601177D01*
X22191117Y-48768000D01*
X22174687Y-48934823D01*
X22126024Y-49095242D01*
X22100375Y-49143228D01*
X22047004Y-49243078D01*
X21940659Y-49372659D01*
X21811078Y-49479004D01*
X21811076Y-49479005D01*
X21663242Y-49558024D01*
X21502823Y-49606687D01*
X21377804Y-49619000D01*
X21294196Y-49619000D01*
X21169177Y-49606687D01*
X21008758Y-49558024D01*
X20860924Y-49479005D01*
X20860922Y-49479004D01*
X20731341Y-49372659D01*
X20624996Y-49243078D01*
X20571625Y-49143228D01*
X20545976Y-49095242D01*
X20497313Y-48934823D01*
X20480883Y-48768000D01*
X20497313Y-48601177D01*
X20545976Y-48440758D01*
X20624995Y-48292924D01*
X20624996Y-48292922D01*
X20731341Y-48163341D01*
X20860922Y-48056996D01*
X20885236Y-48044000D01*
X21008758Y-47977976D01*
X21009965Y-47977610D01*
X21038620Y-47968917D01*
X21169177Y-47929313D01*
X21294196Y-47917000D01*
X21377804Y-47917000D01*
X21502823Y-47929313D01*
X21502823Y-47929313D01*
G37*
G36*
X28868823Y-47929313D02*
G01*
X28999380Y-47968917D01*
X29028036Y-47977610D01*
X29029242Y-47977976D01*
X29152764Y-48044000D01*
X29177078Y-48056996D01*
X29306659Y-48163341D01*
X29413004Y-48292922D01*
X29413005Y-48292924D01*
X29492024Y-48440758D01*
X29540687Y-48601177D01*
X29557117Y-48768000D01*
X29540687Y-48934823D01*
X29492024Y-49095242D01*
X29466375Y-49143228D01*
X29413004Y-49243078D01*
X29306659Y-49372659D01*
X29177078Y-49479004D01*
X29177076Y-49479005D01*
X29029242Y-49558024D01*
X28868823Y-49606687D01*
X28743804Y-49619000D01*
X28660196Y-49619000D01*
X28535177Y-49606687D01*
X28374758Y-49558024D01*
X28226924Y-49479005D01*
X28226922Y-49479004D01*
X28097341Y-49372659D01*
X27990996Y-49243078D01*
X27937625Y-49143228D01*
X27911976Y-49095242D01*
X27863313Y-48934823D01*
X27846883Y-48768000D01*
X27863313Y-48601177D01*
X27911976Y-48440758D01*
X27990995Y-48292924D01*
X27990996Y-48292922D01*
X28097341Y-48163341D01*
X28226922Y-48056996D01*
X28251236Y-48044000D01*
X28374758Y-47977976D01*
X28375965Y-47977610D01*
X28404620Y-47968917D01*
X28535177Y-47929313D01*
X28660196Y-47917000D01*
X28743804Y-47917000D01*
X28868823Y-47929313D01*
X28868823Y-47929313D01*
G37*
G36*
X62142823Y-47929313D02*
G01*
X62273380Y-47968917D01*
X62302036Y-47977610D01*
X62303242Y-47977976D01*
X62426764Y-48044000D01*
X62451078Y-48056996D01*
X62580659Y-48163341D01*
X62687004Y-48292922D01*
X62687005Y-48292924D01*
X62766024Y-48440758D01*
X62814687Y-48601177D01*
X62831117Y-48768000D01*
X62814687Y-48934823D01*
X62766024Y-49095242D01*
X62740375Y-49143228D01*
X62687004Y-49243078D01*
X62580659Y-49372659D01*
X62451078Y-49479004D01*
X62451076Y-49479005D01*
X62303242Y-49558024D01*
X62142823Y-49606687D01*
X62017804Y-49619000D01*
X61934196Y-49619000D01*
X61809177Y-49606687D01*
X61648758Y-49558024D01*
X61500924Y-49479005D01*
X61500922Y-49479004D01*
X61371341Y-49372659D01*
X61264996Y-49243078D01*
X61211625Y-49143228D01*
X61185976Y-49095242D01*
X61137313Y-48934823D01*
X61120883Y-48768000D01*
X61137313Y-48601177D01*
X61185976Y-48440758D01*
X61264995Y-48292924D01*
X61264996Y-48292922D01*
X61371341Y-48163341D01*
X61500922Y-48056996D01*
X61525236Y-48044000D01*
X61648758Y-47977976D01*
X61649965Y-47977610D01*
X61678620Y-47968917D01*
X61809177Y-47929313D01*
X61934196Y-47917000D01*
X62017804Y-47917000D01*
X62142823Y-47929313D01*
X62142823Y-47929313D01*
G37*
G36*
X95611564Y-45956389D02*
G01*
X95802833Y-46035615D01*
X95802835Y-46035616D01*
X95974973Y-46150635D01*
X96121365Y-46297027D01*
X96236385Y-46469167D01*
X96315611Y-46660436D01*
X96356000Y-46863484D01*
X96356000Y-47070516D01*
X96315611Y-47273564D01*
X96236385Y-47464833D01*
X96236384Y-47464835D01*
X96121365Y-47636973D01*
X95974973Y-47783365D01*
X95802835Y-47898384D01*
X95802834Y-47898385D01*
X95802833Y-47898385D01*
X95611564Y-47977611D01*
X95408516Y-48018000D01*
X95201484Y-48018000D01*
X94998436Y-47977611D01*
X94807167Y-47898385D01*
X94807166Y-47898385D01*
X94807165Y-47898384D01*
X94635027Y-47783365D01*
X94488635Y-47636973D01*
X94373616Y-47464835D01*
X94373615Y-47464833D01*
X94294389Y-47273564D01*
X94254000Y-47070516D01*
X94254000Y-46863484D01*
X94294389Y-46660436D01*
X94373615Y-46469167D01*
X94488635Y-46297027D01*
X94635027Y-46150635D01*
X94807165Y-46035616D01*
X94807167Y-46035615D01*
X94998436Y-45956389D01*
X95201484Y-45916000D01*
X95408516Y-45916000D01*
X95611564Y-45956389D01*
X95611564Y-45956389D01*
G37*
G36*
X91111564Y-45956389D02*
G01*
X91302833Y-46035615D01*
X91302835Y-46035616D01*
X91474973Y-46150635D01*
X91621365Y-46297027D01*
X91736385Y-46469167D01*
X91815611Y-46660436D01*
X91856000Y-46863484D01*
X91856000Y-47070516D01*
X91815611Y-47273564D01*
X91736385Y-47464833D01*
X91736384Y-47464835D01*
X91621365Y-47636973D01*
X91474973Y-47783365D01*
X91302835Y-47898384D01*
X91302834Y-47898385D01*
X91302833Y-47898385D01*
X91111564Y-47977611D01*
X90908516Y-48018000D01*
X90701484Y-48018000D01*
X90498436Y-47977611D01*
X90307167Y-47898385D01*
X90307166Y-47898385D01*
X90307165Y-47898384D01*
X90135027Y-47783365D01*
X89988635Y-47636973D01*
X89873616Y-47464835D01*
X89873615Y-47464833D01*
X89794389Y-47273564D01*
X89754000Y-47070516D01*
X89754000Y-46863484D01*
X89794389Y-46660436D01*
X89873615Y-46469167D01*
X89988635Y-46297027D01*
X90135027Y-46150635D01*
X90307165Y-46035616D01*
X90307167Y-46035615D01*
X90498436Y-45956389D01*
X90701484Y-45916000D01*
X90908516Y-45916000D01*
X91111564Y-45956389D01*
X91111564Y-45956389D01*
G37*
G36*
X91111564Y-41026389D02*
G01*
X91302833Y-41105615D01*
X91302835Y-41105616D01*
X91431345Y-41191484D01*
X91474973Y-41220635D01*
X91621365Y-41367027D01*
X91736385Y-41539167D01*
X91815611Y-41730436D01*
X91856000Y-41933484D01*
X91856000Y-42140516D01*
X91815611Y-42343564D01*
X91736385Y-42534833D01*
X91736384Y-42534835D01*
X91621365Y-42706973D01*
X91474973Y-42853365D01*
X91302835Y-42968384D01*
X91302834Y-42968385D01*
X91302833Y-42968385D01*
X91111564Y-43047611D01*
X90908516Y-43088000D01*
X90701484Y-43088000D01*
X90498436Y-43047611D01*
X90307167Y-42968385D01*
X90307166Y-42968385D01*
X90307165Y-42968384D01*
X90135027Y-42853365D01*
X89988635Y-42706973D01*
X89873616Y-42534835D01*
X89873615Y-42534833D01*
X89794389Y-42343564D01*
X89754000Y-42140516D01*
X89754000Y-41933484D01*
X89794389Y-41730436D01*
X89873615Y-41539167D01*
X89988635Y-41367027D01*
X90135027Y-41220635D01*
X90178655Y-41191484D01*
X90307165Y-41105616D01*
X90307167Y-41105615D01*
X90498436Y-41026389D01*
X90701484Y-40986000D01*
X90908516Y-40986000D01*
X91111564Y-41026389D01*
X91111564Y-41026389D01*
G37*
G36*
X95611564Y-41026389D02*
G01*
X95802833Y-41105615D01*
X95802835Y-41105616D01*
X95931345Y-41191484D01*
X95974973Y-41220635D01*
X96121365Y-41367027D01*
X96236385Y-41539167D01*
X96315611Y-41730436D01*
X96356000Y-41933484D01*
X96356000Y-42140516D01*
X96315611Y-42343564D01*
X96236385Y-42534833D01*
X96236384Y-42534835D01*
X96121365Y-42706973D01*
X95974973Y-42853365D01*
X95802835Y-42968384D01*
X95802834Y-42968385D01*
X95802833Y-42968385D01*
X95611564Y-43047611D01*
X95408516Y-43088000D01*
X95201484Y-43088000D01*
X94998436Y-43047611D01*
X94807167Y-42968385D01*
X94807166Y-42968385D01*
X94807165Y-42968384D01*
X94635027Y-42853365D01*
X94488635Y-42706973D01*
X94373616Y-42534835D01*
X94373615Y-42534833D01*
X94294389Y-42343564D01*
X94254000Y-42140516D01*
X94254000Y-41933484D01*
X94294389Y-41730436D01*
X94373615Y-41539167D01*
X94488635Y-41367027D01*
X94635027Y-41220635D01*
X94678655Y-41191484D01*
X94807165Y-41105616D01*
X94807167Y-41105615D01*
X94998436Y-41026389D01*
X95201484Y-40986000D01*
X95408516Y-40986000D01*
X95611564Y-41026389D01*
X95611564Y-41026389D01*
G37*
G36*
X78665564Y-40284389D02*
G01*
X78856833Y-40363615D01*
X78856835Y-40363616D01*
X79028973Y-40478635D01*
X79175365Y-40625027D01*
X79290385Y-40797167D01*
X79369611Y-40988436D01*
X79410000Y-41191484D01*
X79410000Y-41398516D01*
X79369611Y-41601564D01*
X79290385Y-41792833D01*
X79290384Y-41792835D01*
X79175365Y-41964973D01*
X79028973Y-42111365D01*
X78856835Y-42226384D01*
X78856834Y-42226385D01*
X78856833Y-42226385D01*
X78665564Y-42305611D01*
X78462516Y-42346000D01*
X78255484Y-42346000D01*
X78052436Y-42305611D01*
X77861167Y-42226385D01*
X77861166Y-42226385D01*
X77861165Y-42226384D01*
X77689027Y-42111365D01*
X77542635Y-41964973D01*
X77427616Y-41792835D01*
X77427615Y-41792833D01*
X77348389Y-41601564D01*
X77308000Y-41398516D01*
X77308000Y-41191484D01*
X77348389Y-40988436D01*
X77427615Y-40797167D01*
X77542635Y-40625027D01*
X77689027Y-40478635D01*
X77861165Y-40363616D01*
X77861167Y-40363615D01*
X78052436Y-40284389D01*
X78255484Y-40244000D01*
X78462516Y-40244000D01*
X78665564Y-40284389D01*
X78665564Y-40284389D01*
G37*
G36*
X37459228Y-37916703D02*
G01*
X37614100Y-37980853D01*
X37753481Y-38073985D01*
X37872015Y-38192519D01*
X37965147Y-38331900D01*
X38029297Y-38486772D01*
X38062000Y-38651184D01*
X38062000Y-38818816D01*
X38029297Y-38983228D01*
X37965147Y-39138100D01*
X37872015Y-39277481D01*
X37753481Y-39396015D01*
X37614100Y-39489147D01*
X37459228Y-39553297D01*
X37294816Y-39586000D01*
X37127184Y-39586000D01*
X36962772Y-39553297D01*
X36807900Y-39489147D01*
X36668519Y-39396015D01*
X36549985Y-39277481D01*
X36456853Y-39138100D01*
X36392703Y-38983228D01*
X36360000Y-38818816D01*
X36360000Y-38651184D01*
X36392703Y-38486772D01*
X36456853Y-38331900D01*
X36549985Y-38192519D01*
X36668519Y-38073985D01*
X36807900Y-37980853D01*
X36962772Y-37916703D01*
X37127184Y-37884000D01*
X37294816Y-37884000D01*
X37459228Y-37916703D01*
X37459228Y-37916703D01*
G37*
G36*
X41269228Y-37916703D02*
G01*
X41424100Y-37980853D01*
X41563481Y-38073985D01*
X41682015Y-38192519D01*
X41775147Y-38331900D01*
X41839297Y-38486772D01*
X41872000Y-38651184D01*
X41872000Y-38818816D01*
X41839297Y-38983228D01*
X41775147Y-39138100D01*
X41682015Y-39277481D01*
X41563481Y-39396015D01*
X41424100Y-39489147D01*
X41269228Y-39553297D01*
X41104816Y-39586000D01*
X40937184Y-39586000D01*
X40772772Y-39553297D01*
X40617900Y-39489147D01*
X40478519Y-39396015D01*
X40359985Y-39277481D01*
X40266853Y-39138100D01*
X40202703Y-38983228D01*
X40170000Y-38818816D01*
X40170000Y-38651184D01*
X40202703Y-38486772D01*
X40266853Y-38331900D01*
X40359985Y-38192519D01*
X40478519Y-38073985D01*
X40617900Y-37980853D01*
X40772772Y-37916703D01*
X40937184Y-37884000D01*
X41104816Y-37884000D01*
X41269228Y-37916703D01*
X41269228Y-37916703D01*
G37*
G36*
X33649228Y-37916703D02*
G01*
X33804100Y-37980853D01*
X33943481Y-38073985D01*
X34062015Y-38192519D01*
X34155147Y-38331900D01*
X34219297Y-38486772D01*
X34252000Y-38651184D01*
X34252000Y-38818816D01*
X34219297Y-38983228D01*
X34155147Y-39138100D01*
X34062015Y-39277481D01*
X33943481Y-39396015D01*
X33804100Y-39489147D01*
X33649228Y-39553297D01*
X33484816Y-39586000D01*
X33317184Y-39586000D01*
X33152772Y-39553297D01*
X32997900Y-39489147D01*
X32858519Y-39396015D01*
X32739985Y-39277481D01*
X32646853Y-39138100D01*
X32582703Y-38983228D01*
X32550000Y-38818816D01*
X32550000Y-38651184D01*
X32582703Y-38486772D01*
X32646853Y-38331900D01*
X32739985Y-38192519D01*
X32858519Y-38073985D01*
X32997900Y-37980853D01*
X33152772Y-37916703D01*
X33317184Y-37884000D01*
X33484816Y-37884000D01*
X33649228Y-37916703D01*
X33649228Y-37916703D01*
G37*
G36*
X45079228Y-37916703D02*
G01*
X45234100Y-37980853D01*
X45373481Y-38073985D01*
X45492015Y-38192519D01*
X45585147Y-38331900D01*
X45649297Y-38486772D01*
X45682000Y-38651184D01*
X45682000Y-38818816D01*
X45649297Y-38983228D01*
X45585147Y-39138100D01*
X45492015Y-39277481D01*
X45373481Y-39396015D01*
X45234100Y-39489147D01*
X45079228Y-39553297D01*
X44914816Y-39586000D01*
X44747184Y-39586000D01*
X44582772Y-39553297D01*
X44427900Y-39489147D01*
X44288519Y-39396015D01*
X44169985Y-39277481D01*
X44076853Y-39138100D01*
X44012703Y-38983228D01*
X43980000Y-38818816D01*
X43980000Y-38651184D01*
X44012703Y-38486772D01*
X44076853Y-38331900D01*
X44169985Y-38192519D01*
X44288519Y-38073985D01*
X44427900Y-37980853D01*
X44582772Y-37916703D01*
X44747184Y-37884000D01*
X44914816Y-37884000D01*
X45079228Y-37916703D01*
X45079228Y-37916703D01*
G37*
G36*
X48889228Y-37916703D02*
G01*
X49044100Y-37980853D01*
X49183481Y-38073985D01*
X49302015Y-38192519D01*
X49395147Y-38331900D01*
X49459297Y-38486772D01*
X49492000Y-38651184D01*
X49492000Y-38818816D01*
X49459297Y-38983228D01*
X49395147Y-39138100D01*
X49302015Y-39277481D01*
X49183481Y-39396015D01*
X49044100Y-39489147D01*
X48889228Y-39553297D01*
X48724816Y-39586000D01*
X48557184Y-39586000D01*
X48392772Y-39553297D01*
X48237900Y-39489147D01*
X48098519Y-39396015D01*
X47979985Y-39277481D01*
X47886853Y-39138100D01*
X47822703Y-38983228D01*
X47790000Y-38818816D01*
X47790000Y-38651184D01*
X47822703Y-38486772D01*
X47886853Y-38331900D01*
X47979985Y-38192519D01*
X48098519Y-38073985D01*
X48237900Y-37980853D01*
X48392772Y-37916703D01*
X48557184Y-37884000D01*
X48724816Y-37884000D01*
X48889228Y-37916703D01*
X48889228Y-37916703D01*
G37*
G36*
X55157823Y-37896313D02*
G01*
X55318242Y-37944976D01*
X55385361Y-37980852D01*
X55466078Y-38023996D01*
X55595659Y-38130341D01*
X55702004Y-38259922D01*
X55702005Y-38259924D01*
X55781024Y-38407758D01*
X55829687Y-38568177D01*
X55846117Y-38735000D01*
X55829687Y-38901823D01*
X55781024Y-39062242D01*
X55740477Y-39138100D01*
X55702004Y-39210078D01*
X55595659Y-39339659D01*
X55466078Y-39446004D01*
X55466076Y-39446005D01*
X55318242Y-39525024D01*
X55157823Y-39573687D01*
X55032804Y-39586000D01*
X54949196Y-39586000D01*
X54824177Y-39573687D01*
X54663758Y-39525024D01*
X54515924Y-39446005D01*
X54515922Y-39446004D01*
X54386341Y-39339659D01*
X54279996Y-39210078D01*
X54241523Y-39138100D01*
X54200976Y-39062242D01*
X54152313Y-38901823D01*
X54135883Y-38735000D01*
X54152313Y-38568177D01*
X54200976Y-38407758D01*
X54279995Y-38259924D01*
X54279996Y-38259922D01*
X54386341Y-38130341D01*
X54515922Y-38023996D01*
X54596639Y-37980852D01*
X54663758Y-37944976D01*
X54824177Y-37896313D01*
X54949196Y-37884000D01*
X55032804Y-37884000D01*
X55157823Y-37896313D01*
X55157823Y-37896313D01*
G37*
G36*
X28950228Y-37789703D02*
G01*
X29105100Y-37853853D01*
X29244481Y-37946985D01*
X29363015Y-38065519D01*
X29456147Y-38204900D01*
X29520297Y-38359772D01*
X29553000Y-38524184D01*
X29553000Y-38691816D01*
X29520297Y-38856228D01*
X29456147Y-39011100D01*
X29363015Y-39150481D01*
X29244481Y-39269015D01*
X29105100Y-39362147D01*
X28950228Y-39426297D01*
X28785816Y-39459000D01*
X28618184Y-39459000D01*
X28453772Y-39426297D01*
X28298900Y-39362147D01*
X28159519Y-39269015D01*
X28040985Y-39150481D01*
X27947853Y-39011100D01*
X27883703Y-38856228D01*
X27851000Y-38691816D01*
X27851000Y-38524184D01*
X27883703Y-38359772D01*
X27947853Y-38204900D01*
X28040985Y-38065519D01*
X28159519Y-37946985D01*
X28298900Y-37853853D01*
X28453772Y-37789703D01*
X28618184Y-37757000D01*
X28785816Y-37757000D01*
X28950228Y-37789703D01*
X28950228Y-37789703D01*
G37*
G36*
X21584228Y-37789703D02*
G01*
X21739100Y-37853853D01*
X21878481Y-37946985D01*
X21997015Y-38065519D01*
X22090147Y-38204900D01*
X22154297Y-38359772D01*
X22187000Y-38524184D01*
X22187000Y-38691816D01*
X22154297Y-38856228D01*
X22090147Y-39011100D01*
X21997015Y-39150481D01*
X21878481Y-39269015D01*
X21739100Y-39362147D01*
X21584228Y-39426297D01*
X21419816Y-39459000D01*
X21252184Y-39459000D01*
X21087772Y-39426297D01*
X20932900Y-39362147D01*
X20793519Y-39269015D01*
X20674985Y-39150481D01*
X20581853Y-39011100D01*
X20517703Y-38856228D01*
X20485000Y-38691816D01*
X20485000Y-38524184D01*
X20517703Y-38359772D01*
X20581853Y-38204900D01*
X20674985Y-38065519D01*
X20793519Y-37946985D01*
X20932900Y-37853853D01*
X21087772Y-37789703D01*
X21252184Y-37757000D01*
X21419816Y-37757000D01*
X21584228Y-37789703D01*
X21584228Y-37789703D01*
G37*
G36*
X62224228Y-37789703D02*
G01*
X62379100Y-37853853D01*
X62518481Y-37946985D01*
X62637015Y-38065519D01*
X62730147Y-38204900D01*
X62794297Y-38359772D01*
X62827000Y-38524184D01*
X62827000Y-38691816D01*
X62794297Y-38856228D01*
X62730147Y-39011100D01*
X62637015Y-39150481D01*
X62518481Y-39269015D01*
X62379100Y-39362147D01*
X62224228Y-39426297D01*
X62059816Y-39459000D01*
X61892184Y-39459000D01*
X61727772Y-39426297D01*
X61572900Y-39362147D01*
X61433519Y-39269015D01*
X61314985Y-39150481D01*
X61221853Y-39011100D01*
X61157703Y-38856228D01*
X61125000Y-38691816D01*
X61125000Y-38524184D01*
X61157703Y-38359772D01*
X61221853Y-38204900D01*
X61314985Y-38065519D01*
X61433519Y-37946985D01*
X61572900Y-37853853D01*
X61727772Y-37789703D01*
X61892184Y-37757000D01*
X62059816Y-37757000D01*
X62224228Y-37789703D01*
X62224228Y-37789703D01*
G37*
G36*
X91111564Y-34526389D02*
G01*
X91302833Y-34605615D01*
X91302835Y-34605616D01*
X91452292Y-34705480D01*
X91474973Y-34720635D01*
X91621365Y-34867027D01*
X91736385Y-35039167D01*
X91815611Y-35230436D01*
X91856000Y-35433484D01*
X91856000Y-35640516D01*
X91815611Y-35843564D01*
X91736385Y-36034833D01*
X91736384Y-36034835D01*
X91621365Y-36206973D01*
X91474973Y-36353365D01*
X91302835Y-36468384D01*
X91302834Y-36468385D01*
X91302833Y-36468385D01*
X91111564Y-36547611D01*
X90908516Y-36588000D01*
X90701484Y-36588000D01*
X90498436Y-36547611D01*
X90307167Y-36468385D01*
X90307166Y-36468385D01*
X90307165Y-36468384D01*
X90135027Y-36353365D01*
X89988635Y-36206973D01*
X89873616Y-36034835D01*
X89873615Y-36034833D01*
X89794389Y-35843564D01*
X89754000Y-35640516D01*
X89754000Y-35433484D01*
X89794389Y-35230436D01*
X89873615Y-35039167D01*
X89988635Y-34867027D01*
X90135027Y-34720635D01*
X90157708Y-34705480D01*
X90307165Y-34605616D01*
X90307167Y-34605615D01*
X90498436Y-34526389D01*
X90701484Y-34486000D01*
X90908516Y-34486000D01*
X91111564Y-34526389D01*
X91111564Y-34526389D01*
G37*
G36*
X95611564Y-34526389D02*
G01*
X95802833Y-34605615D01*
X95802835Y-34605616D01*
X95952292Y-34705480D01*
X95974973Y-34720635D01*
X96121365Y-34867027D01*
X96236385Y-35039167D01*
X96315611Y-35230436D01*
X96356000Y-35433484D01*
X96356000Y-35640516D01*
X96315611Y-35843564D01*
X96236385Y-36034833D01*
X96236384Y-36034835D01*
X96121365Y-36206973D01*
X95974973Y-36353365D01*
X95802835Y-36468384D01*
X95802834Y-36468385D01*
X95802833Y-36468385D01*
X95611564Y-36547611D01*
X95408516Y-36588000D01*
X95201484Y-36588000D01*
X94998436Y-36547611D01*
X94807167Y-36468385D01*
X94807166Y-36468385D01*
X94807165Y-36468384D01*
X94635027Y-36353365D01*
X94488635Y-36206973D01*
X94373616Y-36034835D01*
X94373615Y-36034833D01*
X94294389Y-35843564D01*
X94254000Y-35640516D01*
X94254000Y-35433484D01*
X94294389Y-35230436D01*
X94373615Y-35039167D01*
X94488635Y-34867027D01*
X94635027Y-34720635D01*
X94657708Y-34705480D01*
X94807165Y-34605616D01*
X94807167Y-34605615D01*
X94998436Y-34526389D01*
X95201484Y-34486000D01*
X95408516Y-34486000D01*
X95611564Y-34526389D01*
X95611564Y-34526389D01*
G37*
G36*
X26283228Y-33344703D02*
G01*
X26438100Y-33408853D01*
X26577481Y-33501985D01*
X26696015Y-33620519D01*
X26789147Y-33759900D01*
X26853297Y-33914772D01*
X26886000Y-34079184D01*
X26886000Y-34246816D01*
X26853297Y-34411228D01*
X26789147Y-34566100D01*
X26696015Y-34705481D01*
X26577481Y-34824015D01*
X26438100Y-34917147D01*
X26283228Y-34981297D01*
X26118816Y-35014000D01*
X25951184Y-35014000D01*
X25786772Y-34981297D01*
X25631900Y-34917147D01*
X25492519Y-34824015D01*
X25373985Y-34705481D01*
X25280853Y-34566100D01*
X25216703Y-34411228D01*
X25184000Y-34246816D01*
X25184000Y-34079184D01*
X25216703Y-33914772D01*
X25280853Y-33759900D01*
X25373985Y-33620519D01*
X25492519Y-33501985D01*
X25631900Y-33408853D01*
X25786772Y-33344703D01*
X25951184Y-33312000D01*
X26118816Y-33312000D01*
X26283228Y-33344703D01*
X26283228Y-33344703D01*
G37*
G36*
X55351642Y-33265781D02*
G01*
X55497414Y-33326162D01*
X55497416Y-33326163D01*
X55628608Y-33413822D01*
X55740178Y-33525392D01*
X55803739Y-33620519D01*
X55827838Y-33656586D01*
X55888219Y-33802358D01*
X55919000Y-33957107D01*
X55919000Y-34114893D01*
X55888219Y-34269642D01*
X55829572Y-34411228D01*
X55827837Y-34415416D01*
X55740178Y-34546608D01*
X55628608Y-34658178D01*
X55497416Y-34745837D01*
X55497415Y-34745838D01*
X55497414Y-34745838D01*
X55351642Y-34806219D01*
X55196893Y-34837000D01*
X55039107Y-34837000D01*
X54884358Y-34806219D01*
X54738586Y-34745838D01*
X54738585Y-34745838D01*
X54738584Y-34745837D01*
X54607392Y-34658178D01*
X54495822Y-34546608D01*
X54408163Y-34415416D01*
X54406428Y-34411228D01*
X54347781Y-34269642D01*
X54317000Y-34114893D01*
X54317000Y-33957107D01*
X54347781Y-33802358D01*
X54408162Y-33656586D01*
X54432261Y-33620519D01*
X54495822Y-33525392D01*
X54607392Y-33413822D01*
X54738584Y-33326163D01*
X54738586Y-33326162D01*
X54884358Y-33265781D01*
X55039107Y-33235000D01*
X55196893Y-33235000D01*
X55351642Y-33265781D01*
X55351642Y-33265781D01*
G37*
G36*
X57891642Y-33265781D02*
G01*
X58037414Y-33326162D01*
X58037416Y-33326163D01*
X58168608Y-33413822D01*
X58280178Y-33525392D01*
X58343739Y-33620519D01*
X58367838Y-33656586D01*
X58428219Y-33802358D01*
X58459000Y-33957107D01*
X58459000Y-34114893D01*
X58428219Y-34269642D01*
X58369572Y-34411228D01*
X58367837Y-34415416D01*
X58280178Y-34546608D01*
X58168608Y-34658178D01*
X58037416Y-34745837D01*
X58037415Y-34745838D01*
X58037414Y-34745838D01*
X57891642Y-34806219D01*
X57736893Y-34837000D01*
X57579107Y-34837000D01*
X57424358Y-34806219D01*
X57278586Y-34745838D01*
X57278585Y-34745838D01*
X57278584Y-34745837D01*
X57147392Y-34658178D01*
X57035822Y-34546608D01*
X56948163Y-34415416D01*
X56946428Y-34411228D01*
X56887781Y-34269642D01*
X56857000Y-34114893D01*
X56857000Y-33957107D01*
X56887781Y-33802358D01*
X56948162Y-33656586D01*
X56972261Y-33620519D01*
X57035822Y-33525392D01*
X57147392Y-33413822D01*
X57278584Y-33326163D01*
X57278586Y-33326162D01*
X57424358Y-33265781D01*
X57579107Y-33235000D01*
X57736893Y-33235000D01*
X57891642Y-33265781D01*
X57891642Y-33265781D01*
G37*
G36*
X60431642Y-33265781D02*
G01*
X60577414Y-33326162D01*
X60577416Y-33326163D01*
X60708608Y-33413822D01*
X60820178Y-33525392D01*
X60883739Y-33620519D01*
X60907838Y-33656586D01*
X60968219Y-33802358D01*
X60999000Y-33957107D01*
X60999000Y-34114893D01*
X60968219Y-34269642D01*
X60909572Y-34411228D01*
X60907837Y-34415416D01*
X60820178Y-34546608D01*
X60708608Y-34658178D01*
X60577416Y-34745837D01*
X60577415Y-34745838D01*
X60577414Y-34745838D01*
X60431642Y-34806219D01*
X60276893Y-34837000D01*
X60119107Y-34837000D01*
X59964358Y-34806219D01*
X59818586Y-34745838D01*
X59818585Y-34745838D01*
X59818584Y-34745837D01*
X59687392Y-34658178D01*
X59575822Y-34546608D01*
X59488163Y-34415416D01*
X59486428Y-34411228D01*
X59427781Y-34269642D01*
X59397000Y-34114893D01*
X59397000Y-33957107D01*
X59427781Y-33802358D01*
X59488162Y-33656586D01*
X59512261Y-33620519D01*
X59575822Y-33525392D01*
X59687392Y-33413822D01*
X59818584Y-33326163D01*
X59818586Y-33326162D01*
X59964358Y-33265781D01*
X60119107Y-33235000D01*
X60276893Y-33235000D01*
X60431642Y-33265781D01*
X60431642Y-33265781D01*
G37*
G36*
X62971642Y-33265781D02*
G01*
X63117414Y-33326162D01*
X63117416Y-33326163D01*
X63248608Y-33413822D01*
X63360178Y-33525392D01*
X63423739Y-33620519D01*
X63447838Y-33656586D01*
X63508219Y-33802358D01*
X63539000Y-33957107D01*
X63539000Y-34114893D01*
X63508219Y-34269642D01*
X63449572Y-34411228D01*
X63447837Y-34415416D01*
X63360178Y-34546608D01*
X63248608Y-34658178D01*
X63117416Y-34745837D01*
X63117415Y-34745838D01*
X63117414Y-34745838D01*
X62971642Y-34806219D01*
X62816893Y-34837000D01*
X62659107Y-34837000D01*
X62504358Y-34806219D01*
X62358586Y-34745838D01*
X62358585Y-34745838D01*
X62358584Y-34745837D01*
X62227392Y-34658178D01*
X62115822Y-34546608D01*
X62028163Y-34415416D01*
X62026428Y-34411228D01*
X61967781Y-34269642D01*
X61937000Y-34114893D01*
X61937000Y-33957107D01*
X61967781Y-33802358D01*
X62028162Y-33656586D01*
X62052261Y-33620519D01*
X62115822Y-33525392D01*
X62227392Y-33413822D01*
X62358584Y-33326163D01*
X62358586Y-33326162D01*
X62504358Y-33265781D01*
X62659107Y-33235000D01*
X62816893Y-33235000D01*
X62971642Y-33265781D01*
X62971642Y-33265781D01*
G37*
G36*
X50839000Y-34837000D02*
G01*
X49237000Y-34837000D01*
X49237000Y-33235000D01*
X50839000Y-33235000D01*
X50839000Y-34837000D01*
X50839000Y-34837000D01*
G37*
G36*
X52811642Y-33265781D02*
G01*
X52957414Y-33326162D01*
X52957416Y-33326163D01*
X53088608Y-33413822D01*
X53200178Y-33525392D01*
X53263739Y-33620519D01*
X53287838Y-33656586D01*
X53348219Y-33802358D01*
X53379000Y-33957107D01*
X53379000Y-34114893D01*
X53348219Y-34269642D01*
X53289572Y-34411228D01*
X53287837Y-34415416D01*
X53200178Y-34546608D01*
X53088608Y-34658178D01*
X52957416Y-34745837D01*
X52957415Y-34745838D01*
X52957414Y-34745838D01*
X52811642Y-34806219D01*
X52656893Y-34837000D01*
X52499107Y-34837000D01*
X52344358Y-34806219D01*
X52198586Y-34745838D01*
X52198585Y-34745838D01*
X52198584Y-34745837D01*
X52067392Y-34658178D01*
X51955822Y-34546608D01*
X51868163Y-34415416D01*
X51866428Y-34411228D01*
X51807781Y-34269642D01*
X51777000Y-34114893D01*
X51777000Y-33957107D01*
X51807781Y-33802358D01*
X51868162Y-33656586D01*
X51892261Y-33620519D01*
X51955822Y-33525392D01*
X52067392Y-33413822D01*
X52198584Y-33326163D01*
X52198586Y-33326162D01*
X52344358Y-33265781D01*
X52499107Y-33235000D01*
X52656893Y-33235000D01*
X52811642Y-33265781D01*
X52811642Y-33265781D01*
G37*
G36*
X21673916Y-31055334D02*
G01*
X21782492Y-31088271D01*
X21782495Y-31088272D01*
X21813478Y-31104833D01*
X21882557Y-31141756D01*
X21970264Y-31213736D01*
X22042244Y-31301443D01*
X22076429Y-31365399D01*
X22095728Y-31401505D01*
X22095729Y-31401508D01*
X22128666Y-31510084D01*
X22139787Y-31623000D01*
X22128666Y-31735916D01*
X22095729Y-31844492D01*
X22095728Y-31844495D01*
X22076429Y-31880601D01*
X22042244Y-31944557D01*
X21970264Y-32032264D01*
X21882557Y-32104244D01*
X21801141Y-32147761D01*
X21780766Y-32161375D01*
X21763439Y-32178702D01*
X21749826Y-32199076D01*
X21740448Y-32221715D01*
X21735668Y-32245748D01*
X21735668Y-32270252D01*
X21740448Y-32294285D01*
X21749826Y-32316924D01*
X21763440Y-32337299D01*
X21780767Y-32354626D01*
X21801141Y-32368239D01*
X21882557Y-32411756D01*
X21970264Y-32483736D01*
X22042244Y-32571443D01*
X22076429Y-32635399D01*
X22095728Y-32671505D01*
X22095729Y-32671508D01*
X22128666Y-32780084D01*
X22139787Y-32893000D01*
X22128666Y-33005916D01*
X22095729Y-33114492D01*
X22095728Y-33114495D01*
X22076429Y-33150601D01*
X22042244Y-33214557D01*
X21970264Y-33302264D01*
X21893354Y-33365383D01*
X21876035Y-33382702D01*
X21862421Y-33403077D01*
X21853043Y-33425716D01*
X21848263Y-33449749D01*
X21848263Y-33474253D01*
X21853043Y-33498286D01*
X21862421Y-33520925D01*
X21876034Y-33541299D01*
X21893361Y-33558626D01*
X21913736Y-33572240D01*
X21936375Y-33581618D01*
X21960408Y-33586398D01*
X21972660Y-33587000D01*
X22137000Y-33587000D01*
X22137000Y-34739000D01*
X20535000Y-34739000D01*
X20535000Y-33587000D01*
X20699340Y-33587000D01*
X20723726Y-33584598D01*
X20747175Y-33577485D01*
X20768786Y-33565934D01*
X20787728Y-33550389D01*
X20803273Y-33531447D01*
X20814824Y-33509836D01*
X20821937Y-33486387D01*
X20824339Y-33462001D01*
X20821937Y-33437615D01*
X20814824Y-33414166D01*
X20803273Y-33392555D01*
X20787728Y-33373613D01*
X20778655Y-33365391D01*
X20701736Y-33302264D01*
X20629756Y-33214557D01*
X20595571Y-33150601D01*
X20576272Y-33114495D01*
X20576271Y-33114492D01*
X20543334Y-33005916D01*
X20532213Y-32893000D01*
X20543334Y-32780084D01*
X20576271Y-32671508D01*
X20576272Y-32671505D01*
X20595571Y-32635399D01*
X20629756Y-32571443D01*
X20701736Y-32483736D01*
X20789443Y-32411756D01*
X20870859Y-32368239D01*
X20891234Y-32354625D01*
X20908561Y-32337298D01*
X20922174Y-32316924D01*
X20931552Y-32294285D01*
X20936332Y-32270252D01*
X20936332Y-32245748D01*
X20931552Y-32221715D01*
X20922174Y-32199076D01*
X20908560Y-32178701D01*
X20891233Y-32161374D01*
X20870859Y-32147761D01*
X20789443Y-32104244D01*
X20701736Y-32032264D01*
X20629756Y-31944557D01*
X20595571Y-31880601D01*
X20576272Y-31844495D01*
X20576271Y-31844492D01*
X20543334Y-31735916D01*
X20532213Y-31623000D01*
X20543334Y-31510084D01*
X20576271Y-31401508D01*
X20576272Y-31401505D01*
X20595571Y-31365399D01*
X20629756Y-31301443D01*
X20701736Y-31213736D01*
X20789443Y-31141756D01*
X20858522Y-31104833D01*
X20889505Y-31088272D01*
X20889508Y-31088271D01*
X20998084Y-31055334D01*
X21082702Y-31047000D01*
X21589298Y-31047000D01*
X21673916Y-31055334D01*
X21673916Y-31055334D01*
G37*
G36*
X26283228Y-30844703D02*
G01*
X26438100Y-30908853D01*
X26577481Y-31001985D01*
X26696015Y-31120519D01*
X26789147Y-31259900D01*
X26853297Y-31414772D01*
X26886000Y-31579184D01*
X26886000Y-31746816D01*
X26853297Y-31911228D01*
X26789147Y-32066100D01*
X26696015Y-32205481D01*
X26577481Y-32324015D01*
X26438100Y-32417147D01*
X26283228Y-32481297D01*
X26118816Y-32514000D01*
X25951184Y-32514000D01*
X25786772Y-32481297D01*
X25631900Y-32417147D01*
X25492519Y-32324015D01*
X25373985Y-32205481D01*
X25280853Y-32066100D01*
X25216703Y-31911228D01*
X25184000Y-31746816D01*
X25184000Y-31579184D01*
X25216703Y-31414772D01*
X25280853Y-31259900D01*
X25373985Y-31120519D01*
X25492519Y-31001985D01*
X25631900Y-30908853D01*
X25786772Y-30844703D01*
X25951184Y-30812000D01*
X26118816Y-30812000D01*
X26283228Y-30844703D01*
X26283228Y-30844703D01*
G37*
G36*
X95611564Y-29596389D02*
G01*
X95802833Y-29675615D01*
X95802835Y-29675616D01*
X95974973Y-29790635D01*
X96121365Y-29937027D01*
X96236385Y-30109167D01*
X96315611Y-30300436D01*
X96356000Y-30503484D01*
X96356000Y-30710516D01*
X96315611Y-30913564D01*
X96243245Y-31088271D01*
X96236384Y-31104835D01*
X96121365Y-31276973D01*
X95974973Y-31423365D01*
X95802835Y-31538384D01*
X95802834Y-31538385D01*
X95802833Y-31538385D01*
X95611564Y-31617611D01*
X95408516Y-31658000D01*
X95201484Y-31658000D01*
X94998436Y-31617611D01*
X94807167Y-31538385D01*
X94807166Y-31538385D01*
X94807165Y-31538384D01*
X94635027Y-31423365D01*
X94488635Y-31276973D01*
X94373616Y-31104835D01*
X94366755Y-31088271D01*
X94294389Y-30913564D01*
X94254000Y-30710516D01*
X94254000Y-30503484D01*
X94294389Y-30300436D01*
X94373615Y-30109167D01*
X94488635Y-29937027D01*
X94635027Y-29790635D01*
X94807165Y-29675616D01*
X94807167Y-29675615D01*
X94998436Y-29596389D01*
X95201484Y-29556000D01*
X95408516Y-29556000D01*
X95611564Y-29596389D01*
X95611564Y-29596389D01*
G37*
G36*
X91111564Y-29596389D02*
G01*
X91302833Y-29675615D01*
X91302835Y-29675616D01*
X91474973Y-29790635D01*
X91621365Y-29937027D01*
X91736385Y-30109167D01*
X91815611Y-30300436D01*
X91856000Y-30503484D01*
X91856000Y-30710516D01*
X91815611Y-30913564D01*
X91743245Y-31088271D01*
X91736384Y-31104835D01*
X91621365Y-31276973D01*
X91474973Y-31423365D01*
X91302835Y-31538384D01*
X91302834Y-31538385D01*
X91302833Y-31538385D01*
X91111564Y-31617611D01*
X90908516Y-31658000D01*
X90701484Y-31658000D01*
X90498436Y-31617611D01*
X90307167Y-31538385D01*
X90307166Y-31538385D01*
X90307165Y-31538384D01*
X90135027Y-31423365D01*
X89988635Y-31276973D01*
X89873616Y-31104835D01*
X89866755Y-31088271D01*
X89794389Y-30913564D01*
X89754000Y-30710516D01*
X89754000Y-30503484D01*
X89794389Y-30300436D01*
X89873615Y-30109167D01*
X89988635Y-29937027D01*
X90135027Y-29790635D01*
X90307165Y-29675616D01*
X90307167Y-29675615D01*
X90498436Y-29596389D01*
X90701484Y-29556000D01*
X90908516Y-29556000D01*
X91111564Y-29596389D01*
X91111564Y-29596389D01*
G37*
G36*
X17255442Y-25267518D02*
G01*
X17321627Y-25274037D01*
X17491466Y-25325557D01*
X17647991Y-25409222D01*
X17675880Y-25432110D01*
X17785186Y-25521814D01*
X17868448Y-25623271D01*
X17897778Y-25659009D01*
X17981443Y-25815534D01*
X18032963Y-25985373D01*
X18050359Y-26162000D01*
X18032963Y-26338627D01*
X17981443Y-26508466D01*
X17897778Y-26664991D01*
X17868448Y-26700729D01*
X17785186Y-26802186D01*
X17683729Y-26885448D01*
X17647991Y-26914778D01*
X17491466Y-26998443D01*
X17321627Y-27049963D01*
X17255443Y-27056481D01*
X17189260Y-27063000D01*
X17100740Y-27063000D01*
X17034557Y-27056481D01*
X16968373Y-27049963D01*
X16798534Y-26998443D01*
X16642009Y-26914778D01*
X16606271Y-26885448D01*
X16504814Y-26802186D01*
X16421552Y-26700729D01*
X16392222Y-26664991D01*
X16308557Y-26508466D01*
X16257037Y-26338627D01*
X16239641Y-26162000D01*
X16257037Y-25985373D01*
X16308557Y-25815534D01*
X16392222Y-25659009D01*
X16421552Y-25623271D01*
X16504814Y-25521814D01*
X16614120Y-25432110D01*
X16642009Y-25409222D01*
X16798534Y-25325557D01*
X16968373Y-25274037D01*
X17034558Y-25267518D01*
X17100740Y-25261000D01*
X17189260Y-25261000D01*
X17255442Y-25267518D01*
X17255442Y-25267518D01*
G37*
G36*
X23430890Y-24996017D02*
G01*
X23533175Y-25038385D01*
X23549364Y-25045091D01*
X23655988Y-25116335D01*
X23746665Y-25207012D01*
X23817909Y-25313636D01*
X23866983Y-25432110D01*
X23892000Y-25557882D01*
X23892000Y-25686118D01*
X23866983Y-25811890D01*
X23817909Y-25930364D01*
X23746665Y-26036988D01*
X23655988Y-26127665D01*
X23549364Y-26198909D01*
X23549363Y-26198910D01*
X23549362Y-26198910D01*
X23430890Y-26247983D01*
X23305119Y-26273000D01*
X23176881Y-26273000D01*
X23051110Y-26247983D01*
X22932638Y-26198910D01*
X22932637Y-26198910D01*
X22932636Y-26198909D01*
X22826012Y-26127665D01*
X22735335Y-26036988D01*
X22664091Y-25930364D01*
X22615017Y-25811890D01*
X22590000Y-25686118D01*
X22590000Y-25557882D01*
X22615017Y-25432110D01*
X22664091Y-25313636D01*
X22735335Y-25207012D01*
X22826012Y-25116335D01*
X22932636Y-25045091D01*
X22948826Y-25038385D01*
X23051110Y-24996017D01*
X23176881Y-24971000D01*
X23305119Y-24971000D01*
X23430890Y-24996017D01*
X23430890Y-24996017D01*
G37*
G36*
X95611564Y-23096389D02*
G01*
X95802833Y-23175615D01*
X95802835Y-23175616D01*
X95849822Y-23207012D01*
X95974973Y-23290635D01*
X96121365Y-23437027D01*
X96236385Y-23609167D01*
X96315611Y-23800436D01*
X96356000Y-24003484D01*
X96356000Y-24210516D01*
X96315611Y-24413564D01*
X96270281Y-24523000D01*
X96236384Y-24604835D01*
X96121365Y-24776973D01*
X95974973Y-24923365D01*
X95802835Y-25038384D01*
X95802834Y-25038385D01*
X95802833Y-25038385D01*
X95611564Y-25117611D01*
X95408516Y-25158000D01*
X95201484Y-25158000D01*
X94998436Y-25117611D01*
X94807167Y-25038385D01*
X94807166Y-25038385D01*
X94807165Y-25038384D01*
X94635027Y-24923365D01*
X94488635Y-24776973D01*
X94373616Y-24604835D01*
X94339719Y-24523000D01*
X94294389Y-24413564D01*
X94254000Y-24210516D01*
X94254000Y-24003484D01*
X94294389Y-23800436D01*
X94373615Y-23609167D01*
X94488635Y-23437027D01*
X94635027Y-23290635D01*
X94760178Y-23207012D01*
X94807165Y-23175616D01*
X94807167Y-23175615D01*
X94998436Y-23096389D01*
X95201484Y-23056000D01*
X95408516Y-23056000D01*
X95611564Y-23096389D01*
X95611564Y-23096389D01*
G37*
G36*
X91111564Y-23096389D02*
G01*
X91302833Y-23175615D01*
X91302835Y-23175616D01*
X91349822Y-23207012D01*
X91474973Y-23290635D01*
X91621365Y-23437027D01*
X91736385Y-23609167D01*
X91815611Y-23800436D01*
X91856000Y-24003484D01*
X91856000Y-24210516D01*
X91815611Y-24413564D01*
X91770281Y-24523000D01*
X91736384Y-24604835D01*
X91621365Y-24776973D01*
X91474973Y-24923365D01*
X91302835Y-25038384D01*
X91302834Y-25038385D01*
X91302833Y-25038385D01*
X91111564Y-25117611D01*
X90908516Y-25158000D01*
X90701484Y-25158000D01*
X90498436Y-25117611D01*
X90307167Y-25038385D01*
X90307166Y-25038385D01*
X90307165Y-25038384D01*
X90135027Y-24923365D01*
X89988635Y-24776973D01*
X89873616Y-24604835D01*
X89839719Y-24523000D01*
X89794389Y-24413564D01*
X89754000Y-24210516D01*
X89754000Y-24003484D01*
X89794389Y-23800436D01*
X89873615Y-23609167D01*
X89988635Y-23437027D01*
X90135027Y-23290635D01*
X90260178Y-23207012D01*
X90307165Y-23175616D01*
X90307167Y-23175615D01*
X90498436Y-23096389D01*
X90701484Y-23056000D01*
X90908516Y-23056000D01*
X91111564Y-23096389D01*
X91111564Y-23096389D01*
G37*
G36*
X18046000Y-24523000D02*
G01*
X16244000Y-24523000D01*
X16244000Y-22721000D01*
X18046000Y-22721000D01*
X18046000Y-24523000D01*
X18046000Y-24523000D01*
G37*
G36*
X23430890Y-22996017D02*
G01*
X23549364Y-23045091D01*
X23565690Y-23056000D01*
X23655988Y-23116335D01*
X23746665Y-23207012D01*
X23817910Y-23313638D01*
X23866983Y-23432110D01*
X23892000Y-23557881D01*
X23892000Y-23686119D01*
X23869261Y-23800436D01*
X23866983Y-23811890D01*
X23817909Y-23930364D01*
X23746665Y-24036988D01*
X23655988Y-24127665D01*
X23549364Y-24198909D01*
X23549363Y-24198910D01*
X23549362Y-24198910D01*
X23430890Y-24247983D01*
X23305119Y-24273000D01*
X23176881Y-24273000D01*
X23051110Y-24247983D01*
X22932638Y-24198910D01*
X22932637Y-24198910D01*
X22932636Y-24198909D01*
X22826012Y-24127665D01*
X22735335Y-24036988D01*
X22664091Y-23930364D01*
X22615017Y-23811890D01*
X22612739Y-23800436D01*
X22590000Y-23686119D01*
X22590000Y-23557881D01*
X22615017Y-23432110D01*
X22664090Y-23313638D01*
X22735335Y-23207012D01*
X22826012Y-23116335D01*
X22916310Y-23056000D01*
X22932636Y-23045091D01*
X23051110Y-22996017D01*
X23176881Y-22971000D01*
X23305119Y-22971000D01*
X23430890Y-22996017D01*
X23430890Y-22996017D01*
G37*
G36*
X50271642Y-18025781D02*
G01*
X50379484Y-18070451D01*
X50417416Y-18086163D01*
X50548608Y-18173822D01*
X50660178Y-18285392D01*
X50747837Y-18416584D01*
X50747838Y-18416586D01*
X50808219Y-18562358D01*
X50839000Y-18717107D01*
X50839000Y-18874893D01*
X50808219Y-19029642D01*
X50747838Y-19175414D01*
X50747837Y-19175416D01*
X50660178Y-19306608D01*
X50548608Y-19418178D01*
X50417416Y-19505837D01*
X50417415Y-19505838D01*
X50417414Y-19505838D01*
X50271642Y-19566219D01*
X50116893Y-19597000D01*
X49959107Y-19597000D01*
X49804358Y-19566219D01*
X49658586Y-19505838D01*
X49658585Y-19505838D01*
X49658584Y-19505837D01*
X49527392Y-19418178D01*
X49415822Y-19306608D01*
X49328163Y-19175416D01*
X49328162Y-19175414D01*
X49267781Y-19029642D01*
X49237000Y-18874893D01*
X49237000Y-18717107D01*
X49267781Y-18562358D01*
X49328162Y-18416586D01*
X49328163Y-18416584D01*
X49415822Y-18285392D01*
X49527392Y-18173822D01*
X49658584Y-18086163D01*
X49696516Y-18070451D01*
X49804358Y-18025781D01*
X49959107Y-17995000D01*
X50116893Y-17995000D01*
X50271642Y-18025781D01*
X50271642Y-18025781D01*
G37*
G36*
X62971642Y-18025781D02*
G01*
X63079484Y-18070451D01*
X63117416Y-18086163D01*
X63248608Y-18173822D01*
X63360178Y-18285392D01*
X63447837Y-18416584D01*
X63447838Y-18416586D01*
X63508219Y-18562358D01*
X63539000Y-18717107D01*
X63539000Y-18874893D01*
X63508219Y-19029642D01*
X63447838Y-19175414D01*
X63447837Y-19175416D01*
X63360178Y-19306608D01*
X63248608Y-19418178D01*
X63117416Y-19505837D01*
X63117415Y-19505838D01*
X63117414Y-19505838D01*
X62971642Y-19566219D01*
X62816893Y-19597000D01*
X62659107Y-19597000D01*
X62504358Y-19566219D01*
X62358586Y-19505838D01*
X62358585Y-19505838D01*
X62358584Y-19505837D01*
X62227392Y-19418178D01*
X62115822Y-19306608D01*
X62028163Y-19175416D01*
X62028162Y-19175414D01*
X61967781Y-19029642D01*
X61937000Y-18874893D01*
X61937000Y-18717107D01*
X61967781Y-18562358D01*
X62028162Y-18416586D01*
X62028163Y-18416584D01*
X62115822Y-18285392D01*
X62227392Y-18173822D01*
X62358584Y-18086163D01*
X62396516Y-18070451D01*
X62504358Y-18025781D01*
X62659107Y-17995000D01*
X62816893Y-17995000D01*
X62971642Y-18025781D01*
X62971642Y-18025781D01*
G37*
G36*
X60431642Y-18025781D02*
G01*
X60539484Y-18070451D01*
X60577416Y-18086163D01*
X60708608Y-18173822D01*
X60820178Y-18285392D01*
X60907837Y-18416584D01*
X60907838Y-18416586D01*
X60968219Y-18562358D01*
X60999000Y-18717107D01*
X60999000Y-18874893D01*
X60968219Y-19029642D01*
X60907838Y-19175414D01*
X60907837Y-19175416D01*
X60820178Y-19306608D01*
X60708608Y-19418178D01*
X60577416Y-19505837D01*
X60577415Y-19505838D01*
X60577414Y-19505838D01*
X60431642Y-19566219D01*
X60276893Y-19597000D01*
X60119107Y-19597000D01*
X59964358Y-19566219D01*
X59818586Y-19505838D01*
X59818585Y-19505838D01*
X59818584Y-19505837D01*
X59687392Y-19418178D01*
X59575822Y-19306608D01*
X59488163Y-19175416D01*
X59488162Y-19175414D01*
X59427781Y-19029642D01*
X59397000Y-18874893D01*
X59397000Y-18717107D01*
X59427781Y-18562358D01*
X59488162Y-18416586D01*
X59488163Y-18416584D01*
X59575822Y-18285392D01*
X59687392Y-18173822D01*
X59818584Y-18086163D01*
X59856516Y-18070451D01*
X59964358Y-18025781D01*
X60119107Y-17995000D01*
X60276893Y-17995000D01*
X60431642Y-18025781D01*
X60431642Y-18025781D01*
G37*
G36*
X52811642Y-18025781D02*
G01*
X52919484Y-18070451D01*
X52957416Y-18086163D01*
X53088608Y-18173822D01*
X53200178Y-18285392D01*
X53287837Y-18416584D01*
X53287838Y-18416586D01*
X53348219Y-18562358D01*
X53379000Y-18717107D01*
X53379000Y-18874893D01*
X53348219Y-19029642D01*
X53287838Y-19175414D01*
X53287837Y-19175416D01*
X53200178Y-19306608D01*
X53088608Y-19418178D01*
X52957416Y-19505837D01*
X52957415Y-19505838D01*
X52957414Y-19505838D01*
X52811642Y-19566219D01*
X52656893Y-19597000D01*
X52499107Y-19597000D01*
X52344358Y-19566219D01*
X52198586Y-19505838D01*
X52198585Y-19505838D01*
X52198584Y-19505837D01*
X52067392Y-19418178D01*
X51955822Y-19306608D01*
X51868163Y-19175416D01*
X51868162Y-19175414D01*
X51807781Y-19029642D01*
X51777000Y-18874893D01*
X51777000Y-18717107D01*
X51807781Y-18562358D01*
X51868162Y-18416586D01*
X51868163Y-18416584D01*
X51955822Y-18285392D01*
X52067392Y-18173822D01*
X52198584Y-18086163D01*
X52236516Y-18070451D01*
X52344358Y-18025781D01*
X52499107Y-17995000D01*
X52656893Y-17995000D01*
X52811642Y-18025781D01*
X52811642Y-18025781D01*
G37*
G36*
X55351642Y-18025781D02*
G01*
X55459484Y-18070451D01*
X55497416Y-18086163D01*
X55628608Y-18173822D01*
X55740178Y-18285392D01*
X55827837Y-18416584D01*
X55827838Y-18416586D01*
X55888219Y-18562358D01*
X55919000Y-18717107D01*
X55919000Y-18874893D01*
X55888219Y-19029642D01*
X55827838Y-19175414D01*
X55827837Y-19175416D01*
X55740178Y-19306608D01*
X55628608Y-19418178D01*
X55497416Y-19505837D01*
X55497415Y-19505838D01*
X55497414Y-19505838D01*
X55351642Y-19566219D01*
X55196893Y-19597000D01*
X55039107Y-19597000D01*
X54884358Y-19566219D01*
X54738586Y-19505838D01*
X54738585Y-19505838D01*
X54738584Y-19505837D01*
X54607392Y-19418178D01*
X54495822Y-19306608D01*
X54408163Y-19175416D01*
X54408162Y-19175414D01*
X54347781Y-19029642D01*
X54317000Y-18874893D01*
X54317000Y-18717107D01*
X54347781Y-18562358D01*
X54408162Y-18416586D01*
X54408163Y-18416584D01*
X54495822Y-18285392D01*
X54607392Y-18173822D01*
X54738584Y-18086163D01*
X54776516Y-18070451D01*
X54884358Y-18025781D01*
X55039107Y-17995000D01*
X55196893Y-17995000D01*
X55351642Y-18025781D01*
X55351642Y-18025781D01*
G37*
G36*
X57891642Y-18025781D02*
G01*
X57999484Y-18070451D01*
X58037416Y-18086163D01*
X58168608Y-18173822D01*
X58280178Y-18285392D01*
X58367837Y-18416584D01*
X58367838Y-18416586D01*
X58428219Y-18562358D01*
X58459000Y-18717107D01*
X58459000Y-18874893D01*
X58428219Y-19029642D01*
X58367838Y-19175414D01*
X58367837Y-19175416D01*
X58280178Y-19306608D01*
X58168608Y-19418178D01*
X58037416Y-19505837D01*
X58037415Y-19505838D01*
X58037414Y-19505838D01*
X57891642Y-19566219D01*
X57736893Y-19597000D01*
X57579107Y-19597000D01*
X57424358Y-19566219D01*
X57278586Y-19505838D01*
X57278585Y-19505838D01*
X57278584Y-19505837D01*
X57147392Y-19418178D01*
X57035822Y-19306608D01*
X56948163Y-19175416D01*
X56948162Y-19175414D01*
X56887781Y-19029642D01*
X56857000Y-18874893D01*
X56857000Y-18717107D01*
X56887781Y-18562358D01*
X56948162Y-18416586D01*
X56948163Y-18416584D01*
X57035822Y-18285392D01*
X57147392Y-18173822D01*
X57278584Y-18086163D01*
X57316516Y-18070451D01*
X57424358Y-18025781D01*
X57579107Y-17995000D01*
X57736893Y-17995000D01*
X57891642Y-18025781D01*
X57891642Y-18025781D01*
G37*
G36*
X17393256Y-15409298D02*
G01*
X17499579Y-15430447D01*
X17800042Y-15554903D01*
X18070451Y-15735585D01*
X18300415Y-15965549D01*
X18481097Y-16235958D01*
X18605553Y-16536421D01*
X18669000Y-16855391D01*
X18669000Y-17180609D01*
X18605553Y-17499579D01*
X18481097Y-17800042D01*
X18300415Y-18070451D01*
X18070451Y-18300415D01*
X17800042Y-18481097D01*
X17499579Y-18605553D01*
X17393256Y-18626702D01*
X17180611Y-18669000D01*
X16855389Y-18669000D01*
X16642744Y-18626702D01*
X16536421Y-18605553D01*
X16235958Y-18481097D01*
X15965549Y-18300415D01*
X15735585Y-18070451D01*
X15554903Y-17800042D01*
X15430447Y-17499579D01*
X15367000Y-17180609D01*
X15367000Y-16855391D01*
X15430447Y-16536421D01*
X15554903Y-16235958D01*
X15735585Y-15965549D01*
X15965549Y-15735585D01*
X16235958Y-15554903D01*
X16536421Y-15430447D01*
X16642744Y-15409298D01*
X16855389Y-15367000D01*
X17180611Y-15367000D01*
X17393256Y-15409298D01*
X17393256Y-15409298D01*
G37*
G36*
X95244256Y-15409298D02*
G01*
X95350579Y-15430447D01*
X95651042Y-15554903D01*
X95921451Y-15735585D01*
X96151415Y-15965549D01*
X96332097Y-16235958D01*
X96456553Y-16536421D01*
X96520000Y-16855391D01*
X96520000Y-17180609D01*
X96456553Y-17499579D01*
X96332097Y-17800042D01*
X96151415Y-18070451D01*
X95921451Y-18300415D01*
X95651042Y-18481097D01*
X95350579Y-18605553D01*
X95244256Y-18626702D01*
X95031611Y-18669000D01*
X94706389Y-18669000D01*
X94493744Y-18626702D01*
X94387421Y-18605553D01*
X94086958Y-18481097D01*
X93816549Y-18300415D01*
X93586585Y-18070451D01*
X93405903Y-17800042D01*
X93281447Y-17499579D01*
X93218000Y-17180609D01*
X93218000Y-16855391D01*
X93281447Y-16536421D01*
X93405903Y-16235958D01*
X93586585Y-15965549D01*
X93816549Y-15735585D01*
X94086958Y-15554903D01*
X94387421Y-15430447D01*
X94493744Y-15409298D01*
X94706389Y-15367000D01*
X95031611Y-15367000D01*
X95244256Y-15409298D01*
X95244256Y-15409298D01*
G37*
M02*
